<?xml version="1.0" encoding="UTF-8" standalone="no"?>
<svg
   id="Layer_1"
   data-name="Layer 1"
   viewBox="0 0 24 24"
   width="512"
   height="512"
   version="1.1"
   sodipodi:docname="ramp-loading_9245189.svg"
   inkscape:version="1.3 (1:1.3+202307231459+0e150ed6c4)"
   xmlns:inkscape="http://www.inkscape.org/namespaces/inkscape"
   xmlns:sodipodi="http://sodipodi.sourceforge.net/DTD/sodipodi-0.dtd"
   xmlns="http://www.w3.org/2000/svg"
   xmlns:svg="http://www.w3.org/2000/svg">
  <defs
     id="defs1" />
  <sodipodi:namedview
     id="namedview1"
     pagecolor="#ffffff"
     bordercolor="#000000"
     borderopacity="0.25"
     inkscape:showpageshadow="2"
     inkscape:pageopacity="0.0"
     inkscape:pagecheckerboard="0"
     inkscape:deskcolor="#d1d1d1"
     inkscape:zoom="0.4609375"
     inkscape:cx="256"
     inkscape:cy="256"
     inkscape:window-width="1280"
     inkscape:window-height="656"
     inkscape:window-x="0"
     inkscape:window-y="27"
     inkscape:window-maximized="1"
     inkscape:current-layer="Layer_1" />
  <path
     d="M 15.824,22 H 3 C 1.346,22 0,20.654 0,19 V 5 C 0,3.346 1.346,2 3,2 h 12.824 l -4,2 H 3 C 2.449,4 2,4.448 2,5 v 14 c 0,0.552 0.449,1 1,1 h 8.824 z M 22.577,2.45 C 21.686,1.9 20.595,1.85 19.658,2.319 L 12,6.148 v 11.704 l 7.658,3.829 C 20.595,22.15 21.686,22.1 22.577,21.55 23.468,20.999 24,20.045 24,18.997 V 5.003 C 24,3.955 23.468,3.001 22.577,2.45 Z M 14,7.385 20.553,4.109 C 21.003,3.883 21.384,4.064 21.526,4.153 21.669,4.241 22,4.5 22,5.004 v 13.993 c 0,0.504 -0.332,0.763 -0.474,0.851 -0.143,0.089 -0.523,0.27 -0.973,0.044 L 14,16.616 v -9.23 z"
     id="path1" />
</svg>
