<svg version="1.1" viewBox="0 0 1733.3 533.33" xml:space="preserve" xmlns="http://www.w3.org/2000/svg"><defs><linearGradient id="linearGradient10" x1="-.51585" x2="4.7596" y1="2.3563" y2="2.4056" gradientTransform="matrix(.99999 0 0 .99999 216.43 211.14)" gradientUnits="userSpaceOnUse"><stop offset=".77106"/><stop stop-opacity=".2" offset=".9999"/><stop stop-opacity="0" offset="1"/></linearGradient></defs><rect x="-4.1" y="-3.335" width="1741.5" height="540" stroke-miterlimit="50" stroke-width="0" style="font-variation-settings:'wdth' 75, 'wght' 573"/><g transform="matrix(.49078 0 0 .49078 366.67 135.79)"><g transform="matrix(42.037 0 0 42.037 -9097.9 -8709)"><g fill="#d8d9de"><path d="m221.18 211.73-2.5161 0.85007-0.0202 1.9446 2.529 0.81596a0.61912 0.61912 0 0 0 8e-3 -0.0625v-3.5243a0.61912 0.61912 0 0 0-1e-3 -0.0238z" stroke-width=".99999" style="font-variation-settings:'wght' 700"/><path d="m220.82 215.84-2.8122-0.86661-0.01-2.7466 2.9156-0.98649a0.61912 0.61912 0 0 0-0.34365-0.10439h-3.5243a0.61912 0.61912 0 0 0-0.61908 0.61908v3.5243a0.61912 0.61912 0 0 0 0.61908 0.61908h3.5243a0.61912 0.61912 0 0 0 0.25011-0.0584z" style="font-variation-settings:'wght' 700"/></g><path d="m220.91 211.24a0.61912 0.61912 0 0 0-5.2e-4 0l-2.9156 0.98649 0.01 2.7466 2.8122 0.86661a0.61912 0.61912 0 0 0 0.3607-0.49816l-2.529-0.81596 0.0202-1.9446 2.5161-0.85007a0.61912 0.61912 0 0 0-0.27389-0.49093z" fill="url(#linearGradient10)" stroke-width=".99999" style="font-variation-settings:'wght' 700"/></g><path d="m371.29 171.87v189.58h-33.854v-189.58zm47.917 0v28.516h-128.91v-28.516zm128.13 78.125v28.385h-79.037v-28.385zm-70.443-78.125v189.58h-33.984v-189.58zm96.224 0v189.58h-33.724v-189.58zm69.401 0v189.58h-33.854v-189.58zm35.156 0h58.594q18.88 0 32.031 6.5104t20.052 19.271q7.0313 12.63 7.0313 31.38 0 14.714-4.2969 25.521-4.1667 10.807-11.979 18.099-7.8125 7.2917-18.75 11.458l-10.156 5.7292h-48.828l-0.1302-28.385h34.245q8.724 0 14.453-3.776 5.7292-3.9063 8.5938-10.677 2.8646-6.901 2.8646-15.755 0-9.5052-2.6042-16.406-2.474-7.0313-8.0729-10.677-5.4688-3.776-14.453-3.776h-24.609v161.07h-33.984zm87.5 189.58-35.547-84.896 35.547-0.13021 36.458 83.333v1.6927zm105.86 0h-33.073l0.26041-28.385h32.813q14.714 0 23.307-5.3385 8.5938-5.3386 12.24-16.667 3.776-11.328 3.776-29.297v-30.339q0-13.672-2.0833-23.438-2.0833-9.7656-6.6406-15.755-4.4271-6.1198-11.719-8.9844-7.2917-2.8646-17.969-2.8646h-34.635v-28.516h34.635q16.406 0 29.688 5.3386 13.281 5.2083 22.786 15.365t14.583 25 5.0781 34.115v30.078q0 19.271-5.0781 34.115t-14.714 25q-9.5052 10.026-22.917 15.365-13.411 5.2083-30.339 5.2083zm-13.672-189.58v189.58h-33.984v-189.58zm240.76 105.21h-38.672l-0.2604-25.521h33.854q7.9427 0 13.281-2.8646 5.3385-2.9948 8.0729-8.724t2.7344-13.802q0-9.2448-2.474-14.844-2.4739-5.7292-7.8125-8.3333-5.2083-2.6042-13.542-2.6042h-23.307v161.07h-33.984v-189.58h57.292q13.542 0 24.219 3.125 10.807 2.9948 18.229 9.375 7.5521 6.3802 11.458 16.016 4.0364 9.6354 4.0364 22.917 0 11.719-4.9479 21.484-4.8177 9.7656-14.714 16.016-9.7656 6.1198-24.609 7.1615zm-1.1719 84.375h-48.047l14.714-28.385h33.333q8.0729 0 13.151-3.3854 5.2084-3.5156 7.6823-9.6354 2.6042-6.25 2.6042-14.323 0-8.8542-2.2135-15.234-2.2136-6.5104-7.0313-9.8958-4.8177-3.5156-13.021-3.5156h-32.162l0.2604-25.521h40.365l7.9427 9.8958q14.193 0 22.917 6.3802 8.8542 6.3802 12.76 16.536 4.0364 10.156 4.0364 21.615 0 18.099-6.7708 30.469-6.6407 12.37-19.531 18.75-12.76 6.25-30.99 6.25zm87.63-189.58h58.594q18.88 0 32.031 6.5104t20.052 19.271q7.0313 12.63 7.0313 31.38 0 14.714-4.2969 25.521-4.1667 10.807-11.979 18.099-7.8125 7.2917-18.75 11.458l-10.156 5.7292h-48.828l-0.1302-28.385h34.245q8.7239 0 14.453-3.776 5.7292-3.9063 8.5938-10.677 2.8646-6.901 2.8646-15.755 0-9.5052-2.6042-16.406-2.474-7.0313-8.0729-10.677-5.4688-3.776-14.453-3.776h-24.609v161.07h-33.984zm87.5 189.58-35.547-84.896 35.547-0.13021 36.458 83.333v1.6927zm124.87-160.68-44.141 160.68h-35.547l59.766-189.58h22.266zm34.896 160.68-44.141-160.68-2.7344-28.906h22.526l60.156 189.58zm1.0416-70.573v28.385h-87.24v-28.385zm144.55 8.2031h33.854q-0.9114 20.833-8.4635 35.417-7.5521 14.453-21.615 22.005-14.063 7.5521-34.115 7.5521-15.365 0-27.474-5.3385-11.979-5.4688-20.443-15.755-8.3333-10.417-12.76-25.391-4.2969-14.974-4.2969-34.375v-33.073q0-19.271 4.5573-34.375t13.021-25.391q8.4636-10.417 20.703-15.755t27.604-5.3386q20.052 0 33.724 7.6823 13.672 7.5521 20.964 22.266 7.4219 14.714 8.7239 35.938h-33.854q-0.5208-14.063-3.5156-22.266-2.9948-8.2031-9.2448-11.719-6.25-3.6458-16.797-3.6458-8.3333 0-14.453 3.125-6.1198 3.125-10.026 9.5052-3.9063 6.3802-5.7292 16.276t-1.8229 23.438v33.333q0 13.151 1.5625 23.047 1.5625 9.7656 5.0781 16.406 3.6459 6.5104 9.5053 9.8958 5.9896 3.2552 14.974 3.2552 10.547 0 16.927-3.2552 6.5105-3.2552 9.6355-11.198 3.125-8.0729 3.776-22.266zm94.011-127.21v189.58h-33.984v-189.58zm94.531 0-62.5 92.448-37.891 46.615-6.3802-34.896 25.521-39.453 40.104-64.714zm-38.151 189.58-45.573-88.672 23.958-23.307 61.849 111.98zm163.28-28.385v28.385h-82.292v-28.385zm-72.787-161.2v189.58h-33.984v-189.58zm61.719 78.125v27.734h-71.224v-27.734zm10.547-78.125v28.516h-81.771v-28.516zm99.089 0v189.58h-33.854v-189.58zm47.917 0v28.516h-128.91v-28.516z" fill="#d8d9de" stroke-miterlimit="50" stroke-width="0" style="font-variation-settings:'wdth' 75, 'wght' 573" aria-label="THIRD BRACKET"/></g></svg>
