<svg width="262" height="50" fill="#000000" version="1.1" viewBox="0 0 261.91 49.983" xml:space="preserve" xmlns="http://www.w3.org/2000/svg"><g>

<rect x="-491.18" y="677.24" width="437.14" height="154.15" fill="#000" stroke="#fff" stroke-linejoin="round" stroke-miterlimit="0" stroke-width="4.9983"/><rect x="-299.46" y="726.55" width="138.94" height="120.59" fill="#000" stroke="#fff" stroke-linejoin="round" stroke-miterlimit="0" stroke-width="4.9983"/><rect x="-197.04" y="684.66" width="189.78" height="37.515" fill="#fff" stroke="#000" stroke-miterlimit="10" stroke-width="1.0139"/></g><path transform="translate(22.283 3.8872)" d="m0 0"/><g fill="#fff"><path d="m0 0"/><path d="m304.36 906.51 20.027-25.367a5.1269 5.1269 0 0 1 4.024-1.95h78.772a5.1269 5.1269 0 0 1 5.1269 5.1269v212.28a5.1269 5.1269 0 0 1-5.1269 5.1268h-81.442a5.1269 5.1269 0 0 1-4.1414-2.1047l-18.024-24.7a5.1269 5.1269 0 0 1 4.094-8.1488l67.017-0.6205v-151.34h-66.302zm4.024-1.95h71.429a5.1269 5.1269 0 0 1 5.1268 5.1269v161.55a5.1269 5.1269 89.735 0 1-5.0794 5.1267l-62.124 0.5752 10.609 14.539h73.71v-202.03h-71.161l-18.487 23.417zm-34.213 1.95-20.027-25.367a5.1269 5.1269 0 0 0-4.024-1.95h-78.772a5.1269 5.1269 0 0 0-5.1269 5.1268v212.28a5.1269 5.1269 0 0 0 5.1269 5.1268h81.442a5.1269 5.1269 0 0 0 4.1414-2.1047l18.024-24.7a5.1269 5.1269 0 0 0-4.094-8.1487l-67.017-0.6206v-151.34h66.302zm-4.024-1.95h-71.429a5.1269 5.1269 0 0 0-5.1268 5.1268v161.55a5.1269 5.1269 0.26525 0 0 5.0794 5.1267l62.124 0.5752-10.609 14.539h-73.71v-202.03h71.161l18.487 23.417z"/><path transform="translate(266.06 595.07)" d="m38.294 311.44c4.8624-6.159 11.749-14.882 20.027-25.367 0.45897-0.58136 1.061-1.0844 1.7882-1.4368 0.66122-0.32043 1.422-0.5132 2.2358-0.5132h78.772c0.70326 0 1.3779 0.14164 1.9956 0.4029 0.61015 0.25807 1.1632 0.63234 1.6296 1.0987 0.46203 0.46204 0.83829 1.0139 1.0987 1.6296 0.25872 0.61169 0.40289 1.2859 0.40289 1.9956v212.28c0 0.71031-0.14443 1.3845-0.40289 1.9956-0.2607 0.61636-0.63717 1.1681-1.0987 1.6296-0.46689 0.46689-1.0201 0.84093-1.6296 1.0987-0.61843 0.26157-1.2932 0.40289-1.9956 0.40289h-81.442c-0.7939 0-1.5907-0.18431-2.3228-0.55637-0.69441-0.35291-1.3264-0.8738-1.8186-1.5484-5.8522-8.0198-11.902-16.31-18.024-24.7-0.61351-0.84073-0.927-1.7684-0.98455-2.6896-0.05735-0.91795 0.13962-1.8277 0.54478-2.6341 0.40477-0.80568 1.0168-1.5071 1.7882-2.0094 0.77266-0.50321 1.7039-0.80596 2.7456-0.8156 22.673-0.20993 45.163-0.41817 67.017-0.62051v-151.34h-66.302c-1.6633-3.4324-3.047-6.2876-4.024-8.3037zm0 0c0.977 2.0161 2.3606 4.8713 4.024 8.3037h66.302v151.34c-21.854 0.20234-44.344 0.41058-67.017 0.62051-1.0416 0.01-1.9729 0.31239-2.7456 0.8156-0.77139 0.50238-1.3834 1.2038-1.7882 2.0094-0.40516 0.80644-0.60212 1.7162-0.54478 2.6341 0.05755 0.9212 0.37104 1.8489 0.98455 2.6896 6.1222 8.3896 12.172 16.68 18.024 24.7 0.49225 0.67456 1.1242 1.1954 1.8186 1.5484 0.7321 0.37206 1.5289 0.55637 2.3228 0.55637h81.442c0.70246 0 1.3772-0.14132 1.9956-0.40289 0.60951-0.2578 1.1628-0.63184 1.6296-1.0987 0.46156-0.46156 0.83803-1.0133 1.0987-1.6296 0.25846-0.61109 0.40289-1.2853 0.40289-1.9956v-212.28c0-0.70974-0.14417-1.384-0.40289-1.9957-0.26044-0.61575-0.6367-1.1676-1.0987-1.6296-0.46639-0.46638-1.0195-0.84065-1.6296-1.0987-0.61768-0.26126-1.2924-0.4029-1.9956-0.4029h-78.772c-0.81374 0-1.5746 0.19277-2.2358 0.5132-0.7272 0.3524-1.3292 0.85548-1.7882 1.4368-8.2782 10.486-15.164 19.208-20.027 25.367zm4.024-1.95h71.429c0.68688 0 1.3629 0.13527 1.9956 0.4029 0.59866 0.25321 1.1544 0.62351 1.6296 1.0987 0.45475 0.45476 0.83438 1.0046 1.0987 1.6296 0.25538 0.60379 0.40289 1.2773 0.40289 1.9956v161.55c0 0.70142-0.14094 1.372-0.39809 1.9841-0.25627 0.61003-0.62734 1.1606-1.0868 1.6243-0.45972 0.464-1.0069 0.84003-1.6142 1.1018-0.61013 0.26298-1.2793 0.40997-1.9803 0.41646-21.326 0.19746-42.276 0.39143-62.124 0.5752 1.8295 2.5071 3.6042 4.9392 5.3046 7.2693 1.7004 2.3301 3.4751 4.7622 5.3046 7.2693h73.71v-202.03h-71.161c-6.651 8.4246-12.914 16.357-18.487 23.417-1.6926-3.4927-3.0932-6.3829-4.024-8.3037zm0 0c0.93082 1.9208 2.3314 4.811 4.024 8.3037 5.5736-7.0599 11.836-14.993 18.487-23.417 22.807-1e-5 46.8-1e-5 71.161-1e-5v202.03h-73.71c-1.8295-2.5071-3.6042-4.9392-5.3046-7.2693-1.7004-2.3302-3.4751-4.7622-5.3046-7.2693 19.848-0.18377 40.798-0.37774 62.124-0.5752 0.70098-6e-3 1.3702-0.15348 1.9803-0.41646 0.60728-0.26175 1.1545-0.63778 1.6142-1.1018 0.45944-0.46372 0.83051-1.0143 1.0868-1.6243 0.25716-0.61216 0.3981-1.2827 0.3981-1.9841v-161.55c0-0.71833-0.14751-1.3918-0.40289-1.9956-0.26434-0.62498-0.64397-1.1749-1.0987-1.6296-0.47522-0.47522-1.031-0.84552-1.6296-1.0987-0.63274-0.26763-1.3087-0.4029-1.9956-0.4029h-71.429zm-34.213 1.95c-4.8624-6.159-11.749-14.882-20.027-25.367-0.45897-0.58136-1.061-1.0844-1.7882-1.4368-0.66122-0.32043-1.422-0.51319-2.2358-0.51319h-78.772c-0.70326 0-1.3779 0.14164-1.9956 0.40289-0.61016 0.25807-1.1632 0.63234-1.6296 1.0987-0.46204 0.46204-0.83829 1.0139-1.0987 1.6296-0.25872 0.61169-0.4029 1.2859-0.4029 1.9956v212.28c-2e-6 0.71031 0.14443 1.3845 0.40289 1.9956 0.2607 0.61636 0.63717 1.1681 1.0987 1.6296 0.46689 0.46689 1.0201 0.84093 1.6296 1.0987 0.61842 0.26157 1.2931 0.40289 1.9956 0.40289h81.442c0.79391 0 1.5907-0.18431 2.3228-0.55638 0.69441-0.35291 1.3264-0.8738 1.8186-1.5484 5.8522-8.0198 11.902-16.31 18.024-24.7 0.6135-0.84073 0.92699-1.7684 0.98454-2.6896 0.057347-0.91794-0.13962-1.8277-0.54478-2.6341-0.40477-0.80567-1.0168-1.507-1.7881-2.0094-0.77266-0.50321-1.7039-0.80595-2.7456-0.8156-22.673-0.20993-45.163-0.41817-67.017-0.62052v-151.34h66.302c1.6633-3.4324 3.047-6.2876 4.024-8.3037zm0 0c-0.977 2.0161-2.3606 4.8713-4.024 8.3037h-66.302v151.34c21.854 0.20235 44.344 0.41059 67.017 0.62052 1.0416 0.01 1.9729 0.31239 2.7456 0.8156 0.77139 0.50238 1.3834 1.2038 1.7881 2.0094 0.40516 0.80644 0.60212 1.7162 0.54478 2.6341-0.057551 0.9212-0.37103 1.8489-0.98453 2.6896-6.1222 8.3896-12.172 16.68-18.024 24.7-0.49225 0.67457-1.1242 1.1955-1.8186 1.5484-0.7321 0.37207-1.5289 0.55638-2.3228 0.55638h-81.442c-0.70246 0-1.3772-0.14132-1.9956-0.40289-0.60951-0.2578-1.1627-0.63184-1.6296-1.0987-0.46156-0.46156-0.83804-1.0133-1.0987-1.6296-0.25847-0.61108-0.40289-1.2853-0.40289-1.9956v-212.28c3e-6 -0.70974 0.14418-1.384 0.4029-1.9957 0.26044-0.61574 0.6367-1.1676 1.0987-1.6296 0.46638-0.46638 1.0195-0.84065 1.6296-1.0987 0.61768-0.26125 1.2923-0.40289 1.9956-0.40289h78.772c0.81374 0 1.5746 0.19276 2.2358 0.51319 0.7272 0.3524 1.3292 0.85547 1.7882 1.4368 8.2782 10.486 15.164 19.208 20.027 25.367zm-4.024-1.95h-71.429c-0.68688 0-1.3629 0.13527-1.9956 0.40289-0.59865 0.25321-1.1544 0.62351-1.6296 1.0987-0.45476 0.45476-0.83438 1.0046-1.0987 1.6296-0.25538 0.60379-0.4029 1.2773-0.4029 1.9956v161.55c2e-6 0.70142 0.14094 1.372 0.3981 1.9841 0.25626 0.61003 0.62733 1.1606 1.0868 1.6243 0.45972 0.464 1.0069 0.84003 1.6142 1.1018 0.61013 0.26298 1.2793 0.40997 1.9803 0.41646 21.326 0.19746 42.276 0.39144 62.124 0.57522-1.8295 2.5071-3.6042 4.9392-5.3046 7.2693-1.7004 2.3301-3.4751 4.7622-5.3046 7.2693h-73.71v-202.03h71.161c6.651 8.4246 12.914 16.357 18.487 23.417 1.6926-3.4927 3.0932-6.3829 4.024-8.3037zm0 0c-0.93082 1.9208-2.3314 4.811-4.024 8.3037-5.5736-7.0599-11.836-14.993-18.487-23.417-22.807-1e-5 -46.8-1e-5 -71.161-1e-5v202.03h73.71c1.8295-2.5071 3.6042-4.9392 5.3046-7.2693 1.7004-2.3302 3.4751-4.7622 5.3046-7.2693-19.848-0.18378-40.798-0.37776-62.124-0.57522-0.70098-6e-3 -1.3702-0.15348-1.9803-0.41645-0.60727-0.26175-1.1545-0.63778-1.6142-1.1018-0.45944-0.46372-0.83051-1.0143-1.0868-1.6243-0.25716-0.61215-0.3981-1.2827-0.3981-1.9841v-161.55c3e-6 -0.71833 0.14752-1.3918 0.4029-1.9956 0.26435-0.62498 0.64397-1.1749 1.0987-1.6296 0.47522-0.47522 1.031-0.84552 1.6296-1.0987 0.63274-0.26762 1.3087-0.40289 1.9956-0.40289h71.429z"/></g><path d="m0 0" fill="#000"/><text transform="matrix(-1 0 0 0 91.193 24.991)" x="28.005306" y="48.980698" fill="#ffffff" font-family="Roboto" font-size="68.426px" stroke="#ffffff" stroke-linejoin="round" stroke-miterlimit="0" stroke-width="0" style="font-variant-caps:normal;font-variant-east-asian:normal;font-variant-ligatures:normal;font-variant-numeric:normal;font-variation-settings:'wght' 900" xml:space="preserve"><tspan x="28.005306" y="48.980698">UI</tspan></text><path d="m12.536 26.916h-7.9385l-0.026729-4.9716h7.0297q1.6305 0 2.7531-0.6415 1.1493-0.6415 1.7374-1.8443 0.61477-1.2295 0.61477-2.9669 0-1.9512-0.53458-3.154t-1.6572-1.7641q-1.1226-0.56131-2.8867-0.56131h-5.1052v33.438h-6.5219v-38.917h11.627q2.7264 0 4.8647 0.61477 2.165 0.61477 3.6619 1.9245 1.4968 1.3097 2.2987 3.2877 0.80187 1.9779 0.80187 4.7043 0 2.3789-1.0424 4.3836-1.0157 2.0047-3.0204 3.2609-1.9779 1.2563-4.9181 1.4968zm-0.24056 17.534h-9.8363l2.9936-5.4527h6.8426q1.7374 0 2.86-0.74841 1.1226-0.74841 1.6839-2.0849t0.56131-3.1006q0-1.871-0.48112-3.2609t-1.5503-2.1383q-1.0692-0.74841-2.8333-0.74841h-6.5486l0.053458-4.9716h8.3662l1.4968 1.8978q2.8065 0.05346 4.5707 1.3899 1.7641 1.3097 2.5927 3.3946 0.8286 2.0849 0.8286 4.4637 0 3.7153-1.3899 6.2546-1.3632 2.5125-3.9559 3.8222-2.5927 1.283-6.2546 1.283zm18.069-38.917h11.787q3.849 0 6.5219 1.3365 2.6729 1.3365 4.0628 3.9559 1.4166 2.5927 1.4166 6.4417 0 2.9402-0.88206 5.1587-0.85533 2.2185-2.4858 3.7153-1.6037 1.4968-3.9024 2.3254l-1.9245 1.0424h-9.9432l-0.02673-5.4527h7.003q1.8978 0 3.154-0.8286t1.871-2.2987q0.6415-1.4701 0.6415-3.3144 0-2.0314-0.56131-3.5015-0.56131-1.4968-1.7641-2.2987t-3.1808-0.80187h-5.2656v33.438h-6.5219zm18.149 38.917-7.4307-17.481 6.8159-0.02673 7.591 17.16v0.34748zm24.992-33.545-9.4086 33.545h-6.7892l12.322-38.917h4.2766zm7.4841 33.545-9.4086-33.545-0.45439-5.3725h4.3301l12.376 38.917zm0.1871-14.46v5.4527h-18.122v-5.4527zm29.606 1.7641h6.4951q-0.16037 4.2232-1.7106 7.1901-1.5236 2.9402-4.3836 4.4905-2.8333 1.5503-6.9228 1.5503-3.1006 0-5.5596-1.1226-2.4323-1.1226-4.143-3.2342-1.7107-2.1383-2.6194-5.2122-0.88206-3.0738-0.88206-6.9763v-6.8961q0-3.9024 0.90879-6.9763 0.93552-3.1006 2.6729-5.2122 1.7374-2.1383 4.2232-3.2342 2.5125-1.1226 5.6398-1.1226 4.0628 0 6.8159 1.5503 2.7531 1.5503 4.2499 4.5439 1.5236 2.9936 1.7641 7.3237h-6.5219q-0.13365-2.9402-0.77515-4.6776-0.64149-1.7374-1.9779-2.5125-1.3097-0.77514-3.555-0.77514-1.8176 0-3.154 0.69495-1.3097 0.66822-2.1651 2.0581-0.8286 1.3632-1.2295 3.448-0.40094 2.0581-0.40094 4.838v6.9495q0 2.6729 0.34748 4.731 0.34748 2.0581 1.0959 3.4748 0.77514 1.4166 2.0581 2.165 1.283 0.72168 3.2075 0.72168 2.2987 0 3.6619-0.72168 1.3899-0.72168 2.0314-2.4056 0.66822-1.7107 0.8286-4.6508zm18.684-26.221v38.917h-6.5219v-38.917zm19.459 0-12.99 18.79-7.7514 9.5423-1.2295-6.7892 5.3458-7.9652 8.7404-13.578zm-7.1901 38.917-9.8095-18.363 4.4637-4.6508 13.07 23.014zm33.01-5.4527v5.4527h-16.893v-5.4527zm-15.182-33.465v38.917h-6.5219v-38.917zm12.91 16.198v5.3458h-14.621v-5.3458zm2.1116-16.198v5.4794h-16.732v-5.4794zm20.18 0v38.917h-6.4684v-38.917zm9.9165 0v5.4794h-26.194v-5.4794zm9.2197-5.5329v49.983h48.011v-49.983zm8.5311 10.261h6.8843v19.83c0 1.2006 0.10569 2.1148 0.31913 2.7418 0.22677 0.61363 0.56716 1.0265 1.0207 1.24 0.45355 0.21343 1.0213 0.32034 1.7016 0.32034 0.69367 0 1.2602-0.10691 1.7004-0.32034 0.44021-0.21345 0.76093-0.62634 0.96103-1.24 0.21343-0.62696 0.31912-1.5412 0.31912-2.7418v-19.83h6.8636v19.83c0 2.2678-0.40675 4.1221-1.2205 5.5628-0.81373 1.4274-1.9541 2.4743-3.4215 3.1413-1.4674 0.66699-3.2013 1.0012-5.2022 1.0012-1.9876 0-3.7227-0.33424-5.2034-1.0012-1.4807-0.66698-2.6407-1.714-3.4811-3.1413-0.82706-1.4407-1.2412-3.295-1.2412-5.5628zm24.072 0h6.8234v29.134h-6.8234z" stroke-miterlimit="3.2" stroke-width="0" style="font-variation-settings:'wdth' 75, 'wght' 504"/></svg>
