<?xml version="1.0" encoding="UTF-8" standalone="no"?>
<svg
   width="285.52985"
   height="50.038818"
   fill="#000000"
   version="1.1"
   viewBox="0 0 285.43419 50.021601"
   xml:space="preserve"
   id="svg1"
   sodipodi:docname="bracketui.svg"
   inkscape:dataloss="true"
   xmlns:inkscape="http://www.inkscape.org/namespaces/inkscape"
   xmlns:sodipodi="http://sodipodi.sourceforge.net/DTD/sodipodi-0.dtd"
   xmlns="http://www.w3.org/2000/svg"
   xmlns:svg="http://www.w3.org/2000/svg"><sodipodi:namedview
   id="namedview1"
   pagecolor="#ffffff"
   bordercolor="#000000"
   borderopacity="0.25"
   inkscape:showpageshadow="2"
   inkscape:pageopacity="0.0"
   inkscape:pagecheckerboard="0"
   inkscape:deskcolor="#d1d1d1"
   inkscape:zoom="0.81759227"
   inkscape:cx="267.85968"
   inkscape:cy="225.05105"
   inkscape:window-width="1280"
   inkscape:window-height="656"
   inkscape:window-x="0"
   inkscape:window-y="27"
   inkscape:window-maximized="1"
   inkscape:current-layer="svg1" /><defs
   id="defs1" />&#10;&#10;<path
   id="path1-0"
   d="m 201.78367,13.606454 h 4.7452 V 0.03857419 h 7.41637 V 13.606454 h 11.21259 v 7.4164 h -11.21259 v 18.66461 q 0,1.19508 0.91387,2.07379 0.94902,0.84362 2.24954,0.84362 h 8.04935 v 7.41637 h -8.15467 q -2.88224,0 -5.27242,-1.37084 -2.35502,-1.40599 -3.79616,-3.72585 -1.406,-2.35501 -1.406,-5.20209 v -18.69973 h -4.7452 z m -36.16752,7.52224 q 0,-3.12831 2.28469,-5.30758 2.28471,-2.21443 5.48344,-2.21443 h 15.18434 q 2.91741,0 5.27241,1.44115 2.39018,1.40598 3.79618,3.83126 1.44114,2.39018 1.44114,5.30759 v 1.01935 q 0,2.88224 -1.44114,5.27242 -1.406,2.35502 -3.79618,3.79616 -2.355,1.406 -5.27241,1.406 h -11.3179 v -7.38128 h 11.38864 q 1.26542,0 2.14413,-0.91386 0.91387,-0.91387 0.91387,-2.21444 v -0.9842 q 0,-1.33567 -0.91387,-2.24954 -0.87871,-0.91386 -2.14413,-0.91386 h -15.60614 v 18.69972 q 0,1.19509 0.80846,2.03871 0.80843,0.84359 1.96837,0.84359 h 20.70287 v 7.41637 h -20.70287 q -2.81199,0 -5.13183,-1.37082 -2.31987,-1.40599 -3.6907,-3.72585 -1.37083,-2.35503 -1.37083,-5.16699 z m -108.750472,5.55363 q 0,-3.62036 1.75748,-6.57276 1.79263,-2.95257 4.78034,-4.71005 2.98772,-1.79263 6.60788,-1.79263 h 20.31619 v 36.41489 h -7.41638 v -28.99849 h -12.89981 q -2.35502,0 -4.04217,1.68715 -1.68715,1.65205 -1.68715,4.04217 v 10.0525 q 0,2.39018 1.68715,4.11249 1.68715,1.68716 4.04217,1.68716 h 8.68179 v 7.41638 h -8.68179 q -3.62037,0 -6.60788,-1.75748 -2.98771,-1.79263 -4.78034,-4.78035 -1.75748,-2.98773 -1.75748,-6.60788 z M 130.7864,0.03912419 h 7.41638 V 27.561044 h 2.4956 l 13.18119,-13.95459 h 9.6307 l -16.62581,17.64496 18.10184,18.76993 H 154.61732 L 140.0303,34.977414 h -1.82779 v 15.04393 h -7.41637 z M 93.048858,26.752544 q 0,-3.62036 1.82781,-6.60788 1.82778,-2.98772 4.88576,-4.74518 3.057992,-1.79264 6.783952,-1.79264 h 20.49225 v 7.41638 h -20.49225 q -2.4956,0 -4.28824,1.7223 -1.79263,1.68717 -1.79263,4.11251 v 9.87697 q 0,2.42533 1.75748,4.14766 1.79263,1.7223 4.32339,1.7223 h 20.49225 v 7.41638 h -20.49225 q -3.72585,0 -6.783952,-1.79264 -3.05798,-1.79263 -4.88576,-4.78035 -1.82781,-3.02282 -1.82781,-6.64353 z m -57.11343,-2.95257 q 0,-2.81196 1.40598,-5.13183 1.44116,-2.31987 3.79616,-3.69069 2.39018,-1.37083 5.27244,-1.37083 h 8.11955 v 7.38128 h -8.11955 q -1.26542,0 -2.17929,0.87871 -0.87871,0.84359 -0.87871,2.0738 v 26.08098 h -7.41637 z M 1.2758789e-4,0.03917419 H 7.4165176 V 42.605024 H 20.316318 q 2.39017,0 4.04217,-1.68715 1.68715,-1.68717 1.68715,-4.04217 v -10.05251 q 0,-2.39018 -1.68715,-4.07735 -1.65205,-1.7223 -4.04217,-1.7223 h -8.68178 v -7.41638 h 8.68178 q 3.62036,0 6.60788,1.79264 2.98772,1.75747 4.7452,4.7452 1.79263,2.98772 1.79263,6.60786 v 10.19347 q 0,3.58526 -1.79263,6.57278 -1.75748,2.95256 -4.7452,4.7452 -2.98772,1.75746 -6.60788,1.75746 H 7.4165176 q -3.05799,0 -5.23728,-2.17927 Q -2.2412109e-5,45.663224 -2.2412109e-5,42.605244 Z M 237.42292,-2.2581264e-4 V 49.983024 h 48.01125 V -2.2581264e-4 Z M 245.95403,10.260494 h 6.88433 v 19.8296 c 0,1.20057 0.10569,2.11483 0.31913,2.74179 0.22677,0.61363 0.56716,1.02652 1.02071,1.23997 0.45355,0.21343 1.02127,0.32034 1.70159,0.32034 0.69367,0 1.26017,-0.10691 1.70038,-0.32034 0.44021,-0.21345 0.76093,-0.62634 0.96103,-1.23997 0.21343,-0.62696 0.31912,-1.54122 0.31912,-2.74179 v -19.8296 h 6.86363 v 19.8296 c 0,2.26775 -0.40675,4.12207 -1.22047,5.56276 -0.81373,1.42735 -1.95409,2.47433 -3.42146,3.14131 -1.46737,0.66699 -3.20127,1.00123 -5.20223,1.00123 -1.98762,0 -3.72273,-0.33424 -5.20344,-1.00123 -1.48071,-0.66698 -2.64073,-1.71396 -3.48114,-3.14131 -0.82706,-1.44069 -1.24118,-3.29501 -1.24118,-5.56276 z m 24.07201,0 h 6.82343 v 29.13416 h -6.82343 z" /></svg>
