<?xml version="1.0" encoding="UTF-8" standalone="no"?>
<!-- Uploaded to: SVG Repo, www.svgrepo.com, Generator: SVG Repo Mixer Tools -->

<svg
   width="400"
   height="400"
   viewBox="0 0 12 12"
   version="1.1"
   id="svg2"
   sodipodi:docname="button-svgrepo-com.svg"
   xmlns:inkscape="http://www.inkscape.org/namespaces/inkscape"
   xmlns:sodipodi="http://sodipodi.sourceforge.net/DTD/sodipodi-0.dtd"
   xmlns="http://www.w3.org/2000/svg"
   xmlns:svg="http://www.w3.org/2000/svg">
  <defs
     id="defs2" />
  <sodipodi:namedview
     id="namedview2"
     pagecolor="#ffffff"
     bordercolor="#cccccc"
     borderopacity="1"
     inkscape:showpageshadow="0"
     inkscape:pageopacity="1"
     inkscape:pagecheckerboard="0"
     inkscape:deskcolor="#d1d1d1" />
  <path
     id="path1"
     style="fill:#6b7280;fill-opacity:1;stroke-width:0.260988"
     d="m 5.9780857,1.7816311 a 0.65299195,0.65299195 0 0 0 -0.6524414,0.6525 V 3.4780959 A 0.65299195,0.65299195 0 0 0 5.9780857,4.1305373 H 10.414922 A 0.65299195,0.65299195 0 0 0 11.067364,3.4780959 V 2.4341311 a 0.65299195,0.65299195 0 0 0 -0.652442,-0.6525 z m 0,0.2610351 h 4.4368363 a 0.39200396,0.39200396 0 0 1 0.391465,0.3914649 V 3.4780959 A 0.39200396,0.39200396 0 0 1 10.414922,3.8695607 H 5.9780857 A 0.39200396,0.39200396 0 0 1 5.5866208,3.4780959 V 2.4341311 A 0.39200396,0.39200396 0 0 1 5.9780857,2.0426662 Z M 6.8915622,2.8255959 V 3.0865725 H 9.5014451 V 2.8255959 Z M 3.5766208,4.8026076 a 0.65299195,0.65299195 0 0 0 -0.6525,0.6524414 v 1.0439649 a 0.65299195,0.65299195 0 0 0 0.6525,0.6525 h 4.4367774 a 0.65299195,0.65299195 0 0 0 0.6525,-0.6525 V 5.455049 a 0.65299195,0.65299195 0 0 0 -0.6525,-0.6524414 z m 0,0.2609766 H 8.0133982 A 0.39200396,0.39200396 0 0 1 8.404863,5.455049 V 6.4990139 A 0.39200396,0.39200396 0 0 1 8.0133982,6.8904787 H 3.5766208 A 0.39200396,0.39200396 0 0 1 3.1850974,6.4990139 V 5.455049 A 0.39200396,0.39200396 0 0 1 3.5766208,5.0635842 Z m 0.913418,0.7829883 V 6.107549 H 7.0999216 V 5.8465725 Z M 1.5850779,7.8695217 A 0.65299195,0.65299195 0 0 0 0.93263642,8.5219631 V 9.5659279 A 0.65299195,0.65299195 0 0 0 1.5850779,10.218369 h 4.4367773 a 0.65299195,0.65299195 0 0 0 0.6525,-0.6524411 V 8.5219631 a 0.65299195,0.65299195 0 0 0 -0.6525,-0.6524415 z m 0,0.2609765 H 6.0218552 A 0.39200396,0.39200396 0 0 1 6.4133786,8.5219631 V 9.5659279 A 0.39200396,0.39200396 0 0 1 6.0218552,9.957393 H 1.5850779 A 0.39200396,0.39200396 0 0 1 1.193613,9.5659279 V 8.5219631 A 0.39200396,0.39200396 0 0 1 1.5850779,8.1304982 Z M 2.4985544,8.9134279 V 9.1744631 H 5.1084372 V 8.9134279 Z" />
</svg>
