<svg enable-background="new 0 0 500 500" version="1.1" viewBox="0 0 500 500" xml:space="preserve" xmlns="http://www.w3.org/2000/svg">








<g transform="translate(-604.17 25.985)"><g id="Background_Complete" transform="translate(-2.6918 96.875)">
	<g fill="#ebebeb">
		<rect y="382.4" width="500" height=".25"/>
		<rect x="416.78" y="398.49" width="33.122" height=".25"/>
		<rect x="322.53" y="401.21" width="8.693" height=".25"/>
		<rect x="396.59" y="389.21" width="19.192" height=".25"/>
		<rect x="52.459" y="390.89" width="43.193" height=".25"/>
		<rect x="104.56" y="390.89" width="6.333" height=".25"/>
		<rect x="131.47" y="395.11" width="93.676" height=".25"/>
		<path d="m237.01 337.8h-193.1c-3.147 0-5.708-2.561-5.708-5.708v-271.43c0-3.147 2.561-5.708 5.708-5.708h193.1c3.146 0 5.707 2.561 5.707 5.708v271.43c0 3.147-2.561 5.708-5.707 5.708zm-193.1-282.6c-3.01 0-5.458 2.448-5.458 5.458v271.43c0 3.01 2.448 5.458 5.458 5.458h193.1c3.009 0 5.457-2.448 5.457-5.458v-271.43c0-3.009-2.448-5.458-5.457-5.458h-193.1z"/>
		<path d="m453.31 337.8h-193.1c-3.147 0-5.707-2.561-5.707-5.708v-271.43c0-3.147 2.561-5.708 5.707-5.708h193.1c3.148 0 5.708 2.561 5.708 5.708v271.43c1e-3 3.147-2.56 5.708-5.708 5.708zm-193.1-282.6c-3.009 0-5.457 2.448-5.457 5.458v271.43c0 3.01 2.448 5.458 5.457 5.458h193.1c3.01 0 5.458-2.448 5.458-5.458v-271.43c0-3.009-2.448-5.458-5.458-5.458h-193.1z"/>
	</g>
	<g>
		
			
				
					
						<path d="m85.384 345.82c0.013-0.396 1.344-39.676 7.733-45.889 6.214-6.041 13.347-0.225 13.646 0.025l0.641-0.768c-0.081-0.068-8.13-6.639-14.984 0.025-6.676 6.492-7.982 44.94-8.035 46.574z" fill="#e0e0e0"/>
					
					
						<path d="m84.836 353.54c0.046-0.47 4.367-47.156-12.683-66.724l-0.754 0.656c16.767 19.243 12.487 65.505 12.442 65.97z" fill="#e0e0e0"/>
					
					
						<path d="m85.466 348.61 0.998-0.066c-0.035-0.529-3.337-53.076 9.169-64.579l-0.677-0.736c-12.856 11.826-9.633 63.2-9.49 65.381z" fill="#e0e0e0"/>
					
					
						<path d="m83.838 348.58 1-8e-3c-0.012-1.447-0.413-35.493-10.084-41.035-2.15-1.233-4.255-1.438-6.257-0.61-5.848 2.419-8.746 12.826-8.866 13.268l0.965 0.264c0.028-0.103 2.89-10.377 8.285-12.607 1.701-0.702 3.509-0.517 5.377 0.554 9.177 5.257 9.577 39.825 9.58 40.174z" fill="#e0e0e0"/>
					
					
						<path d="m87.604 348.6 0.998-0.057c-0.015-0.268-1.459-26.904 5.729-36.289 1.742-2.273 3.632-3.357 5.63-3.218 4.71 0.329 8.66 7.222 8.699 7.291l0.871-0.492c-0.171-0.303-4.252-7.429-9.499-7.796-2.347-0.167-4.535 1.049-6.495 3.607-7.413 9.679-5.997 35.845-5.933 36.954z" fill="#e0e0e0"/>
					
					
						<path d="m86.028 352.22c0.196-2.584 4.699-63.402-3.225-74.119l-0.803 0.594c7.705 10.421 3.079 72.82 3.031 73.449z" fill="#e0e0e0"/>
					
				
				
					<path d="m66.342 313.09s4.754 1.752 3.34 5.89c-1.413 4.137-16.445 10.946-16.445 10.946s-6.295-5.77-0.514-15.154c5.783-9.384 13.491-4.642 13.619-1.682z" fill="#ebebeb"/>
				
				
					<path d="m87.007 305.21s-5.062-0.212-5.35 4.151 10.966 16.432 10.966 16.432 8.031-2.903 6.306-13.79c-1.724-10.887-10.664-9.476-11.922-6.793z" fill="#ebebeb"/>
				
				
					<path d="m91.293 284.33s-3.375-0.362-3.103-2.418 13.119-7.346 20.699 1.209c0 0-4.854 8.337-11.87 8.446s-5.726-7.237-5.726-7.237z" fill="#ebebeb"/>
				
				
					<path d="m85.004 279.34s3.056 1.477 3.912-0.411c0.857-1.888-7.249-13.173-18.207-9.922 0 0-0.29 9.643 5.607 13.446 5.898 3.804 8.688-3.113 8.688-3.113z" fill="#ebebeb"/>
				
				
					<path d="m100.98 311.42s-2.329-1.881 0.184-2.798c2.514-0.918 14.847-0.657 14.976 11.56 0 0-14.365 2.387-16.143-2.267-1.778-4.653 0.983-6.495 0.983-6.495z" fill="#ebebeb"/>
				
				
					<path d="m71.691 284.02s2.329-1.881-0.184-2.798c-2.514-0.918-14.847-0.657-14.976 11.56 0 0 14.365 2.387 16.143-2.266 1.777-4.655-0.983-6.496-0.983-6.496z" fill="#ebebeb"/>
				
				
					<path d="m79.285 293.86s0.205-2.286-1.641-1.39-8.275 7.832-1.61 14.415c0 0 8.972-6.645 7.354-10.105-1.617-3.461-4.103-2.92-4.103-2.92z" fill="#ebebeb"/>
				
				
					<path d="m103.06 297.12s-1.392-1.824 0.647-2.051c2.039-0.226 11.177 2.213 9.049 11.336 0 0-11.133-0.837-11.61-4.626-0.477-3.79 1.914-4.659 1.914-4.659z" fill="#ebebeb"/>
				
				<polygon points="61.333 340.62 65.454 382.44 103.65 382.44 107.77 340.62" fill="#f0f0f0"/>
				
					<rect transform="rotate(180 84.553 340.62)" x="59.293" y="336" width="50.519" height="9.228" fill="#e6e6e6"/>
			
			
				
					
						<path d="m414.22 345.82c-0.013-0.396-1.344-39.676-7.733-45.889-6.214-6.041-13.347-0.225-13.646 0.025l-0.641-0.768c0.081-0.068 8.13-6.639 14.984 0.025 6.676 6.492 7.982 44.94 8.035 46.574z" fill="#e0e0e0"/>
					
					
						<path d="m414.77 353.54c-0.046-0.47-4.367-47.156 12.683-66.724l0.754 0.656c-16.767 19.243-12.487 65.505-12.442 65.97z" fill="#e0e0e0"/>
					
					
						<path d="m414.14 348.61-0.998-0.066c0.035-0.529 3.337-53.076-9.169-64.579l0.677-0.736c12.857 11.826 9.634 63.2 9.49 65.381z" fill="#e0e0e0"/>
					
					
						<path d="m415.77 348.58-1-8e-3c0.012-1.447 0.413-35.493 10.083-41.035 2.15-1.233 4.255-1.438 6.257-0.61 5.848 2.419 8.746 12.826 8.866 13.268l-0.965 0.264c-0.028-0.103-2.89-10.377-8.285-12.607-1.701-0.702-3.509-0.517-5.377 0.554-9.175 5.257-9.576 39.825-9.579 40.174z" fill="#e0e0e0"/>
					
					
						<path d="m412 348.6-0.998-0.057c0.015-0.268 1.459-26.904-5.729-36.289-1.742-2.273-3.632-3.357-5.63-3.218-4.71 0.329-8.66 7.222-8.699 7.291l-0.871-0.492c0.171-0.303 4.252-7.429 9.499-7.796 2.347-0.167 4.535 1.049 6.495 3.607 7.414 9.679 5.997 35.845 5.933 36.954z" fill="#e0e0e0"/>
					
					
						<path d="m413.58 352.22c-0.196-2.584-4.699-63.402 3.225-74.119l0.804 0.594c-7.705 10.421-3.079 72.82-3.031 73.449z" fill="#e0e0e0"/>
					
				
				
					<path d="m433.27 313.09s-4.754 1.752-3.34 5.89c1.413 4.137 16.445 10.946 16.445 10.946s6.295-5.77 0.514-15.154c-5.782-9.384-13.49-4.642-13.619-1.682z" fill="#ebebeb"/>
				
				
					<path d="m412.6 305.21s5.062-0.212 5.35 4.151-10.966 16.432-10.966 16.432-8.031-2.903-6.306-13.79 10.664-9.476 11.922-6.793z" fill="#ebebeb"/>
				
				
					<path d="m408.32 284.33s3.375-0.362 3.103-2.418-13.119-7.346-20.699 1.209c0 0 4.854 8.337 11.87 8.446 7.015 0.109 5.726-7.237 5.726-7.237z" fill="#ebebeb"/>
				
				
					<path d="m414.6 279.34s-3.056 1.477-3.912-0.411c-0.857-1.888 7.249-13.173 18.207-9.922 0 0 0.29 9.643-5.607 13.446-5.897 3.804-8.688-3.113-8.688-3.113z" fill="#ebebeb"/>
				
				
					<path d="m398.63 311.42s2.329-1.881-0.184-2.798c-2.514-0.918-14.847-0.657-14.976 11.56 0 0 14.365 2.387 16.143-2.267 1.778-4.653-0.983-6.495-0.983-6.495z" fill="#ebebeb"/>
				
				
					<path d="m427.92 284.02s-2.329-1.881 0.184-2.798c2.514-0.918 14.847-0.657 14.976 11.56 0 0-14.365 2.387-16.143-2.266-1.778-4.655 0.983-6.496 0.983-6.496z" fill="#ebebeb"/>
				
				
					<path d="m420.32 293.86s-0.205-2.286 1.641-1.39 8.275 7.832 1.61 14.415c0 0-8.972-6.645-7.354-10.105 1.617-3.461 4.103-2.92 4.103-2.92z" fill="#ebebeb"/>
				
				
					<path d="m396.54 297.12s1.392-1.824-0.647-2.051c-2.039-0.226-11.177 2.213-9.049 11.336 0 0 11.133-0.837 11.61-4.626 0.477-3.79-1.914-4.659-1.914-4.659z" fill="#ebebeb"/>
				
				<polygon points="438.28 340.62 434.16 382.44 395.96 382.44 391.84 340.62" fill="#f0f0f0"/>
				<rect x="389.8" y="336" width="50.519" height="9.228" fill="#e6e6e6"/>
			
		
		
			
				<rect x="136.02" y="127.77" width="101.72" height="204.54" fill="#fafafa"/>
				<rect x="133.67" y="124.99" width="106.42" height="10.037" fill="#f0f0f0"/>
				<g fill="#f0f0f0">
					<rect x="133.67" y="136.14" width="106.42" height="5.019"/>
					<rect x="133.67" y="143.59" width="106.42" height="5.019"/>
					<rect x="133.67" y="151.04" width="106.42" height="5.018"/>
					<rect x="133.67" y="158.49" width="106.42" height="5.019"/>
					<rect x="133.67" y="165.93" width="106.42" height="5.019"/>
					<rect x="133.67" y="173.38" width="106.42" height="5.018"/>
					<rect x="133.67" y="180.83" width="106.42" height="5.018"/>
					<rect x="133.67" y="188.28" width="106.42" height="5.019"/>
					<rect x="133.67" y="195.73" width="106.42" height="5.019"/>
					<rect x="133.67" y="203.18" width="106.42" height="5.018"/>
					<rect x="133.67" y="210.62" width="106.42" height="5.019"/>
					<rect x="133.67" y="218.07" width="106.42" height="5.019"/>
					<rect x="133.67" y="225.52" width="106.42" height="5.018"/>
					<rect x="133.67" y="232.97" width="106.42" height="5.019"/>
					<rect x="133.67" y="240.42" width="106.42" height="5.019"/>
					<rect x="133.67" y="247.86" width="106.42" height="5.018"/>
					<rect x="133.67" y="255.31" width="106.42" height="5.018"/>
					<rect x="133.67" y="262.76" width="106.42" height="5.019"/>
					<rect x="133.67" y="270.21" width="106.42" height="5.018"/>
					<rect x="133.67" y="277.66" width="106.42" height="5.018"/>
					<rect x="133.67" y="285.11" width="106.42" height="5.019"/>
					<rect x="133.67" y="292.55" width="106.42" height="5.019"/>
					<rect x="133.67" y="300" width="106.42" height="5.018"/>
					<rect x="133.67" y="307.45" width="106.42" height="5.019"/>
					<rect x="133.67" y="314.9" width="106.42" height="5.019"/>
					<rect x="133.67" y="322.35" width="106.42" height="5.018"/>
					<rect x="133.67" y="329.8" width="106.42" height="5.018"/>
				</g>
			
			
				<rect x="262.26" y="127.77" width="101.72" height="204.54" fill="#fafafa"/>
				<rect x="259.91" y="124.99" width="106.42" height="10.037" fill="#f0f0f0"/>
				<g fill="#f0f0f0">
					<rect x="259.91" y="136.14" width="106.42" height=".923"/>
					<rect x="259.91" y="138.24" width="106.42" height=".923"/>
					<rect x="259.91" y="140.33" width="106.42" height=".923"/>
					<rect x="259.91" y="142.43" width="106.42" height=".923"/>
					<rect x="259.91" y="144.52" width="106.42" height=".923"/>
					<rect x="259.91" y="146.62" width="106.42" height=".923"/>
					<rect x="259.91" y="148.72" width="106.42" height=".923"/>
					<rect x="259.91" y="150.81" width="106.42" height=".923"/>
					<rect x="259.91" y="152.91" width="106.42" height=".923"/>
					<rect x="259.91" y="155" width="106.42" height=".923"/>
					<rect x="259.91" y="157.1" width="106.42" height=".923"/>
					<rect x="259.91" y="159.19" width="106.42" height=".923"/>
					<rect x="259.91" y="161.29" width="106.42" height=".923"/>
					<rect x="259.91" y="163.38" width="106.42" height=".923"/>
					<rect x="259.91" y="165.48" width="106.42" height=".923"/>
					<rect x="259.91" y="167.58" width="106.42" height=".923"/>
					<rect x="259.91" y="169.67" width="106.42" height=".923"/>
					<rect x="259.91" y="171.77" width="106.42" height=".923"/>
				</g>
			
		
		
			
				<ellipse transform="matrix(.1602 -.9871 .9871 .1602 114.92 327.63)" cx="250" cy="96.281" rx="15.169" ry="15.17" fill="#f0f0f0"/>
			
				<circle transform="matrix(.1602 -.9871 .9871 .1602 114.92 327.63)" cx="250" cy="96.281" r="12.898" fill="#fafafa"/>
			
				<polyline points="249.39 87.434 249.39 96.45 243.42 93.069" fill="#f0f0f0" stroke="#e0e0e0" stroke-linecap="round" stroke-linejoin="round" stroke-miterlimit="10" stroke-width="2"/>
		
	</g>
</g><g transform="translate(21.541 98.831)">
		
			
				<path d="m297.68 282.82h120.14c0 4.411-3.472 8.032-7.878 8.231-12.911 0.582-32.773 2.625-39.072 9.769-11.741 13.316-10.604 60.095 3.46 70.929 4.409 3.397 17.265 10.142 17.265 10.142h-67.691s12.012-6.881 16.186-10.142c13.984-10.923 14.391-57.674 2.595-70.929-6.052-6.801-24.669-8.998-37.16-9.691-4.406-0.244-7.846-3.896-7.846-8.309z" fill="#f5f5f5"/>
				<path d="m402.93 291.49c-12.203 0.979-26.828 3.39-32.068 9.333-1.551 1.759-2.87 4.114-3.972 6.88h-20.178c-1.131-2.769-2.473-5.125-4.035-6.88-5.26-5.91-20.006-8.342-31.977-9.333z" fill="#e6e6e6"/>
			
			
				<polygon points="348.85 282.88 350.48 264.21 326.8 264.21 325.17 282.88" fill="#ebebeb"/>
				<polygon points="348.85 282.88 350.48 264.21 351.76 264.21 350.13 282.88" fill="#e0e0e0"/>
				<polygon points="346.6 280.98 347.9 266.11 329.05 266.11 327.75 280.98" fill="#f0f0f0"/>
				<polygon points="345.16 279.75 346.24 267.33 330.5 267.33 329.41 279.75" fill="#fafafa"/>
			
			
				
					<polygon points="356.53 282.82 380.32 282.82 377.68 252.65 353.89 252.65" fill="#e6e6e6"/>
					<polygon points="356.53 282.82 355.4 282.82 352.76 252.65 353.89 252.65" fill="#e0e0e0"/>
					<polygon points="358.69 279.74 377.63 279.74 375.53 255.73 356.59 255.73" fill="#f0f0f0"/>
					<polygon points="360.08 277.77 375.9 277.77 374.14 257.7 358.32 257.7" fill="#fafafa"/>
				
				<path d="m368.07 266.73c-1.075 1.075-2.817 1.075-3.892 0s-1.075-2.817 0-3.892 2.817-1.075 3.892 0c1.074 1.074 1.075 2.817 0 3.892z" fill="#ebebeb"/>
				<path d="m366.9 270.1c0.787-0.787 2.063-0.787 2.85 0 1.269 1.27 0.37 3.44-1.425 3.44s-2.694-2.171-1.425-3.44z" fill="#f0f0f0"/>
			
		
		
			<path d="m195.28 375.72h23.17l-12.181-99.206c-0.516-4.199-4.338-7.604-8.538-7.604h-101.1l14.821 106.81z" fill="#f5f5f5"/>
			<path d="m121.8 375.72h-23.17l-12.181-99.206c-0.516-4.199 2.471-7.604 6.67-7.604h7.963c4.2 0 8.022 3.404 8.537 7.604z" fill="#f0f0f0"/>
			
				<path d="m130.33 375.6-4.198-47.984c-0.188-2.143-1.843-3.866-3.977-4.138l-1.726-0.22c-2.863-0.365-5.084-2.676-5.336-5.551l-0.765-8.749c-0.314-3.586 2.512-6.67 6.112-6.67h-38.724c-3.6 0-6.426 3.084-6.112 6.67l0.766 8.749c0.251 2.875 2.473 5.186 5.335 5.551l1.726 0.22c2.134 0.272 3.79 1.995 3.977 4.138l4.198 47.984c0.306 3.498 3.235 6.183 6.747 6.183h38.723c-3.511 0-6.44-2.685-6.746-6.183z" fill="#e6e6e6"/>
			
			<path d="m236.9 315.61c0.659-7.535 6.969-13.317 14.533-13.317h-33.712c-7.564 0-13.874 5.782-14.533 13.317l-3.328 38.037h33.712z" fill="#e6e6e6"/>
			<path d="m266.4 302.29h-14.975c-7.564 0-13.873 5.782-14.533 13.317l-3.328 38.037h-80.29l-3.328-38.037c-0.659-7.535-6.969-13.317-14.533-13.317h-14.975c-3.6 0-6.426 3.084-6.112 6.67l0.765 8.749c0.252 2.875 2.473 5.186 5.336 5.551l1.726 0.22c2.134 0.272 3.79 1.995 3.977 4.138l4.198 47.984c0.306 3.498 3.235 6.183 6.747 6.183h112.69c3.512 0 6.441-2.684 6.747-6.183l4.198-47.984c0.188-2.143 1.843-3.866 3.977-4.138l1.727-0.22c2.863-0.365 5.084-2.676 5.336-5.552l0.765-8.749c0.315-3.584-2.511-6.669-6.111-6.669z" fill="#f0f0f0"/>
		
		
			<path d="m190.06 133.39s1.172-7.726-4.463-12.68-5.14-7.901-3.53-8.285 3.096 4.57 5.573 5.932c0 0 0.078-7.059-2.438-9.66s-3.836-9.3-1.442-9.419c2.394-0.118 2.642 3.979 3.137 6.885 0.495 2.905 3.163 6.992 3.163 6.992s0.521-6.316 2.147-8.917-2.709-8.546-1.037-11.146c1.672-2.601 4.644 2.353 4.397 7.926-0.248 5.573-3.963 11.518-3.096 17.339 0 0 1.639-4.087 3.111-4.459 1.472-0.371 2.958-3.075 3.949-4.076s2.229 2.466 0 5.686-7.926 11.835-7.059 18.798z" fill="#e6e6e6"/>
			<path d="m186.69 129.87-1.845 11.58c-0.57 3.576 2.193 6.815 5.815 6.815h1.969c3.621 0 6.384-3.238 5.815-6.815l-1.845-11.58z" fill="#f5f5f5"/>
			<rect x="84.159" y="143.99" width="130.44" height="6.702" fill="#e6e6e6"/><g fill="#f0f0f0">
			<rect x="90.163" y="119.29" width="5.746" height="24.704"/>
			<rect x="117.95" y="119.29" width="5.747" height="24.704"/>
			
				<rect transform="matrix(.9855 -.1698 .1698 .9855 -20.061 28.15)" x="151.63" y="118.98" width="5.747" height="24.704"/>
			<rect x="97.284" y="122.54" width="5.747" height="21.448"/>
			<rect x="110.49" y="122.54" width="5.747" height="21.448"/>
			<rect x="143.83" y="122.54" width="5.747" height="21.448"/>
			
				<rect transform="matrix(.9762 -.2169 .2169 .9762 -25.712 31.526)" x="127.89" y="122.18" width="5.747" height="21.448"/>
			<rect x="105.13" y="118.06" width="2.873" height="25.93"/>
			<rect x="139.31" y="118.06" width="2.873" height="25.93"/>
		</g>
		
			
				<rect transform="rotate(180 149.38 197.38)" x="84.159" y="194.02" width="130.44" height="6.702" fill="#e6e6e6"/><g fill="#f0f0f0">
			
				<rect transform="rotate(180 205.72 181.67)" x="202.85" y="169.32" width="5.747" height="24.704"/>
			
				<rect transform="rotate(180 177.93 181.67)" x="175.06" y="169.32" width="5.747" height="24.704"/>
			
				<rect transform="matrix(-.9855 -.1698 .1698 -.9855 255.6 384.59)" x="141.38" y="169.01" width="5.746" height="24.704"/>
			
				<rect transform="rotate(180 198.6 183.3)" x="195.73" y="172.58" width="5.746" height="21.448"/>
			
				<rect transform="rotate(180 185.39 183.3)" x="182.52" y="172.58" width="5.747" height="21.448"/>
			
				<rect transform="rotate(180 152.05 183.3)" x="149.18" y="172.58" width="5.747" height="21.448"/>
			
				<rect transform="matrix(-.9762 -.2169 .2169 -.9762 292.31 397.95)" x="165.12" y="172.21" width="5.747" height="21.449"/>
			
				<rect transform="rotate(180 192.19 181.06)" x="190.76" y="168.09" width="2.873" height="25.93"/>
			
				<rect transform="rotate(180 158.01 181.06)" x="156.58" y="168.09" width="2.873" height="25.93"/>
			
				</g><rect transform="rotate(180 110.68 184.14)" x="96.675" y="174.47" width="28" height="19.331" fill="#f5f5f5"/>
		
		
			
				
					<rect transform="rotate(90 384.75 133.11)" x="369.25" y="111.17" width="31.005" height="43.873" fill="#ebebeb"/>
				
					<rect transform="rotate(90 384.75 133.11)" x="371.27" y="113.24" width="26.962" height="39.747" fill="#f5f5f5"/>
			
			
				
					<rect transform="rotate(90 369.54 172.06)" x="354.03" y="150.12" width="31.005" height="43.873" fill="#ebebeb"/>
				
					<rect transform="rotate(90 369.54 172.06)" x="356.05" y="152.19" width="26.962" height="39.747" fill="#f5f5f5"/>
			
			
				
					<rect transform="rotate(180 340.53 128.86)" x="326.58" y="109.11" width="27.917" height="39.503" fill="#ebebeb"/>
				
					<rect transform="rotate(180 340.53 128.86)" x="328.39" y="110.97" width="24.276" height="35.788" fill="#f5f5f5"/>
			
			
				
					<rect transform="rotate(180 326.2 178.49)" x="310.69" y="156.56" width="31.005" height="43.873" fill="#ebebeb"/>
				
					<rect transform="rotate(180 326.2 178.49)" x="312.72" y="158.62" width="26.962" height="39.747" fill="#f5f5f5"/>
			
			
				
					<rect transform="rotate(-90 299.92 136.47)" x="287.78" y="119.3" width="24.277" height="34.352" fill="#ebebeb"/>
				
					<rect transform="rotate(-90 299.92 136.47)" x="289.36" y="120.91" width="21.111" height="31.121" fill="#f5f5f5"/>
			
		
	</g><g id="Interface" transform="translate(26.762 -17.905)">
	
		<path d="m438.47 360.52h-182.71c-2.018 0-3.654-1.636-3.654-3.654v-199.46c0-2.018 1.636-3.654 3.654-3.654h182.71c2.018 0 3.654 1.636 3.654 3.654v199.46c0 2.018-1.636 3.654-3.654 3.654z" fill="#407bff" opacity=".5"/>
		<path d="m432.47 356.52h-182.71c-2.018 0-3.654-1.636-3.654-3.654v-199.46c0-2.018 1.636-3.654 3.654-3.654h182.71c2.018 0 3.654 1.636 3.654 3.654v199.46c0 2.018-1.636 3.654-3.654 3.654z" fill="#407bff"/>
		<path d="m432.47 356.52h-182.71c-2.018 0-3.654-1.636-3.654-3.654v-199.46c0-2.018 1.636-3.654 3.654-3.654h182.71c2.018 0 3.654 1.636 3.654 3.654v199.46c0 2.018-1.636 3.654-3.654 3.654z" enable-background="new" fill="#fff" opacity=".8"/>
	
	
		<path d="m189.09 325.63h-92.711c-2.018 0-3.654-1.636-3.654-3.654v-169.46c0-2.018 1.636-3.654 3.654-3.654h92.711c2.018 0 3.654 1.636 3.654 3.654v169.46c0 2.018-1.636 3.654-3.654 3.654z" fill="#407bff" opacity=".5"/>
		<path d="m183.09 319.63h-92.711c-2.018 0-3.654-1.636-3.654-3.654v-169.46c0-2.018 1.636-3.654 3.654-3.654h92.711c2.018 0 3.654 1.636 3.654 3.654v169.46c0 2.018-1.636 3.654-3.654 3.654z" fill="#407bff"/>
		<path d="m183.09 319.63h-92.711c-2.018 0-3.654-1.636-3.654-3.654v-169.46c0-2.018 1.636-3.654 3.654-3.654h92.711c2.018 0 3.654 1.636 3.654 3.654v169.46c0 2.018-1.636 3.654-3.654 3.654z" enable-background="new" fill="#fff" opacity=".8"/>
	
	
		<path d="m433.07 114.56h-342.49c-2.127 0-3.852-1.725-3.852-3.852v-15.552c0-2.127 1.725-3.852 3.852-3.852h342.49c2.127 0 3.852 1.725 3.852 3.852v15.552c0 2.128-1.724 3.852-3.852 3.852z" fill="#407bff"/><g fill="#fff">
		<path d="m401.39 102.94c0 2.506-2.009 4.537-4.488 4.537s-4.488-2.032-4.488-4.537c0-2.506 2.009-4.537 4.488-4.537s4.488 2.031 4.488 4.537z" enable-background="new" opacity=".6"/>
		<path d="m415.42 102.94c0 2.506-2.009 4.537-4.488 4.537s-4.488-2.032-4.488-4.537c0-2.506 2.009-4.537 4.488-4.537s4.488 2.031 4.488 4.537z" enable-background="new" opacity=".6"/>
		<path d="m429.46 102.94c0 2.506-2.009 4.537-4.488 4.537s-4.488-2.032-4.488-4.537c0-2.506 2.009-4.537 4.488-4.537s4.488 2.031 4.488 4.537z" enable-background="new" opacity=".6"/>
		<rect x="94.893" y="97.103" width="11.539" height="11.666" enable-background="new" opacity=".6"/>
	</g>
</g><g transform="translate(26.762 -17.905)">
	
		
			<rect x="72.67" y="171.04" width="107.84" height="20.629" fill="#407bff"/>
			<rect x="72.67" y="171.04" width="107.84" height="20.629" enable-background="new" opacity=".2"/>
		
		
			<rect x="79.58" y="177.05" width="8.613" height="8.613" fill="#fff"/>
			
				<polyline points="81.464 181.38 83.069 183.44 86.309 179.27" fill="none" stroke="#407bff" stroke-linecap="round" stroke-linejoin="round" stroke-miterlimit="10" stroke-width="1.5"/>
		
		<path d="m174.83 186.19h-8.66v-5.855h8.66zm-4.329-10.161c-2.025 0-3.673 1.647-3.673 3.673h1c0-1.474 1.199-2.673 2.673-2.673s2.673 1.199 2.673 2.673h1c0-2.025-1.648-3.673-3.673-3.673z" fill="#407bff"/>
	
	
		
			<rect x="56.824" y="209.18" width="107.84" height="20.629" fill="#407bff"/>
			<rect x="56.824" y="209.18" width="107.84" height="20.629" enable-background="new" fill="#fff" opacity=".4"/>
		
		
			<rect x="63.734" y="215.18" width="8.613" height="8.613" fill="#fff"/>
		
		
			<rect x="150.32" y="218.47" width="8.66" height="5.854" fill="#fff"/>
			
				<path d="m158.32 217.83h-1c0-1.474-1.199-2.673-2.673-2.673s-2.673 1.199-2.673 2.673h-1c0-2.025 1.648-3.673 3.673-3.673s3.673 1.648 3.673 3.673z" fill="#fff"/>
			
		
	
	
		
			<rect x="73.229" y="249.1" width="107.84" height="20.629" fill="#407bff"/>
			<rect x="73.229" y="249.1" width="107.84" height="20.629" enable-background="new" fill="#fff" opacity=".4"/>
		
		
			<rect x="80.138" y="255.11" width="8.613" height="8.613" fill="#fff"/>
			
				<polyline points="82.023 259.43 83.628 261.5 86.867 257.33" fill="none" stroke="#407bff" stroke-linecap="round" stroke-linejoin="round" stroke-miterlimit="10" stroke-width="1.5"/>
		
		<g enable-background="new" opacity=".6">
			<rect x="166.73" y="258.39" width="8.66" height="5.854" fill="#fff"/>
			
				<path d="m174.73 257.76h-1c0-1.475-1.199-2.674-2.673-2.674s-2.673 1.199-2.673 2.674h-1c0-2.025 1.648-3.674 3.673-3.674s3.673 1.648 3.673 3.674z" fill="#fff"/>
			
		</g>
	

	
		
			<rect x="326.97" y="226.62" width="84.207" height="54.769" fill="#407bff"/>
			<rect x="326.97" y="226.62" width="84.207" height="54.769" enable-background="new" fill="#fff" opacity=".5"/>
		
		<rect x="330.05" y="236.88" width="78.046" height="41.761" fill="#407bff"/>
		<g fill="#fff">
			<rect x="336.41" y="243.12" width="57.732" height="1.797"/>
			<rect x="336.41" y="248.63" width="27.7" height="1.796"/>
			<rect x="336.41" y="254.13" width="34.888" height="1.796"/>
			<rect x="336.41" y="259.63" width="12.296" height="1.796"/>
			<rect x="336.41" y="265.13" width="7.963" height="1.797"/>
		</g>
	
	
		<path d="m413.59 334.62v30.536c0 1.739-1.276 3.169-2.938 3.411-0.165 0.033-0.341 0.044-0.517 0.044h-39.229c-1.904 0-3.455-1.541-3.455-3.455v-30.536c0-0.539 0.121-1.056 0.352-1.508 0.55-1.155 1.739-1.959 3.103-1.959h15.372c0.749 0 1.453-0.242 2.036-0.66 0.572-0.407 1.023-1.001 1.254-1.717 0.473-1.431 1.794-2.388 3.29-2.388h8.187c1.497 0 2.828 0.957 3.29 2.388 0.462 1.419 1.794 2.377 3.29 2.377h2.509c1.904 1e-3 3.456 1.552 3.456 3.467z" fill="#407bff"/>
		<path d="m410.65 336.06v32.505l-0.044 0.044h-39.702c-1.904 0-3.455-1.541-3.455-3.455v-30.536c0-0.539 0.121-1.056 0.352-1.508h39.899c1.63 1e-3 2.95 1.321 2.95 2.95z" enable-background="new" fill="#fff" opacity=".3"/>
	
	
		<polygon points="319.97 327.86 312.51 335.32 285.15 335.32 285.15 289.67 319.97 289.67" fill="#407bff"/>
		<polygon points="319.97 327.86 312.51 335.32 285.15 335.32 285.15 289.67 319.97 289.67" enable-background="new" fill="#fff" opacity=".4"/>
		
			<polygon points="319.97 327.86 312.51 327.86 312.51 335.32" fill="#407bff"/>
		
		<g fill="#407bff">
			<rect x="289.49" y="297.42" width="26.256" height="1.433"/>
			<rect x="289.49" y="301.8" width="22.088" height="1.433"/>
			<rect x="289.49" y="306.19" width="26.256" height="1.433"/>
			<rect x="289.49" y="310.58" width="9.805" height="1.433"/>
			<rect x="289.49" y="314.97" width="6.35" height="1.433"/>
		</g>
	
</g><g id="Selection" transform="translate(26.762 -17.905)">
	
		
			<rect x="272.25" y="143.9" width="71.187" height="58.821" fill="#407bff"/><g fill="#fff">
			<path d="m272.25 143.9v58.821h71.187v-58.821zm68.864 56.499h-66.543v-54.177h66.543z" enable-background="new" opacity=".6"/>
			<polygon points="274.58 200.4 274.58 184.34 294.98 169.52 310.14 184.34 325.3 175.68 341.12 185.42 341.12 200.4" enable-background="new" opacity=".3"/>
			<path d="m322.64 159.59c0 2.692-2.182 4.874-4.875 4.874-2.692 0-4.875-2.182-4.875-4.874s2.182-4.875 4.875-4.875c2.692 1e-3 4.875 2.183 4.875 4.875z" enable-background="new" opacity=".6"/>
		</g>
		
			<g fill="none" stroke="#263238" stroke-miterlimit="10">
				<polyline points="348.09 205.16 348.09 207.16 346.09 207.16"/>
				
					<line x1="342.95" x2="271.35" y1="207.16" y2="207.16" stroke-dasharray="4.1812, 3.1359"/>
				<polyline points="269.78 207.16 267.78 207.16 267.78 205.16"/>
				
					<line x1="267.78" x2="267.78" y1="202.27" y2="143.01" stroke-dasharray="3.8548, 2.8911"/>
				<polyline points="267.78 141.56 267.78 139.56 269.78 139.56"/>
				
					<line x1="272.92" x2="344.52" y1="139.56" y2="139.56" stroke-dasharray="4.1812, 3.1359"/>
				<polyline points="346.09 139.56 348.09 139.56 348.09 141.56"/>
				
					<line x1="348.09" x2="348.09" y1="144.45" y2="203.72" stroke-dasharray="3.8548, 2.8911"/>
			</g>
		<g fill="#263238">
		<rect x="346.51" y="137.98" width="3.154" height="3.154"/>
		<rect x="346.51" y="205.59" width="3.154" height="3.154"/>
		<rect x="266.2" y="205.59" width="3.154" height="3.154"/>
		<rect x="266.2" y="137.98" width="3.154" height="3.154"/>
		<rect x="306.27" y="137.98" width="3.154" height="3.154"/>
		<rect x="306.36" y="205.59" width="3.154" height="3.154"/>
		<rect x="346.51" y="171.79" width="3.154" height="3.154"/>
		<rect x="266.2" y="171.79" width="3.154" height="3.154"/>
	</g>
</g><g transform="translate(-58.008 81.84)">
	
		<path d="m123.07 228.28-4.446 6.429s-0.796 1.088-0.697 3.165 2.262 8.901 2.813 9c0.55 0.099 4.111-1.78 4.704-2.275s-2.275-6.821-2.473-7.02-0.494-0.991-0.494-0.991l4.136-5.195z" fill="#eec1bb"/>
		
			<path d="m118.62 192.88c4.545 1.572 14.929 18.578 15.918 24.465s-10.78 19.239-10.78 19.239l-4.231-4.074s8.1-12.805 8.198-14.129-8.121-14.001-8.121-14.001z" fill="#407bff"/>
			<path d="m134.6 218.13c-0.01 1.49-0.64 3.32-1.58 5.24-0.32 0.64-0.66 1.29-1.04 1.94-0.83 1.45-1.79 2.91-2.74 4.27-0.42 0.6-0.84 1.17-1.25 1.72-1.21 1.63-2.34 3.03-3.13 3.98-0.68 0.82-1.1 1.3-1.1 1.3l-4.23-4.07s0.2-0.32 0.54-0.87c0.44-0.69 1.1-1.75 1.86-2.97 0.33-0.55 0.69-1.12 1.05-1.72 0.61-1.01 1.25-2.06 1.85-3.07 0.36-0.61 0.71-1.2 1.03-1.76 0.41-0.72 0.78-1.39 1.08-1.95 0.47-0.89 0.77-1.54 0.79-1.79 0.01-0.08-0.02-0.19-0.07-0.34-0.15-0.49-0.59-1.37-1.19-2.45-0.3-0.54-0.64-1.14-1-1.76-0.68-1.15-1.43-2.4-2.17-3.6-0.08-0.13-0.16-0.26-0.24-0.38-0.29-0.47-0.57-0.93-0.85-1.37-1.45-2.31-2.61-4.1-2.61-4.1l-0.03-0.4-0.24-2.71-0.22-2.6-0.49-5.79c1.11 0.39 2.58 1.7 4.17 3.55 0.44 0.51 0.89 1.07 1.35 1.65 0.98 1.27 1.99 2.7 2.98 4.19 0.41 0.62 0.81 1.25 1.2 1.88 0.88 1.41 1.72 2.85 2.48 4.26 0.36 0.66 0.71 1.31 1.02 1.95 1.11 2.18 1.96 4.18 2.43 5.74 0.13 0.46 0.23 0.87 0.29 1.24 0.04 0.25 0.06 0.51 0.06 0.79z" enable-background="new" fill="#fff" opacity=".7"/>
			<g opacity=".2">
				<path d="m124.14 198.08c-1.07 1.75-2.59 3.88-4.57 5.9l-0.24-2.71c1.5-1.73 2.65-3.45 3.46-4.84 0.44 0.51 0.89 1.07 1.35 1.65z"/>
				<path d="m128.32 204.15c-1.2 1.86-2.86 4.05-5.02 6.08-0.37-0.6-0.74-1.19-1.09-1.75 2.18-2.09 3.8-4.39 4.91-6.21 0.41 0.62 0.81 1.25 1.2 1.88z"/>
				<path d="m131.82 210.36c-1.32 1.63-3.12 3.52-5.35 5.23-0.3-0.54-0.64-1.14-1-1.76 2.29-1.81 4.08-3.82 5.33-5.42 0.36 0.66 0.71 1.31 1.02 1.95z"/>
				<path d="m126.94 220.17c0.47-0.89 0.77-1.54 0.79-1.79 0.01-0.08-0.02-0.19-0.07-0.34 2.52-0.44 4.79-1.2 6.59-1.94 0.13 0.46 0.23 0.87 0.29 1.24 0.04 0.25 0.06 0.51 0.06 0.79-2.1 0.84-4.73 1.66-7.66 2.04z"/>
				<path d="m133.02 223.37c-0.32 0.64-0.66 1.29-1.04 1.94-2.14-0.18-4.62-0.59-7.15-1.43 0.36-0.61 0.71-1.2 1.03-1.76 2.57 0.79 5.08 1.13 7.16 1.25z"/>
				<path d="m129.24 229.58c-0.42 0.6-0.84 1.17-1.25 1.72-1.88-0.6-3.98-1.45-6.06-2.63 0.33-0.55 0.69-1.12 1.05-1.72 2.16 1.23 4.35 2.06 6.26 2.63z"/>
				<path d="m124.86 235.28c-0.68 0.82-1.1 1.3-1.1 1.3l-4.23-4.07s0.2-0.32 0.54-0.87c1.57 1.49 3.24 2.7 4.79 3.64z"/>
			</g>
			<path d="m123.06 209.85c-0.29-0.47-0.57-0.93-0.85-1.37-1.45-2.31-2.61-4.1-2.61-4.1l-0.03-0.4-0.24-2.71-0.22-2.6c1.93 1.24 5.41 4.47 3.95 11.18z" enable-background="new" opacity=".2"/>
		
		<path d="m86.275 159.51s2.398-3.561 8.749-4.022c6.35-0.462 13.471 1.365 16.9 10.111l-2.769 0.67s2.769 8.537 2.374 20.208c0 0-15.758-0.462-30.132 3.429 0 0-2.176-10.423-0.593-20.706 1.581-10.283 5.471-9.69 5.471-9.69z" fill="#263238"/>
		<polygon points="138.87 400.14 136.51 392.24 143.78 389.7 145.89 399.19 147.76 407.62 141.45 408.74" fill="#e4897b"/>
		<polygon points="145.92 399.39 138.9 400.31 136.52 392.33 143.79 389.75" enable-background="new" opacity=".2"/>
		<polygon points="98.194 401.51 97.242 393.28 104.85 392.01 105.28 401.81 105.65 410.53 99.246 410.53" fill="#e4897b"/>
		<polygon points="105.28 401.9 98.194 401.58 97.242 393.31 104.85 392.03" enable-background="new" opacity=".2"/>
		
			
				<path d="m146.52 394.38-10.369 1.828c-10.464-26.07-17.907-47.831-23.163-65.889-2.831-9.744-5.193-18.409-6.888-26.098l0.318 28.38v63.93h-10.219c-25.615-122-7.462-149.8-7.462-149.8l30.643-5.102c1.165 4.574 2.046 12.056 2.566 17.217l1.383 10.166 11.979 61.872z" fill="#407bff"/>
			
		
		<path d="m112.99 330.32c-2.831-9.744-5.038-18.409-6.733-26.098 0 0 0.17-14.943 1.979-27.215 0 0 4.489 35.103 4.754 53.313z" enable-background="new" opacity=".2"/>
		
			<path d="m82.647 209.28c1.203 3.864 2.14 7.206 2.888 10.199 2.339 9.261 2.831 15.189 3.323 22.954l31.259-2.699c1.25-22.017 0.691-34.119 0.123-40.17-0.625-6.449-1.619-6.686-1.619-6.686s-6.989-0.682-13.068-0.634c-4.706 0.161-9.403 0.653-14.034 1.477-3.365 0.558-6.691 1.306-9.974 2.233-1.631 0.461-2.549 2.183-2.007 3.788 0.334 0.986 0.652 1.943 0.958 2.871 0.797 2.387 1.507 4.602 2.151 6.667z" fill="#407bff"/>
			<path d="m120.12 239.74-31.26 2.69c-0.17-2.69-0.35-5.16-0.6-7.62-0.46-4.65-1.2-9.28-2.73-15.33-0.21-0.83-0.43-1.69-0.66-2.58h-0.01c-0.61-2.31-1.35-4.83-2.22-7.62-0.26-0.84-0.53-1.7-0.81-2.59-0.34-1.06-0.7-2.16-1.07-3.3-0.09-0.25-0.17-0.51-0.26-0.77-0.31-0.93-0.63-1.89-0.96-2.87-0.55-1.61 0.37-3.33 2-3.8 2.64-0.75 5.31-1.37 8-1.88 0.66-0.12 1.32-0.24 1.98-0.35 4.07-0.72 8.19-1.19 12.32-1.39 0.57-0.04 1.14-0.06 1.71-0.08h0.67c0.45 0 0.9 0 1.35 0.01 5.51 0.08 11.05 0.62 11.05 0.62s0.99 0.24 1.62 6.69c0.57 6.05 1.13 18.15-0.12 40.17z" enable-background="new" fill="#fff" opacity=".7"/>
			
				<path d="m120.42 201.7c-17.436-0.13-32.245 2.529-38.921 3.963 0.111 0.342 0.224 0.692 0.333 1.026 0.096 0.305 0.184 0.589 0.278 0.887 6.672-1.425 21.266-4.019 38.444-3.874-0.043-0.716-0.088-1.381-0.134-2.002z" opacity=".2"/>
				<path d="m120.8 209.64c-0.018-0.695-0.038-1.362-0.061-2.002-16.19-0.152-30.146 2.111-37.495 3.596 0.199 0.657 0.389 1.297 0.572 1.924 7.299-1.467 21.042-3.674 36.984-3.518z" opacity=".2"/>
				<path d="m120.87 215.58c-1e-3 -0.685-4e-3 -1.354-9e-3 -2-15.124-0.151-28.315 1.805-36.009 3.278 0.178 0.665 0.343 1.306 0.503 1.938 7.612-1.452 20.612-3.371 35.515-3.216z" opacity=".2"/>
				<path d="m86.261 222.54c0.151 0.667 0.293 1.319 0.425 1.955 7.734-1.411 20.081-3.108 34.138-2.969 0.012-0.683 0.021-1.349 0.028-2.001-14.236-0.144-26.755 1.582-34.591 3.015z" opacity=".2"/>
				<path d="m87.397 228.27c0.111 0.667 0.214 1.324 0.308 1.972 7.752-1.366 19.59-2.911 32.971-2.787 0.022-0.678 0.042-1.345 0.06-1.998-13.517-0.123-25.48 1.432-33.339 2.813z" opacity=".2"/>
				<path d="m88.183 234.07c0.026 0.245 0.054 0.491 0.079 0.736 0.042 0.418 0.081 0.838 0.119 1.258 7.705-1.328 19.147-2.773 32.064-2.673 0.03-0.678 0.059-1.343 0.086-1.999-12.993-0.107-24.53 1.338-32.348 2.678z" opacity=".2"/>
				<path d="m88.829 241.93c7.637-1.293 18.772-2.669 31.315-2.602 0.038-0.676 0.074-1.344 0.109-2.001-12.597-0.082-23.811 1.288-31.56 2.593 0.047 0.658 0.092 1.328 0.136 2.01z" opacity=".2"/>
				<path d="m101.21 200.09c2.25 0.029 3.575-0.728 4.342-1.792 4.499-0.351 9.372-0.566 14.481-0.54-0.103-0.781-0.211-1.448-0.32-1.999-4.673-0.014-9.148 0.171-13.322 0.474 0.276-1.544 0.011-3.151-0.172-3.983h-0.67c-4.7 0.16-9.4 0.65-14.03 1.47-0.66 0.11-1.32 0.23-1.98 0.35 0.133 0.361 0.861 2.14 3.067 3.672-5.991 0.877-10.527 1.834-12.939 2.39 0.22 0.649 0.431 1.281 0.638 1.904 2.813-0.643 8.332-1.788 15.584-2.732 1.445 0.452 3.187 0.758 5.321 0.786z" opacity=".2"/>
			
			<path d="m101.21 220.43c-4.15 3.08-11.02-0.08-16.34-3.53h-0.01c-0.61-2.31-1.35-4.83-2.22-7.62-0.26-0.84-0.53-1.7-0.81-2.59-0.34-1.06-0.7-2.16-1.07-3.3l1.74-3.87s6.46 2.39 14.96 5.24c0 0 3.05-3.15 4.07-10.61l2.31-1.82c0.57-0.04 1.14-0.06 1.71-0.08h0.67c0.45 0 0.9 0 1.35 0.01 0.07 6.79-0.39 23.74-6.36 28.17z" enable-background="new" opacity=".2"/>
		
		
			<polygon points="88.858 242.43 120.12 239.74 120.12 245.09 88.118 247.92" fill="#263238"/>
			
				<path d="m110.77 240.67c-0.399-0.365-0.935-0.553-1.478-0.503l-3.904 0.337c-1.011 0.088-1.773 0.918-1.773 1.933v2.493c0 0.542 0.229 1.064 0.629 1.43 0.358 0.328 0.829 0.51 1.312 0.51 0.057 0 0.113-3e-3 0.169-8e-3l3.904-0.345c1.008-0.089 1.769-0.919 1.769-1.932v-2.485c0-0.542-0.228-1.063-0.628-1.43zm-1.228 4.851-3.904 0.345c-0.267 0.025-0.521-0.063-0.718-0.243-0.196-0.18-0.305-0.426-0.305-0.692v-2.493c0-0.491 0.369-0.894 0.859-0.937l3.904-0.337c0.028-2e-3 0.056-4e-3 0.083-4e-3 0.235 0 0.457 0.087 0.633 0.248 0.196 0.18 0.304 0.426 0.304 0.692v0.378c-0.051-8e-3 -0.1-0.023-0.153-0.019l-1.093 0.084c-0.364 0.028-0.638 0.348-0.61 0.712s0.348 0.638 0.712 0.61l1.093-0.084c0.019-1e-3 0.033-0.012 0.051-0.014v0.818c0 0.491-0.368 0.893-0.856 0.936z" fill="#fff"/>
			
		
		
			<path d="m97.749 406.16c0.016-0.669 8.232-0.145 8.232-0.145s5.055 5.142 9.965 6.297 2.166 4.102-3.322 4.102h-13.576c-3.898 0-1.461-3.321-1.299-10.254z" fill="#263238"/>
			
				<path d="m110.3 408.12c-1.148 0-2.973-0.836-3.406-1.041-0.029-0.013-0.053-0.033-0.073-0.056-0.011-0.014-0.021-0.03-0.029-0.046-0.024-0.051-0.028-0.11-8e-3 -0.166 0.029-0.081 0.719-1.999 1.834-2.463 0.353-0.147 0.712-0.137 1.063 0.029 0.374 0.178 0.556 0.41 0.54 0.691-0.025 0.432-0.61 0.865-1.278 1.222 0.695-0.068 1.407-0.049 1.843 0.202 0.231 0.133 0.379 0.32 0.439 0.556 0.124 0.487-0.04 0.745-0.199 0.876-0.172 0.139-0.426 0.196-0.726 0.196zm-2.654-1.179c1.21 0.512 2.716 0.966 3.104 0.647 0.034-0.028 0.136-0.112 0.054-0.434-0.031-0.12-0.107-0.214-0.235-0.287-0.592-0.34-2.001-0.131-2.923 0.074zm1.47-2.263c-0.11 0-0.221 0.024-0.333 0.07-0.607 0.252-1.126 1.146-1.41 1.767 1.217-0.462 2.393-1.102 2.414-1.471 7e-3 -0.115-0.18-0.221-0.293-0.274-0.126-0.062-0.252-0.092-0.378-0.092z" fill="#407bff"/>
			
		
		
			<path d="m139.75 406.16c0.016-0.669 8.232-0.145 8.232-0.145s5.055 5.142 9.965 6.297 2.166 4.102-3.322 4.102h-13.576c-3.898 0-1.461-3.321-1.299-10.254z" fill="#263238"/>
			
				<path d="m152.3 408.12c-1.148 0-2.973-0.836-3.406-1.041-0.029-0.013-0.053-0.033-0.073-0.056-0.011-0.014-0.021-0.03-0.029-0.046-0.024-0.051-0.028-0.11-8e-3 -0.166 0.029-0.081 0.719-1.999 1.833-2.463 0.353-0.147 0.712-0.137 1.063 0.029 0.374 0.178 0.556 0.41 0.54 0.691-0.025 0.432-0.61 0.865-1.278 1.222 0.695-0.068 1.406-0.049 1.843 0.202 0.231 0.133 0.379 0.32 0.439 0.556 0.124 0.487-0.04 0.745-0.199 0.876-0.171 0.139-0.425 0.196-0.725 0.196zm-2.654-1.179c1.21 0.512 2.716 0.966 3.104 0.647 0.034-0.028 0.136-0.112 0.054-0.434-0.031-0.12-0.107-0.214-0.235-0.287-0.592-0.34-2.001-0.131-2.923 0.074zm1.471-2.263c-0.11 0-0.221 0.024-0.333 0.07-0.607 0.252-1.126 1.146-1.41 1.767 1.217-0.462 2.393-1.102 2.414-1.471 7e-3 -0.115-0.18-0.221-0.293-0.274-0.127-0.062-0.253-0.092-0.378-0.092z" fill="#407bff"/>
			
		
		<path d="m101.77 198.92c-7.296-0.934-9.488-4.05-9.488-4.05 4.629-4.367 0.783-11.935 0.783-11.935l8.782 1.64c-0.231 1.451-0.329 2.669-0.343 3.697-0.067 5.33 2.344 5.382 2.344 5.382 1.54 2.886-2.078 5.266-2.078 5.266z" fill="#eec1bb"/>
		<path d="m101.85 184.58c-0.231 1.451-0.329 2.669-0.343 3.697-5.932 0-8.438-5.337-8.438-5.337z" enable-background="new" opacity=".2"/>
		
			<path d="m108.13 181.08c-0.07 0.26-0.14 0.51-0.22 0.75-1.02 3.1-3.2 5.01-7.04 5.09-0.53 0.02-1.09 0-1.68-0.06-0.35-0.04-0.73-0.09-1.11-0.15-13.12-2.14-13.76-25.99-1.08-26.69 7.63-0.42 10.31 3.54 11.3 11.37 0.47 3.73 0.5 7.07-0.17 9.69z" fill="#eec1bb"/>
			<path d="m103.34 171.24s1.167 1.936 2.395 3.044c0 0-0.596 1.074-1.965 0.974z" fill="#d4827d"/>
			<g fill="#263238">
				<path d="m98.636 170.87c0.049 0.626-0.25 1.16-0.667 1.193-0.418 0.033-0.796-0.448-0.845-1.075-0.049-0.626 0.25-1.16 0.667-1.193 0.418-0.032 0.796 0.449 0.845 1.075z"/>
				<path d="m97.62 169.84 1.32-0.641c0 1e-3 -0.588 1.2-1.32 0.641z"/>
			</g>
			<g fill="#263238">
				<path d="m106.41 170.13c0.049 0.626-0.25 1.16-0.667 1.193-0.418 0.033-0.796-0.449-0.845-1.075s0.25-1.16 0.667-1.193c0.418-0.033 0.796 0.448 0.845 1.075z"/>
				<path d="m105.4 169.1 1.32-0.641s-0.588 1.199-1.32 0.641z"/>
			</g>
			
				<path d="m98.271 165.6s-2.16-0.161-3.247 1.335" fill="none" stroke="#263238" stroke-linecap="round" stroke-linejoin="round" stroke-miterlimit="10" stroke-width=".7247"/>
			
				<path d="m103.8 164.98s1.321-0.573 3.077 0.461" fill="none" stroke="#263238" stroke-linecap="round" stroke-linejoin="round" stroke-miterlimit="10" stroke-width=".7247"/>
			<path d="m89.358 173.35s3.226-6.467 2.42-11.28c0 0 14.788-7.008 16.376 8.305 0 0 0.731-13.715-12.408-13.3-13.118 0.414-12.031 19.61-4.941 24.958 0 1e-3 -3.44-4.64-1.447-8.683z" fill="#263238"/>
			<path d="m90.693 174.89c-0.118-1.226-1.501-3.237-3.773-2.862-2.351 0.388-3.213 5.306 2.735 6.151 0.854 0.121 1.285-0.731 1.038-3.289z" fill="#eec1bb"/>
			<path d="m99.709 176.65s0.592 2.374 3.634 2.637" fill="none" stroke="#263238" stroke-linecap="round" stroke-linejoin="round" stroke-miterlimit="10" stroke-width=".5"/>
			<path d="m107.91 181.83c-1.02 3.1-3.2 5.01-7.04 5.09 1.64-2.69 5.14-4.49 7.04-5.09z" enable-background="new" opacity=".1"/>
		
		<g fill="none" stroke="#263238" stroke-linecap="round" stroke-linejoin="round" stroke-miterlimit="10" stroke-width=".25">
			<path d="m102.28 171.59c0 1.729-1.401 3.13-3.13 3.13s-3.13-1.402-3.13-3.13c0-1.729 1.401-3.13 3.13-3.13 1.728 0 3.13 1.402 3.13 3.13z"/>
			<path d="m110.49 170.33c0 1.729-1.401 3.13-3.13 3.13s-3.13-1.401-3.13-3.13 1.401-3.13 3.13-3.13c1.728 0 3.13 1.401 3.13 3.13z"/>
			<path d="m102.21 170.93s1.22-1.325 2.036-0.274"/>
			
				<line x1="96.023" x2="89.143" y1="171.59" y2="172.06"/>
		</g>
		<path d="m101.21 195.77 1.129-5.868s-0.763-0.016-0.565-1.629c0.198-1.612 4.173-5.744 5.868-6.244 1.695-0.501 3.146 5.869 3.278 6.244 0.132 0.376-3.776 3.804-4.855 3.409l-1.013 5.168z" fill="#eec1bb"/>
		
			<path d="m79.258 197.52c-3.467 8.408 16.199 19.4 20.869 19.821s6.587-24.204 6.587-24.204l-5.189-0.887s-1.954 17.867-3.906 16.795c-1.951-1.072-15.819-17.689-18.361-11.525z" fill="#407bff"/>
			<path d="m106.71 193.13s-0.05 0.63-0.15 1.7c-0.06 0.56-0.12 1.25-0.21 2.03-0.17 1.54-0.39 3.43-0.69 5.43-0.1 0.69-0.2 1.39-0.32 2.09-0.37 2.25-0.81 4.54-1.34 6.56-0.21 0.79-0.43 1.53-0.67 2.21-0.87 2.58-1.93 4.3-3.2 4.19-0.38-0.03-0.86-0.14-1.43-0.31-0.61-0.18-1.32-0.44-2.1-0.77-1.55-0.65-3.36-1.57-5.23-2.67-0.58-0.35-1.17-0.71-1.76-1.09-1.34-0.86-2.67-1.81-3.92-2.82-0.56-0.45-1.09-0.91-1.61-1.37-1.27-1.17-2.4-2.39-3.28-3.62-0.47-0.66-0.87-1.32-1.18-1.99-0.83-1.76-1.05-3.52-0.36-5.18 0.73-1.78 2.41-1.66 4.47-0.57 0.55 0.29 1.13 0.66 1.73 1.07 0.94 0.66 1.92 1.44 2.9 2.29 0.51 0.43 1.02 0.89 1.52 1.35 1.13 1.03 2.23 2.1 3.23 3.1 0.52 0.51 1.02 1 1.47 1.46 0.85 0.85 1.58 1.57 2.13 2.08 0.41 0.38 0.72 0.63 0.91 0.74 0.66 0.36 1.33-1.47 1.91-4.05 0.26-1.08 0.49-2.3 0.71-3.54 0.12-0.73 0.24-1.47 0.36-2.2 0.23-1.51 0.43-2.96 0.58-4.15 0.12-0.86 0.2-1.59 0.27-2.09 0.05-0.48 0.08-0.76 0.08-0.76z" enable-background="new" fill="#fff" opacity=".7"/>
			<g opacity=".2">
				<path d="m85.46 198.02c-1.28 1.45-3.01 3.68-4.66 6.67-0.47-0.66-0.87-1.32-1.18-1.99 1.46-2.48 2.93-4.4 4.11-5.75 0.55 0.29 1.13 0.66 1.73 1.07z"/>
				<path d="m89.88 201.66c-1.28 1.85-2.86 4.55-4.19 8.02-0.56-0.45-1.09-0.91-1.61-1.37 1.38-3.47 2.99-6.15 4.28-8 0.51 0.43 1.02 0.89 1.52 1.35z"/>
				<path d="m94.58 206.22c-0.98 1.71-2.21 4.2-3.21 7.37-0.58-0.35-1.17-0.71-1.76-1.09 1.11-3.39 2.45-6 3.5-7.74 0.52 0.51 1.02 1 1.47 1.46z"/>
				<path d="m104 210.94c-0.21 0.79-0.43 1.53-0.67 2.21-1.91-1.97-3.38-3.87-4.5-5.52-0.3 2.06-0.57 5.36-0.13 9.4-0.61-0.18-1.32-0.44-2.1-0.77-0.28-3.24-0.13-5.97 0.11-7.96 0.41 0.38 0.72 0.63 0.91 0.74 0.66 0.36 1.33-1.47 1.91-4.05 0.98 1.63 2.44 3.73 4.47 5.95z"/>
				<path d="m105.66 202.29c-0.1 0.69-0.2 1.39-0.32 2.09-2.03-0.98-3.74-2-5.1-2.93 0.12-0.73 0.24-1.47 0.36-2.2 1.3 0.93 2.99 2 5.06 3.04z"/>
				<path d="m106.56 194.83c-0.06 0.56-0.12 1.25-0.21 2.03-2.06-0.55-3.8-1.18-5.17-1.76 0.12-0.86 0.2-1.59 0.27-2.09 1.3 0.58 3.02 1.25 5.11 1.82z"/>
			</g>
		
	
</g></g><g transform="translate(-297.92 670.42)">
				
					
						<path d="m414.22 345.82c-0.013-0.396-1.344-39.676-7.733-45.889-6.214-6.041-13.347-0.225-13.646 0.025l-0.641-0.768c0.081-0.068 8.13-6.639 14.984 0.025 6.676 6.492 7.982 44.94 8.035 46.574z" fill="#e0e0e0"/>
					
					
						<path d="m414.77 353.54c-0.046-0.47-4.367-47.156 12.683-66.724l0.754 0.656c-16.767 19.243-12.487 65.505-12.442 65.97z" fill="#e0e0e0"/>
					
					
						<path d="m414.14 348.61-0.998-0.066c0.035-0.529 3.337-53.076-9.169-64.579l0.677-0.736c12.857 11.826 9.634 63.2 9.49 65.381z" fill="#e0e0e0"/>
					
					
						<path d="m415.77 348.58-1-8e-3c0.012-1.447 0.413-35.493 10.083-41.035 2.15-1.233 4.255-1.438 6.257-0.61 5.848 2.419 8.746 12.826 8.866 13.268l-0.965 0.264c-0.028-0.103-2.89-10.377-8.285-12.607-1.701-0.702-3.509-0.517-5.377 0.554-9.175 5.257-9.576 39.825-9.579 40.174z" fill="#e0e0e0"/>
					
					
						<path d="m412 348.6-0.998-0.057c0.015-0.268 1.459-26.904-5.729-36.289-1.742-2.273-3.632-3.357-5.63-3.218-4.71 0.329-8.66 7.222-8.699 7.291l-0.871-0.492c0.171-0.303 4.252-7.429 9.499-7.796 2.347-0.167 4.535 1.049 6.495 3.607 7.414 9.679 5.997 35.845 5.933 36.954z" fill="#e0e0e0"/>
					
					
						<path d="m413.58 352.22c-0.196-2.584-4.699-63.402 3.225-74.119l0.804 0.594c-7.705 10.421-3.079 72.82-3.031 73.449z" fill="#e0e0e0"/>
					
				
				
					<path d="m433.27 313.09s-4.754 1.752-3.34 5.89c1.413 4.137 16.445 10.946 16.445 10.946s6.295-5.77 0.514-15.154c-5.782-9.384-13.49-4.642-13.619-1.682z" fill="#ebebeb"/>
				
				
					<path d="m412.6 305.21s5.062-0.212 5.35 4.151-10.966 16.432-10.966 16.432-8.031-2.903-6.306-13.79 10.664-9.476 11.922-6.793z" fill="#ebebeb"/>
				
				
					<path d="m408.32 284.33s3.375-0.362 3.103-2.418-13.119-7.346-20.699 1.209c0 0 4.854 8.337 11.87 8.446 7.015 0.109 5.726-7.237 5.726-7.237z" fill="#ebebeb"/>
				
				
					<path d="m414.6 279.34s-3.056 1.477-3.912-0.411c-0.857-1.888 7.249-13.173 18.207-9.922 0 0 0.29 9.643-5.607 13.446-5.897 3.804-8.688-3.113-8.688-3.113z" fill="#ebebeb"/>
				
				
					<path d="m398.63 311.42s2.329-1.881-0.184-2.798c-2.514-0.918-14.847-0.657-14.976 11.56 0 0 14.365 2.387 16.143-2.267 1.778-4.653-0.983-6.495-0.983-6.495z" fill="#ebebeb"/>
				
				
					<path d="m427.92 284.02s-2.329-1.881 0.184-2.798c2.514-0.918 14.847-0.657 14.976 11.56 0 0-14.365 2.387-16.143-2.266-1.778-4.655 0.983-6.496 0.983-6.496z" fill="#ebebeb"/>
				
				
					<path d="m420.32 293.86s-0.205-2.286 1.641-1.39 8.275 7.832 1.61 14.415c0 0-8.972-6.645-7.354-10.105 1.617-3.461 4.103-2.92 4.103-2.92z" fill="#ebebeb"/>
				
				
					<path d="m396.54 297.12s1.392-1.824-0.647-2.051c-2.039-0.226-11.177 2.213-9.049 11.336 0 0 11.133-0.837 11.61-4.626 0.477-3.79-1.914-4.659-1.914-4.659z" fill="#ebebeb"/>
				
				<polygon points="438.28 340.62 434.16 382.44 395.96 382.44 391.84 340.62" fill="#f0f0f0"/>
				<rect x="389.8" y="336" width="50.519" height="9.228" fill="#e6e6e6"/>
			</g><g transform="translate(-490.68 327.56)">
			<path d="m190.06 133.39s1.172-7.726-4.463-12.68-5.14-7.901-3.53-8.285 3.096 4.57 5.573 5.932c0 0 0.078-7.059-2.438-9.66s-3.836-9.3-1.442-9.419c2.394-0.118 2.642 3.979 3.137 6.885 0.495 2.905 3.163 6.992 3.163 6.992s0.521-6.316 2.147-8.917-2.709-8.546-1.037-11.146c1.672-2.601 4.644 2.353 4.397 7.926-0.248 5.573-3.963 11.518-3.096 17.339 0 0 1.639-4.087 3.111-4.459 1.472-0.371 2.958-3.075 3.949-4.076s2.229 2.466 0 5.686-7.926 11.835-7.059 18.798z" fill="#e6e6e6"/>
			<path d="m186.69 129.87-1.845 11.58c-0.57 3.576 2.193 6.815 5.815 6.815h1.969c3.621 0 6.384-3.238 5.815-6.815l-1.845-11.58z" fill="#f5f5f5"/>
			<rect x="84.159" y="143.99" width="130.44" height="6.702" fill="#e6e6e6"/><g fill="#f0f0f0">
			<rect x="90.163" y="119.29" width="5.746" height="24.704"/>
			<rect x="117.95" y="119.29" width="5.747" height="24.704"/>
			
				<rect transform="matrix(.9855 -.1698 .1698 .9855 -20.061 28.15)" x="151.63" y="118.98" width="5.747" height="24.704"/>
			<rect x="97.284" y="122.54" width="5.747" height="21.448"/>
			<rect x="110.49" y="122.54" width="5.747" height="21.448"/>
			<rect x="143.83" y="122.54" width="5.747" height="21.448"/>
			
				<rect transform="matrix(.9762 -.2169 .2169 .9762 -25.712 31.526)" x="127.89" y="122.18" width="5.747" height="21.448"/>
			<rect x="105.13" y="118.06" width="2.873" height="25.93"/>
			<rect x="139.31" y="118.06" width="2.873" height="25.93"/>
		</g></g><g transform="translate(2.2999 -1.8972)"><g transform="translate(-65.478 32.917)">
			
				<rect transform="rotate(180 149.38 197.38)" x="84.159" y="194.02" width="130.44" height="6.702" fill="#e6e6e6"/><g fill="#f0f0f0">
			
				<rect transform="rotate(180 205.72 181.67)" x="202.85" y="169.32" width="5.747" height="24.704"/>
			
				<rect transform="rotate(180 177.93 181.67)" x="175.06" y="169.32" width="5.747" height="24.704"/>
			
				<rect transform="matrix(-.9855 -.1698 .1698 -.9855 255.6 384.59)" x="141.38" y="169.01" width="5.746" height="24.704"/>
			
				<rect transform="rotate(180 198.6 183.3)" x="195.73" y="172.58" width="5.746" height="21.448"/>
			
				<rect transform="rotate(180 185.39 183.3)" x="182.52" y="172.58" width="5.747" height="21.448"/>
			
				<rect transform="rotate(180 152.05 183.3)" x="149.18" y="172.58" width="5.747" height="21.448"/>
			
				<rect transform="matrix(-.9762 -.2169 .2169 -.9762 292.31 397.95)" x="165.12" y="172.21" width="5.747" height="21.449"/>
			
				<rect transform="rotate(180 192.19 181.06)" x="190.76" y="168.09" width="2.873" height="25.93"/>
			
				<rect transform="rotate(180 158.01 181.06)" x="156.58" y="168.09" width="2.873" height="25.93"/>
			
				</g><rect transform="rotate(180 110.68 184.14)" x="96.675" y="174.47" width="28" height="19.331" fill="#f5f5f5"/>
		</g><g transform="translate(-267.9 -9.1046)">
			
				
					<rect transform="rotate(90 384.75 133.11)" x="369.25" y="111.17" width="31.005" height="43.873" fill="#ebebeb"/>
				
					<rect transform="rotate(90 384.75 133.11)" x="371.27" y="113.24" width="26.962" height="39.747" fill="#f5f5f5"/>
			
			
				
					<rect transform="rotate(90 369.54 172.06)" x="354.03" y="150.12" width="31.005" height="43.873" fill="#ebebeb"/>
				
					<rect transform="rotate(90 369.54 172.06)" x="356.05" y="152.19" width="26.962" height="39.747" fill="#f5f5f5"/>
			
			
				
					<rect transform="rotate(180 340.53 128.86)" x="326.58" y="109.11" width="27.917" height="39.503" fill="#ebebeb"/>
				
					<rect transform="rotate(180 340.53 128.86)" x="328.39" y="110.97" width="24.276" height="35.788" fill="#f5f5f5"/>
			
			
				
					<rect transform="rotate(180 326.2 178.49)" x="310.69" y="156.56" width="31.005" height="43.873" fill="#ebebeb"/>
				
					<rect transform="rotate(180 326.2 178.49)" x="312.72" y="158.62" width="26.962" height="39.747" fill="#f5f5f5"/>
			
			
				
					<rect transform="rotate(-90 299.92 136.47)" x="287.78" y="119.3" width="24.277" height="34.352" fill="#ebebeb"/>
				
					<rect transform="rotate(-90 299.92 136.47)" x="289.36" y="120.91" width="21.111" height="31.121" fill="#f5f5f5"/>
			
		</g><g transform="translate(77.907 -569.66)"><g transform="translate(-146.96 673.93)">
			<path d="m195.28 375.72h23.17l-12.181-99.206c-0.516-4.199-4.338-7.604-8.538-7.604h-101.1l14.821 106.81z" fill="#f5f5f5"/>
			<path d="m121.8 375.72h-23.17l-12.181-99.206c-0.516-4.199 2.471-7.604 6.67-7.604h7.963c4.2 0 8.022 3.404 8.537 7.604z" fill="#f0f0f0"/>
			
				<path d="m130.33 375.6-4.198-47.984c-0.188-2.143-1.843-3.866-3.977-4.138l-1.726-0.22c-2.863-0.365-5.084-2.676-5.336-5.551l-0.765-8.749c-0.314-3.586 2.512-6.67 6.112-6.67h-38.724c-3.6 0-6.426 3.084-6.112 6.67l0.766 8.749c0.251 2.875 2.473 5.186 5.335 5.551l1.726 0.22c2.134 0.272 3.79 1.995 3.977 4.138l4.198 47.984c0.306 3.498 3.235 6.183 6.747 6.183h38.723c-3.511 0-6.44-2.685-6.746-6.183z" fill="#e6e6e6"/>
			
			<path d="m236.9 315.61c0.659-7.535 6.969-13.317 14.533-13.317h-33.712c-7.564 0-13.874 5.782-14.533 13.317l-3.328 38.037h33.712z" fill="#e6e6e6"/>
			<path d="m266.4 302.29h-14.975c-7.564 0-13.873 5.782-14.533 13.317l-3.328 38.037h-80.29l-3.328-38.037c-0.659-7.535-6.969-13.317-14.533-13.317h-14.975c-3.6 0-6.426 3.084-6.112 6.67l0.765 8.749c0.252 2.875 2.473 5.186 5.336 5.551l1.726 0.22c2.134 0.272 3.79 1.995 3.977 4.138l4.198 47.984c0.306 3.498 3.235 6.183 6.747 6.183h112.69c3.512 0 6.441-2.684 6.747-6.183l4.198-47.984c0.188-2.143 1.843-3.866 3.977-4.138l1.727-0.22c2.863-0.365 5.084-2.676 5.336-5.552l0.765-8.749c0.315-3.584-2.511-6.669-6.111-6.669z" fill="#f0f0f0"/>
		</g><g transform="translate(-69.035 632.53)" fill="#ebebeb">
		<rect y="382.4" width="500" height=".25"/>
		<rect x="416.78" y="398.49" width="33.122" height=".25"/>
		<rect x="322.53" y="401.21" width="8.693" height=".25"/>
		<rect x="396.59" y="389.21" width="19.192" height=".25"/>
		<rect x="52.459" y="390.89" width="43.193" height=".25"/>
		<rect x="104.56" y="390.89" width="6.333" height=".25"/>
		<rect x="131.47" y="395.11" width="93.676" height=".25"/>
		<path d="m237.01 337.8h-193.1c-3.147 0-5.708-2.561-5.708-5.708v-271.43c0-3.147 2.561-5.708 5.708-5.708h193.1c3.146 0 5.707 2.561 5.707 5.708v271.43c0 3.147-2.561 5.708-5.707 5.708zm-193.1-282.6c-3.01 0-5.458 2.448-5.458 5.458v271.43c0 3.01 2.448 5.458 5.458 5.458h193.1c3.009 0 5.457-2.448 5.457-5.458v-271.43c0-3.009-2.448-5.458-5.457-5.458h-193.1z"/>
		<path d="m453.31 337.8h-193.1c-3.147 0-5.707-2.561-5.707-5.708v-271.43c0-3.147 2.561-5.708 5.707-5.708h193.1c3.148 0 5.708 2.561 5.708 5.708v271.43c1e-3 3.147-2.56 5.708-5.708 5.708zm-193.1-282.6c-3.009 0-5.457 2.448-5.457 5.458v271.43c0 3.01 2.448 5.458 5.457 5.458h193.1c3.01 0 5.458-2.448 5.458-5.458v-271.43c0-3.009-2.448-5.458-5.458-5.458h-193.1z"/>
	</g><g transform="translate(-71.474 632.53)">
				
					
						<path d="m85.384 345.82c0.013-0.396 1.344-39.676 7.733-45.889 6.214-6.041 13.347-0.225 13.646 0.025l0.641-0.768c-0.081-0.068-8.13-6.639-14.984 0.025-6.676 6.492-7.982 44.94-8.035 46.574z" fill="#e0e0e0"/>
					
					
						<path d="m84.836 353.54c0.046-0.47 4.367-47.156-12.683-66.724l-0.754 0.656c16.767 19.243 12.487 65.505 12.442 65.97z" fill="#e0e0e0"/>
					
					
						<path d="m85.466 348.61 0.998-0.066c-0.035-0.529-3.337-53.076 9.169-64.579l-0.677-0.736c-12.856 11.826-9.633 63.2-9.49 65.381z" fill="#e0e0e0"/>
					
					
						<path d="m83.838 348.58 1-8e-3c-0.012-1.447-0.413-35.493-10.084-41.035-2.15-1.233-4.255-1.438-6.257-0.61-5.848 2.419-8.746 12.826-8.866 13.268l0.965 0.264c0.028-0.103 2.89-10.377 8.285-12.607 1.701-0.702 3.509-0.517 5.377 0.554 9.177 5.257 9.577 39.825 9.58 40.174z" fill="#e0e0e0"/>
					
					
						<path d="m87.604 348.6 0.998-0.057c-0.015-0.268-1.459-26.904 5.729-36.289 1.742-2.273 3.632-3.357 5.63-3.218 4.71 0.329 8.66 7.222 8.699 7.291l0.871-0.492c-0.171-0.303-4.252-7.429-9.499-7.796-2.347-0.167-4.535 1.049-6.495 3.607-7.413 9.679-5.997 35.845-5.933 36.954z" fill="#e0e0e0"/>
					
					
						<path d="m86.028 352.22c0.196-2.584 4.699-63.402-3.225-74.119l-0.803 0.594c7.705 10.421 3.079 72.82 3.031 73.449z" fill="#e0e0e0"/>
					
				
				
					<path d="m66.342 313.09s4.754 1.752 3.34 5.89c-1.413 4.137-16.445 10.946-16.445 10.946s-6.295-5.77-0.514-15.154c5.783-9.384 13.491-4.642 13.619-1.682z" fill="#ebebeb"/>
				
				
					<path d="m87.007 305.21s-5.062-0.212-5.35 4.151 10.966 16.432 10.966 16.432 8.031-2.903 6.306-13.79c-1.724-10.887-10.664-9.476-11.922-6.793z" fill="#ebebeb"/>
				
				
					<path d="m91.293 284.33s-3.375-0.362-3.103-2.418 13.119-7.346 20.699 1.209c0 0-4.854 8.337-11.87 8.446s-5.726-7.237-5.726-7.237z" fill="#ebebeb"/>
				
				
					<path d="m85.004 279.34s3.056 1.477 3.912-0.411c0.857-1.888-7.249-13.173-18.207-9.922 0 0-0.29 9.643 5.607 13.446 5.898 3.804 8.688-3.113 8.688-3.113z" fill="#ebebeb"/>
				
				
					<path d="m100.98 311.42s-2.329-1.881 0.184-2.798c2.514-0.918 14.847-0.657 14.976 11.56 0 0-14.365 2.387-16.143-2.267-1.778-4.653 0.983-6.495 0.983-6.495z" fill="#ebebeb"/>
				
				
					<path d="m71.691 284.02s2.329-1.881-0.184-2.798c-2.514-0.918-14.847-0.657-14.976 11.56 0 0 14.365 2.387 16.143-2.266 1.777-4.655-0.983-6.496-0.983-6.496z" fill="#ebebeb"/>
				
				
					<path d="m79.285 293.86s0.205-2.286-1.641-1.39-8.275 7.832-1.61 14.415c0 0 8.972-6.645 7.354-10.105-1.617-3.461-4.103-2.92-4.103-2.92z" fill="#ebebeb"/>
				
				
					<path d="m103.06 297.12s-1.392-1.824 0.647-2.051c2.039-0.226 11.177 2.213 9.049 11.336 0 0-11.133-0.837-11.61-4.626-0.477-3.79 1.914-4.659 1.914-4.659z" fill="#ebebeb"/>
				
				<polygon points="65.454 382.44 103.65 382.44 107.77 340.62 61.333 340.62" fill="#f0f0f0"/>
				
					<rect transform="rotate(180 84.553 340.62)" x="59.293" y="336" width="50.519" height="9.228" fill="#e6e6e6"/>
			
			
				<rect x="136.02" y="127.77" width="101.72" height="204.54" fill="#fafafa"/>
				<rect x="133.67" y="124.99" width="106.42" height="10.037" fill="#f0f0f0"/>
				<g fill="#f0f0f0">
					<rect x="133.67" y="136.14" width="106.42" height="5.019"/>
					<rect x="133.67" y="143.59" width="106.42" height="5.019"/>
					<rect x="133.67" y="151.04" width="106.42" height="5.018"/>
					<rect x="133.67" y="158.49" width="106.42" height="5.019"/>
					<rect x="133.67" y="165.93" width="106.42" height="5.019"/>
					<rect x="133.67" y="173.38" width="106.42" height="5.018"/>
					<rect x="133.67" y="180.83" width="106.42" height="5.018"/>
					<rect x="133.67" y="188.28" width="106.42" height="5.019"/>
					<rect x="133.67" y="195.73" width="106.42" height="5.019"/>
					<rect x="133.67" y="203.18" width="106.42" height="5.018"/>
					<rect x="133.67" y="210.62" width="106.42" height="5.019"/>
					<rect x="133.67" y="218.07" width="106.42" height="5.019"/>
					<rect x="133.67" y="225.52" width="106.42" height="5.018"/>
					<rect x="133.67" y="232.97" width="106.42" height="5.019"/>
					<rect x="133.67" y="240.42" width="106.42" height="5.019"/>
					<rect x="133.67" y="247.86" width="106.42" height="5.018"/>
					<rect x="133.67" y="255.31" width="106.42" height="5.018"/>
					<rect x="133.67" y="262.76" width="106.42" height="5.019"/>
					<rect x="133.67" y="270.21" width="106.42" height="5.018"/>
					<rect x="133.67" y="277.66" width="106.42" height="5.018"/>
					<rect x="133.67" y="285.11" width="106.42" height="5.019"/>
					<rect x="133.67" y="292.55" width="106.42" height="5.019"/>
					<rect x="133.67" y="300" width="106.42" height="5.018"/>
					<rect x="133.67" y="307.45" width="106.42" height="5.019"/>
					<rect x="133.67" y="314.9" width="106.42" height="5.019"/>
					<rect x="133.67" y="322.35" width="106.42" height="5.018"/>
					<rect x="133.67" y="329.8" width="106.42" height="5.018"/>
				</g>
			
			
				<rect x="262.26" y="127.77" width="101.72" height="204.54" fill="#fafafa"/>
				<rect x="259.91" y="124.99" width="106.42" height="10.037" fill="#f0f0f0"/>
				<g fill="#f0f0f0">
					<rect x="259.91" y="136.14" width="106.42" height=".923"/>
					<rect x="259.91" y="138.24" width="106.42" height=".923"/>
					<rect x="259.91" y="140.33" width="106.42" height=".923"/>
					<rect x="259.91" y="142.43" width="106.42" height=".923"/>
					<rect x="259.91" y="144.52" width="106.42" height=".923"/>
					<rect x="259.91" y="146.62" width="106.42" height=".923"/>
					<rect x="259.91" y="148.72" width="106.42" height=".923"/>
					<rect x="259.91" y="150.81" width="106.42" height=".923"/>
					<rect x="259.91" y="152.91" width="106.42" height=".923"/>
					<rect x="259.91" y="155" width="106.42" height=".923"/>
					<rect x="259.91" y="157.1" width="106.42" height=".923"/>
					<rect x="259.91" y="159.19" width="106.42" height=".923"/>
					<rect x="259.91" y="161.29" width="106.42" height=".923"/>
					<rect x="259.91" y="163.38" width="106.42" height=".923"/>
					<rect x="259.91" y="165.48" width="106.42" height=".923"/>
					<rect x="259.91" y="167.58" width="106.42" height=".923"/>
					<rect x="259.91" y="169.67" width="106.42" height=".923"/>
					<rect x="259.91" y="171.77" width="106.42" height=".923"/>
				</g>
			
		
			
				<ellipse transform="matrix(.1602 -.9871 .9871 .1602 114.92 327.63)" cx="250" cy="96.281" rx="15.169" ry="15.17" fill="#f0f0f0"/>
			
				<circle transform="matrix(.1602 -.9871 .9871 .1602 114.92 327.63)" cx="250" cy="96.281" r="12.898" fill="#fafafa"/>
			
				<polyline points="249.39 87.434 249.39 96.45 243.42 93.069" fill="#f0f0f0" stroke="#e0e0e0" stroke-linecap="round" stroke-linejoin="round" stroke-miterlimit="10" stroke-width="2"/>
		</g><g transform="translate(-36.108 551.83)">
	
		<path d="m438.47 360.52h-182.71c-2.018 0-3.654-1.636-3.654-3.654v-199.46c0-2.018 1.636-3.654 3.654-3.654h182.71c2.018 0 3.654 1.636 3.654 3.654v199.46c0 2.018-1.636 3.654-3.654 3.654z" fill="#407bff" opacity=".5"/>
		<path d="m432.47 356.52h-182.71c-2.018 0-3.654-1.636-3.654-3.654v-199.46c0-2.018 1.636-3.654 3.654-3.654h182.71c2.018 0 3.654 1.636 3.654 3.654v199.46c0 2.018-1.636 3.654-3.654 3.654z" fill="#407bff"/>
		<path d="m432.47 356.52h-182.71c-2.018 0-3.654-1.636-3.654-3.654v-199.46c0-2.018 1.636-3.654 3.654-3.654h182.71c2.018 0 3.654 1.636 3.654 3.654v199.46c0 2.018-1.636 3.654-3.654 3.654z" enable-background="new" fill="#fff" opacity=".8"/>
	
	
		<path d="m189.09 325.63h-92.711c-2.018 0-3.654-1.636-3.654-3.654v-169.46c0-2.018 1.636-3.654 3.654-3.654h92.711c2.018 0 3.654 1.636 3.654 3.654v169.46c0 2.018-1.636 3.654-3.654 3.654z" fill="#407bff" opacity=".5"/>
		<path d="m183.09 319.63h-92.711c-2.018 0-3.654-1.636-3.654-3.654v-169.46c0-2.018 1.636-3.654 3.654-3.654h92.711c2.018 0 3.654 1.636 3.654 3.654v169.46c0 2.018-1.636 3.654-3.654 3.654z" fill="#407bff"/>
		<path d="m183.09 319.63h-92.711c-2.018 0-3.654-1.636-3.654-3.654v-169.46c0-2.018 1.636-3.654 3.654-3.654h92.711c2.018 0 3.654 1.636 3.654 3.654v169.46c0 2.018-1.636 3.654-3.654 3.654z" enable-background="new" fill="#fff" opacity=".8"/>
	
	
		<path d="m433.07 114.56h-342.49c-2.127 0-3.852-1.725-3.852-3.852v-15.552c0-2.127 1.725-3.852 3.852-3.852h342.49c2.127 0 3.852 1.725 3.852 3.852v15.552c0 2.128-1.724 3.852-3.852 3.852z" fill="#407bff"/><g fill="#fff">
		<path d="m401.39 102.94c0 2.506-2.009 4.537-4.488 4.537s-4.488-2.032-4.488-4.537c0-2.506 2.009-4.537 4.488-4.537s4.488 2.031 4.488 4.537z" enable-background="new" opacity=".6"/>
		<path d="m415.42 102.94c0 2.506-2.009 4.537-4.488 4.537s-4.488-2.032-4.488-4.537c0-2.506 2.009-4.537 4.488-4.537s4.488 2.031 4.488 4.537z" enable-background="new" opacity=".6"/>
		<path d="m429.46 102.94c0 2.506-2.009 4.537-4.488 4.537s-4.488-2.032-4.488-4.537c0-2.506 2.009-4.537 4.488-4.537s4.488 2.031 4.488 4.537z" enable-background="new" opacity=".6"/>
		<rect x="94.893" y="97.103" width="11.539" height="11.666" enable-background="new" opacity=".6"/>
	</g>
</g><g transform="translate(-36.108 551.83)">
	
		
			<rect x="72.67" y="171.04" width="107.84" height="20.629" fill="#407bff"/>
			<rect x="72.67" y="171.04" width="107.84" height="20.629" enable-background="new" opacity=".2"/>
		
		
			<rect x="79.58" y="177.05" width="8.613" height="8.613" fill="#fff"/>
			
				<polyline points="81.464 181.38 83.069 183.44 86.309 179.27" fill="none" stroke="#407bff" stroke-linecap="round" stroke-linejoin="round" stroke-miterlimit="10" stroke-width="1.5"/>
		
		<path d="m174.83 186.19h-8.66v-5.855h8.66zm-4.329-10.161c-2.025 0-3.673 1.647-3.673 3.673h1c0-1.474 1.199-2.673 2.673-2.673s2.673 1.199 2.673 2.673h1c0-2.025-1.648-3.673-3.673-3.673z" fill="#407bff"/>
	
	
		
			<rect x="56.824" y="209.18" width="107.84" height="20.629" fill="#407bff"/>
			<rect x="56.824" y="209.18" width="107.84" height="20.629" enable-background="new" fill="#fff" opacity=".4"/>
		
		
			<rect x="63.734" y="215.18" width="8.613" height="8.613" fill="#fff"/>
		
		
			<rect x="150.32" y="218.47" width="8.66" height="5.854" fill="#fff"/>
			
				<path d="m158.32 217.83h-1c0-1.474-1.199-2.673-2.673-2.673s-2.673 1.199-2.673 2.673h-1c0-2.025 1.648-3.673 3.673-3.673s3.673 1.648 3.673 3.673z" fill="#fff"/>
			
		
	
	
		
			<rect x="73.229" y="249.1" width="107.84" height="20.629" fill="#407bff"/>
			<rect x="73.229" y="249.1" width="107.84" height="20.629" enable-background="new" fill="#fff" opacity=".4"/>
		
		
			<rect x="80.138" y="255.11" width="8.613" height="8.613" fill="#fff"/>
			
				<polyline points="82.023 259.43 83.628 261.5 86.867 257.33" fill="none" stroke="#407bff" stroke-linecap="round" stroke-linejoin="round" stroke-miterlimit="10" stroke-width="1.5"/>
		
		<g enable-background="new" opacity=".6">
			<rect x="166.73" y="258.39" width="8.66" height="5.854" fill="#fff"/>
			
				<path d="m174.73 257.76h-1c0-1.475-1.199-2.674-2.673-2.674s-2.673 1.199-2.673 2.674h-1c0-2.025 1.648-3.674 3.673-3.674s3.673 1.648 3.673 3.674z" fill="#fff"/>
			
		</g>
	

	
		
			<rect x="326.97" y="226.62" width="84.207" height="54.769" fill="#407bff"/>
			<rect x="326.97" y="226.62" width="84.207" height="54.769" enable-background="new" fill="#fff" opacity=".5"/>
		
		<rect x="330.05" y="236.88" width="78.046" height="41.761" fill="#407bff"/>
		<g fill="#fff">
			<rect x="336.41" y="243.12" width="57.732" height="1.797"/>
			<rect x="336.41" y="248.63" width="27.7" height="1.796"/>
			<rect x="336.41" y="254.13" width="34.888" height="1.796"/>
			<rect x="336.41" y="259.63" width="12.296" height="1.796"/>
			<rect x="336.41" y="265.13" width="7.963" height="1.797"/>
		</g>
	
	
		<path d="m413.59 334.62v30.536c0 1.739-1.276 3.169-2.938 3.411-0.165 0.033-0.341 0.044-0.517 0.044h-39.229c-1.904 0-3.455-1.541-3.455-3.455v-30.536c0-0.539 0.121-1.056 0.352-1.508 0.55-1.155 1.739-1.959 3.103-1.959h15.372c0.749 0 1.453-0.242 2.036-0.66 0.572-0.407 1.023-1.001 1.254-1.717 0.473-1.431 1.794-2.388 3.29-2.388h8.187c1.497 0 2.828 0.957 3.29 2.388 0.462 1.419 1.794 2.377 3.29 2.377h2.509c1.904 1e-3 3.456 1.552 3.456 3.467z" fill="#407bff"/>
		<path d="m410.65 336.06v32.505l-0.044 0.044h-39.702c-1.904 0-3.455-1.541-3.455-3.455v-30.536c0-0.539 0.121-1.056 0.352-1.508h39.899c1.63 1e-3 2.95 1.321 2.95 2.95z" enable-background="new" fill="#fff" opacity=".3"/>
	
	
		<polygon points="319.97 327.86 312.51 335.32 285.15 335.32 285.15 289.67 319.97 289.67" fill="#407bff"/>
		<polygon points="319.97 327.86 312.51 335.32 285.15 335.32 285.15 289.67 319.97 289.67" enable-background="new" fill="#fff" opacity=".4"/>
		
			<polygon points="312.51 335.32 319.97 327.86 312.51 327.86" fill="#407bff"/>
		
		<g fill="#407bff">
			<rect x="289.49" y="297.42" width="26.256" height="1.433"/>
			<rect x="289.49" y="301.8" width="22.088" height="1.433"/>
			<rect x="289.49" y="306.19" width="26.256" height="1.433"/>
			<rect x="289.49" y="310.58" width="9.805" height="1.433"/>
			<rect x="289.49" y="314.97" width="6.35" height="1.433"/>
		</g>
	

	
		
			<rect x="272.25" y="143.9" width="71.187" height="58.821" fill="#407bff"/><g fill="#fff">
			<path d="m272.25 143.9v58.821h71.187v-58.821zm68.864 56.499h-66.543v-54.177h66.543z" enable-background="new" opacity=".6"/>
			<polygon points="274.58 184.34 294.98 169.52 310.14 184.34 325.3 175.68 341.12 185.42 341.12 200.4 274.58 200.4" enable-background="new" opacity=".3"/>
			<path d="m322.64 159.59c0 2.692-2.182 4.874-4.875 4.874-2.692 0-4.875-2.182-4.875-4.874s2.182-4.875 4.875-4.875c2.692 1e-3 4.875 2.183 4.875 4.875z" enable-background="new" opacity=".6"/>
		</g>
		
			<g fill="none" stroke="#263238" stroke-miterlimit="10">
				<polyline points="348.09 205.16 348.09 207.16 346.09 207.16"/>
				
					<line x1="342.95" x2="271.35" y1="207.16" y2="207.16" stroke-dasharray="4.1812, 3.1359"/>
				<polyline points="269.78 207.16 267.78 207.16 267.78 205.16"/>
				
					<line x1="267.78" x2="267.78" y1="202.27" y2="143.01" stroke-dasharray="3.8548, 2.8911"/>
				<polyline points="267.78 141.56 267.78 139.56 269.78 139.56"/>
				
					<line x1="272.92" x2="344.52" y1="139.56" y2="139.56" stroke-dasharray="4.1812, 3.1359"/>
				<polyline points="346.09 139.56 348.09 139.56 348.09 141.56"/>
				
					<line x1="348.09" x2="348.09" y1="144.45" y2="203.72" stroke-dasharray="3.8548, 2.8911"/>
			</g>
		<g fill="#263238">
		<rect x="346.51" y="137.98" width="3.154" height="3.154"/>
		<rect x="346.51" y="205.59" width="3.154" height="3.154"/>
		<rect x="266.2" y="205.59" width="3.154" height="3.154"/>
		<rect x="266.2" y="137.98" width="3.154" height="3.154"/>
		<rect x="306.27" y="137.98" width="3.154" height="3.154"/>
		<rect x="306.36" y="205.59" width="3.154" height="3.154"/>
		<rect x="346.51" y="171.79" width="3.154" height="3.154"/>
		<rect x="266.2" y="171.79" width="3.154" height="3.154"/>
	</g>
</g><g transform="translate(-120.88 651.57)">
	
		<path d="m123.07 228.28-4.446 6.429s-0.796 1.088-0.697 3.165 2.262 8.901 2.813 9c0.55 0.099 4.111-1.78 4.704-2.275s-2.275-6.821-2.473-7.02-0.494-0.991-0.494-0.991l4.136-5.195z" fill="#eec1bb"/>
		
			<path d="m118.62 192.88c4.545 1.572 14.929 18.578 15.918 24.465s-10.78 19.239-10.78 19.239l-4.231-4.074s8.1-12.805 8.198-14.129-8.121-14.001-8.121-14.001z" fill="#407bff"/>
			<path d="m134.6 218.13c-0.01 1.49-0.64 3.32-1.58 5.24-0.32 0.64-0.66 1.29-1.04 1.94-0.83 1.45-1.79 2.91-2.74 4.27-0.42 0.6-0.84 1.17-1.25 1.72-1.21 1.63-2.34 3.03-3.13 3.98-0.68 0.82-1.1 1.3-1.1 1.3l-4.23-4.07s0.2-0.32 0.54-0.87c0.44-0.69 1.1-1.75 1.86-2.97 0.33-0.55 0.69-1.12 1.05-1.72 0.61-1.01 1.25-2.06 1.85-3.07 0.36-0.61 0.71-1.2 1.03-1.76 0.41-0.72 0.78-1.39 1.08-1.95 0.47-0.89 0.77-1.54 0.79-1.79 0.01-0.08-0.02-0.19-0.07-0.34-0.15-0.49-0.59-1.37-1.19-2.45-0.3-0.54-0.64-1.14-1-1.76-0.68-1.15-1.43-2.4-2.17-3.6-0.08-0.13-0.16-0.26-0.24-0.38-0.29-0.47-0.57-0.93-0.85-1.37-1.45-2.31-2.61-4.1-2.61-4.1l-0.03-0.4-0.24-2.71-0.22-2.6-0.49-5.79c1.11 0.39 2.58 1.7 4.17 3.55 0.44 0.51 0.89 1.07 1.35 1.65 0.98 1.27 1.99 2.7 2.98 4.19 0.41 0.62 0.81 1.25 1.2 1.88 0.88 1.41 1.72 2.85 2.48 4.26 0.36 0.66 0.71 1.31 1.02 1.95 1.11 2.18 1.96 4.18 2.43 5.74 0.13 0.46 0.23 0.87 0.29 1.24 0.04 0.25 0.06 0.51 0.06 0.79z" enable-background="new" fill="#fff" opacity=".7"/>
			<g opacity=".2">
				<path d="m124.14 198.08c-1.07 1.75-2.59 3.88-4.57 5.9l-0.24-2.71c1.5-1.73 2.65-3.45 3.46-4.84 0.44 0.51 0.89 1.07 1.35 1.65z"/>
				<path d="m128.32 204.15c-1.2 1.86-2.86 4.05-5.02 6.08-0.37-0.6-0.74-1.19-1.09-1.75 2.18-2.09 3.8-4.39 4.91-6.21 0.41 0.62 0.81 1.25 1.2 1.88z"/>
				<path d="m131.82 210.36c-1.32 1.63-3.12 3.52-5.35 5.23-0.3-0.54-0.64-1.14-1-1.76 2.29-1.81 4.08-3.82 5.33-5.42 0.36 0.66 0.71 1.31 1.02 1.95z"/>
				<path d="m126.94 220.17c0.47-0.89 0.77-1.54 0.79-1.79 0.01-0.08-0.02-0.19-0.07-0.34 2.52-0.44 4.79-1.2 6.59-1.94 0.13 0.46 0.23 0.87 0.29 1.24 0.04 0.25 0.06 0.51 0.06 0.79-2.1 0.84-4.73 1.66-7.66 2.04z"/>
				<path d="m133.02 223.37c-0.32 0.64-0.66 1.29-1.04 1.94-2.14-0.18-4.62-0.59-7.15-1.43 0.36-0.61 0.71-1.2 1.03-1.76 2.57 0.79 5.08 1.13 7.16 1.25z"/>
				<path d="m129.24 229.58c-0.42 0.6-0.84 1.17-1.25 1.72-1.88-0.6-3.98-1.45-6.06-2.63 0.33-0.55 0.69-1.12 1.05-1.72 2.16 1.23 4.35 2.06 6.26 2.63z"/>
				<path d="m124.86 235.28c-0.68 0.82-1.1 1.3-1.1 1.3l-4.23-4.07s0.2-0.32 0.54-0.87c1.57 1.49 3.24 2.7 4.79 3.64z"/>
			</g>
			<path d="m123.06 209.85c-0.29-0.47-0.57-0.93-0.85-1.37-1.45-2.31-2.61-4.1-2.61-4.1l-0.03-0.4-0.24-2.71-0.22-2.6c1.93 1.24 5.41 4.47 3.95 11.18z" enable-background="new" opacity=".2"/>
		
		<path d="m86.275 159.51s2.398-3.561 8.749-4.022c6.35-0.462 13.471 1.365 16.9 10.111l-2.769 0.67s2.769 8.537 2.374 20.208c0 0-15.758-0.462-30.132 3.429 0 0-2.176-10.423-0.593-20.706 1.581-10.283 5.471-9.69 5.471-9.69z" fill="#263238"/>
		<polygon points="143.78 389.7 145.89 399.19 147.76 407.62 141.45 408.74 138.87 400.14 136.51 392.24" fill="#e4897b"/>
		<polygon points="136.52 392.33 143.79 389.75 145.92 399.39 138.9 400.31" enable-background="new" opacity=".2"/>
		<polygon points="104.85 392.01 105.28 401.81 105.65 410.53 99.246 410.53 98.194 401.51 97.242 393.28" fill="#e4897b"/>
		<polygon points="97.242 393.31 104.85 392.03 105.28 401.9 98.194 401.58" enable-background="new" opacity=".2"/>
		
			
				<path d="m146.52 394.38-10.369 1.828c-10.464-26.07-17.907-47.831-23.163-65.889-2.831-9.744-5.193-18.409-6.888-26.098l0.318 28.38v63.93h-10.219c-25.615-122-7.462-149.8-7.462-149.8l30.643-5.102c1.165 4.574 2.046 12.056 2.566 17.217l1.383 10.166 11.979 61.872z" fill="#407bff"/>
			
		
		<path d="m112.99 330.32c-2.831-9.744-5.038-18.409-6.733-26.098 0 0 0.17-14.943 1.979-27.215 0 0 4.489 35.103 4.754 53.313z" enable-background="new" opacity=".2"/>
		
			<path d="m82.647 209.28c1.203 3.864 2.14 7.206 2.888 10.199 2.339 9.261 2.831 15.189 3.323 22.954l31.259-2.699c1.25-22.017 0.691-34.119 0.123-40.17-0.625-6.449-1.619-6.686-1.619-6.686s-6.989-0.682-13.068-0.634c-4.706 0.161-9.403 0.653-14.034 1.477-3.365 0.558-6.691 1.306-9.974 2.233-1.631 0.461-2.549 2.183-2.007 3.788 0.334 0.986 0.652 1.943 0.958 2.871 0.797 2.387 1.507 4.602 2.151 6.667z" fill="#407bff"/>
			<path d="m120.12 239.74-31.26 2.69c-0.17-2.69-0.35-5.16-0.6-7.62-0.46-4.65-1.2-9.28-2.73-15.33-0.21-0.83-0.43-1.69-0.66-2.58h-0.01c-0.61-2.31-1.35-4.83-2.22-7.62-0.26-0.84-0.53-1.7-0.81-2.59-0.34-1.06-0.7-2.16-1.07-3.3-0.09-0.25-0.17-0.51-0.26-0.77-0.31-0.93-0.63-1.89-0.96-2.87-0.55-1.61 0.37-3.33 2-3.8 2.64-0.75 5.31-1.37 8-1.88 0.66-0.12 1.32-0.24 1.98-0.35 4.07-0.72 8.19-1.19 12.32-1.39 0.57-0.04 1.14-0.06 1.71-0.08h0.67c0.45 0 0.9 0 1.35 0.01 5.51 0.08 11.05 0.62 11.05 0.62s0.99 0.24 1.62 6.69c0.57 6.05 1.13 18.15-0.12 40.17z" enable-background="new" fill="#fff" opacity=".7"/>
			
				<path d="m120.42 201.7c-17.436-0.13-32.245 2.529-38.921 3.963 0.111 0.342 0.224 0.692 0.333 1.026 0.096 0.305 0.184 0.589 0.278 0.887 6.672-1.425 21.266-4.019 38.444-3.874-0.043-0.716-0.088-1.381-0.134-2.002z" opacity=".2"/>
				<path d="m120.8 209.64c-0.018-0.695-0.038-1.362-0.061-2.002-16.19-0.152-30.146 2.111-37.495 3.596 0.199 0.657 0.389 1.297 0.572 1.924 7.299-1.467 21.042-3.674 36.984-3.518z" opacity=".2"/>
				<path d="m120.87 215.58c-1e-3 -0.685-4e-3 -1.354-9e-3 -2-15.124-0.151-28.315 1.805-36.009 3.278 0.178 0.665 0.343 1.306 0.503 1.938 7.612-1.452 20.612-3.371 35.515-3.216z" opacity=".2"/>
				<path d="m86.261 222.54c0.151 0.667 0.293 1.319 0.425 1.955 7.734-1.411 20.081-3.108 34.138-2.969 0.012-0.683 0.021-1.349 0.028-2.001-14.236-0.144-26.755 1.582-34.591 3.015z" opacity=".2"/>
				<path d="m87.397 228.27c0.111 0.667 0.214 1.324 0.308 1.972 7.752-1.366 19.59-2.911 32.971-2.787 0.022-0.678 0.042-1.345 0.06-1.998-13.517-0.123-25.48 1.432-33.339 2.813z" opacity=".2"/>
				<path d="m88.183 234.07c0.026 0.245 0.054 0.491 0.079 0.736 0.042 0.418 0.081 0.838 0.119 1.258 7.705-1.328 19.147-2.773 32.064-2.673 0.03-0.678 0.059-1.343 0.086-1.999-12.993-0.107-24.53 1.338-32.348 2.678z" opacity=".2"/>
				<path d="m88.829 241.93c7.637-1.293 18.772-2.669 31.315-2.602 0.038-0.676 0.074-1.344 0.109-2.001-12.597-0.082-23.811 1.288-31.56 2.593 0.047 0.658 0.092 1.328 0.136 2.01z" opacity=".2"/>
				<path d="m101.21 200.09c2.25 0.029 3.575-0.728 4.342-1.792 4.499-0.351 9.372-0.566 14.481-0.54-0.103-0.781-0.211-1.448-0.32-1.999-4.673-0.014-9.148 0.171-13.322 0.474 0.276-1.544 0.011-3.151-0.172-3.983h-0.67c-4.7 0.16-9.4 0.65-14.03 1.47-0.66 0.11-1.32 0.23-1.98 0.35 0.133 0.361 0.861 2.14 3.067 3.672-5.991 0.877-10.527 1.834-12.939 2.39 0.22 0.649 0.431 1.281 0.638 1.904 2.813-0.643 8.332-1.788 15.584-2.732 1.445 0.452 3.187 0.758 5.321 0.786z" opacity=".2"/>
			
			<path d="m101.21 220.43c-4.15 3.08-11.02-0.08-16.34-3.53h-0.01c-0.61-2.31-1.35-4.83-2.22-7.62-0.26-0.84-0.53-1.7-0.81-2.59-0.34-1.06-0.7-2.16-1.07-3.3l1.74-3.87s6.46 2.39 14.96 5.24c0 0 3.05-3.15 4.07-10.61l2.31-1.82c0.57-0.04 1.14-0.06 1.71-0.08h0.67c0.45 0 0.9 0 1.35 0.01 0.07 6.79-0.39 23.74-6.36 28.17z" enable-background="new" opacity=".2"/>
		
		
			<polygon points="120.12 245.09 88.118 247.92 88.858 242.43 120.12 239.74" fill="#263238"/>
			
				<path d="m110.77 240.67c-0.399-0.365-0.935-0.553-1.478-0.503l-3.904 0.337c-1.011 0.088-1.773 0.918-1.773 1.933v2.493c0 0.542 0.229 1.064 0.629 1.43 0.358 0.328 0.829 0.51 1.312 0.51 0.057 0 0.113-3e-3 0.169-8e-3l3.904-0.345c1.008-0.089 1.769-0.919 1.769-1.932v-2.485c0-0.542-0.228-1.063-0.628-1.43zm-1.228 4.851-3.904 0.345c-0.267 0.025-0.521-0.063-0.718-0.243-0.196-0.18-0.305-0.426-0.305-0.692v-2.493c0-0.491 0.369-0.894 0.859-0.937l3.904-0.337c0.028-2e-3 0.056-4e-3 0.083-4e-3 0.235 0 0.457 0.087 0.633 0.248 0.196 0.18 0.304 0.426 0.304 0.692v0.378c-0.051-8e-3 -0.1-0.023-0.153-0.019l-1.093 0.084c-0.364 0.028-0.638 0.348-0.61 0.712s0.348 0.638 0.712 0.61l1.093-0.084c0.019-1e-3 0.033-0.012 0.051-0.014v0.818c0 0.491-0.368 0.893-0.856 0.936z" fill="#fff"/>
			
		
		
			<path d="m97.749 406.16c0.016-0.669 8.232-0.145 8.232-0.145s5.055 5.142 9.965 6.297 2.166 4.102-3.322 4.102h-13.576c-3.898 0-1.461-3.321-1.299-10.254z" fill="#263238"/>
			
				<path d="m110.3 408.12c-1.148 0-2.973-0.836-3.406-1.041-0.029-0.013-0.053-0.033-0.073-0.056-0.011-0.014-0.021-0.03-0.029-0.046-0.024-0.051-0.028-0.11-8e-3 -0.166 0.029-0.081 0.719-1.999 1.834-2.463 0.353-0.147 0.712-0.137 1.063 0.029 0.374 0.178 0.556 0.41 0.54 0.691-0.025 0.432-0.61 0.865-1.278 1.222 0.695-0.068 1.407-0.049 1.843 0.202 0.231 0.133 0.379 0.32 0.439 0.556 0.124 0.487-0.04 0.745-0.199 0.876-0.172 0.139-0.426 0.196-0.726 0.196zm-2.654-1.179c1.21 0.512 2.716 0.966 3.104 0.647 0.034-0.028 0.136-0.112 0.054-0.434-0.031-0.12-0.107-0.214-0.235-0.287-0.592-0.34-2.001-0.131-2.923 0.074zm1.47-2.263c-0.11 0-0.221 0.024-0.333 0.07-0.607 0.252-1.126 1.146-1.41 1.767 1.217-0.462 2.393-1.102 2.414-1.471 7e-3 -0.115-0.18-0.221-0.293-0.274-0.126-0.062-0.252-0.092-0.378-0.092z" fill="#407bff"/>
			
		
		
			<path d="m139.75 406.16c0.016-0.669 8.232-0.145 8.232-0.145s5.055 5.142 9.965 6.297 2.166 4.102-3.322 4.102h-13.576c-3.898 0-1.461-3.321-1.299-10.254z" fill="#263238"/>
			
				<path d="m152.3 408.12c-1.148 0-2.973-0.836-3.406-1.041-0.029-0.013-0.053-0.033-0.073-0.056-0.011-0.014-0.021-0.03-0.029-0.046-0.024-0.051-0.028-0.11-8e-3 -0.166 0.029-0.081 0.719-1.999 1.833-2.463 0.353-0.147 0.712-0.137 1.063 0.029 0.374 0.178 0.556 0.41 0.54 0.691-0.025 0.432-0.61 0.865-1.278 1.222 0.695-0.068 1.406-0.049 1.843 0.202 0.231 0.133 0.379 0.32 0.439 0.556 0.124 0.487-0.04 0.745-0.199 0.876-0.171 0.139-0.425 0.196-0.725 0.196zm-2.654-1.179c1.21 0.512 2.716 0.966 3.104 0.647 0.034-0.028 0.136-0.112 0.054-0.434-0.031-0.12-0.107-0.214-0.235-0.287-0.592-0.34-2.001-0.131-2.923 0.074zm1.471-2.263c-0.11 0-0.221 0.024-0.333 0.07-0.607 0.252-1.126 1.146-1.41 1.767 1.217-0.462 2.393-1.102 2.414-1.471 7e-3 -0.115-0.18-0.221-0.293-0.274-0.127-0.062-0.253-0.092-0.378-0.092z" fill="#407bff"/>
			
		
		<path d="m101.77 198.92c-7.296-0.934-9.488-4.05-9.488-4.05 4.629-4.367 0.783-11.935 0.783-11.935l8.782 1.64c-0.231 1.451-0.329 2.669-0.343 3.697-0.067 5.33 2.344 5.382 2.344 5.382 1.54 2.886-2.078 5.266-2.078 5.266z" fill="#eec1bb"/>
		<path d="m101.85 184.58c-0.231 1.451-0.329 2.669-0.343 3.697-5.932 0-8.438-5.337-8.438-5.337z" enable-background="new" opacity=".2"/>
		
			<path d="m108.13 181.08c-0.07 0.26-0.14 0.51-0.22 0.75-1.02 3.1-3.2 5.01-7.04 5.09-0.53 0.02-1.09 0-1.68-0.06-0.35-0.04-0.73-0.09-1.11-0.15-13.12-2.14-13.76-25.99-1.08-26.69 7.63-0.42 10.31 3.54 11.3 11.37 0.47 3.73 0.5 7.07-0.17 9.69z" fill="#eec1bb"/>
			<path d="m103.34 171.24s1.167 1.936 2.395 3.044c0 0-0.596 1.074-1.965 0.974z" fill="#d4827d"/>
			<g fill="#263238">
				<path d="m98.636 170.87c0.049 0.626-0.25 1.16-0.667 1.193-0.418 0.033-0.796-0.448-0.845-1.075-0.049-0.626 0.25-1.16 0.667-1.193 0.418-0.032 0.796 0.449 0.845 1.075z"/>
				<path d="m97.62 169.84 1.32-0.641c0 1e-3 -0.588 1.2-1.32 0.641z"/>
			</g>
			<g fill="#263238">
				<path d="m106.41 170.13c0.049 0.626-0.25 1.16-0.667 1.193-0.418 0.033-0.796-0.449-0.845-1.075s0.25-1.16 0.667-1.193c0.418-0.033 0.796 0.448 0.845 1.075z"/>
				<path d="m105.4 169.1 1.32-0.641s-0.588 1.199-1.32 0.641z"/>
			</g>
			
				<path d="m98.271 165.6s-2.16-0.161-3.247 1.335" fill="none" stroke="#263238" stroke-linecap="round" stroke-linejoin="round" stroke-miterlimit="10" stroke-width=".7247"/>
			
				<path d="m103.8 164.98s1.321-0.573 3.077 0.461" fill="none" stroke="#263238" stroke-linecap="round" stroke-linejoin="round" stroke-miterlimit="10" stroke-width=".7247"/>
			<path d="m89.358 173.35s3.226-6.467 2.42-11.28c0 0 14.788-7.008 16.376 8.305 0 0 0.731-13.715-12.408-13.3-13.118 0.414-12.031 19.61-4.941 24.958 0 1e-3 -3.44-4.64-1.447-8.683z" fill="#263238"/>
			<path d="m90.693 174.89c-0.118-1.226-1.501-3.237-3.773-2.862-2.351 0.388-3.213 5.306 2.735 6.151 0.854 0.121 1.285-0.731 1.038-3.289z" fill="#eec1bb"/>
			<path d="m99.709 176.65s0.592 2.374 3.634 2.637" fill="none" stroke="#263238" stroke-linecap="round" stroke-linejoin="round" stroke-miterlimit="10" stroke-width=".5"/>
			<path d="m107.91 181.83c-1.02 3.1-3.2 5.01-7.04 5.09 1.64-2.69 5.14-4.49 7.04-5.09z" enable-background="new" opacity=".1"/>
		
		<g fill="none" stroke="#263238" stroke-linecap="round" stroke-linejoin="round" stroke-miterlimit="10" stroke-width=".25">
			<path d="m102.28 171.59c0 1.729-1.401 3.13-3.13 3.13s-3.13-1.402-3.13-3.13c0-1.729 1.401-3.13 3.13-3.13 1.728 0 3.13 1.402 3.13 3.13z"/>
			<path d="m110.49 170.33c0 1.729-1.401 3.13-3.13 3.13s-3.13-1.401-3.13-3.13 1.401-3.13 3.13-3.13c1.728 0 3.13 1.401 3.13 3.13z"/>
			<path d="m102.21 170.93s1.22-1.325 2.036-0.274"/>
			
				<line x1="96.023" x2="89.143" y1="171.59" y2="172.06"/>
		</g>
		<path d="m101.21 195.77 1.129-5.868s-0.763-0.016-0.565-1.629c0.198-1.612 4.173-5.744 5.868-6.244 1.695-0.501 3.146 5.869 3.278 6.244 0.132 0.376-3.776 3.804-4.855 3.409l-1.013 5.168z" fill="#eec1bb"/>
		
			<path d="m79.258 197.52c-3.467 8.408 16.199 19.4 20.869 19.821s6.587-24.204 6.587-24.204l-5.189-0.887s-1.954 17.867-3.906 16.795c-1.951-1.072-15.819-17.689-18.361-11.525z" fill="#407bff"/>
			<path d="m106.71 193.13s-0.05 0.63-0.15 1.7c-0.06 0.56-0.12 1.25-0.21 2.03-0.17 1.54-0.39 3.43-0.69 5.43-0.1 0.69-0.2 1.39-0.32 2.09-0.37 2.25-0.81 4.54-1.34 6.56-0.21 0.79-0.43 1.53-0.67 2.21-0.87 2.58-1.93 4.3-3.2 4.19-0.38-0.03-0.86-0.14-1.43-0.31-0.61-0.18-1.32-0.44-2.1-0.77-1.55-0.65-3.36-1.57-5.23-2.67-0.58-0.35-1.17-0.71-1.76-1.09-1.34-0.86-2.67-1.81-3.92-2.82-0.56-0.45-1.09-0.91-1.61-1.37-1.27-1.17-2.4-2.39-3.28-3.62-0.47-0.66-0.87-1.32-1.18-1.99-0.83-1.76-1.05-3.52-0.36-5.18 0.73-1.78 2.41-1.66 4.47-0.57 0.55 0.29 1.13 0.66 1.73 1.07 0.94 0.66 1.92 1.44 2.9 2.29 0.51 0.43 1.02 0.89 1.52 1.35 1.13 1.03 2.23 2.1 3.23 3.1 0.52 0.51 1.02 1 1.47 1.46 0.85 0.85 1.58 1.57 2.13 2.08 0.41 0.38 0.72 0.63 0.91 0.74 0.66 0.36 1.33-1.47 1.91-4.05 0.26-1.08 0.49-2.3 0.71-3.54 0.12-0.73 0.24-1.47 0.36-2.2 0.23-1.51 0.43-2.96 0.58-4.15 0.12-0.86 0.2-1.59 0.27-2.09 0.05-0.48 0.08-0.76 0.08-0.76z" enable-background="new" fill="#fff" opacity=".7"/>
			<g opacity=".2">
				<path d="m85.46 198.02c-1.28 1.45-3.01 3.68-4.66 6.67-0.47-0.66-0.87-1.32-1.18-1.99 1.46-2.48 2.93-4.4 4.11-5.75 0.55 0.29 1.13 0.66 1.73 1.07z"/>
				<path d="m89.88 201.66c-1.28 1.85-2.86 4.55-4.19 8.02-0.56-0.45-1.09-0.91-1.61-1.37 1.38-3.47 2.99-6.15 4.28-8 0.51 0.43 1.02 0.89 1.52 1.35z"/>
				<path d="m94.58 206.22c-0.98 1.71-2.21 4.2-3.21 7.37-0.58-0.35-1.17-0.71-1.76-1.09 1.11-3.39 2.45-6 3.5-7.74 0.52 0.51 1.02 1 1.47 1.46z"/>
				<path d="m104 210.94c-0.21 0.79-0.43 1.53-0.67 2.21-1.91-1.97-3.38-3.87-4.5-5.52-0.3 2.06-0.57 5.36-0.13 9.4-0.61-0.18-1.32-0.44-2.1-0.77-0.28-3.24-0.13-5.97 0.11-7.96 0.41 0.38 0.72 0.63 0.91 0.74 0.66 0.36 1.33-1.47 1.91-4.05 0.98 1.63 2.44 3.73 4.47 5.95z"/>
				<path d="m105.66 202.29c-0.1 0.69-0.2 1.39-0.32 2.09-2.03-0.98-3.74-2-5.1-2.93 0.12-0.73 0.24-1.47 0.36-2.2 1.3 0.93 2.99 2 5.06 3.04z"/>
				<path d="m106.56 194.83c-0.06 0.56-0.12 1.25-0.21 2.03-2.06-0.55-3.8-1.18-5.17-1.76 0.12-0.86 0.2-1.59 0.27-2.09 1.3 0.58 3.02 1.25 5.11 1.82z"/>
			</g>
		
	
</g></g></g></svg>
