<svg width="800px" height="800px" fill="none" version="1.1" viewBox="0 0 24 24" xmlns="http://www.w3.org/2000/svg">
 <path d="m10.944 2.4375c0.5833-0.58334 1.5291-0.58333 2.1124 0l2.8567 2.8566c0.5833 0.58333 0.5833 1.5291 0 2.1124l-2.8567 2.8566c-0.5833 0.5834-1.5291 0.5834-2.1124 0l-2.8567-2.8566c-0.58334-0.58334-0.58334-1.5291 0-2.1124l2.8567-2.8566zm1.0562 1.7722-2.1407 2.1407 2.1407 2.1407 2.1407-2.1407-2.1407-2.1407zm-6.7059 3.8774c0.58335-0.58334 1.5291-0.58334 2.1125 0l2.8566 2.8567c0.5834 0.5833 0.5834 1.5291 0 2.1124l-2.8566 2.8567c-0.58334 0.5833-1.5291 0.5833-2.1125 0l-2.8566-2.8567c-0.58334-0.5833-0.58333-1.5291 0-2.1124l2.8566-2.8567zm1.0562 1.7722-2.1407 2.1407 2.1407 2.1407 2.1407-2.1407-2.1407-2.1407zm10.243-1.7722c0.5833-0.58334 1.5291-0.58334 2.1125 0l2.8566 2.8567c0.5833 0.5833 0.5833 1.5291 0 2.1124l-2.8566 2.8567c-0.5834 0.5833-1.5292 0.5833-2.1125 0l-2.8566-2.8567c-0.5834-0.5833-0.5834-1.5291 0-2.1124l2.8566-2.8567zm1.0562 1.7722-2.1406 2.1407 2.1406 2.1407 2.1407-2.1407-2.1407-2.1407zm-6.7058 3.8775c0.5833-0.5834 1.5291-0.5834 2.1124 0l2.8567 2.8566c0.5833 0.5833 0.5833 1.5291 0 2.1125l-2.8567 2.8566c-0.5833 0.5833-1.5291 0.5833-2.1124 0l-2.8567-2.8566c-0.58334-0.5834-0.58334-1.5292 0-2.1125l2.8567-2.8566zm1.0562 1.7722-2.1407 2.1406 2.1407 2.1407 2.1407-2.1407-2.1407-2.1406z" clip-rule="evenodd" fill="#0F1729" fill-rule="evenodd"/>
</svg>
