<?xml version="1.0" encoding="UTF-8" standalone="no"?>
<svg
   xml:space="preserve"
   width="757"
   height="83"
   version="1.1"
   id="svg9"
   sodipodi:docname="design.svg"
   inkscape:version="1.3 (1:1.3+202307231459+0e150ed6c4)"
   xmlns:inkscape="http://www.inkscape.org/namespaces/inkscape"
   xmlns:sodipodi="http://sodipodi.sourceforge.net/DTD/sodipodi-0.dtd"
   xmlns:xlink="http://www.w3.org/1999/xlink"
   xmlns="http://www.w3.org/2000/svg"
   xmlns:svg="http://www.w3.org/2000/svg"><sodipodi:namedview
   id="namedview9"
   pagecolor="#ffffff"
   bordercolor="#000000"
   borderopacity="0.25"
   inkscape:showpageshadow="2"
   inkscape:pageopacity="0.0"
   inkscape:pagecheckerboard="0"
   inkscape:deskcolor="#d1d1d1"
   inkscape:zoom="0.667107"
   inkscape:cx="378.5"
   inkscape:cy="41.972277"
   inkscape:window-width="1280"
   inkscape:window-height="656"
   inkscape:window-x="0"
   inkscape:window-y="27"
   inkscape:window-maximized="1"
   inkscape:current-layer="svg9" />&#10;  <defs
   id="defs7">&#10;    <linearGradient
   id="a">&#10;      <stop
   offset="0"
   stop-color="#1f2937"
   id="stop1" />&#10;      <stop
   offset="1"
   stop-color="#1f2937"
   id="stop2" />&#10;    </linearGradient>&#10;    <linearGradient
   id="b">&#10;      <stop
   offset="0"
   stop-color="#030712"
   id="stop3" />&#10;      <stop
   offset="1"
   stop-color="#1f2937"
   id="stop4" />&#10;    </linearGradient>&#10;    <linearGradient
   id="c">&#10;      <stop
   offset="0"
   stop-color="#1f2937"
   id="stop5"
   style="stop-color:#111111;stop-opacity:1;" />&#10;      <stop
   offset="0.5"
   stop-color="#030712"
   id="stop6"
   style="stop-color:#1a1a1a;stop-opacity:1;" />&#10;      <stop
   offset="1"
   stop-color="#1f2937"
   id="stop7"
   style="stop-color:#111111;stop-opacity:1;" />&#10;    </linearGradient>&#10;    <linearGradient
   xlink:href="#a"
   id="d"
   x1="461.6"
   x2="505.3"
   y1="144.9"
   y2="144.9"
   gradientUnits="userSpaceOnUse" />&#10;    <linearGradient
   xlink:href="#b"
   id="e"
   x1="423"
   x2="500.5"
   y1="144.3"
   y2="144.3"
   gradientUnits="userSpaceOnUse" />&#10;    <linearGradient
   xlink:href="#c"
   id="f"
   x1="23"
   x2="165.6"
   y1="-197.2"
   y2="-197.2"
   gradientTransform="translate(1.5 1319.3) scale(4.5604)"
   gradientUnits="userSpaceOnUse" />&#10;  <linearGradient
   id="linearGradient19-6"
   x1="459.53"
   x2="549.76"
   y1="149.45"
   y2="147.91"
   gradientUnits="userSpaceOnUse"><stop
     stop-color="#1a1a1a"
     offset="0"
     id="stop1-3" /><stop
     stop-color="#111"
     offset="1"
     id="stop2-6" /></linearGradient><linearGradient
   id="linearGradient17-2"
   x1="414.9"
   x2="514.77"
   y1="147.88"
   y2="147.84"
   gradientUnits="userSpaceOnUse"><stop
     stop-color="#1a1a1a"
     offset="0"
     id="stop3-7"
     style="stop-color:#111111;stop-opacity:1;" /><stop
     stop-color="#111"
     offset="1"
     id="stop4-5"
     style="stop-color:#1a1a1a;stop-opacity:1;" /></linearGradient></defs>&#10;  &#10;  &#10;  <path
   fill="url(#f)"
   d="M401.4 423h-14.7l-.1-8.5H400q3 0 5.2-1.3 2.3-1.3 3.6-3.7 1.2-2.5 1.2-6 0-3.7-1-6-1.1-2.5-3.4-3.5-2.2-1.2-5.7-1.2h-10.5v63.4h-10.6v-72.4h21.1q4.9 0 8.7 1.2 3.9 1.1 6.5 3.5 2.7 2.4 4.1 6 1.4 3.7 1.4 8.7 0 4.5-2 8.2-1.9 3.6-5.5 6-3.6 2.2-8.7 2.8zm-.4 33.2h-18.2l5.4-9H401q3.4 0 5.7-1.5 2.3-1.4 3.5-4.1 1.1-2.8 1.1-6.4 0-3.8-1-6.5-1-2.8-3.1-4.3-2.2-1.5-5.8-1.5h-12l.1-8.4h15.7l2.5 3.1q4.8.3 8 2.8t4.7 6.4q1.5 3.8 1.5 8.4 0 6.8-2.5 11.5t-7.3 7.1q-4.6 2.4-11 2.4zm33.8-72.4h21q7.2 0 12 2.5 5 2.5 7.5 7.4 2.5 4.8 2.5 11.9 0 5.2-1.6 9.3-1.6 4.1-4.7 7-3 2.8-7.5 4.2l-3 1.5h-18.2l-.1-9h13q3.9 0 6.4-1.6 2.6-1.7 3.8-4.6 1.3-2.9 1.3-6.5 0-4-1.1-7-1.2-2.9-3.7-4.5-2.4-1.6-6.5-1.6h-10.5v63.4h-10.6zm34.3 72.4-14.2-32.7H466l14.4 32v.7zm44.5-64.2L495 456.2h-11l23.2-72.4h6.8zm15 64.2L510 392l-.5-8.2h7l23.1 72.4zm.2-26.9v9h-34.3v-9zm55 3.6h10.6q-.4 7.6-3 13.1-2.8 5.4-8 8.3-5.2 2.9-12.8 2.9-5.5 0-10-2.1t-7.7-6.1q-3.1-4-4.7-9.7-1.7-5.6-1.7-12.8v-13q0-7.2 1.7-12.8 1.7-5.7 4.9-9.7 3.2-4 7.8-6 4.6-2.2 10.4-2.2 7.3 0 12.3 2.9 5 2.8 7.7 8.3 2.7 5.5 3.1 13.4h-10.6q-.3-5.6-1.6-9-1.3-3.5-4-5-2.6-1.6-7-1.6-3.6 0-6.3 1.5-2.7 1.3-4.4 4.1-1.7 2.8-2.5 6.8-.9 4-.9 9.1v13.2q0 4.9.7 9 .7 3.9 2.3 6.8 1.6 2.8 4.2 4.4 2.5 1.5 6.3 1.5 4.6 0 7.4-1.5 2.8-1.4 4-4.8 1.4-3.4 1.8-9zm32.7-49v72.3h-10.7v-72.4Zm36.2 0-24.5 34.3-14.5 17.6-2-11.4 10.4-14.4 17.9-26.2zm-11.2 72.3-19.8-34.8 6.8-8 25.6 42.8zm59.7-9v9h-31.5v-9zm-29-63.4v72.4h-10.7v-72.4Zm24.8 30.6v8.9h-27.3v-8.9zm3.8-30.6v9h-31v-9zm37 0v72.4h-10.6v-72.4Zm18.7 0v9h-47.9v-9zm-622.9 1v72.4h-7.3v-72.4zm19.8 0v6.6h-47v-6.6zm51.2 31.8v6.5h-33.8v-6.5zM172 384.8v72.4h-7.4v-72.4zm39 0v72.4h-7.4v-72.4zm24.6 0v72.4h-7.4v-72.4zm17 0h20q6.8 0 11.5 2.5t7.2 7.3q2.5 4.8 2.5 11.7 0 5-1.8 9.2-1.6 4.2-4.8 7-3.2 2.8-7.5 4l-2.2 1h-19.4v-6.6h15q4.4 0 7.4-2t4.4-5.4q1.5-3.3 1.5-7.2 0-4.5-1.5-7.9-1.5-3.4-4.5-5.2-3-1.8-7.7-1.8H260v65.8h-7.4zm36 72.4-15-32.6h7.7l15.2 32v.6zm35.5 0h-13l.1-6.6h12.9q6.5 0 10.8-2.6 4.4-2.6 6.6-7.7 2.1-5.1 2.1-12.6v-13.5q0-5.8-1.2-10-1.2-4.4-3.6-7.2-2.4-2.8-6-4.2-3.5-1.4-8.1-1.4h-13.8v-6.6h13.8q6 0 10.8 1.9 4.8 1.9 8.2 5.7 3.5 3.7 5.4 9.2 1.8 5.5 1.8 12.7v13.4q0 7.2-1.8 12.7-1.9 5.5-5.4 9.3-3.5 3.7-8.5 5.6-4.9 1.9-11.1 1.9zm-9-72.4v72.4h-7.5v-72.4z"
   style="font-variation-settings:&quot;wdth&quot;75,&quot;wght&quot;450"
   transform="translate(.3 -378.5)"
   id="path9" /><path
   transform="matrix(0.99634269,0,0,0.99634269,-421.48285,-102.27275)"
   d="m 505.21,113.81 -43.225,14.605 -0.34961,33.604 43.342,13.984 a 11.511,11.511 0 0 0 0.27149,-2.0684 v -59.268 a 11.522,11.522 0 0 0 -0.0391,-0.85742 z"
   fill="url(#linearGradient19-6)"
   style="font-variation-settings:'wdth' 75, 'wght' 450;fill:url(#linearGradient19-6)"
   id="path4" /><path
   transform="matrix(0.99634269,0,0,0.99634269,-421.48285,-102.27275)"
   d="m 434.54,103.15 a 11.511,11.511 0 0 0 -11.51,11.51 v 59.268 a 11.522,11.522 0 0 0 11.521,11.523 h 59.188 a 11.511,11.511 0 0 0 4.4453,-1 l -47.676,-14.693 -0.17383,-47.465 50.127,-16.959 a 11.522,11.522 0 0 0 -6.7344,-2.1836 z"
   fill="url(#linearGradient17-2)"
   style="font-variation-settings:'wdth' 75, 'wght' 450;fill:url(#linearGradient17-2)"
   id="path6" />&#10;</svg>
