<?xml version="1.0" encoding="utf-8"?>
<!-- Generator: Adobe Illustrator 27.5.0, SVG Export Plug-In . SVG Version: 6.00 Build 0)  -->
<svg version="1.1" xmlns="http://www.w3.org/2000/svg" xmlns:xlink="http://www.w3.org/1999/xlink" x="0px" y="0px"
	 viewBox="0 0 700 500" style="enable-background:new 0 0 700 500;" xml:space="preserve">
<g id="Background_Simple">
	<g>
		<path style="fill:#92E3A9;" d="M183.557,60.308c-26.967,4.783-52.823,16.358-74.912,32.55
			c-22.089,16.192-39.642,40.098-43.212,67.252c-3.676,27.96,7.574,55.811,22.048,80.015c14.473,24.204,32.413,46.412,44.354,71.96
			c10.505,22.477,16.287,47.367,30.441,67.744c19.274,27.748,52.305,43.738,85.759,48.458c33.454,4.72,67.532-0.693,100.371-8.631
			c68.423-16.54,134.066-44.123,194.425-80.346c27.325-16.398,54.273-35.244,71.84-61.833
			c19.853-30.05,25.812-68.894,15.881-103.514c-8.134-28.354-27.154-54.573-52.17-70.412
			C567.704,96.791,460.943,11.11,183.557,60.308z"/>
		<path style="opacity:0.7;fill:#FFFFFF;" d="M183.557,60.308c-26.967,4.783-52.823,16.358-74.912,32.55
			c-22.089,16.192-39.642,40.098-43.212,67.252c-3.676,27.96,7.574,55.811,22.048,80.015c14.473,24.204,32.413,46.412,44.354,71.96
			c10.505,22.477,16.287,47.367,30.441,67.744c19.274,27.748,52.305,43.738,85.759,48.458c33.454,4.72,67.532-0.693,100.371-8.631
			c68.423-16.54,134.066-44.123,194.425-80.346c27.325-16.398,54.273-35.244,71.84-61.833
			c19.853-30.05,25.812-68.894,15.881-103.514c-8.134-28.354-27.154-54.573-52.17-70.412
			C567.704,96.791,460.943,11.11,183.557,60.308z"/>
	</g>
</g>
<g id="Page_1_">
	<g>
		<g>
			<g>
				
					<rect x="161.507" y="22.42" style="fill:#FFFFFF;stroke:#263238;stroke-linecap:round;stroke-linejoin:round;stroke-miterlimit:10;" width="384.76" height="287.333"/>
			</g>
		</g>
		<g>
			<g>
				<g>
					<polyline style="fill:none;stroke:#263238;stroke-linecap:round;stroke-linejoin:round;stroke-miterlimit:10;" points="
						226.81,49.217 220.629,53.453 227.072,57.361 					"/>
					
						<line style="fill:none;stroke:#263238;stroke-linecap:round;stroke-linejoin:round;stroke-miterlimit:10;" x1="220.629" y1="53.453" x2="230.148" y2="53.453"/>
					<g>
						<polyline style="fill:none;stroke:#263238;stroke-linecap:round;stroke-linejoin:round;stroke-miterlimit:10;" points="
							245.494,57.361 251.676,53.124 245.233,49.217 						"/>
						
							<line style="fill:none;stroke:#263238;stroke-linecap:round;stroke-linejoin:round;stroke-miterlimit:10;" x1="251.676" y1="53.124" x2="242.156" y2="53.124"/>
					</g>
				</g>
				<g>
					<path style="fill:none;stroke:#263238;stroke-linecap:round;stroke-linejoin:round;stroke-miterlimit:10;" d="M269.368,59.399
						c-2.93,0-5.306-2.376-5.306-5.306s2.376-5.306,5.306-5.306c2.93,0,5.306,2.376,5.306,5.306"/>
					<polyline style="fill:none;stroke:#263238;stroke-linecap:round;stroke-linejoin:round;stroke-miterlimit:10;" points="
						271.389,53.261 274.674,54.204 276.061,51.657 					"/>
				</g>
				<g>
					<path style="fill:none;stroke:#263238;stroke-linecap:round;stroke-linejoin:round;stroke-miterlimit:10;" d="M438.12,55.667
						c-1.546,1.553-4.061,1.553-5.607,0c-1.553-1.546-1.553-4.061,0-5.607c1.546-1.553,4.061-1.553,5.607,0
						C439.673,51.606,439.673,54.121,438.12,55.667z"/>
					
						<line style="fill:none;stroke:#263238;stroke-linecap:round;stroke-linejoin:round;stroke-miterlimit:10;" x1="438.12" y1="55.667" x2="441.853" y2="59.399"/>
				</g>
				<path style="fill:none;stroke:#263238;stroke-linecap:round;stroke-linejoin:round;stroke-miterlimit:10;" d="M413.533,59.399
					H296.273c-3.364,0-6.091-2.727-6.091-6.091l0,0c0-3.364,2.727-6.091,6.091-6.091h117.259c3.364,0,6.091,2.727,6.091,6.091l0,0
					C419.624,56.672,416.897,59.399,413.533,59.399z"/>
			</g>
			<rect x="161.507" y="22.42" style="fill:#263238;" width="384.76" height="16.161"/>
			<g>
				<path style="fill:#FFFFFF;" d="M180.507,30.358c0,2.67-2.164,4.834-4.834,4.834c-2.67,0-4.834-2.164-4.834-4.834
					c0-2.67,2.164-4.834,4.834-4.834C178.342,25.524,180.507,27.688,180.507,30.358z"/>
				<path style="fill:#FFFFFF;" d="M195.329,30.358c0,2.67-2.164,4.834-4.834,4.834s-4.834-2.164-4.834-4.834
					c0-2.67,2.164-4.834,4.834-4.834S195.329,27.688,195.329,30.358z"/>
				<path style="fill:#FFFFFF;" d="M210.151,30.358c0,2.67-2.164,4.834-4.834,4.834c-2.67,0-4.834-2.164-4.834-4.834
					c0-2.67,2.164-4.834,4.834-4.834C207.986,25.524,210.151,27.688,210.151,30.358z"/>
			</g>
		</g>
	</g>
</g>
<g id="Plant">
	<g id="Frame">
	</g>
	<g>
		<g>
			<g>
				<g>
					<g>
						<path style="fill:#92E3A9;" d="M556.421,432.822c0,0-3.162-90.003-32.049-121.95c0,0,23.569,56.108,25.684,122.991
							L556.421,432.822z"/>
						<path style="opacity:0.1;" d="M556.421,432.822c0,0-3.162-90.003-32.049-121.95c0,0,23.569,56.108,25.684,122.991
							L556.421,432.822z"/>
					</g>
					<g>
						<g>
							<path style="fill:#92E3A9;" d="M562.421,403.449c0.11,0.186-0.883,1.122,2.386,1.266c8.052,0.355,22.293-0.146,27.662-7.452
								c7.665-10.431-9.946-9.523-8.217-15.283c1.729-5.76,20.632-0.997,24.349-9.216c3.716-8.219-10.047-6.653-9.396-10.885
								c0.65-4.232,15.069,1.296,19.853-7.419c4.783-8.715-7.84-4.082-5.786-7.693c2.053-3.61,18.106-18.62,11.631-21.995
								c-6.476-3.375-21.565,12.298-26.53,13.966c-4.965,1.667-6.068-13.752-12.603-8.613c-6.536,5.14-2.325,28.423-9.938,31.291
								c-5.671,2.135-2.556-6.196-9.547-5.896C556.786,355.929,553.568,388.549,562.421,403.449z"/>
							<g style="opacity:0.1;">
								<path d="M562.421,403.449c0.11,0.186-0.883,1.122,2.386,1.266c8.052,0.355,22.293-0.146,27.662-7.452
									c7.665-10.431-9.946-9.523-8.217-15.283c1.729-5.76,20.632-0.997,24.349-9.216c3.716-8.219-10.047-6.653-9.396-10.885
									c0.65-4.232,15.069,1.296,19.853-7.419c4.783-8.715-7.84-4.082-5.786-7.693c2.053-3.61,18.106-18.62,11.631-21.995
									c-6.476-3.375-21.565,12.298-26.53,13.966c-4.965,1.667-6.068-13.752-12.603-8.613c-6.536,5.14-2.325,28.423-9.938,31.291
									c-5.671,2.135-2.556-6.196-9.547-5.896C556.786,355.929,553.568,388.549,562.421,403.449z"/>
							</g>
						</g>
						<g>
							<g>
								<g>
									<g>
										<g>
											
												<path style="fill:none;stroke:#263238;stroke-width:0.75;stroke-linecap:round;stroke-linejoin:round;stroke-miterlimit:10;" d="
												M594.406,355.592c0,0-31.264,21.351-38.082,75.815"/>
											
												<path style="fill:none;stroke:#263238;stroke-width:0.75;stroke-linecap:round;stroke-linejoin:round;stroke-miterlimit:10;" d="
												M599.186,362.263c-7.549-1.624-12.165-0.133-12.165-0.133"/>
											
												<path style="fill:none;stroke:#263238;stroke-width:0.75;stroke-linecap:round;stroke-linejoin:round;stroke-miterlimit:10;" d="
												M590.628,339.763c0,0-9.497,12.55-9.384,28.92"/>
											
												<path style="fill:none;stroke:#263238;stroke-width:0.75;stroke-linecap:round;stroke-linejoin:round;stroke-miterlimit:10;" d="
												M571.923,382.503c0,0,6.76-6.346,15.734-3.1"/>
											
												<path style="fill:none;stroke:#263238;stroke-width:0.75;stroke-linecap:round;stroke-linejoin:round;stroke-miterlimit:10;" d="
												M567.044,392.147c0,0-3.518-8.306-1.594-20.003"/>
										</g>
									</g>
								</g>
							</g>
						</g>
					</g>
					<g>
						<path style="fill:#92E3A9;" d="M550.968,431.379c0,0,3.635-103.462,36.841-140.186c0,0-27.093,64.498-29.525,141.382
							L550.968,431.379z"/>
						<path style="opacity:0.2;fill:#FFFFFF;" d="M550.968,431.379c0,0,3.635-103.462,36.841-140.186
							c0,0-27.093,64.498-29.525,141.382L550.968,431.379z"/>
						<g>
							<path style="fill:#92E3A9;" d="M558.349,431.909c0,0,5.899-108.84-25.366-153.599c0,0,22.273,72.616,17.607,153.445
								L558.349,431.909z"/>
						</g>
					</g>
					<g>
						<g>
							<path style="fill:#92E3A9;" d="M549.876,407.811c-6.623,0.126-17.937-6.025-22.379-12.01
								c-4.507-6.072,8.171-2.305,6.869-7.073c-1.302-4.768-16.933-1.244-19.818-8.074c-2.884-6.83,8.393-5.26,7.946-8.751
								c-0.447-3.491-12.131-2.782-15.882-10.041c-3.751-7.26,6.526-3.193,4.913-6.202c-1.613-3.009-14.494-15.674-9.104-18.313
								c5.391-2.64,17.466,10.55,21.512,12.022c4.046,1.473,4.991-7.639,10.256-3.281c5.265,4.358,1.324,23.404,7.521,25.917
								c4.616,1.872,2.652-6.848,7.966-4.648C558.98,371.208,552.566,407.759,549.876,407.811z"/>
							<g style="opacity:0.3;">
								<path style="fill:#FFFFFF;" d="M549.876,407.811c-6.623,0.126-17.937-6.025-22.379-12.01
									c-4.507-6.072,8.171-2.305,6.869-7.073c-1.302-4.768-16.933-1.244-19.818-8.074c-2.884-6.83,8.393-5.26,7.946-8.751
									c-0.447-3.491-12.131-2.782-15.882-10.041c-3.751-7.26,6.526-3.193,4.913-6.202c-1.613-3.009-14.494-15.674-9.104-18.313
									c5.391-2.64,17.466,10.55,21.512,12.022c4.046,1.473,4.991-7.639,10.256-3.281c5.265,4.358,1.324,23.404,7.521,25.917
									c4.616,1.872,2.652-6.848,7.966-4.648C558.98,371.208,552.566,407.759,549.876,407.811z"/>
							</g>
						</g>
						<g>
							
								<path style="fill:none;stroke:#263238;stroke-width:0.75;stroke-linecap:round;stroke-linejoin:round;stroke-miterlimit:10;" d="
								M517.908,351.564c0,0,33.036,32.398,34.932,80.821"/>
							
								<path style="fill:none;stroke:#263238;stroke-width:0.75;stroke-linecap:round;stroke-linejoin:round;stroke-miterlimit:10;" d="
								M517.1,366.569c7.495-0.146,13.393,2.591,13.854,2.762c0.022,0.016,0.034,0.018,0.034,0.018"/>
							
								<path style="fill:none;stroke:#263238;stroke-width:0.75;stroke-linecap:round;stroke-linejoin:round;stroke-miterlimit:10;" d="
								M529.497,349.408c0,0,7.434,11.678,6.094,26.091"/>
							
								<path style="fill:none;stroke:#263238;stroke-width:0.75;stroke-linecap:round;stroke-linejoin:round;stroke-miterlimit:10;" d="
								M540.337,383.658c0,0-5.445-5.556-13.622-3.399"/>
							
								<path style="fill:none;stroke:#263238;stroke-width:0.75;stroke-linecap:round;stroke-linejoin:round;stroke-miterlimit:10;" d="
								M546.35,397.099c0,0,3.734-7.085,2.921-17.515"/>
						</g>
					</g>
				</g>
				<path style="fill:#263238;" d="M528.954,452.679c0,13.358,11.594,24.169,25.897,24.169c14.303,0,25.897-10.812,25.897-24.169
					c0-7.523-8.241-14.253-15.424-18.693h-20.946C537.196,438.425,528.954,445.155,528.954,452.679z"/>
				
					<line style="fill:none;stroke:#BFBFBF;stroke-linecap:round;stroke-linejoin:round;stroke-miterlimit:10;" x1="539.263" y1="453.682" x2="534.741" y2="453.682"/>
				
					<line style="fill:none;stroke:#BFBFBF;stroke-linecap:round;stroke-linejoin:round;stroke-miterlimit:10;" x1="575.436" y1="453.682" x2="544.196" y2="453.682"/>
			</g>
		</g>
	</g>
</g>
<g id="Load_More">
	<g>
		<g>
			<rect x="313.477" y="260.466" style="fill:#92E3A9;stroke:#263238;stroke-miterlimit:10;" width="85.384" height="33.333"/>
			<g>
				<path style="fill:#263238;" d="M331.676,282.824v-10.168h1.133v9.137h2.905v1.031H331.676z"/>
				<path style="fill:#263238;" d="M336.485,275.11c0-1.554,0.77-2.557,2.324-2.557c1.568,0,2.338,1.003,2.338,2.557v5.259
					c0,1.54-0.77,2.557-2.338,2.557c-1.555,0-2.324-1.017-2.324-2.557V275.11z M337.603,280.428c0,0.93,0.393,1.467,1.206,1.467
					c0.828,0,1.206-0.537,1.206-1.467v-5.375c0-0.915-0.378-1.467-1.206-1.467c-0.814,0-1.206,0.552-1.206,1.467V280.428z"/>
				<path style="fill:#263238;" d="M343.357,280.776l-0.392,2.048h-1.046l1.946-10.168h1.642l1.947,10.168h-1.133l-0.392-2.048
					H343.357z M343.502,279.803h2.266l-1.147-5.869L343.502,279.803z"/>
				<path style="fill:#263238;" d="M350.723,272.656c1.583,0,2.31,0.958,2.31,2.527v5.128c0,1.554-0.727,2.513-2.31,2.513h-2.382
					v-10.168H350.723z M350.708,281.793c0.813,0,1.206-0.509,1.206-1.439v-5.229c0-0.93-0.393-1.438-1.22-1.438h-1.221v8.105
					H350.708z"/>
				<path style="fill:#263238;" d="M360.095,282.81h-1.09l-1.685-8.091v8.105h-0.988v-10.168h1.584l1.67,8.12l1.612-8.12h1.584
					v10.168h-1.075v-8.179L360.095,282.81z"/>
				<path style="fill:#263238;" d="M363.858,275.11c0-1.554,0.77-2.557,2.324-2.557c1.568,0,2.339,1.003,2.339,2.557v5.259
					c0,1.54-0.77,2.557-2.339,2.557c-1.555,0-2.324-1.017-2.324-2.557V275.11z M364.977,280.428c0,0.93,0.392,1.467,1.206,1.467
					c0.828,0,1.205-0.537,1.205-1.467v-5.375c0-0.915-0.377-1.467-1.205-1.467c-0.814,0-1.206,0.552-1.206,1.467V280.428z"/>
				<path style="fill:#263238;" d="M371.863,272.656c1.599,0,2.267,0.813,2.267,2.324v0.827c0,1.119-0.393,1.816-1.264,2.092
					c0.93,0.276,1.278,1.032,1.278,2.121v1.583c0,0.451,0.015,0.872,0.203,1.221H373.2c-0.131-0.291-0.189-0.552-0.189-1.234v-1.599
					c0-1.147-0.538-1.511-1.482-1.511h-0.799v4.344h-1.133v-10.168H371.863z M371.573,277.449c0.9,0,1.439-0.29,1.439-1.395v-0.973
					c0-0.916-0.334-1.395-1.177-1.395h-1.104v3.762H371.573z"/>
				<path style="fill:#263238;" d="M378.939,277.159v1.017h-2.484v3.617h3.051v1.031h-4.184v-10.168h4.184v1.031h-3.051v3.472
					H378.939z"/>
			</g>
		</g>
		<polyline style="fill:none;stroke:#263238;stroke-linecap:round;stroke-linejoin:round;stroke-miterlimit:10;" points="
			316.835,296.668 401.263,296.668 401.263,265.645 		"/>
	</g>
</g>
<g id="Files">
	<g>
		<g>
			
				<rect x="196.935" y="70.036" style="fill:#FFFFFF;stroke:#263238;stroke-linecap:round;stroke-linejoin:round;stroke-miterlimit:10;" width="92.701" height="82.283"/>
			<rect x="200.581" y="73.968" style="fill:#92E3A9;stroke:#263238;stroke-miterlimit:10;" width="85.52" height="49.168"/>
			<g>
				<rect x="205.83" y="126.565" style="fill:#999999;" width="22.337" height="5.336"/>
				<rect x="232.118" y="126.565" style="fill:#999999;" width="22.337" height="5.336"/>
				<rect x="258.405" y="126.565" style="fill:#999999;" width="22.337" height="5.336"/>
			</g>
			<g>
				<rect x="212.621" y="136.517" style="fill:#BFBFBF;" width="3.442" height="3.054"/>
				<rect x="218.067" y="136.517" style="fill:#BFBFBF;" width="12.783" height="3.054"/>
				<rect x="233.11" y="136.517" style="fill:#BFBFBF;" width="12.783" height="3.054"/>
				<rect x="267.54" y="136.517" style="fill:#BFBFBF;" width="6.391" height="3.054"/>
				<rect x="248.229" y="136.517" style="fill:#BFBFBF;" width="17.44" height="3.054"/>
			</g>
			<g>
				
					<rect x="258.109" y="141.726" transform="matrix(-1 -1.224647e-16 1.224647e-16 -1 528.9999 286.5061)" style="fill:#BFBFBF;" width="12.783" height="3.054"/>
				
					<rect x="243.065" y="141.726" transform="matrix(-1 -1.224647e-16 1.224647e-16 -1 498.913 286.5061)" style="fill:#BFBFBF;" width="12.783" height="3.054"/>
				
					<rect x="215.027" y="141.726" transform="matrix(-1 -1.224647e-16 1.224647e-16 -1 436.4444 286.5061)" style="fill:#BFBFBF;" width="6.391" height="3.054"/>
				
					<rect x="223.288" y="141.726" transform="matrix(-1 -1.224647e-16 1.224647e-16 -1 464.0173 286.5061)" style="fill:#BFBFBF;" width="17.44" height="3.054"/>
			</g>
			<g>
				<g>
					<path style="fill:#FFFFFF;stroke:#263238;stroke-linecap:round;stroke-linejoin:round;stroke-miterlimit:10;" d="
						M203.677,123.135l17.885-18.151c5.452-5.244,13.68-6.334,20.31-2.692l37.995,20.872L203.677,123.135z"/>
				</g>
				<g>
					<path style="fill:#FFFFFF;stroke:#263238;stroke-linecap:round;stroke-linejoin:round;stroke-miterlimit:10;" d="
						M249.93,119.869c0.96,1.26,1.559,2.053,1.559,2.053"/>
					<path style="fill:#FFFFFF;stroke:#263238;stroke-linecap:round;stroke-linejoin:round;stroke-miterlimit:10;" d="
						M232.003,101.501c1.326-0.169,2.718,0.213,4.663,1.797c1.313,1.07,7.611,9.185,11.563,14.344"/>
				</g>
				<path style="fill:#FFFFFF;" d="M265.049,88.047c0,3.576-2.899,6.474-6.474,6.474c-3.576,0-6.474-2.899-6.474-6.474
					c0-3.576,2.899-6.474,6.474-6.474C262.151,81.573,265.049,84.472,265.049,88.047z"/>
			</g>
		</g>
		<g>
			<g>
				
					<rect x="309.102" y="171.517" style="fill:#FFFFFF;stroke:#263238;stroke-linecap:round;stroke-linejoin:round;stroke-miterlimit:10;" width="92.701" height="82.283"/>
				<rect x="312.747" y="175.448" style="fill:#92E3A9;stroke:#263238;stroke-miterlimit:10;" width="85.52" height="49.167"/>
				<g>
					<rect x="317.997" y="228.046" style="fill:#999999;" width="22.337" height="5.336"/>
					<rect x="344.284" y="228.046" style="fill:#999999;" width="22.337" height="5.336"/>
					<rect x="370.571" y="228.046" style="fill:#999999;" width="22.337" height="5.336"/>
				</g>
				<g>
					<rect x="324.787" y="237.998" style="fill:#BFBFBF;" width="3.442" height="3.054"/>
					<rect x="330.233" y="237.998" style="fill:#BFBFBF;" width="12.782" height="3.054"/>
					<rect x="345.276" y="237.998" style="fill:#BFBFBF;" width="12.783" height="3.054"/>
					<rect x="379.706" y="237.998" style="fill:#BFBFBF;" width="6.391" height="3.054"/>
					<rect x="360.395" y="237.998" style="fill:#BFBFBF;" width="17.44" height="3.054"/>
				</g>
				<g>
					
						<rect x="370.275" y="243.207" transform="matrix(-1 -1.224647e-16 1.224647e-16 -1 753.3322 489.4672)" style="fill:#BFBFBF;" width="12.783" height="3.054"/>
					
						<rect x="355.231" y="243.207" transform="matrix(-1 -1.224647e-16 1.224647e-16 -1 723.2454 489.4672)" style="fill:#BFBFBF;" width="12.783" height="3.054"/>
					
						<rect x="327.193" y="243.207" transform="matrix(-1 -1.224647e-16 1.224647e-16 -1 660.7767 489.4672)" style="fill:#BFBFBF;" width="6.391" height="3.054"/>
					
						<rect x="335.455" y="243.207" transform="matrix(-1 -1.224647e-16 1.224647e-16 -1 688.3497 489.4672)" style="fill:#BFBFBF;" width="17.441" height="3.054"/>
				</g>
			</g>
			<g>
				<g>
					<polygon style="fill:#FFFFFF;stroke:#263238;stroke-linecap:round;stroke-linejoin:round;stroke-miterlimit:10;" points="
						344.113,198.222 358.373,224.52 378.017,224.52 					"/>
					<polygon style="fill:#FFFFFF;stroke:#263238;stroke-linecap:round;stroke-linejoin:round;stroke-miterlimit:10;" points="
						316.77,224.52 344.113,198.222 358.373,224.52 					"/>
				</g>
				
					<line style="fill:#FFFFFF;stroke:#263238;stroke-linecap:round;stroke-linejoin:round;stroke-miterlimit:10;" x1="342.83" y1="216.641" x2="345.956" y2="216.641"/>
				
					<line style="fill:#FFFFFF;stroke:#263238;stroke-linecap:round;stroke-linejoin:round;stroke-miterlimit:10;" x1="331.404" y1="216.641" x2="340.798" y2="216.641"/>
				
					<line style="fill:#FFFFFF;stroke:#263238;stroke-linecap:round;stroke-linejoin:round;stroke-miterlimit:10;" x1="362.254" y1="220.127" x2="365.174" y2="220.127"/>
				
					<line style="fill:#FFFFFF;stroke:#263238;stroke-linecap:round;stroke-linejoin:round;stroke-miterlimit:10;" x1="356.287" y1="220.127" x2="360.731" y2="220.127"/>
				
					<line style="fill:#FFFFFF;stroke:#263238;stroke-linecap:round;stroke-linejoin:round;stroke-miterlimit:10;" x1="339.656" y1="209.208" x2="350.019" y2="209.208"/>
			</g>
			<g>
				<path style="fill:#FFFFFF;" d="M375.59,189.528c0,3.576-2.898,6.474-6.474,6.474c-3.576,0-6.474-2.898-6.474-6.474
					c0-3.576,2.899-6.474,6.474-6.474C372.691,183.054,375.59,185.952,375.59,189.528z"/>
			</g>
		</g>
		<g>
			<g>
				
					<rect x="420.992" y="70.036" style="fill:#FFFFFF;stroke:#263238;stroke-linecap:round;stroke-linejoin:round;stroke-miterlimit:10;" width="92.701" height="82.283"/>
				<rect x="424.637" y="73.968" style="fill:#92E3A9;stroke:#263238;stroke-miterlimit:10;" width="85.52" height="49.168"/>
				<g>
					<rect x="429.887" y="126.565" style="fill:#999999;" width="22.337" height="5.336"/>
					<rect x="456.174" y="126.565" style="fill:#999999;" width="22.337" height="5.336"/>
					<rect x="482.461" y="126.565" style="fill:#999999;" width="22.337" height="5.336"/>
				</g>
				<g>
					<rect x="436.677" y="136.517" style="fill:#BFBFBF;" width="3.442" height="3.054"/>
					<rect x="442.123" y="136.517" style="fill:#BFBFBF;" width="12.783" height="3.054"/>
					<rect x="457.166" y="136.517" style="fill:#BFBFBF;" width="12.783" height="3.054"/>
					<rect x="491.596" y="136.517" style="fill:#BFBFBF;" width="6.391" height="3.054"/>
					<rect x="472.285" y="136.517" style="fill:#BFBFBF;" width="17.44" height="3.054"/>
				</g>
				<g>
					
						<rect x="482.165" y="141.726" transform="matrix(-1 -1.224647e-16 1.224647e-16 -1 977.1125 286.5061)" style="fill:#BFBFBF;" width="12.783" height="3.054"/>
					
						<rect x="467.121" y="141.726" transform="matrix(-1 -1.224647e-16 1.224647e-16 -1 947.0256 286.5061)" style="fill:#BFBFBF;" width="12.783" height="3.054"/>
					
						<rect x="439.083" y="141.726" transform="matrix(-1 -1.224647e-16 1.224647e-16 -1 884.5569 286.5061)" style="fill:#BFBFBF;" width="6.391" height="3.054"/>
					
						<rect x="447.345" y="141.726" transform="matrix(-1 -1.224647e-16 1.224647e-16 -1 912.1301 286.5061)" style="fill:#BFBFBF;" width="17.44" height="3.054"/>
				</g>
				<g>
					<path style="fill:#FFFFFF;" d="M498.071,88.047c0,3.576-2.899,6.474-6.474,6.474c-3.576,0-6.474-2.899-6.474-6.474
						c0-3.576,2.899-6.474,6.474-6.474C495.172,81.573,498.071,84.472,498.071,88.047z"/>
				</g>
			</g>
			<g>
				<polygon style="fill:#FFFFFF;stroke:#263238;stroke-linecap:round;stroke-linejoin:round;stroke-miterlimit:10;" points="
					436.889,123.28 464.232,96.982 498.136,123.28 				"/>
				<polygon style="fill:#FFFFFF;stroke:#263238;stroke-linecap:round;stroke-linejoin:round;stroke-miterlimit:10;" points="
					454.818,106.036 466.11,101.946 475.905,106.036 464.232,96.982 				"/>
				
					<line style="fill:#FFFFFF;stroke:#263238;stroke-linecap:round;stroke-linejoin:round;stroke-miterlimit:10;" x1="470.471" y1="110.131" x2="475.905" y2="119.709"/>
				
					<line style="fill:#FFFFFF;stroke:#263238;stroke-linecap:round;stroke-linejoin:round;stroke-miterlimit:10;" x1="467.756" y1="105.344" x2="469.244" y2="107.969"/>
				
					<line style="fill:#FFFFFF;stroke:#263238;stroke-linecap:round;stroke-linejoin:round;stroke-miterlimit:10;" x1="461.496" y1="106.656" x2="456.235" y2="116.742"/>
			</g>
		</g>
		<g>
			<g>
				<g>
					
						<rect x="420.992" y="172.432" style="fill:#FFFFFF;stroke:#263238;stroke-linecap:round;stroke-linejoin:round;stroke-miterlimit:10;" width="92.701" height="82.283"/>
					<rect x="424.637" y="176.363" style="fill:#92E3A9;stroke:#263238;stroke-miterlimit:10;" width="85.52" height="49.168"/>
					<g>
						<rect x="429.887" y="228.961" style="fill:#999999;" width="22.337" height="5.336"/>
						<rect x="456.174" y="228.961" style="fill:#999999;" width="22.337" height="5.336"/>
						<rect x="482.461" y="228.961" style="fill:#999999;" width="22.337" height="5.336"/>
					</g>
					<g>
						<rect x="436.677" y="238.912" style="fill:#BFBFBF;" width="3.442" height="3.054"/>
						<rect x="442.123" y="238.912" style="fill:#BFBFBF;" width="12.783" height="3.054"/>
						<rect x="457.166" y="238.912" style="fill:#BFBFBF;" width="12.783" height="3.054"/>
						<rect x="491.596" y="238.912" style="fill:#BFBFBF;" width="6.391" height="3.054"/>
						<rect x="472.285" y="238.912" style="fill:#BFBFBF;" width="17.44" height="3.054"/>
					</g>
					<g>
						
							<rect x="482.165" y="244.121" transform="matrix(-1 -1.224647e-16 1.224647e-16 -1 977.1125 491.2964)" style="fill:#BFBFBF;" width="12.783" height="3.054"/>
						
							<rect x="467.121" y="244.121" transform="matrix(-1 -1.224647e-16 1.224647e-16 -1 947.0256 491.2964)" style="fill:#BFBFBF;" width="12.783" height="3.054"/>
						
							<rect x="439.083" y="244.121" transform="matrix(-1 -1.224647e-16 1.224647e-16 -1 884.5569 491.2964)" style="fill:#BFBFBF;" width="6.391" height="3.054"/>
						
							<rect x="447.345" y="244.121" transform="matrix(-1 -1.224647e-16 1.224647e-16 -1 912.1301 491.2964)" style="fill:#BFBFBF;" width="17.44" height="3.054"/>
					</g>
					<g>
						<path style="fill:#FFFFFF;" d="M473.987,190.442c0,3.576-2.899,6.474-6.474,6.474c-3.576,0-6.474-2.899-6.474-6.474
							c0-3.576,2.899-6.474,6.474-6.474C471.088,183.968,473.987,186.867,473.987,190.442z"/>
					</g>
				</g>
			</g>
			<g>
				<path style="fill:#FFFFFF;stroke:#263238;stroke-linecap:round;stroke-linejoin:round;stroke-miterlimit:10;" d="
					M498.848,225.53h-61.247l10.618-11.757c2.694-2.983,6.525-4.685,10.545-4.685h16.253c3.491,0,6.861,1.285,9.465,3.611
					L498.848,225.53z"/>
				<g>
					
						<line style="fill:none;stroke:#263238;stroke-linecap:round;stroke-linejoin:round;stroke-miterlimit:10;" x1="459.598" y1="216.242" x2="455.879" y2="222.798"/>
					
						<line style="fill:none;stroke:#263238;stroke-linecap:round;stroke-linejoin:round;stroke-miterlimit:10;" x1="462.314" y1="211.455" x2="460.825" y2="214.08"/>
					
						<line style="fill:none;stroke:#263238;stroke-linecap:round;stroke-linejoin:round;stroke-miterlimit:10;" x1="471.9" y1="211.387" x2="475.683" y2="218.638"/>
				</g>
			</g>
		</g>
		<g>
			
				<rect x="309.102" y="70.036" style="fill:#FFFFFF;stroke:#263238;stroke-linecap:round;stroke-linejoin:round;stroke-miterlimit:10;" width="92.701" height="82.283"/>
			<rect x="312.747" y="73.968" style="fill:#92E3A9;stroke:#263238;stroke-miterlimit:10;" width="85.52" height="49.168"/>
			<g>
				<rect x="317.997" y="126.565" style="fill:#999999;" width="22.337" height="5.336"/>
				<rect x="344.284" y="126.565" style="fill:#999999;" width="22.337" height="5.336"/>
				<rect x="370.571" y="126.565" style="fill:#999999;" width="22.337" height="5.336"/>
			</g>
			<g>
				<rect x="324.787" y="136.517" style="fill:#BFBFBF;" width="3.442" height="3.054"/>
				<rect x="330.233" y="136.517" style="fill:#BFBFBF;" width="12.782" height="3.054"/>
				<rect x="345.276" y="136.517" style="fill:#BFBFBF;" width="12.783" height="3.054"/>
				<rect x="379.706" y="136.517" style="fill:#BFBFBF;" width="6.391" height="3.054"/>
				<rect x="360.395" y="136.517" style="fill:#BFBFBF;" width="17.44" height="3.054"/>
			</g>
			<g>
				
					<rect x="370.275" y="141.726" transform="matrix(-1 -1.224647e-16 1.224647e-16 -1 753.3322 286.5061)" style="fill:#BFBFBF;" width="12.783" height="3.054"/>
				
					<rect x="355.231" y="141.726" transform="matrix(-1 -1.224647e-16 1.224647e-16 -1 723.2454 286.5061)" style="fill:#BFBFBF;" width="12.783" height="3.054"/>
				
					<rect x="327.193" y="141.726" transform="matrix(-1 -1.224647e-16 1.224647e-16 -1 660.7767 286.5061)" style="fill:#BFBFBF;" width="6.391" height="3.054"/>
				
					<rect x="335.455" y="141.726" transform="matrix(-1 -1.224647e-16 1.224647e-16 -1 688.3497 286.5061)" style="fill:#BFBFBF;" width="17.441" height="3.054"/>
			</g>
			<g>
				<g>
					<g>
						<polygon style="fill:#FFFFFF;stroke:#263238;stroke-linecap:round;stroke-linejoin:round;stroke-miterlimit:10;" points="
							312.747,123.236 340.814,96.241 355.452,123.236 						"/>
						<polygon style="fill:#FFFFFF;stroke:#263238;stroke-linecap:round;stroke-linejoin:round;stroke-miterlimit:10;" points="
							342.758,123.236 379.24,88.148 398.267,123.236 						"/>
					</g>
					<path style="fill:#FFFFFF;" d="M362.097,88.504c0,3.576-2.898,6.474-6.474,6.474s-6.474-2.899-6.474-6.474
						c0-3.576,2.899-6.474,6.474-6.474S362.097,84.928,362.097,88.504z"/>
				</g>
				
					<line style="fill:#FFFFFF;stroke:#263238;stroke-linecap:round;stroke-linejoin:round;stroke-miterlimit:10;" x1="374.229" y1="98.649" x2="376.666" y2="96.241"/>
				
					<line style="fill:#FFFFFF;stroke:#263238;stroke-linecap:round;stroke-linejoin:round;stroke-miterlimit:10;" x1="355.452" y1="117.199" x2="371.792" y2="101.056"/>
				
					<line style="fill:#FFFFFF;stroke:#263238;stroke-linecap:round;stroke-linejoin:round;stroke-miterlimit:10;" x1="337.742" y1="103.559" x2="339.415" y2="101.966"/>
				
					<line style="fill:#FFFFFF;stroke:#263238;stroke-linecap:round;stroke-linejoin:round;stroke-miterlimit:10;" x1="326.508" y1="114.247" x2="336.068" y2="105.151"/>
			</g>
		</g>
		<g>
			<g>
				<g>
					<g>
						
							<rect x="197.106" y="172.432" style="fill:#FFFFFF;stroke:#263238;stroke-linecap:round;stroke-linejoin:round;stroke-miterlimit:10;" width="92.701" height="82.283"/>
						<rect x="200.751" y="176.363" style="fill:#92E3A9;stroke:#263238;stroke-miterlimit:10;" width="85.52" height="49.168"/>
						<g>
							<rect x="206.001" y="228.961" style="fill:#999999;" width="22.337" height="5.336"/>
							<rect x="232.288" y="228.961" style="fill:#999999;" width="22.337" height="5.336"/>
							<rect x="258.575" y="228.961" style="fill:#999999;" width="22.337" height="5.336"/>
						</g>
						<g>
							<rect x="212.792" y="238.912" style="fill:#BFBFBF;" width="3.442" height="3.054"/>
							<rect x="218.237" y="238.912" style="fill:#BFBFBF;" width="12.783" height="3.054"/>
							<rect x="233.28" y="238.912" style="fill:#BFBFBF;" width="12.783" height="3.054"/>
							<rect x="267.71" y="238.912" style="fill:#BFBFBF;" width="6.391" height="3.054"/>
							<rect x="248.399" y="238.912" style="fill:#BFBFBF;" width="17.44" height="3.054"/>
						</g>
						<g>
							
								<rect x="258.279" y="244.121" transform="matrix(-1 -1.224647e-16 1.224647e-16 -1 529.3404 491.2964)" style="fill:#BFBFBF;" width="12.783" height="3.054"/>
							
								<rect x="243.235" y="244.121" transform="matrix(-1 -1.224647e-16 1.224647e-16 -1 499.2536 491.2964)" style="fill:#BFBFBF;" width="12.783" height="3.054"/>
							
								<rect x="215.197" y="244.121" transform="matrix(-1 -1.224647e-16 1.224647e-16 -1 436.7849 491.2964)" style="fill:#BFBFBF;" width="6.391" height="3.054"/>
							
								<rect x="223.459" y="244.121" transform="matrix(-1 -1.224647e-16 1.224647e-16 -1 464.358 491.2964)" style="fill:#BFBFBF;" width="17.44" height="3.054"/>
						</g>
						<g>
							<path style="fill:#FFFFFF;" d="M250.101,190.442c0,3.576-2.899,6.474-6.474,6.474c-3.576,0-6.474-2.899-6.474-6.474
								c0-3.576,2.899-6.474,6.474-6.474C247.202,183.968,250.101,186.867,250.101,190.442z"/>
						</g>
					</g>
				</g>
			</g>
			<g>
				<polygon style="fill:#FFFFFF;stroke:#263238;stroke-linecap:round;stroke-linejoin:round;stroke-miterlimit:10;" points="
					237.152,225.48 249.1,204.457 261.429,225.48 				"/>
				<polygon style="fill:#FFFFFF;stroke:#263238;stroke-linecap:round;stroke-linejoin:round;stroke-miterlimit:10;" points="
					240.541,225.526 249.139,210.396 257.943,225.407 				"/>
				
					<line style="fill:#FFFFFF;stroke:#263238;stroke-linecap:round;stroke-linejoin:round;stroke-miterlimit:10;" x1="249.075" y1="210.396" x2="249.18" y2="225.398"/>
				<polygon style="fill:#FFFFFF;stroke:#263238;stroke-linecap:round;stroke-linejoin:round;stroke-miterlimit:10;" points="
					249.1,204.457 261.429,225.48 286.815,225.398 274.432,204.285 				"/>
				<polygon style="fill:#FFFFFF;stroke:#263238;stroke-linecap:round;stroke-linejoin:round;stroke-miterlimit:10;" points="
					260.524,209.796 265.365,218.05 275.389,217.982 270.548,209.728 				"/>
			</g>
		</g>
	</g>
</g>
<g id="Graphics">
	<g>
		<g>
			<path style="fill:none;stroke:#263238;stroke-linecap:round;stroke-linejoin:round;stroke-miterlimit:10;" d="M150.101,169.112
				c0,2.449-1.984,4.432-4.432,4.432h-18.253v18.247c0,2.449-1.984,4.432-4.427,4.432c-2.449,0-4.432-1.984-4.432-4.432v-18.247
				h-18.253c-2.449,0-4.432-1.984-4.432-4.432c0-1.221,0.494-2.333,1.297-3.135c0.803-0.803,1.908-1.297,3.135-1.297h18.253v-18.253
				c0-2.443,1.983-4.427,4.432-4.427c1.222,0,2.327,0.494,3.129,1.297c0.803,0.803,1.297,1.908,1.297,3.129v18.253h18.253
				C148.118,164.68,150.101,166.663,150.101,169.112z"/>
		</g>
		<g>
			<path style="fill:none;stroke:#263238;stroke-linecap:round;stroke-linejoin:round;stroke-miterlimit:10;" d="M400.427,333.303
				c1.977,0,3.578,1.601,3.578,3.578v14.733h14.728c1.977,0,3.578,1.601,3.578,3.573c0,1.977-1.601,3.578-3.578,3.578h-14.728
				v14.733c0,1.977-1.601,3.578-3.578,3.578c-0.986,0-1.883-0.399-2.531-1.047c-0.648-0.648-1.047-1.54-1.047-2.531v-14.733h-14.733
				c-1.972,0-3.573-1.601-3.573-3.578c0-0.986,0.399-1.878,1.047-2.526c0.648-0.648,1.54-1.047,2.526-1.047h14.733v-14.733
				C396.849,334.904,398.45,333.303,400.427,333.303z"/>
		</g>
		<g>
			<path style="fill:none;stroke:#263238;stroke-linecap:round;stroke-linejoin:round;stroke-miterlimit:10;" d="M319.379,337.287
				c1.024,0,1.854,0.83,1.854,1.854v7.635h7.632c1.024,0,1.854,0.83,1.854,1.851c0,1.024-0.83,1.854-1.854,1.854h-7.632v7.634
				c0,1.024-0.83,1.854-1.854,1.854c-0.511,0-0.976-0.207-1.311-0.543c-0.336-0.336-0.543-0.798-0.543-1.311v-7.634h-7.634
				c-1.022,0-1.852-0.83-1.852-1.854c0-0.511,0.207-0.973,0.543-1.309c0.336-0.336,0.798-0.542,1.309-0.542h7.634v-7.635
				C317.525,338.116,318.355,337.287,319.379,337.287z"/>
		</g>
		<g>
			<path style="fill:none;stroke:#263238;stroke-linecap:round;stroke-linejoin:round;stroke-miterlimit:10;" d="M148.045,252.709
				c0,1.024-0.83,1.854-1.854,1.854h-7.635v7.632c0,1.024-0.83,1.854-1.851,1.854c-1.024,0-1.854-0.83-1.854-1.854v-7.632h-7.635
				c-1.024,0-1.854-0.83-1.854-1.854c0-0.511,0.207-0.976,0.542-1.311c0.336-0.336,0.798-0.543,1.311-0.543h7.635v-7.634
				c0-1.022,0.83-1.851,1.854-1.851c0.511,0,0.973,0.207,1.309,0.543c0.336,0.336,0.542,0.798,0.542,1.309v7.634h7.635
				C147.215,250.855,148.045,251.684,148.045,252.709z"/>
		</g>
		<g>
			<path style="fill:none;stroke:#263238;stroke-linecap:round;stroke-linejoin:round;stroke-miterlimit:10;" d="M359.716,361.792
				c1.024,0,1.854,0.83,1.854,1.854v7.634h7.632c1.024,0,1.854,0.83,1.854,1.851c0,1.024-0.83,1.854-1.854,1.854h-7.632v7.634
				c0,1.024-0.83,1.854-1.854,1.854c-0.511,0-0.976-0.207-1.311-0.543c-0.336-0.336-0.543-0.798-0.543-1.311v-7.634h-7.634
				c-1.022,0-1.851-0.83-1.851-1.854c0-0.511,0.207-0.973,0.543-1.309c0.336-0.336,0.798-0.543,1.309-0.543h7.634v-7.634
				C357.862,362.621,358.692,361.792,359.716,361.792z"/>
		</g>
		<g>
			<path style="fill:none;stroke:#263238;stroke-linecap:round;stroke-linejoin:round;stroke-miterlimit:10;" d="M148.045,128.002
				c0,1.024-0.83,1.854-1.854,1.854h-7.635v7.632c0,1.024-0.83,1.854-1.851,1.854c-1.024,0-1.854-0.83-1.854-1.854v-7.632h-7.635
				c-1.024,0-1.854-0.83-1.854-1.854c0-0.511,0.207-0.976,0.542-1.311c0.336-0.336,0.798-0.542,1.311-0.542h7.635v-7.634
				c0-1.022,0.83-1.852,1.854-1.852c0.511,0,0.973,0.207,1.309,0.543c0.336,0.336,0.542,0.798,0.542,1.309v7.634h7.635
				C147.215,126.148,148.045,126.978,148.045,128.002z"/>
		</g>
		<g>
			<g>
				<path style="fill:none;stroke:#263238;stroke-linecap:round;stroke-linejoin:round;stroke-miterlimit:10;" d="M583.899,208.639
					c-0.164-0.022-0.329-0.055-0.493-0.088C583.724,208.628,583.899,208.639,583.899,208.639z M583.395,208.551
					c-0.307-0.077-0.603-0.175-0.888-0.285C582.869,208.409,583.164,208.497,583.395,208.551z"/>
				<path style="fill:none;stroke:#263238;stroke-linecap:round;stroke-linejoin:round;stroke-miterlimit:10;" d="M596.748,177.164
					c-6.534-2.872-15.085,2.226-19.076,11.347c-3.563,8.135-2.324,16.741,2.598,20.545c0.197,0.153,0.406,0.296,0.614,0.439
					c-1.677,3.727-9.779,22.102-9.779,22.102c1.809,3.245,3.914,1.184,3.914,1.184l0.921-2.511l6.775-18.418l0.471-1.283
					c6.392,2.05,14.34-2.982,18.155-11.698C605.332,189.75,603.293,180.025,596.748,177.164z M600.125,188.708
					c0,0.307-0.022,0.614-0.066,0.932c-0.197,2.368-0.8,4.923-1.93,7.477c-0.351,0.811-0.745,1.601-1.173,2.346
					c-0.022,0.044-0.055,0.099-0.077,0.143c-0.175,0.296-0.351,0.603-0.537,0.888c-0.208,0.34-0.417,0.658-0.647,0.976
					c-0.208,0.307-0.427,0.614-0.647,0.899l-0.033,0.033c-0.219,0.296-0.439,0.57-0.68,0.844c-0.877,1.042-1.82,1.962-2.785,2.73
					c-0.11,0.088-0.219,0.175-0.329,0.252c-0.055,0.044-0.099,0.077-0.142,0.11c-0.197,0.153-0.406,0.296-0.603,0.427
					c-0.285,0.186-0.581,0.373-0.866,0.537c-0.23,0.132-0.45,0.252-0.669,0.362c-0.768,0.373-1.535,0.658-2.291,0.833
					c-0.11,0.033-0.23,0.055-0.34,0.077c-0.186,0.033-0.373,0.066-0.559,0.088c-0.044,0-0.088,0.011-0.132,0.011
					c-0.252,0.033-0.493,0.044-0.735,0.044h-0.055c-0.197,0-0.384-0.011-0.581-0.033c-0.088,0-0.176-0.011-0.252-0.033
					c-0.033,0-0.066-0.011-0.099-0.011c0,0-0.175-0.011-0.493-0.088c0,0,0,0-0.011,0c-0.23-0.055-0.526-0.143-0.888-0.285
					c-0.022-0.011-0.055-0.022-0.077-0.033l-0.066-0.022c-0.066-0.033-0.143-0.066-0.219-0.099
					c-0.022-0.011-0.044-0.011-0.066-0.033c-0.033-0.011-0.055-0.022-0.077-0.033c-0.11-0.055-0.208-0.11-0.307-0.175
					c-0.055-0.022-0.099-0.044-0.154-0.077c-0.088-0.066-0.175-0.132-0.274-0.208l-0.011-0.011
					c-0.044-0.022-0.088-0.055-0.121-0.088c-1.612-1.305-2.445-3.804-2.478-6.918c-0.022-2.949,0.68-6.436,2.149-9.977
					c0.077-0.197,0.164-0.406,0.252-0.603c0.844-1.919,1.831-3.662,2.894-5.197l0.011-0.011c0.033-0.055,0.066-0.11,0.11-0.153
					c0.252-0.351,0.504-0.691,0.767-1.02c0.121-0.165,0.252-0.318,0.384-0.471c1.645-1.995,3.443-3.475,5.186-4.298
					c0.164-0.077,0.34-0.153,0.504-0.219c0.055-0.022,0.121-0.044,0.187-0.066c0.164-0.066,0.318-0.12,0.482-0.164
					c0.395-0.121,0.778-0.197,1.151-0.23c0.186-0.022,0.373-0.033,0.548-0.033c0.263,0,0.526,0.022,0.778,0.066
					c0.296,0.044,0.592,0.11,0.877,0.23l0.033,0.011c0.274,0.088,0.559,0.197,0.866,0.307c0.274,0.11,0.559,0.23,0.844,0.362
					c0.811,0.384,1.524,1.14,2.094,2.193c0.011,0.011,0.011,0.033,0.022,0.044s0.011,0.022,0.011,0.033
					c0.077,0.132,0.154,0.274,0.219,0.428c0.011,0.033,0.033,0.066,0.044,0.099c0,0.022,0.011,0.033,0.022,0.055
					c0.011,0.022,0.011,0.033,0.022,0.055c0.088,0.197,0.164,0.395,0.241,0.614c0.088,0.241,0.164,0.482,0.23,0.745
					c0,0,0,0.011,0.011,0.022c0.088,0.318,0.175,0.647,0.23,0.998c0.142,0.691,0.241,1.436,0.285,2.214
					C600.157,187.272,600.168,187.974,600.125,188.708z"/>
			</g>
			<g>
				
					<line style="fill:none;stroke:#263238;stroke-linecap:round;stroke-linejoin:round;stroke-miterlimit:10;" x1="598.776" y1="181.297" x2="580.807" y2="190.594"/>
				<path style="fill:none;stroke:#263238;stroke-linecap:round;stroke-linejoin:round;stroke-miterlimit:10;" d="M599.028,181.801
					c-0.066-0.154-0.142-0.296-0.219-0.428"/>
				<path style="fill:none;stroke:#263238;stroke-linecap:round;stroke-linejoin:round;stroke-miterlimit:10;" d="M599.116,182.01
					c0.088,0.197,0.164,0.406,0.241,0.614c0.088,0.241,0.154,0.482,0.23,0.745"/>
				<path style="fill:none;stroke:#263238;stroke-linecap:round;stroke-linejoin:round;stroke-miterlimit:10;" d="M599.598,183.391
					c0.088,0.318,0.164,0.658,0.23,0.998c0.132,0.691,0.23,1.436,0.285,2.214c0.033,0.669,0.044,1.381,0.011,2.105
					c-0.022,0.307-0.044,0.625-0.066,0.932c-6.096,3.289-16.017,8.266-21.389,10.93h-0.011"/>
				<path style="fill:none;stroke:#263238;stroke-miterlimit:10;" d="M596.956,199.463c-0.022,0.044-0.055,0.099-0.077,0.143
					c-0.175,0.307-0.351,0.603-0.537,0.888c-0.208,0.329-0.427,0.658-0.647,0.976c-0.208,0.307-0.427,0.614-0.647,0.899
					l-0.033,0.033c-0.219,0.285-0.439,0.57-0.68,0.844c-0.877,1.042-1.82,1.962-2.785,2.73c-0.11,0.088-0.219,0.175-0.329,0.252
					c-0.055,0.044-0.099,0.077-0.142,0.11c-0.197,0.153-0.406,0.296-0.603,0.427c-0.285,0.186-0.581,0.373-0.866,0.537
					c-0.23,0.132-0.45,0.252-0.669,0.362c-0.768,0.373-1.535,0.658-2.291,0.833c-0.11,0.033-0.23,0.055-0.34,0.077
					c-0.186,0.033-0.373,0.066-0.559,0.088c-0.044,0-0.088,0.011-0.132,0.011c-0.252,0.033-0.493,0.044-0.735,0.044h-0.055
					c-0.197,0-0.395-0.011-0.581-0.033c-0.088-0.011-0.164-0.022-0.252-0.033c-0.033,0-0.066-0.011-0.099-0.011
					c0,0-0.175-0.011-0.493-0.088c0,0,0,0-0.011,0c-0.23-0.055-0.526-0.143-0.888-0.285c-0.022-0.011-0.055-0.022-0.077-0.033
					c-0.11-0.055-0.23-0.099-0.351-0.154c-0.121-0.066-0.252-0.132-0.384-0.208c-0.055-0.022-0.099-0.044-0.154-0.077
					c-0.099-0.077-0.186-0.132-0.274-0.208l-0.011-0.011L596.956,199.463z"/>
				<path style="fill:none;stroke:#263238;stroke-miterlimit:10;" d="M595.838,178.743c-3.771,1.973-8.113,4.177-11.873,6.041
					c0.033-0.055,0.066-0.11,0.11-0.153c0.252-0.351,0.504-0.691,0.767-1.02c0.121-0.165,0.252-0.318,0.384-0.471
					c1.645-1.995,3.443-3.475,5.186-4.298c0.164-0.077,0.329-0.142,0.504-0.219c0.055-0.022,0.121-0.044,0.187-0.066
					c0.164-0.066,0.329-0.12,0.482-0.164c0.395-0.121,0.778-0.197,1.151-0.23c0.186-0.022,0.373-0.033,0.548-0.033
					c0.263,0,0.526,0.022,0.778,0.066c0.296,0.044,0.592,0.11,0.877,0.23l0.033,0.011
					C595.246,178.523,595.531,178.633,595.838,178.743z"/>
			</g>
		</g>
		
			<line style="fill:none;stroke:#263238;stroke-linecap:round;stroke-linejoin:round;stroke-miterlimit:10;" x1="186.58" y1="336.497" x2="192.653" y2="330.424"/>
		
			<line style="fill:none;stroke:#263238;stroke-linecap:round;stroke-linejoin:round;stroke-miterlimit:10;" x1="155.121" y1="367.956" x2="180.507" y2="342.571"/>
		
			<line style="fill:none;stroke:#263238;stroke-linecap:round;stroke-linejoin:round;stroke-miterlimit:10;" x1="592.776" y1="131.902" x2="601.717" y2="122.96"/>
		
			<line style="fill:none;stroke:#263238;stroke-linecap:round;stroke-linejoin:round;stroke-miterlimit:10;" x1="564.185" y1="160.492" x2="588.283" y2="136.394"/>
	</g>
</g>
<g id="Character">
	<g>
		<g>
			<g>
				<g>
					<path style="fill:#FFFFFF;stroke:#263238;stroke-linecap:round;stroke-linejoin:round;stroke-miterlimit:10;" d="
						M289.557,271.441c-0.009-0.012-0.009-0.012-0.02-0.014c0,0,0.01,0.002-0.002,0.011c-0.132,0.013-3.622,0.621-3.776,0.631
						c-5.129,0.603-20.645,2.913-31.442,4.233c-4.281,0.523-6.587,1.294-10.936-2.116c-3.699-2.901-11.372-23.824-13.826-30.011
						c2.705-2.116,6.159-3.501,9.578-3.197c0.424-0.295,0.956,0.143,1.363,0.475c0.394,0.341,0.625,0.832,0.836,1.309
						c2.542,5.668,4.841,11.441,6.909,17.299c1.046,2.958,2.089,3.813,5.215,4.035c10.228,0.73,16.736,2.4,32.156,2.826
						l12.197-3.268l4.611,0.687l12.124,1.81c0,0,0.364,1.779-1.97,1.999c-3.161,0.297-8.692-0.174-8.692-0.174l1.618,3.286
						l-3.476,1.615l-3.623,0.704l-8.866-2.145"/>
					<g>
						<path style="fill:none;stroke:#263238;stroke-linecap:round;stroke-linejoin:round;stroke-miterlimit:10;" d="
							M306.503,268.152l-6.463-0.965c-0.632,0.594-2.483,1.809-3.115,2.403c0.786,0.415,2.922,0.337,3.708,0.752
							c0,0,2.172,2.255-2.231,3.24"/>
						<path style="fill:#FFFFFF;stroke:#263238;stroke-linecap:round;stroke-linejoin:round;stroke-miterlimit:10;" d="
							M299.025,267.99c0.631,0.572,2.583,2.264,3.807,2.284"/>
					</g>
				</g>
				<g>
					<g>
						<g>
							<path style="fill:#263238;" d="M228.259,464.434l-1.726-11.611l-10.511-0.709l1.384,12.689
								C217.405,464.803,222.536,469.164,228.259,464.434z"/>
							<g>
								<path style="fill:#FFFFFF;stroke:#263238;stroke-linecap:round;stroke-linejoin:round;stroke-miterlimit:10;" d="
									M227.66,476.7c-0.12-0.05-0.24-0.11-0.35-0.16c-0.99-0.47-2.03-1.02-3.08-0.82c-0.56,0.1-1.07,0.41-1.61,0.57
									c-2.37,0.7-4.8-1.59-5.66-4.32s-0.56-5.74-0.25-8.62c0.19,0.33,0.4,0.65,0.63,0.93c0.6,0.74,1.34,1.31,2.15,1.71
									c0.01,0.01,0.02,0.02,0.03,0.02c1.15,0.56,2.45,0.78,3.7,0.59c0.02,0.01,0.04,0,0.06,0c1.26-0.19,2.47-0.78,3.44-1.8
									c0.43-0.45,0.9-0.82,1.44-1.01c0.79-0.29,1.75-0.21,3.01,0.48c11.92,6.56,11.45,5.72,18.66,9.02c1.45,0.66,1.92,2.2,1,3.41
									H227.66z"/>
							</g>
						</g>
						<path style="fill:#263238;" d="M227.234,438.193c-5.276,6.727-11.878,15.336-11.878,15.336l-4.972-10.357
							c0,0,11.082-13.492,16.677-27.65c0.043,2.758,0.292,5.793,0.387,7.479C227.71,428.169,227.251,432.981,227.234,438.193z"/>
						<g>
							<g>
								<path style="fill:#FFFFFF;stroke:#263238;stroke-linecap:round;stroke-linejoin:round;stroke-miterlimit:10;" d="
									M216.211,466.517c-0.069,0.437-0.153,0.899-0.479,1.192c-0.912,0.835-1.951-0.642-2.737-1.604
									c-2.367-2.926-4.552-6.489-6.538-9.89l-0.668-5.352l-1.753,0.755l-0.222,0.019c-0.177-0.302-0.353-0.597-0.522-0.891
									c-3.988-6.768,0.656-8.152,5.623-7.992c0.568,0.018,1.756,0.126,3.711,3.766c1.029,1.922,0.915,1.43,1.408,2.609
									C216.309,454.592,217.068,460.668,216.211,466.517z"/>
							</g>
							<g>
								<g>
									<g>
										<path style="fill:#263238;" d="M245.107,325.845c-0.214-1.339-0.23-5.234-0.193-8.882
											c0.057-4.678-2.09-9.114-5.782-11.991c0,0-4.241,5.858-16.566,6.012c-0.206,0.003-0.412-0.003-0.618-0.001
											c-5.518-0.063-10.971-0.908-16.203-2.482c-2.232-0.68-4.416-1.485-6.552-2.421c0,0-2.149,13.955-1.439,29.294
											c0.597,12.138,7.009,69.127,9.202,86.438c1.828,14.436,6.894,28.653,7.558,34.808c0.314,2.908,6.865,1.915,9.988,0.756
											c4.09-1.519,4.372-2.403,4.372-2.403c0.216-4.482-1.072-12.318-1.054-16.789c11.055-14.103,28.248-36.501,28.699-39.924
											C260.024,371.671,245.553,328.59,245.107,325.845z M235.217,394.279c-0.266,1.798-3.878,11.247-7.964,21.566
											c-0.07-4.542,1.896-9.301,2.392-16.644c0.953-14.131-2.107-29.6-1.844-40.961
											C230.203,367.993,235.703,390.938,235.217,394.279z"/>
									</g>
								</g>
							</g>
							<g>
								<path style="fill:none;stroke:#BFBFBF;stroke-linecap:round;stroke-linejoin:round;stroke-miterlimit:10;" d="
									M252.951,402.482c-1.775,1.544-3.871,2.721-6.122,3.409"/>
								<path style="fill:none;stroke:#BFBFBF;stroke-linecap:round;stroke-linejoin:round;stroke-miterlimit:10;" d="
									M255.436,399.789c-0.348,0.473-0.722,0.928-1.119,1.361"/>
								<path style="fill:none;stroke:#BFBFBF;stroke-linecap:round;stroke-linejoin:round;stroke-miterlimit:10;" d="
									M210.358,315.469c-0.63,2.892-1.77,7.657-3.305,10.187c-1.535,2.53-3.909,4.673-6.79,5.355"/>
								<path style="fill:none;stroke:#BFBFBF;stroke-linecap:round;stroke-linejoin:round;stroke-miterlimit:10;" d="
									M235.23,391.649c0.605,3.997,1.79,7.906,3.506,11.566"/>
								<path style="fill:none;stroke:#BFBFBF;stroke-linecap:round;stroke-linejoin:round;stroke-miterlimit:10;" d="
									M235.985,395.417c-0.662,5.712-0.268,11.537,1.13,17.119"/>
								<g>
									<path style="fill:none;stroke:#BFBFBF;stroke-linecap:round;stroke-linejoin:round;stroke-miterlimit:10;" d="
										M202.789,329.987c1.783,22.426,4.087,39.478,5.974,56.493"/>
									<path style="fill:none;stroke:#BFBFBF;stroke-linecap:round;stroke-linejoin:round;stroke-miterlimit:10;" d="
										M208.895,392.406c0.007-0.708,0.004-1.419-0.006-2.135"/>
									<path style="fill:none;stroke:#BFBFBF;stroke-linecap:round;stroke-linejoin:round;stroke-miterlimit:10;" d="
										M219.353,458.123c-1.209-3.584-9.578-31.203-10.1-42.655c-0.347-7.608-0.72-13.031-0.424-20.399"/>
								</g>
								
									<line style="fill:none;stroke:#BFBFBF;stroke-linecap:round;stroke-linejoin:round;stroke-miterlimit:10;" x1="227.889" y1="413.277" x2="227.908" y2="438.07"/>
							</g>
							<path style="fill:none;stroke:#BFBFBF;stroke-linecap:round;stroke-linejoin:round;stroke-miterlimit:10;" d="
								M207.053,325.656l6.023,62.685v16.457l-0.208,5.049c-0.164,3.982,0.197,7.967,1.075,11.854l8.206,36.351"/>
						</g>
					</g>
					<g>
						<g>
							<g>
								<path style="fill:#FFFFFF;stroke:#263238;stroke-linecap:round;stroke-linejoin:round;" d="M208.569,204.297
									c-1.651,6.344,1.834,15.105,1.834,15.105l-0.444,13.144l12.762,2.365l1.113-9.155c0,0,4.539,0.728,6.937-0.294
									s3.934-11.216,3.934-11.216s2.381-1.467,2.811-2.192c0.43-0.724-3.336-4.259-3.673-4.789
									c-0.206-0.346-0.309-0.745-0.294-1.148c0.053-0.752,0.067-1.506,0.042-2.259c-0.032-0.636-0.698-2.808-1.187-4.332
									c-0.392-1.221-1.162-2.307-2.25-2.986C222.896,192.006,210.089,198.454,208.569,204.297z"/>
								<path style="fill:#263238;" d="M231.703,206.596c0.285-0.074,0.661,0.463,0.848,1.192c0.187,0.729,0.106,1.379-0.173,1.453
									c-0.279,0.074-0.661-0.463-0.848-1.192C231.349,207.32,231.418,206.67,231.703,206.596z"/>
								<path style="fill:#FFFFFF;stroke:#263238;stroke-linecap:round;stroke-linejoin:round;" d="M229.633,206.419
									c0.001-0.004,0.002-0.007,0.003-0.011c0.336-1.277,1.644-2.041,2.921-1.705"/>
								<path style="fill:#FFFFFF;stroke:#263238;stroke-linecap:round;stroke-linejoin:round;" d="M229.563,217.559
									c2.958,1.013,4.616-0.694,4.616-0.694"/>
							</g>
							<g>
								<defs>
									<path id="XMLID_2_" d="M231.94,231.004c-1.539-0.431-4.46-0.697-5.437-0.599c-2.516,0.251-2.015,1.912-5.085,1.936
										c-3.769,0.03-11.106-2.958-14.887-1.242c-9.457,4.301-11.052,4.721-12.435,6.607c-3.636,4.959,0.188,34.659,2.224,43.337
										c1.626,6.904,1.464,24.849,4.455,27.685c5.566,5.258,13.353,4.395,20.878,2.967c6.514-1.243,17.395-2.923,19.796-9.104
										c0.347-0.891,0.267-4.611,0.071-9.98c-0.594-16.233,0.376-25.568,0.079-35.964l6.101-2.463
										C247.699,254.185,240.498,233.403,231.94,231.004z"/>
								</defs>
								<use xlink:href="#XMLID_2_"  style="overflow:visible;fill:#92E3A9;"/>
								<clipPath id="XMLID_00000067220782268788997940000009007422148893349807_">
									<use xlink:href="#XMLID_2_"  style="overflow:visible;"/>
								</clipPath>
								<path style="opacity:0.2;clip-path:url(#XMLID_00000067220782268788997940000009007422148893349807_);" d="M222.868,290.691
									c4.275-1.73,13.201-9.752,14.528-20.853c0.331-2.767,2.29-10.089,0.403-12.396c-1.342,3.878-2.217,11.114-3.679,14.972
									c-0.745,1.967-1.551,3.911-2.414,5.829C231.294,279.157,223.763,290.328,222.868,290.691z"/>
								<path style="opacity:0.2;clip-path:url(#XMLID_00000067220782268788997940000009007422148893349807_);" d="M198.214,293.216
									c2.843,6.609,9.255,11.244,16.182,13.189c6.927,1.945,14.963,1.778,22.017,0.358c-9.051,5.273-20.055,8.959-29.857,5.267
									c-1.765-0.665-4.572-2.884-5.883-4.24c-3-3.104-2.951-9.611-2.689-13.92c-0.549,0.03-1.098,0.059-1.647,0.089"/>
								<path style="opacity:0.2;clip-path:url(#XMLID_00000067220782268788997940000009007422148893349807_);" d="M215.702,241.014
									c0.369,0.422,0.78,0.868,1.331,0.973c0.632,0.12,1.267-0.26,1.672-0.759c0.406-0.499,0.643-1.11,0.95-1.675
									c0.759-1.394,1.98-2.531,3.426-3.187c0.8,1.883,2.009,3.59,3.518,4.971c0.171-0.01,0.342-0.02,0.513-0.03
									c0.773-1.915,0.974-4.056,0.571-6.081c-0.125,0.527-0.495,0.991-0.98,1.231c-0.438-0.806-0.886-1.625-1.544-2.264
									c-0.658-0.639-1.57-1.082-2.478-0.959c-0.39,0.053-0.76,0.205-1.111,0.383c-2.27,1.145-3.863,3.304-5.038,5.558
									c0.061-0.118-4.779-3.144-5.357-3.379C212.584,237.603,214.192,239.289,215.702,241.014z"/>
								<use xlink:href="#XMLID_2_"  style="overflow:visible;fill:none;stroke:#263238;stroke-miterlimit:10;"/>
							</g>
							<path style="opacity:0.2;" d="M241.129,254.306c1.285-0.744,2.681-1.298,4.128-1.636c-1.994-3.353-3.989-6.706-5.983-10.059
								c-0.602-1.013-1.48-2.168-2.648-2.012c-0.006,2.013,2.356,5.274,3.049,7.312C239.937,248.68,241.752,253.945,241.129,254.306
								z"/>
							<g id="freepik--character-2--inject-97_2_">
								<g>
									<g>
										<g>
											<path style="fill:#FFFFFF;stroke:#263238;stroke-linecap:round;stroke-linejoin:round;stroke-miterlimit:10;" d="
												M210.286,228.303c-1.81,0.452-3.267,0.569-3.667,1.817c-0.256,0.799,0.358,1.545,1.007,2.216
												c2.491,2.575,5.638,4.921,9.206,6.842c1.852-2.783,3.341-4.253,5.316-5.949c-3.879-0.704-7.799-2.271-10.963-4.437
												L210.286,228.303z"/>
										</g>
										<g>
											<path style="fill:#FFFFFF;stroke:#263238;stroke-linecap:round;stroke-linejoin:round;stroke-miterlimit:10;" d="
												M223.798,228.999c1.666,0.224,1.961,0.588,2.705,1.406c0.792,0.871,1.457,4.475,0.694,6.786
												c-1.785-2.021-2.907-5.093-5.444-4.264C223.742,232.277,223.798,228.999,223.798,228.999z"/>
										</g>
									</g>
								</g>
							</g>
							<path style="fill:none;stroke:#263238;stroke-linecap:round;stroke-linejoin:round;stroke-miterlimit:10;" d="
								M238.233,254.887c0.581,14.145-0.933,28.973-17.659,37.009"/>
							<path style="fill:none;stroke:#263238;stroke-linecap:round;stroke-linejoin:round;stroke-miterlimit:10;" d="
								M213.769,298.439c7.33,1.903,15.035,2.363,22.535,1.315"/>
							<path style="fill:none;stroke:#263238;stroke-linecap:round;stroke-linejoin:round;stroke-miterlimit:10;" d="
								M207.943,296.59c0.967,0.365,1.945,0.704,2.931,1.016"/>
							<path style="opacity:0.2;" d="M236.448,299.995c0.393-0.038,0.926-0.374,0.674-0.678c-10.506,0.847-19.839-4.235-30.06-4.942
								c0.099,0.992-0.312,1.479,0.306,2.096c0.712,0.712,3.048,0.992,4.02,1.266c2.778,0.782,5.605,1.387,8.459,1.813
								C225.382,300.375,230.879,300.392,236.448,299.995z"/>
							<path style="fill:none;stroke:#263238;stroke-linecap:round;stroke-linejoin:round;stroke-miterlimit:10;" d="
								M223.314,233.309c-0.037-0.142,3.131,15.663,3.131,15.663l-1.945,0.476"/>
						</g>
					</g>
					<path style="fill:#263238;stroke:#263238;stroke-linecap:round;stroke-linejoin:round;" d="M223.211,225.108
						c-2.08-1.046,0.392,0.909,0.392,0.909c0.35,0.034,0.702,0.017,1.052-0.022c0.385-0.043,4.143-0.02,4.143-0.02
						S224.921,225.753,223.211,225.108z"/>
					<g>
						<polygon style="fill:#FFFFFF;stroke:#263238;stroke-linecap:round;stroke-linejoin:round;stroke-miterlimit:10;" points="
							240.762,254.504 248.704,250.357 250.13,254.639 241.62,259.047 						"/>
					</g>
				</g>
				<path style="fill:#263238;stroke:#263238;stroke-linecap:round;stroke-linejoin:round;" d="M215.325,225.207
					c1.253,3.215,1.561,4.73,3.424,7.185"/>
				<g>
					<defs>
						<path id="XMLID_1_" d="M181.024,266.032c4.776,2.479,12.163,5.295,17.407,6.502c2.415-6.828,2.415-6.828,4.673-9.855
							c3.148-4.219,5.16-9.531,4.417-14.742c-0.585-4.103-3.165-7.968-6.835-9.968C189.113,231.661,182.083,257.108,181.024,266.032
							z"/>
					</defs>
					<use xlink:href="#XMLID_1_"  style="overflow:visible;fill:#92E3A9;"/>
					<clipPath id="XMLID_00000029018203239024260190000017374761917554818962_">
						<use xlink:href="#XMLID_1_"  style="overflow:visible;"/>
					</clipPath>
					<path style="opacity:0.2;clip-path:url(#XMLID_00000029018203239024260190000017374761917554818962_);" d="M191.426,242.258
						c1.023,0.166,2.046,0.333,3.069,0.499c-2.191,1.265-3.69,3.657-3.873,6.18c0.662-0.522,1.324-1.043,1.987-1.565
						c0.175,2.362-0.273,4.721-0.372,7.087c-0.099,2.366,0.209,4.887,1.672,6.749c0.54-3.151,1.513-6.227,2.882-9.115
						c-0.486,3.275-0.963,6.685,0.032,9.843c0.577,1.832,1.65,3.622,1.403,5.527c-1.759-1.182-2.122-1.055-4.18-1.562
						c-1.238-0.305-3.969-1.676-5.213-1.954c-2.213-0.496-2.261-0.516-4.186-1.715c-0.293-0.183-1.381-0.7-1.549-1.001
						c-0.171-0.306-0.627-1.573-0.616-1.924c0.113-3.913,1.646-7.841,3.577-11.201c0.907-1.576,4.073-8.53,5.876-8.185
						C191.902,240.059,191.371,242.25,191.426,242.258z"/>
					<use xlink:href="#XMLID_1_"  style="overflow:visible;fill:none;stroke:#263238;stroke-miterlimit:10;"/>
				</g>
				<path style="fill:#FFFFFF;stroke:#263238;stroke-linecap:round;stroke-linejoin:round;stroke-miterlimit:10;" d="
					M182.803,267.445l-5.084,18.501l26.35,41.388c0,0,4.896-6.094,3.101-8.478c-3.57-4.741-9.478-23.704-13.426-32.376
					c-0.922-2.025-1.149-4.292-0.649-6.46l1.941-8.417C195.035,271.604,192.651,262.507,182.803,267.445z"/>
				<g>
					<path style="fill:none;stroke:#263238;stroke-linecap:round;stroke-linejoin:round;stroke-miterlimit:10;" d="M194.161,242.916
						c-5.769,3.733-10.035,9.72-11.681,16.392"/>
					<path style="fill:none;stroke:#263238;stroke-linecap:round;stroke-linejoin:round;stroke-miterlimit:10;" d="M236.644,241.219
						c4.047,7.618,4.009,14.436,4.582,14.556"/>
					<path style="fill:none;stroke:#263238;stroke-linecap:round;stroke-linejoin:round;stroke-miterlimit:10;" d="M195.991,256.325
						c-0.133,3.755,0.55,7.541,2.025,10.997"/>
					<path style="fill:none;stroke:#263238;stroke-linecap:round;stroke-linejoin:round;stroke-miterlimit:10;" d="M196.815,250.732
						c-0.216,0.815-0.39,1.641-0.522,2.474"/>
				</g>
				<polygon style="fill:#FFFFFF;stroke:#263238;stroke-linecap:round;stroke-linejoin:round;stroke-miterlimit:10;" points="
					179.51,259.823 178.573,266.521 198.458,274.69 202.022,268.662 				"/>
			</g>
			<path style="fill:#FFFFFF;stroke:#263238;stroke-linecap:round;stroke-linejoin:round;" d="M213.076,211.639
				c0.03,1.732,0.522,3.364,1.438,4.835c0.781,1.256,2.721,2.442,4.108,1.927c0,0,0.473,2.393,2.104,4.179"/>
		</g>
		<g>
			<path style="fill:#263238;stroke:#263238;stroke-linecap:round;stroke-linejoin:round;" d="M233.717,189.213
				c-0.606-0.783-1.683-0.998-2.666-1.107c-7.701-0.855-15.369,1.412-22.786,3.653c-1.525,0.461-3.106,0.952-4.283,2.026
				c-1.015,0.925-1.636,2.201-2.139,3.479c-0.741,1.884-1.282,3.881-1.233,5.905c0.087,3.627,2.027,6.918,3.003,10.413
				c0.976,3.494,0.576,7.981-2.605,9.727c1.947-0.639,3.757-1.691,5.275-3.068c-0.335,1.297-1.285,2.421-2.508,2.968
				c1.75,0.099,3.526-0.346,5.023-1.257c-0.59,0.982-1.419,1.819-2.395,2.419c2.405,0.233,4.893-1.019,6.139-3.09
				c1.921-3.193,0.778-7.241,0.093-10.904c-0.685-3.663-0.379-8.297,2.957-9.959c0.875-0.436,1.858-0.598,2.824-0.753
				c3.617-0.584,8.491-0.481,11.877-1.928C232.899,196.622,235.776,191.87,233.717,189.213z"/>
			<g>
				
					<path style="fill:none;stroke:#BFBFBF;stroke-width:0.75;stroke-linecap:round;stroke-linejoin:round;stroke-miterlimit:10;" d="
					M225.049,192.502c1.114,0.384,1.837,1.66,1.595,2.813"/>
				
					<path style="fill:none;stroke:#BFBFBF;stroke-width:0.75;stroke-linecap:round;stroke-linejoin:round;stroke-miterlimit:10;" d="
					M226.727,190.991c0.875,0.029,1.572,0.824,1.784,1.674c0.212,0.849,0.049,1.742-0.113,2.602"/>
				
					<path style="fill:none;stroke:#BFBFBF;stroke-width:0.75;stroke-linecap:round;stroke-linejoin:round;stroke-miterlimit:10;" d="
					M230.284,191.402c1.041,0.795,1.019,2.617-0.042,3.386"/>
				
					<path style="fill:none;stroke:#BFBFBF;stroke-width:0.75;stroke-linecap:round;stroke-linejoin:round;stroke-miterlimit:10;" d="
					M221.619,195.351c0.794,0.123,1.5,0.708,1.768,1.465"/>
				
					<path style="fill:none;stroke:#BFBFBF;stroke-width:0.75;stroke-linecap:round;stroke-linejoin:round;stroke-miterlimit:10;" d="
					M223.374,194.28c0.775,0.029,1.432,0.818,1.32,1.586"/>
			</g>
			<path style="fill:#263238;stroke:#263238;stroke-linecap:round;stroke-linejoin:round;" d="M223.332,213.831
				c-0.635,0.238-1.367-0.161-1.731-0.734c-0.364-0.572-0.449-1.273-0.525-1.947c-0.652,0.917-1.157,1.939-1.488,3.015
				c-0.067-0.948-0.134-1.896-0.201-2.843c-0.483,0.67-0.967,1.339-1.45,2.009c-0.029-0.972,0.101-1.948,0.385-2.877
				c-2.564,0.371-5.128,0.742-7.692,1.114c-0.648-1.787-1.302-3.604-1.421-5.502c-0.12-1.897,0.367-3.919,1.718-5.256
				c2.595-2.566,7.19-3.633,8.952-0.183C220.505,201.853,224.687,213.323,223.332,213.831z"/>
		</g>
		<path style="fill:#263238;stroke:#263238;stroke-linecap:round;stroke-linejoin:round;" d="M233.745,198.912
			c0.591,0.745,0.876,1.702,0.916,2.652c0.26-0.864,0.48-1.739,0.659-2.623c0.041-0.201,0.079-0.414,0.008-0.607
			c-0.061-0.168-0.196-0.297-0.33-0.415c-0.469-0.413-1-0.779-1.605-0.939c-0.631-0.167-1.423-0.095-1.865,0.421
			C232.041,198.052,233.146,198.156,233.745,198.912z"/>
	</g>
</g>
<g id="Floor">
	
		<line style="fill:none;stroke:#263238;stroke-linecap:round;stroke-linejoin:round;stroke-miterlimit:10;" x1="97.644" y1="476.704" x2="602.356" y2="476.704"/>
</g>
</svg>
