<?xml version="1.0" encoding="UTF-8" standalone="no"?>
<!-- Created with Inkscape (http://www.inkscape.org/) -->

<svg
   width="205.99998"
   height="40"
   viewBox="0 0 19.775999 3.84"
   version="1.1"
   id="svg1"
   xmlns:inkscape="http://www.inkscape.org/namespaces/inkscape"
   xmlns:sodipodi="http://sodipodi.sourceforge.net/DTD/sodipodi-0.dtd"
   xmlns="http://www.w3.org/2000/svg"
   xmlns:svg="http://www.w3.org/2000/svg">
  <sodipodi:namedview
     id="namedview1"
     pagecolor="#ffffff"
     bordercolor="#cccccc"
     borderopacity="1"
     inkscape:showpageshadow="0"
     inkscape:pageopacity="1"
     inkscape:pagecheckerboard="0"
     inkscape:deskcolor="#d1d1d1"
     inkscape:document-units="px" />
  <defs
     id="defs1" />
  <g
     inkscape:label="Layer 1"
     inkscape:groupmode="layer"
     id="layer1">
    <path
       id="text19"
       style="font-size:5.0325px;line-height:2.45;font-family:Geist;-inkscape-font-specification:'Geist, Normal';stroke:#ffffff;stroke-width:0;stroke-linejoin:bevel;stroke-miterlimit:4.9;stroke-opacity:0;paint-order:markers fill stroke"
       d="m 10.374094,0.0971265 -0.05175,0.421688 c 0.271083,0.009 0.484332,0.08171 0.638062,0.219749 0.164395,0.147619 0.271614,0.348959 0.321938,0.603938 l 0.458062,-0.03019 c -0.07381,-0.37576 -0.229795,-0.672739 -0.468,-0.890813 -0.217898,-0.199486 -0.517586,-0.307371 -0.898312,-0.324375 z m -0.326813,0.0021 c -0.1847117,0.03497 -0.3540247,0.100165 -0.5075617,0.196125 -0.24156,0.150974 -0.429426,0.367306 -0.563625,0.649125 -0.1342,0.278464 -0.201188,0.610737 -0.201188,0.996562 0,0.385824 0.06699,0.71791 0.201188,0.996375 0.134199,0.278464 0.322065,0.493275 0.563625,0.64425 0.02455,0.015 0.04984,0.02852 0.07519,0.042 l 0.06038,-0.492188 c -0.123623,-0.106992 -0.224321,-0.245176 -0.3015,-0.415499 -0.0973,-0.21472 -0.146062,-0.472989 -0.146062,-0.774938 0,-0.30195 0.04877,-0.560406 0.146062,-0.775125 0.09729,-0.218075 0.231458,-0.384118 0.402563,-0.498187 0.06752,-0.04545 0.139126,-0.08183 0.214687,-0.109688 z m 1.93575,0.02212 v 3.573188 h 0.43275 v -1.19272 l 0.463125,-0.508313 0.49575,0.670312 v -0.716249 l -0.204,-0.276188 0.204,-0.225938 v -0.608625 l -0.958875,1.061063 v -1.776563 z m 2.715375,0.0032 v 3.573187 h 0.447563 l 0.113062,-0.422812 h -0.127687 v -1.1625 h 0.438562 l 0.110437,-0.412687 h -0.548999 v -1.152376 h 0.85725 l 0.113062,-0.422812 z m 1.65225,0 -0.113063,0.422812 h 0.513375 v -0.422812 z m 0.665063,0.01369 v 0.422625 h 1.112062 v 1.239562 h 0.432938 v -1.239609 h 1.112062 v -0.422625 z m -13.944,7.5e-4 v 3.573 h 0.43275 v -1.43925 h 1.0366875 c 0.2080095,0 0.3573527,0.0353 0.4479375,0.105749 0.09394,0.07046 0.1476425,0.179381 0.1610625,0.327 l 0.090563,1.006501 H 5.6785313 L 5.577844,2.6602515 C 5.561069,2.4757265 5.505846,2.3330255 5.4119065,2.2323765 5.3213215,2.1317265 5.1970286,2.0679655 5.039344,2.0411265 c 0.1073598,-0.0302 0.2064152,-0.0839 0.297,-0.161062 0.090585,-0.07717 0.1644027,-0.171098 0.2214375,-0.281813 0.057035,-0.114069 0.0855,-0.239883 0.0855,-0.377437 0,-0.261932 -0.068004,-0.480801 -0.2036248,-0.657188 l -0.3015,0.365062 c 0.034613,0.08125 0.052312,0.175203 0.052312,0.282188 0,0.204655 -0.06376,0.362348 -0.19125,0.473062 -0.1274898,0.110715 -0.300363,0.165938 -0.5184375,0.165938 H 3.504469 v -1.288312 h 0.921 c 0.071901,0 0.138198,0.0054 0.20025,0.015 l 0.301875,-0.365438 c -0.1478696,-0.04813 -0.3152581,-0.07219 -0.502125,-0.07219 z m -2.37824997,0.03094 0.39224997,0.422625 h 0.2454375 c 0.543509,0 0.81525,0.186159 0.81525,0.558562 0,0.177815 -0.070403,0.317101 -0.2113125,0.417751 -0.1409098,0.09729 -0.3422481,0.145874 -0.6039375,0.145874 H 0.53615653 v -0.592924 l -0.4329375,-0.466313 v 3.087375 H 1.5325315 c 0.3891792,0 0.6893854,-0.08217 0.90075,-0.246563 0.2113645,-0.164394 0.3170625,-0.409377 0.3170625,-0.734812 0,-0.231494 -0.070403,-0.424295 -0.2113125,-0.578625 -0.1375547,-0.157689 -0.3288354,-0.253328 -0.57375,-0.286875 0.1979446,-0.03691 0.3522227,-0.122488 0.4629375,-0.256687 0.1140698,-0.137555 0.1711875,-0.307014 0.1711875,-0.508313 0,-0.332145 -0.1056979,-0.57542 -0.3170625,-0.72975 C 2.0709794,0.2469225 1.7538857,0.1698765 1.3311565,0.1698765 Z m 6.43481227,0.0285 -0.34725,0.962812 h 0.437813 l 0.201375,-0.585374 0.201187,0.585374 h 0.437813 l -0.34725,-0.962812 z m 6.7113747,0.186938 -0.234,0.258937 v 0.608062 l 0.782625,-0.866999 z m -7.2168747,1.208062 -0.768375,2.131125 h 0.473063 l 0.357187,-1.016438 h 1.499813 l 0.357187,1.016438 h 0.473063 l -0.768375,-2.131125 h -0.445688 l 0.23775,0.691875 h -1.207687 l 0.237937,-0.691875 z m 9.3065627,0.106313 -0.110438,0.412687 h 0.871688 v -0.412687 z m -2.316188,0.355687 v 0.715688 l 0.349875,0.473062 h 0.528375 z M 0.53615653,2.1375465 H 1.5325315 c 0.2449146,0 0.4327802,0.0537 0.563625,0.161063 0.1341998,0.104005 0.201375,0.249932 0.201375,0.437812 0,0.18788 -0.067175,0.3321 -0.201375,0.43275 -0.1308448,0.10065 -0.3187104,0.150937 -0.563625,0.150937 H 0.53615653 Z M 18.135656,2.2624215 v 1.408875 h 0.432938 v -1.408875 z m -6.8295,0.15 c -0.04361,0.278465 -0.150833,0.499919 -0.321937,0.664312 -0.171104,0.161039 -0.412673,0.2415 -0.724688,0.2415 -0.103409,0 -0.201057,-0.01238 -0.2934367,-0.03581 l -0.05231,0.42675 c 0.1096977,0.0212 0.2249717,0.03187 0.3457497,0.03187 0.285175,0 0.531679,-0.0537 0.739688,-0.161062 0.211364,-0.110714 0.380822,-0.263473 0.508312,-0.458063 0.12749,-0.19459 0.213073,-0.420979 0.256688,-0.679312 z m 4.096312,0.866438 -0.132187,0.422812 h 1.633125 v -0.422857 z" />
  </g>
</svg>
