<svg width="18" height="18" version="1.1" viewBox="0 0 4.7625 4.7625" xmlns="http://www.w3.org/2000/svg">
 <defs>
  <linearGradient id="linearGradient19-6" x1="459.53" x2="549.76" y1="149.45" y2="147.91" gradientUnits="userSpaceOnUse">
   <stop stop-color="#1a1a1a" offset="0"/>
   <stop stop-color="#111" offset="1"/>
  </linearGradient>
  <linearGradient id="linearGradient17-2" x1="414.9" x2="514.77" y1="147.88" y2="147.84" gradientUnits="userSpaceOnUse">
   <stop stop-color="#1a1a1a" offset="0"/>
   <stop stop-color="#111" offset="1"/>
  </linearGradient>
 </defs>
 <g transform="matrix(.05626 0 0 .05626 -23.592 -26.339)" stroke-miterlimit="50" stroke-width="0">
  <path transform="translate(-2.4673 366.19)" d="m505.21 113.81-43.225 14.605-0.34961 33.604 43.342 13.984a11.511 11.511 0 0 0 0.27149-2.0684v-59.268a11.522 11.522 0 0 0-0.0391-0.85742z" fill="url(#linearGradient19-6)" style="font-variation-settings:'wdth' 75, 'wght' 450"/>
  <path transform="translate(-2.4673 366.19)" d="m500.47 105.33-50.127 16.959 0.17383 47.465 47.676 14.693a11.511 11.511 0 0 0 6.793-8.4434l-43.342-13.984 0.34961-33.604 43.225-14.605a11.522 11.522 0 0 0-4.748-8.4805z" display="none" fill="#fff" style="font-variation-settings:'wdth' 75, 'wght' 450"/>
  <path transform="translate(-2.4673 366.19)" d="m434.54 103.15a11.511 11.511 0 0 0-11.51 11.51v59.268a11.522 11.522 0 0 0 11.521 11.523h59.188a11.511 11.511 0 0 0 4.4453-1l-47.676-14.693-0.17383-47.465 50.127-16.959a11.522 11.522 0 0 0-6.7344-2.1836z" fill="url(#linearGradient17-2)" style="font-variation-settings:'wdth' 75, 'wght' 450"/>
 </g>
</svg>
