<?xml version="1.0" encoding="UTF-8" standalone="no"?>
<svg
   width="417.03809"
   height="92.579834"
   fill="#000000"
   version="1.1"
   viewBox="0 0 416.89841 92.547979"
   xml:space="preserve"
   id="svg1"
   sodipodi:docname="logo.svg"
   xmlns:inkscape="http://www.inkscape.org/namespaces/inkscape"
   xmlns:sodipodi="http://sodipodi.sourceforge.net/DTD/sodipodi-0.dtd"
   xmlns="http://www.w3.org/2000/svg"
   xmlns:svg="http://www.w3.org/2000/svg"><defs
   id="defs1" /><sodipodi:namedview
   id="namedview1"
   pagecolor="#ffffff"
   bordercolor="#000000"
   borderopacity="0.25"
   inkscape:showpageshadow="2"
   inkscape:pageopacity="0.0"
   inkscape:pagecheckerboard="0"
   inkscape:deskcolor="#d1d1d1" />&#10;&#10;<path
   id="path1-6"
   sodipodi:type="inkscape:offset"
   inkscape:radius="0"
   inkscape:original="M 420.33594 130.47461 L 420.33594 155.59766 L 411.55078 155.59766 L 411.55078 169.32812 L 420.33594 169.32812 L 420.33594 203.95312 C 420.33594 207.46753 421.20392 210.67894 422.93945 213.58594 C 424.71839 216.44954 427.06175 218.74884 429.96875 220.48438 C 432.91915 222.17651 436.17267 223.02148 439.73047 223.02148 L 454.83008 223.02148 L 454.83008 209.28906 L 439.92578 209.28906 C 438.32045 209.28906 436.93319 208.76985 435.76172 207.72852 C 434.63365 206.64385 434.06836 205.36387 434.06836 203.88867 L 434.06836 169.33008 L 454.83008 169.33008 L 454.83008 155.59766 L 434.06836 155.59766 L 434.06836 130.47461 L 420.33594 130.47461 z M 37.933594 130.47656 L 37.931641 209.29102 C 37.931641 213.06575 39.27673 216.29821 41.966797 218.98828 C 44.656864 221.67835 47.889329 223.02344 51.664062 223.02344 L 75.548828 223.02344 C 80.017495 223.02344 84.097156 221.93893 87.785156 219.76953 C 91.473156 217.55673 94.400913 214.62702 96.570312 210.98242 C 98.783112 207.29469 99.890625 203.2381 99.890625 198.8125 L 99.890625 179.93945 C 99.890625 175.47079 98.783113 171.39113 96.570312 167.70312 C 94.400912 164.01512 91.473156 161.08737 87.785156 158.91797 C 84.097423 156.70517 80.017761 155.59766 75.548828 155.59766 L 59.474609 155.59766 L 59.474609 169.33008 L 75.548828 169.33008 C 78.499161 169.33008 80.993936 170.39353 83.033203 172.51953 C 85.115803 174.60213 86.158203 177.11796 86.158203 180.06836 L 86.158203 198.68164 C 86.158203 201.58864 85.115803 204.08342 83.033203 206.16602 C 80.994003 208.24862 78.499228 209.29102 75.548828 209.29102 L 51.664062 209.29102 L 51.664062 130.47656 L 37.933594 130.47656 z M 280.09375 130.47656 L 280.09375 223.02148 L 293.82422 223.02148 L 293.82422 195.16797 L 297.20898 195.16797 L 324.21875 223.02148 L 343.41797 223.02148 L 309.90039 188.26758 L 340.68359 155.59766 L 322.85156 155.59766 L 298.44727 181.43555 L 293.82617 181.43555 L 293.82617 130.47656 L 280.09375 130.47656 z M 123.86328 155.59766 C 120.30548 155.59766 117.05196 156.44263 114.10156 158.13477 C 111.19456 159.8269 108.8512 162.10515 107.07227 164.96875 C 105.33673 167.83235 104.46875 170.99964 104.46875 174.4707 L 104.4707 223.02148 L 118.20117 223.02148 L 118.20117 174.73047 C 118.20117 173.21194 118.74346 171.93196 119.82812 170.89062 C 120.95619 169.80596 122.30128 169.26367 123.86328 169.26367 L 138.89844 169.26367 L 138.89844 155.59766 L 123.86328 155.59766 z M 167.56445 155.59766 C 163.09579 155.59766 159.01613 156.70517 155.32812 158.91797 C 151.64012 161.08737 148.69132 163.99407 146.47852 167.63867 C 144.30912 171.28307 143.22461 175.33966 143.22461 179.80859 L 143.22461 198.68164 C 143.22461 203.15031 144.30912 207.22802 146.47852 210.91602 C 148.69132 214.60402 151.64012 217.55478 155.32812 219.76758 C 159.01586 221.93698 163.09552 223.02148 167.56445 223.02148 L 183.63867 223.02148 L 183.63867 209.28906 L 167.56445 209.28906 C 164.65745 209.28906 162.16268 208.24862 160.08008 206.16602 C 157.99748 204.04002 156.95508 201.50118 156.95508 198.55078 L 156.95508 179.9375 C 156.95508 176.98717 157.99748 174.49239 160.08008 172.45312 C 162.16268 170.37052 164.65745 169.33008 167.56445 169.33008 L 191.44922 169.33008 L 191.44922 223.02344 L 205.18164 223.02344 L 205.18164 155.59766 L 167.56445 155.59766 z M 235.21094 155.59766 C 230.61167 155.59766 226.42512 156.70517 222.65039 158.91797 C 218.87566 161.08737 215.85972 164.01512 213.60352 167.70312 C 211.34732 171.39086 210.21875 175.46857 210.21875 179.9375 L 210.21875 198.55078 C 210.21875 203.02011 211.34732 207.12023 213.60352 210.85156 C 215.85972 214.53956 218.87566 217.49033 222.65039 219.70312 C 226.42526 221.91593 230.6118 223.02148 235.21094 223.02148 L 273.1543 223.02148 L 273.1543 209.29102 L 235.21094 209.29102 C 232.087 209.29102 229.41983 208.22756 227.20703 206.10156 C 225.03763 203.97556 223.95312 201.41567 223.95312 198.42188 L 223.95312 180.13281 C 223.95313 177.13901 225.05868 174.60213 227.27148 172.51953 C 229.48428 170.39353 232.1304 169.33008 235.21094 169.33008 L 273.1543 169.33008 L 273.1543 155.59766 L 235.21094 155.59766 z M 358.9668 155.59766 C 355.01833 155.59766 351.63465 156.9638 348.81445 159.69727 C 345.99425 162.38733 344.58398 165.66386 344.58398 169.52539 L 344.58398 204.01953 C 344.58398 207.4906 345.43091 210.67894 347.12305 213.58594 C 348.81518 216.44954 351.09343 218.74884 353.95703 220.48438 C 356.82063 222.17651 359.98792 223.02344 363.45898 223.02344 L 401.79102 223.02344 L 401.79102 209.29102 L 363.45898 209.29102 C 362.02718 209.29102 360.81239 208.76985 359.81445 207.72852 C 358.81652 206.68718 358.31641 205.43028 358.31641 203.95508 L 358.31641 169.33008 L 387.21289 169.33008 C 388.77489 169.33008 390.09893 169.89342 391.18359 171.02148 C 392.31166 172.14955 392.875 173.53877 392.875 175.1875 L 392.875 177.00977 C 392.875 178.61517 392.31166 179.98131 391.18359 181.10938 C 390.09893 182.23744 388.77489 182.80273 387.21289 182.80273 L 366.125 182.80273 L 366.125 196.46875 L 387.08203 196.46875 C 390.68323 196.46875 393.93675 195.60077 396.84375 193.86523 C 399.79415 192.0863 402.13751 189.74489 403.87305 186.83789 C 405.65198 183.88749 406.54102 180.63202 406.54102 177.07422 L 406.54102 175.1875 C 406.54102 171.5863 405.65198 168.30978 403.87305 165.35938 C 402.13751 162.36564 399.79415 160.00116 396.84375 158.26562 C 393.93675 156.48669 390.68323 155.59766 387.08203 155.59766 L 358.9668 155.59766 z "
   d="m 420.33594,130.47461 v 25.12305 h -8.78516 v 13.73046 h 8.78516 v 34.625 c 0,3.51441 0.86798,6.72582 2.60351,9.63282 1.77894,2.8636 4.1223,5.1629 7.0293,6.89844 2.9504,1.69213 6.20392,2.5371 9.76172,2.5371 h 15.09961 v -13.73242 h -14.9043 c -1.60533,0 -2.99259,-0.51921 -4.16406,-1.56054 -1.12807,-1.08467 -1.69336,-2.36465 -1.69336,-3.83985 v -34.55859 h 20.76172 v -13.73242 h -20.76172 v -25.12305 z m -382.402346,0.002 -0.002,78.81446 c 0,3.77473 1.345089,7.00719 4.035156,9.69726 2.690067,2.69007 5.922532,4.03516 9.697265,4.03516 h 23.884766 c 4.468667,0 8.548328,-1.08451 12.236328,-3.25391 3.688,-2.2128 6.615757,-5.14251 8.785156,-8.78711 2.2128,-3.68773 3.320313,-7.74432 3.320313,-12.16992 v -18.87305 c 0,-4.46866 -1.107512,-8.54832 -3.320313,-12.23633 -2.1694,-3.688 -5.097156,-6.61575 -8.785156,-8.78515 -3.687733,-2.2128 -7.767395,-3.32031 -12.236328,-3.32031 H 59.474609 v 13.73242 h 16.074219 c 2.950333,0 5.445108,1.06345 7.484375,3.18945 2.0826,2.0826 3.125,4.59843 3.125,7.54883 v 18.61328 c 0,2.907 -1.0424,5.40178 -3.125,7.48438 -2.0392,2.0826 -4.533975,3.125 -7.484375,3.125 H 51.664062 v -78.81446 z m 242.160156,0 v 92.54492 h 13.73047 v -27.85351 h 3.38476 l 27.00977,27.85351 h 19.19922 l -33.51758,-34.7539 30.7832,-32.66992 h -17.83203 l -24.40429,25.83789 h -4.6211 v -50.95899 z m -156.23047,25.1211 c -3.5578,0 -6.81132,0.84497 -9.76172,2.53711 -2.907,1.69213 -5.25036,3.97038 -7.02929,6.83398 -1.73554,2.8636 -2.60352,6.03089 -2.60352,9.50195 l 0.002,48.55078 h 13.73047 v -48.29101 c 0,-1.51853 0.54229,-2.79851 1.62695,-3.83985 1.12807,-1.08466 2.47316,-1.62695 4.03516,-1.62695 h 15.03516 v -13.66601 z m 43.70117,0 c -4.46866,0 -8.54832,1.10751 -12.23633,3.32031 -3.688,2.1694 -6.6368,5.0761 -8.8496,8.7207 -2.1694,3.6444 -3.25391,7.70099 -3.25391,12.16992 v 18.87305 c 0,4.46867 1.08451,8.54638 3.25391,12.23438 2.2128,3.688 5.1616,6.63876 8.8496,8.85156 3.68774,2.1694 7.7674,3.2539 12.23633,3.2539 h 16.07422 v -13.73242 h -16.07422 c -2.907,0 -5.40177,-1.04044 -7.48437,-3.12304 -2.0826,-2.126 -3.125,-4.66484 -3.125,-7.61524 V 179.9375 c 0,-2.95033 1.0424,-5.44511 3.125,-7.48438 2.0826,-2.0826 4.57737,-3.12304 7.48437,-3.12304 h 23.88477 v 53.69336 h 13.73242 v -67.42578 z m 67.64649,0 c -4.59927,0 -8.78582,1.10751 -12.56055,3.32031 -3.77473,2.1694 -6.79067,5.09715 -9.04687,8.78515 -2.2562,3.68774 -3.38477,7.76545 -3.38477,12.23438 v 18.61328 c 0,4.46933 1.12857,8.56945 3.38477,12.30078 2.2562,3.688 5.27214,6.63877 9.04687,8.85156 3.77487,2.21281 7.96141,3.31836 12.56055,3.31836 h 37.94336 v -13.73046 h -37.94336 c -3.12394,0 -5.79111,-1.06346 -8.00391,-3.18946 -2.1694,-2.126 -3.25391,-4.68589 -3.25391,-7.67968 v -18.28907 c 10e-6,-2.9938 1.10556,-5.53068 3.31836,-7.61328 2.2128,-2.126 4.85892,-3.18945 7.93946,-3.18945 h 37.94336 v -13.73242 z m 123.75586,0 c -3.94847,0 -7.33215,1.36614 -10.15235,4.09961 -2.8202,2.69006 -4.23047,5.96659 -4.23047,9.82812 v 34.49414 c 0,3.47107 0.84693,6.65941 2.53907,9.56641 1.69213,2.8636 3.97038,5.1629 6.83398,6.89844 2.8636,1.69213 6.03089,2.53906 9.50195,2.53906 h 38.33204 v -13.73242 h -38.33204 c -1.4318,0 -2.64659,-0.52117 -3.64453,-1.5625 -0.99793,-1.04134 -1.49804,-2.29824 -1.49804,-3.77344 v -34.625 h 28.89648 c 1.562,0 2.88604,0.56334 3.9707,1.6914 1.12807,1.12807 1.69141,2.51729 1.69141,4.16602 v 1.82227 c 0,1.6054 -0.56334,2.97154 -1.69141,4.09961 -1.08466,1.12806 -2.4087,1.69335 -3.9707,1.69335 H 366.125 v 13.66602 h 20.95703 c 3.6012,0 6.85472,-0.86798 9.76172,-2.60352 2.9504,-1.77893 5.29376,-4.12034 7.0293,-7.02734 1.77893,-2.9504 2.66797,-6.20587 2.66797,-9.76367 v -1.88672 c 0,-3.6012 -0.88904,-6.87772 -2.66797,-9.82812 -1.73554,-2.99374 -4.0789,-5.35822 -7.0293,-7.09376 -2.907,-1.77893 -6.16052,-2.66796 -9.76172,-2.66796 z"
   transform="translate(-37.931644,-130.47504)" /></svg>
