<svg version="1.1" viewBox="0 0 9928 1081" xml:space="preserve" xmlns="http://www.w3.org/2000/svg" xmlns:xlink="http://www.w3.org/1999/xlink"><defs><linearGradient id="linearGradient11" x1="23.028" x2="165.56" y1="-197.2" y2="-197.2" gradientTransform="matrix(4.5604 0 0 4.5604 1.4658 1319.3)" gradientUnits="userSpaceOnUse"><stop stop-color="#e5e7eb" offset="0"/><stop stop-color="#f9fafb" offset=".5"/><stop stop-color="#e5e7eb" offset="1"/></linearGradient><linearGradient id="linearGradient17" x1="423.03" x2="500.47" y1="144.3" y2="144.3" gradientUnits="userSpaceOnUse"><stop stop-color="#f9fafb" offset="0"/><stop stop-color="#e5e7eb" offset="1"/></linearGradient><linearGradient id="linearGradient19" x1="461.64" x2="505.25" y1="144.91" y2="144.91" gradientUnits="userSpaceOnUse"><stop stop-color="#e5e7eb" offset="0"/><stop stop-color="#e5e7eb" offset="1"/></linearGradient><linearGradient id="linearGradient19-6" x1="461.64" x2="505.25" y1="144.91" y2="144.91" gradientUnits="userSpaceOnUse"><stop stop-color="#1f2937" offset="0"/><stop stop-color="#1f2937" offset="1"/></linearGradient><linearGradient id="linearGradient17-2" x1="423.03" x2="500.47" y1="144.3" y2="144.3" gradientUnits="userSpaceOnUse"><stop stop-color="#030712" offset="0"/><stop stop-color="#1f2937" offset="1"/></linearGradient><linearGradient id="linearGradient20" x1="23.028" x2="165.56" y1="-197.2" y2="-197.2" gradientTransform="matrix(4.5604 0 0 4.5604 1.4658 1319.3)" gradientUnits="userSpaceOnUse"><stop stop-color="#1f2937" offset="0"/><stop stop-color="#030712" offset=".5"/><stop stop-color="#1f2937" offset="1"/></linearGradient></defs><rect x="-100" y="-52.5" width="1800" height="945" display="none" fill="#fff" stroke-miterlimit="50" stroke-width="0" style="font-variation-settings:'wdth' 75, 'wght' 450"/><g transform="translate(.25914 -378.5)" display="none" stroke-miterlimit="50" stroke-width="0"><g transform="translate(-420.57 -90.494)"><path transform="translate(-2.4673 366.19)" d="m505.21 113.81-43.225 14.605-0.34961 33.604 43.342 13.984a11.511 11.511 0 0 0 0.27149-2.0684v-59.268a11.522 11.522 0 0 0-0.0391-0.85742z" fill="url(#linearGradient19)" style="font-variation-settings:'wdth' 75, 'wght' 450"/><path transform="translate(-2.4673 366.19)" d="m434.54 103.15a11.511 11.511 0 0 0-11.51 11.51v59.268a11.522 11.522 0 0 0 11.521 11.523h59.188a11.511 11.511 0 0 0 4.4453-1l-47.676-14.693-0.17383-47.465 50.127-16.959a11.522 11.522 0 0 0-6.7344-2.1836z" display="inline" fill="url(#linearGradient17)" style="font-variation-settings:'wdth' 75, 'wght' 450"/></g><path d="m401.4 422.93h-14.714l-0.0994-8.4504h13.371q3.0322 0 5.2691-1.2924 2.2866-1.2924 3.5292-3.7281 1.2427-2.4357 1.2427-5.8656 0-3.8275-1.0936-6.1638-1.0438-2.386-3.2807-3.4795-2.2368-1.1433-5.7165-1.1433h-10.488v63.376h-10.638v-72.374h21.126q4.8714 0 8.699 1.1433 3.8772 1.1432 6.5118 3.5292 2.6842 2.386 4.076 6.0644 1.4416 3.6287 1.4416 8.699 0 4.4738-1.9883 8.1522-1.9386 3.6287-5.5673 5.965-3.6287 2.2866-8.699 2.8334zm-0.3978 33.254h-18.193l5.4178-8.9475h12.775q3.4298 0 5.7165-1.4913 2.2865-1.4912 3.4298-4.1754 1.193-2.734 1.193-6.3627 0-3.7777-0.99417-6.5118-0.99412-2.7837-3.1812-4.2748-2.1871-1.4912-5.7662-1.4912h-11.98l0.0996-8.4504h15.707l2.4357 3.1316q4.8217 0.29825 8.003 2.7837 3.1813 2.4854 4.7223 6.3627 1.541 3.8772 1.541 8.4504 0 6.81-2.5351 11.482-2.5351 4.6726-7.2574 7.1083-4.6726 2.386-11.135 2.386zm33.802-72.374h21.076q7.1083 0 11.98 2.4854 4.871 2.4854 7.4066 7.3568 2.535 4.8217 2.535 11.93 0 5.2194-1.6402 9.3452-1.5908 4.076-4.6726 6.9095-3.0819 2.8334-7.4563 4.2748l-2.9825 1.4912h-18.293l-0.0994-8.9475h13.024q3.8772 0 6.4119-1.6901 2.5849-1.6901 3.8276-4.5732 1.2925-2.883 1.2925-6.5118 0-3.9766-1.1432-6.9095-1.1432-2.9328-3.6288-4.5234-2.4854-1.6403-6.5615-1.6403h-10.438v63.376h-10.638zm34.249 72.374-14.117-32.658 11.085-0.0497 14.415 32.061v0.6462zm44.589-64.224-18.64 64.224h-10.985l23.164-72.374h6.8598zm15.012 64.224-18.64-64.224-0.49713-8.1522h6.9592l23.164 72.374zm0.14912-26.842v8.9972h-34.298v-8.9972zm54.994 3.5293h10.588q-0.3484 7.6551-3.0819 13.123-2.7339 5.4178-7.9036 8.3013-5.1692 2.883-12.775 2.883-5.5673 0-10.041-2.0878-4.4738-2.1375-7.6551-6.1141-3.1316-3.9766-4.772-9.643-1.6403-5.6668-1.6403-12.824v-13.073q0-7.1083 1.6901-12.775 1.69-5.6668 4.871-9.6434 3.231-4.0263 7.8038-6.1141 4.5732-2.0878 10.389-2.0878 7.3072 0 12.327 2.8334 5.0205 2.8333 7.7048 8.351 2.7339 5.4679 3.1317 13.371h-10.638q-0.2987-5.5673-1.6405-8.9972-1.2924-3.4298-3.9269-4.9708-2.6345-1.5907-6.9588-1.5907-3.6784 0-6.3627 1.4415-2.6842 1.3918-4.4241 4.1755-1.69 2.7837-2.535 6.81-0.84504 3.9766-0.84504 9.0962v13.173q0 4.8714 0.69592 8.8978 0.74558 3.9766 2.2865 6.8598 1.5906 2.8334 4.1755 4.4241 2.5848 1.541 6.3627 1.541 4.6224 0 7.3568-1.4912 2.7837-1.4912 4.0761-4.8714 1.3421-3.3802 1.7398-8.9972zm32.658-49.061v72.374h-10.638v-72.374zm36.287 0-24.556 34.348-14.515 17.646-1.9387-11.433 10.339-14.415 17.895-26.147zm-11.234 72.374-19.784-34.746 6.81-8.1025 25.6 42.85zm59.646-8.9475v8.9475h-31.415v-8.9475zm-28.98-63.426v72.374h-10.638v-72.374zm24.804 30.62v8.8481h-27.24v-8.8481zm3.8276-30.62v8.9972h-31.067v-8.9972zm36.933 0v72.374h-10.538v-72.374zm18.74 0v8.9972h-47.866v-8.9972zm-622.86 0.99417v72.374h-7.3568v-72.374zm19.784 0v6.5615h-46.922v-6.5615zm51.149 31.763v6.5615h-33.752v-6.5615zm-32.509-31.763v72.374h-7.4066v-72.374zm38.921 0v72.374h-7.4066v-72.374zm24.655 0v72.374h-7.4563v-72.374zm16.951 0h20.082q6.7106 0 11.433 2.4854 4.7223 2.4854 7.2077 7.3071 2.4854 4.772 2.4854 11.731 0 5.0206-1.7398 9.196-1.6901 4.1258-4.8714 6.9592-3.1316 2.7836-7.4563 4.0263l-2.1871 0.94446h-19.386l-0.0995-6.5615h15.012q4.4738 0 7.4066-1.9883 2.9824-2.038 4.4241-5.3685 1.4913-3.3305 1.4913-7.2077 0-4.5234-1.4913-7.9036-1.4414-3.3801-4.5233-5.2194-3.0322-1.8392-7.7048-1.8392h-12.626v65.816h-7.4563zm35.939 72.374-14.962-32.608 7.7545-0.0497 15.161 32.012v0.64616zm35.591 0h-12.974l0.0996-6.5615h12.874q6.5118 0 10.836-2.5848 4.3244-2.6345 6.5118-7.7545 2.1874-5.12 2.1871-12.576v-13.521q0-5.7662-1.2427-10.041-1.2428-4.3244-3.6288-7.1083-2.386-2.8334-5.9153-4.2252-3.5292-1.4415-8.1522-1.4415h-13.819v-6.5615h13.819q5.9646 0 10.787 1.8889 4.8222 1.8889 8.2516 5.6668 3.4795 3.7281 5.3188 9.2458 1.8889 5.4679 1.8889 12.676v13.421q0 7.2077-1.8889 12.725-1.8392 5.5176-5.3685 9.2458-3.4795 3.7281-8.4504 5.617-4.9211 1.8889-11.135 1.8889zm-9.0962-72.374v72.374h-7.4066v-72.374z" fill="url(#linearGradient11)" style="font-variation-settings:'wdth' 75, 'wght' 450"/></g><g transform="matrix(13.123 0 0 13.123 .49763 -4971)" stroke-miterlimit="50" stroke-width="0"><g transform="translate(-420.57 -90.494)"><path transform="translate(-2.4673 366.19)" d="m505.21 113.81-43.225 14.605-0.34961 33.604 43.342 13.984a11.511 11.511 0 0 0 0.27149-2.0684v-59.268a11.522 11.522 0 0 0-0.0391-0.85742z" fill="url(#linearGradient19-6)" style="font-variation-settings:'wdth' 75, 'wght' 450"/><path transform="translate(-2.4673 366.19)" d="m434.54 103.15a11.511 11.511 0 0 0-11.51 11.51v59.268a11.522 11.522 0 0 0 11.521 11.523h59.188a11.511 11.511 0 0 0 4.4453-1l-47.676-14.693-0.17383-47.465 50.127-16.959a11.522 11.522 0 0 0-6.7344-2.1836z" fill="url(#linearGradient17-2)" style="font-variation-settings:'wdth' 75, 'wght' 450"/></g><path d="m401.4 422.93h-14.714l-0.0994-8.4504h13.371q3.0322 0 5.2691-1.2924 2.2866-1.2924 3.5292-3.7281 1.2427-2.4357 1.2427-5.8656 0-3.8275-1.0936-6.1638-1.0438-2.386-3.2807-3.4795-2.2368-1.1433-5.7165-1.1433h-10.488v63.376h-10.638v-72.374h21.126q4.8714 0 8.699 1.1433 3.8772 1.1432 6.5118 3.5292 2.6842 2.386 4.076 6.0644 1.4416 3.6287 1.4416 8.699 0 4.4738-1.9883 8.1522-1.9386 3.6287-5.5673 5.965-3.6287 2.2866-8.699 2.8334zm-0.3978 33.254h-18.193l5.4178-8.9475h12.775q3.4298 0 5.7165-1.4913 2.2865-1.4912 3.4298-4.1754 1.193-2.734 1.193-6.3627 0-3.7777-0.99417-6.5118-0.99412-2.7837-3.1812-4.2748-2.1871-1.4912-5.7662-1.4912h-11.98l0.0996-8.4504h15.707l2.4357 3.1316q4.8217 0.29825 8.003 2.7837 3.1813 2.4854 4.7223 6.3627 1.541 3.8772 1.541 8.4504 0 6.81-2.5351 11.482-2.5351 4.6726-7.2574 7.1083-4.6726 2.386-11.135 2.386zm33.802-72.374h21.076q7.1083 0 11.98 2.4854 4.871 2.4854 7.4066 7.3568 2.535 4.8217 2.535 11.93 0 5.2194-1.6402 9.3452-1.5908 4.076-4.6726 6.9095-3.0819 2.8334-7.4563 4.2748l-2.9825 1.4912h-18.293l-0.0994-8.9475h13.024q3.8772 0 6.4119-1.6901 2.5849-1.6901 3.8276-4.5732 1.2925-2.883 1.2925-6.5118 0-3.9766-1.1432-6.9095-1.1432-2.9328-3.6288-4.5234-2.4854-1.6403-6.5615-1.6403h-10.438v63.376h-10.638zm34.249 72.374-14.117-32.658 11.085-0.0497 14.415 32.061v0.6462zm44.589-64.224-18.64 64.224h-10.985l23.164-72.374h6.8598zm15.012 64.224-18.64-64.224-0.49713-8.1522h6.9592l23.164 72.374zm0.14912-26.842v8.9972h-34.298v-8.9972zm54.994 3.5293h10.588q-0.3484 7.6551-3.0819 13.123-2.7339 5.4178-7.9036 8.3013-5.1692 2.883-12.775 2.883-5.5673 0-10.041-2.0878-4.4738-2.1375-7.6551-6.1141-3.1316-3.9766-4.772-9.643-1.6403-5.6668-1.6403-12.824v-13.073q0-7.1083 1.6901-12.775 1.69-5.6668 4.871-9.6434 3.231-4.0263 7.8038-6.1141 4.5732-2.0878 10.389-2.0878 7.3072 0 12.327 2.8334 5.0205 2.8333 7.7048 8.351 2.7339 5.4679 3.1317 13.371h-10.638q-0.2987-5.5673-1.6405-8.9972-1.2924-3.4298-3.9269-4.9708-2.6345-1.5907-6.9588-1.5907-3.6784 0-6.3627 1.4415-2.6842 1.3918-4.4241 4.1755-1.69 2.7837-2.535 6.81-0.84504 3.9766-0.84504 9.0962v13.173q0 4.8714 0.69592 8.8978 0.74558 3.9766 2.2865 6.8598 1.5906 2.8334 4.1755 4.4241 2.5848 1.541 6.3627 1.541 4.6224 0 7.3568-1.4912 2.7837-1.4912 4.0761-4.8714 1.3421-3.3802 1.7398-8.9972zm32.658-49.061v72.374h-10.638v-72.374zm36.287 0-24.556 34.348-14.515 17.646-1.9387-11.433 10.339-14.415 17.895-26.147zm-11.234 72.374-19.784-34.746 6.81-8.1025 25.6 42.85zm59.646-8.9475v8.9475h-31.415v-8.9475zm-28.98-63.426v72.374h-10.638v-72.374zm24.804 30.62v8.8481h-27.24v-8.8481zm3.8276-30.62v8.9972h-31.067v-8.9972zm36.933 0v72.374h-10.538v-72.374zm18.74 0v8.9972h-47.866v-8.9972zm-622.86 0.99417v72.374h-7.3568v-72.374zm19.784 0v6.5615h-46.922v-6.5615zm51.149 31.763v6.5615h-33.752v-6.5615zm-32.509-31.763v72.374h-7.4066v-72.374zm38.921 0v72.374h-7.4066v-72.374zm24.655 0v72.374h-7.4563v-72.374zm16.951 0h20.082q6.7106 0 11.433 2.4854 4.7223 2.4854 7.2077 7.3071 2.4854 4.772 2.4854 11.731 0 5.0206-1.7398 9.196-1.6901 4.1258-4.8714 6.9592-3.1316 2.7836-7.4563 4.0263l-2.1871 0.94446h-19.386l-0.0995-6.5615h15.012q4.4738 0 7.4066-1.9883 2.9824-2.038 4.4241-5.3685 1.4913-3.3305 1.4913-7.2077 0-4.5234-1.4913-7.9036-1.4414-3.3801-4.5233-5.2194-3.0322-1.8392-7.7048-1.8392h-12.626v65.816h-7.4563zm35.939 72.374-14.962-32.608 7.7545-0.0497 15.161 32.012v0.64616zm35.591 0h-12.974l0.0996-6.5615h12.874q6.5118 0 10.836-2.5848 4.3244-2.6345 6.5118-7.7545 2.1874-5.12 2.1871-12.576v-13.521q0-5.7662-1.2427-10.041-1.2428-4.3244-3.6288-7.1083-2.386-2.8334-5.9153-4.2252-3.5292-1.4415-8.1522-1.4415h-13.819v-6.5615h13.819q5.9646 0 10.787 1.8889 4.8222 1.8889 8.2516 5.6668 3.4795 3.7281 5.3188 9.2458 1.8889 5.4679 1.8889 12.676v13.421q0 7.2077-1.8889 12.725-1.8392 5.5176-5.3685 9.2458-3.4795 3.7281-8.4504 5.617-4.9211 1.8889-11.135 1.8889zm-9.0962-72.374v72.374h-7.4066v-72.374z" fill="url(#linearGradient20)" style="font-variation-settings:'wdth' 75, 'wght' 450"/></g></svg>
