<?xml version="1.0" encoding="UTF-8" standalone="no"?>
<!-- Created with Inkscape (http://www.inkscape.org/) -->

<svg
   width="144.05763"
   height="30"
   viewBox="0 0 38.115248 7.9375"
   version="1.1"
   id="svg1"
   xmlns="http://www.w3.org/2000/svg"
   xmlns:svg="http://www.w3.org/2000/svg">
  <defs
     id="defs1" />
  <g
     id="layer1"
     transform="translate(-40.52364,-91.181823)">
    <g
       id="g71"
       transform="matrix(0.18886947,0,0,0.18886947,32.869962,73.960357)">
      <g
         id="g70"
         transform="translate(-39.701435,13.675957)"
         style="fill:#374151;fill-opacity:1">
        <path
           id="path69"
           style="font-weight:500;font-size:58.2083px;font-family:Geist;-inkscape-font-specification:'Geist, Medium';fill:#374151;fill-opacity:1;stroke:#000000;stroke-width:0"
           d="m 121.20345,111.56218 -6.17016,0.1664 v 7.10551 h 6.17016 z" />
        <path
           id="path67"
           style="font-weight:500;font-size:58.2083px;font-family:Geist;-inkscape-font-specification:'Geist, Medium';fill:#374151;fill-opacity:1;stroke:#000000;stroke-width:0"
           d="m 160.55247,110.49971 -7.36492,0.19896 c -0.33385,0.55325 -0.71503,1.08089 -1.19166,1.55753 -1.59103,1.59102 -3.7839,2.38693 -6.57789,2.38693 -1.62984,0 -2.9103,-0.3495 -3.84163,-1.048 -0.76437,-0.63144 -1.18112,-1.4898 -1.29088,-2.54816 l -6.43888,0.17363 c 0.0316,2.61232 0.97081,4.6502 2.84014,6.09989 1.94027,1.47461 4.52131,2.21175 7.74216,2.21175 2.40594,0 4.55963,-0.50414 6.4611,-1.51309 1.90147,-1.00894 3.24018,-2.32859 4.0163,-3.95841 0.23283,1.82385 0.87306,3.10432 1.92081,3.84162 1.04775,0.73731 2.44471,1.1064 4.19096,1.1064 0.97014,0 1.72687,-0.0583 2.27014,-0.17467 v -4.88963 h -1.10587 c -0.58209,0 -1.00891,-0.13608 -1.28055,-0.40772 -0.23283,-0.31045 -0.34933,-0.83418 -0.34933,-1.57148 z" />
        <path
           id="path64"
           style="font-weight:500;font-size:58.2083px;font-family:Geist;-inkscape-font-specification:'Geist, Medium';fill:#374151;fill-opacity:1;stroke:#000000;stroke-width:0"
           d="m 194.48322,109.58401 -6.6983,0.18035 c -0.43036,1.13694 -1.03267,2.08261 -1.85415,2.78329 -1.31939,1.08655 -2.96843,1.62988 -4.9475,1.62988 -2.59997,0 -4.63717,-0.95108 -6.11178,-2.85254 -0.27293,-0.36145 -0.49518,-0.77604 -0.71623,-1.19218 l -6.69468,0.18035 c 0.19863,0.54561 0.40786,1.08409 0.65887,1.59422 1.20297,2.40594 2.91026,4.28797 5.12217,5.64617 2.21192,1.31939 4.79243,1.97869 7.74165,1.97869 3.80293,0 6.92677,-1.04747 9.37152,-3.14296 2.06117,-1.77133 3.43041,-4.045 4.12843,-6.80527 z" />
        <path
           id="path63"
           style="font-weight:500;font-size:58.2083px;font-family:Geist;-inkscape-font-specification:'Geist, Medium';fill:#374151;fill-opacity:1;stroke:#000000;stroke-width:0"
           d="m 207.86018,109.22279 -7.43521,0.2005 v 9.4108 h 6.17017 v -8.26565 z" />
        <path
           id="path61"
           style="font-weight:500;font-size:58.2083px;font-family:Geist;-inkscape-font-specification:'Geist, Medium';fill:#374151;fill-opacity:1;stroke:#000000;stroke-width:0"
           d="m 221.76837,108.8471 -6.78201,0.18294 6.68434,9.80405 h 7.10138 z" />
        <path
           id="path59"
           style="font-weight:500;font-size:58.2083px;font-family:Geist;-inkscape-font-specification:'Geist, Medium';fill:#374151;fill-opacity:1;stroke:#000000;stroke-width:0"
           d="m 237.56793,108.42077 -6.32313,0.17053 c 0.28366,1.17182 0.64694,2.28829 1.13636,3.31608 1.20297,2.40594 2.89119,4.28797 5.06429,5.64617 2.21192,1.31939 4.8311,1.97869 7.85792,1.97869 3.41489,0 6.30572,-0.87271 8.67286,-2.61896 2.40594,-1.74625 4.01631,-4.0747 4.83123,-6.98511 l -6.40271,-0.40772 c -0.50448,1.4746 -1.35812,2.63908 -2.56109,3.49281 -1.16416,0.81491 -2.65804,1.22214 -4.4819,1.22214 -2.48355,0 -4.46301,-0.75673 -5.93762,-2.27014 -0.8555,-0.90175 -1.45534,-2.10545 -1.85621,-3.54449 z" />
        <path
           id="path57"
           style="font-weight:500;font-size:58.2083px;font-family:Geist;-inkscape-font-specification:'Geist, Medium';fill:#374151;fill-opacity:1;stroke:#000000;stroke-width:0"
           d="m 273.82514,107.4415 -6.17016,0.16692 v 2.84375 c 0,2.91041 0.69848,5.04452 2.09548,6.40271 1.397,1.31939 3.57028,1.97921 6.5195,1.97921 h 5.76243 v -5.06429 h -4.4235 c -1.28058,0 -2.23165,-0.27167 -2.85254,-0.81494 -0.62088,-0.54328 -0.93121,-1.533 -0.93121,-2.96881 z" />
        <path
           id="path56"
           style="font-weight:500;font-size:58.2083px;font-family:Geist;-inkscape-font-specification:'Geist, Medium';fill:#374151;fill-opacity:1;stroke:#000000;stroke-width:0"
           d="m 107.18467,111.94045 -7.665164,0.20723 c -1.294207,1.32739 -2.900713,2.02985 -4.858619,2.02985 -2.014313,0 -3.681526,-0.59859 -5.020365,-1.7632 l -9.415446,0.25424 v 6.16552 h 5.762439 l 0.174667,-4.65656 c 0.853721,1.70744 2.095522,3.02656 3.725353,3.95789 1.668637,0.93134 3.589332,1.39682 5.762439,1.39682 2.677579,0 5.006026,-0.6593 6.985106,-1.97869 1.97908,-1.31939 3.49254,-3.18236 4.54029,-5.58829 0.004,-0.008 0.006,-0.0169 0.009,-0.0248 z" />
      </g>
      <g
         id="g69"
         transform="translate(-39.701435,13.675957)">
        <path
           id="text19"
           style="font-weight:500;font-size:58.2083px;font-family:Geist;-inkscape-font-specification:'Geist, Medium';fill:#1f2937;fill-opacity:1;stroke:#000000;stroke-width:0"
           d="m 121.20345,111.56218 v -11.00553 c 0,-2.444745 0.5825,-4.249456 1.74667,-5.413621 1.16416,-1.164165 2.9297,-1.746147 5.29683,-1.746147 h 2.96829 v -5.529895 h -2.96829 c -1.90146,0 -3.47318,0.485071 -4.71496,1.455208 -1.20297,0.931333 -2.09579,2.406134 -2.67787,4.42402 l -0.17415,-5.879228 h -5.64668 v 23.861593 z" />
        <path
           id="path68"
           style="font-weight:500;font-size:58.2083px;font-family:Geist;-inkscape-font-specification:'Geist, Medium';fill:#1f2937;fill-opacity:1;stroke:#000000;stroke-width:0"
           d="M 160.55247,110.49971 V 99.916381 c 0,-4.035772 -1.10623,-7.159608 -3.31814,-9.371521 -2.17311,-2.250719 -5.35519,-3.376022 -9.54619,-3.376022 -3.68652,0 -6.69386,0.892303 -9.02219,2.677356 -2.28952,1.785053 -3.72515,4.229997 -4.30723,7.334436 l 6.34483,0.407211 c 0.42686,-1.668637 1.20267,-2.9491 2.32803,-3.841626 1.12536,-0.892527 2.67748,-1.338937 4.65656,-1.338937 4.46263,0 6.69417,2.386694 6.69417,7.15977 l -10.65207,2.037082 c -3.37607,0.6597 -5.87927,1.74634 -7.5091,3.25975 -1.59102,1.51342 -2.38642,3.58979 -2.38642,6.22856 0,0.0453 0.0113,0.0832 0.0119,0.12816 l 6.43888,-0.17363 c -0.0184,-0.17745 -0.0481,-0.34747 -0.0481,-0.53692 0,-1.16417 0.3691,-2.11472 1.1064,-2.85202 0.77611,-0.77611 2.09523,-1.33902 3.95789,-1.68827 l 9.08059,-1.74615 v 1.97921 c 0,1.71236 -0.41422,3.20232 -1.19476,4.49585 z" />
        <path
           id="path66"
           style="font-weight:500;font-size:58.2083px;font-family:Geist;-inkscape-font-specification:'Geist, Medium';fill:#1f2937;fill-opacity:1;stroke:#000000;stroke-width:0"
           d="m 174.15526,110.13281 c -0.94183,-1.77302 -1.43764,-4.01626 -1.43764,-6.78201 0,-3.376083 0.71807,-6.015364 2.15387,-7.916833 1.47461,-1.940275 3.51181,-2.910417 6.11178,-2.910417 1.97907,0 3.62811,0.543321 4.9475,1.629875 1.31938,1.047749 2.13436,2.5808 2.44481,4.598686 l 6.4611,-0.349333 c -0.50447,-3.570105 -1.99834,-6.325371 -4.48189,-8.265645 -2.48355,-1.979081 -5.60739,-2.968295 -9.37152,-2.968295 -2.94922,0 -5.52973,0.678893 -7.74165,2.037085 -2.21191,1.319387 -3.9192,3.201421 -5.12217,5.646167 -1.20297,2.405941 -1.80454,5.23904 -1.80454,8.49871 0,2.57949 0.39235,4.89318 1.14567,6.96236 z" />
        <path
           id="path62"
           style="font-weight:500;font-size:58.2083px;font-family:Geist;-inkscape-font-specification:'Geist, Medium';fill:#1f2937;fill-opacity:1;stroke:#000000;stroke-width:0"
           d="m 221.76837,108.8471 -5.56917,-7.94112 12.10727,-13.038993 h -7.79952 L 206.59514,103.17613 V 77.505862 h -6.17017 v 31.917428 l 7.43521,-0.2005 4.20646,-4.47518 2.91972,4.28243 z" />
        <path
           id="path60"
           style="font-weight:500;font-size:58.2083px;font-family:Geist;-inkscape-font-specification:'Geist, Medium';fill:#1f2937;fill-opacity:1;stroke:#000000;stroke-width:0"
           d="m 237.56793,108.42077 c -0.27192,-0.97612 -0.46747,-2.04261 -0.53021,-3.26595 h 22.23586 v -1.57148 c 0,-3.45369 -0.60157,-6.402775 -1.80454,-8.847522 -1.16417,-2.444746 -2.81372,-4.307708 -4.94802,-5.588289 -2.1343,-1.319387 -4.59832,-1.978691 -7.39232,-1.978691 -2.94921,0 -5.51014,0.678893 -7.68325,2.037085 -2.1731,1.319387 -3.86132,3.201421 -5.06429,5.646167 -1.16416,2.405941 -1.74615,5.23904 -1.74615,8.49871 0,1.88928 0.21871,3.62498 0.60979,5.2405 z m 7.56077,-16.013492 c 2.0955,0 3.84196,0.65982 5.23896,1.979208 1.397,1.319386 2.19239,3.356582 2.38642,6.111774 h -15.71636 c 0.34925,-2.638775 1.22248,-4.63731 2.61948,-5.995502 1.43581,-1.396998 3.25959,-2.09548 5.4715,-2.09548 z" />
        <path
           id="path58"
           style="font-weight:500;font-size:58.2083px;font-family:Geist;-inkscape-font-specification:'Geist, Medium';fill:#1f2937;fill-opacity:1;stroke:#000000;stroke-width:0"
           d="M 273.82514,107.4415 V 92.931277 h 8.20725 v -5.06429 h -8.20725 v -7.276042 h -6.17016 v 7.276042 h -4.71444 v 5.06429 h 4.71444 v 14.677143 z" />
        <path
           id="path55"
           style="font-weight:500;font-size:58.2083px;font-family:Geist;-inkscape-font-specification:'Geist, Medium';fill:#1f2937;fill-opacity:1;stroke:#000000;stroke-width:0"
           d="m 80.225076,77.505862 v 35.162708 l 9.415446,-0.25424 c -0.389262,-0.33861 -0.759761,-0.71017 -1.091923,-1.14722 -1.435803,-1.94028 -2.153357,-4.57904 -2.153357,-7.91631 0,-3.414889 0.737143,-6.073242 2.211752,-7.974711 1.474608,-1.901469 3.511802,-2.852539 6.111771,-2.852539 2.367135,0 4.230098,0.95107 5.588285,2.852539 1.397,1.901469 2.09548,4.559822 2.09548,7.974711 0,3.33727 -0.69848,5.97603 -2.09548,7.91631 -0.24151,0.33543 -0.517037,0.60312 -0.787544,0.88057 l 7.665164,-0.20723 c 1.07952,-2.43958 1.62057,-5.30189 1.62057,-8.58965 0,-3.29847 -0.54332,-6.151164 -1.62987,-8.557104 -1.04775,-2.444746 -2.56121,-4.32678 -4.54029,-5.646167 -1.97908,-1.319387 -4.307527,-1.978691 -6.985106,-1.978691 -2.134302,0 -4.016336,0.504143 -5.646167,1.513086 -1.62983,1.008943 -2.832455,2.192496 -3.608565,3.550688 v -14.72675 z" />
      </g>
    </g>
  </g>
</svg>
