<svg width="150" height="30" version="1.1" viewBox="0 0 39.687 7.9375" xmlns="http://www.w3.org/2000/svg">
 <path d="m0.18199 0.052925h1.1621v6.6696h2.0213q0.37451 0 0.63336-0.26436 0.26436-0.26435 0.26436-0.63335v-1.5752q0-0.37451-0.26436-0.63887-0.25885-0.26987-0.63336-0.26987h-1.3604v-1.1621h1.3604q0.56727 0 1.0354 0.28088 0.46814 0.27537 0.74351 0.74351 0.28088 0.46814 0.28088 1.0354v1.5972q0 0.56176-0.28088 1.0299-0.27538 0.46263-0.74351 0.74351-0.46814 0.27538-1.0354 0.27538h-2.0213q-0.47915 0-0.82062-0.34147-0.34147-0.34146-0.34147-0.82062zm6.5649 3.7231q0-0.4406 0.2203-0.8041 0.22581-0.36349 0.59481-0.57829 0.37451-0.21479 0.82612-0.21479h1.2722v1.1566h-1.2722q-0.19827 0-0.34146 0.13768-0.13769 0.13218-0.13769 0.32495v4.0866h-1.1621zm3.7947 0.45161q0-0.56727 0.27537-1.0299 0.28088-0.46264 0.74902-0.73801 0.46814-0.28088 1.0354-0.28088h3.1833v5.7058h-1.1621v-4.5437h-2.0212q-0.369 0-0.63336 0.26436-0.26436 0.25885-0.26436 0.63336v1.5752q0 0.37451 0.26436 0.64437 0.26436 0.26436 0.63336 0.26436h1.3604v1.1621h-1.3604q-0.56727 0-1.0354-0.27538-0.46814-0.28088-0.74902-0.74902-0.27537-0.46814-0.27537-1.0354zm6.5099 0.011q0-0.56727 0.28639-1.0354 0.28639-0.46814 0.76554-0.74351 0.47915-0.28089 1.0629-0.28089h3.2109v1.1621h-3.2109q-0.39103 0-0.67192 0.26987-0.28088 0.26436-0.28088 0.64438v1.5476q0 0.38002 0.27537 0.64989 0.28088 0.26987 0.67742 0.26987h3.2109v1.1621h-3.2109q-0.5838 0-1.0629-0.28089-0.47915-0.28088-0.76554-0.74901-0.28639-0.47365-0.28639-1.0409zm6.5925-4.1857h1.1621v4.3124h0.39103l2.0653-2.1865h1.5091l-2.605 2.7648 2.8364 2.941h-1.6247l-2.2856-2.3572h-0.28639v2.3572h-1.1621zm5.9646 3.3045q0-0.49017 0.35799-0.83164 0.35799-0.34697 0.85917-0.34697h2.3792q0.45713 0 0.82613 0.22581 0.37451 0.2203 0.59481 0.60032 0.22581 0.37451 0.22581 0.83163v0.15971q0 0.45162-0.22581 0.82613-0.2203 0.369-0.59481 0.59481-0.369 0.2203-0.82613 0.2203h-1.7734v-1.1566h1.7844q0.19827 0 0.33596-0.14319 0.1432-0.14319 0.1432-0.34697v-0.15421q0-0.20928-0.1432-0.35249-0.13769-0.14319-0.33596-0.14319h-2.4453v2.93q0 0.18726 0.12668 0.31944 0.12667 0.13218 0.30842 0.13218h3.2439v1.1621h-3.2439q-0.4406 0-0.80409-0.21479-0.36349-0.2203-0.57829-0.5838-0.21479-0.369-0.21479-0.8096zm6.2345-1.1786h0.74351v-2.1259h1.1621v2.1259h1.7569v1.1621h-1.7569v2.9245q0 0.18726 0.1432 0.32495 0.1487 0.13218 0.35248 0.13218h1.2612v1.1621h-1.2777q-0.45161 0-0.82612-0.21479-0.369-0.2203-0.59481-0.5838-0.2203-0.369-0.2203-0.81511v-2.93h-0.74351z" color="#000000" stroke-width=".18203" style="-inkscape-stroke:none"/>
</svg>
