<svg version="1.1" viewBox="0 0 175 18" xml:space="preserve" xmlns="http://www.w3.org/2000/svg"><defs><linearGradient id="linearGradient10-60" x1="-.51585" x2="4.7596" y1="2.3563" y2="2.4056" gradientTransform="matrix(.99999 0 0 .99999 216.43 211.14)" gradientUnits="userSpaceOnUse"><stop stop-color="#fff" offset=".77106"/><stop stop-color="#fff" stop-opacity=".2" offset=".9999"/><stop stop-color="#fff" stop-opacity="0" offset="1"/></linearGradient></defs><g transform="translate(0 -6.4572e-5)"><g transform="matrix(3.7795 0 0 3.7795 -818 -798)"><path d="m221.18 211.73-2.5161 0.85007-0.0202 1.9446 2.529 0.81596a0.61912 0.61912 0 0 0 8e-3 -0.0625v-3.5243a0.61912 0.61912 0 0 0-1e-3 -0.0238z" fill="#24262b" stroke-width=".99999" style="font-variation-settings:'wght' 700"/><path d="m220.82 215.84-2.8122-0.86661-0.01-2.7466 2.9156-0.98649a0.61912 0.61912 0 0 0-0.34365-0.10439h-3.5243a0.61912 0.61912 0 0 0-0.61908 0.61908v3.5243a0.61912 0.61912 0 0 0 0.61908 0.61908h3.5243a0.61912 0.61912 0 0 0 0.25011-0.0584z" fill="#24262b" style="font-variation-settings:'wght' 700"/><path d="m220.91 211.24a0.61912 0.61912 0 0 0-5.2e-4 0l-2.9156 0.98649 0.01 2.7466 2.8122 0.86661a0.61912 0.61912 0 0 0 0.3607-0.49816l-2.529-0.81596 0.0202-1.9446 2.5161-0.85007a0.61912 0.61912 0 0 0-0.27389-0.49093z" fill="url(#linearGradient10-60)" stroke-width=".99999" style="font-variation-settings:'wght' 700"/></g><path d="m91.029 9.9258h-3.4688l-0.02344-1.9922h3.1523q0.71484 0 1.2422-0.30469 0.53907-0.30469 0.83203-0.87891 0.29297-0.57422 0.29297-1.3828 0-0.90234-0.25781-1.4531-0.24609-0.5625-0.77344-0.82031-0.52734-0.26953-1.3477-0.26953h-2.4727v14.941h-2.5078v-17.062h4.9805q1.1484 0 2.0508 0.26953 0.91406 0.26953 1.5352 0.83203 0.63281 0.5625 0.96094 1.4297 0.33984 0.85547 0.33984 2.0508 0 1.0547-0.46875 1.9219-0.45703 0.85547-1.3125 1.4063-0.85547 0.53906-2.0508 0.66797zm-0.09375 7.8398h-4.2891l1.2773-2.1094h3.0117q0.80859 0 1.3477-0.35156 0.53906-0.35156 0.80859-0.98438 0.28125-0.64453 0.28125-1.5 0-0.89062-0.23438-1.5352-0.23438-0.65625-0.75-1.0078-0.51562-0.35156-1.3594-0.35156h-2.8242l0.02344-1.9922h3.7031l0.57422 0.73828q1.1367 0.070312 1.8867 0.65625 0.75 0.58594 1.1133 1.5 0.36328 0.91406 0.36328 1.9922 0 1.6055-0.59766 2.707-0.59766 1.1016-1.7109 1.6758-1.1016 0.5625-2.625 0.5625zm7.9688-17.062h4.9688q1.6758 0 2.8242 0.58594 1.1484 0.58594 1.7461 1.7344 0.59765 1.1367 0.59765 2.8125 0 1.2305-0.38671 2.2031-0.375 0.96094-1.1016 1.6289-0.72656 0.66797-1.7578 1.0078l-0.70312 0.35156h-4.3125l-0.0234-2.1094h3.0703q0.91406 0 1.5117-0.39844 0.60937-0.39844 0.90234-1.0781 0.30469-0.67969 0.30469-1.5352 0-0.9375-0.26953-1.6289-0.26953-0.69141-0.85547-1.0664-0.58594-0.38672-1.5469-0.38672h-2.4609v14.941h-2.5078zm8.0742 17.062-3.3281-7.6992 2.6133-0.01172 3.3984 7.5586v0.15234zm10.512-15.141-4.3945 15.141h-2.5898l5.4609-17.062h1.6172zm3.5391 15.141-4.3945-15.141-0.11718-1.9219h1.6406l5.4609 17.062zm0.0351-6.3281v2.1211h-8.0859v-2.1211zm12.965 0.83203h2.4961q-0.082 1.8047-0.72656 3.0938-0.64453 1.2773-1.8633 1.957-1.2187 0.67969-3.0117 0.67969-1.3125 0-2.3672-0.49219-1.0547-0.50391-1.8047-1.4414-0.73828-0.9375-1.125-2.2734-0.38671-1.3359-0.38671-3.0234v-3.082q0-1.6758 0.39843-3.0117 0.39844-1.3359 1.1484-2.2734 0.76172-0.94922 1.8398-1.4414 1.0781-0.49219 2.4492-0.49219 1.7227 0 2.9062 0.66797 1.1836 0.66797 1.8164 1.9688 0.64453 1.2891 0.73828 3.1523h-2.5078q-0.0703-1.3125-0.38672-2.1211-0.30469-0.80859-0.92578-1.1719-0.6211-0.375-1.6406-0.375-0.86718 0-1.5 0.33984-0.63281 0.32812-1.043 0.98438-0.39843 0.65625-0.59765 1.6055-0.19922 0.9375-0.19922 2.1445v3.1055q0 1.1484 0.16406 2.0977 0.17578 0.9375 0.53906 1.6172 0.375 0.66797 0.98438 1.043 0.60937 0.36328 1.5 0.36328 1.0898 0 1.7344-0.35156 0.65625-0.35156 0.96094-1.1484 0.31641-0.79688 0.41016-2.1211zm7.6992-11.566v17.062h-2.5078v-17.062zm8.5547 0-5.7891 8.0977-3.4219 4.1602-0.45703-2.6953 2.4375-3.3984 4.2188-6.1641zm-2.6484 17.062-4.6641-8.1914 1.6055-1.9102 6.0352 10.102zm14.062-2.1094v2.1094h-7.4062v-2.1094zm-6.832-14.953v17.062h-2.5078v-17.062zm5.8476 7.2188v2.0859h-6.4219v-2.0859zm0.90235-7.2188v2.1211h-7.3242v-2.1211zm8.707 0v17.062h-2.4844v-17.062zm4.418 0v2.1211h-11.285v-2.1211zm-146.84 0.23438v17.062h-1.7344v-17.062zm4.6641 0v1.5469h-11.062v-1.5469zm12.059 7.4883v1.5469h-7.957v-1.5469zm-7.6641-7.4883v17.062h-1.7461v-17.062zm9.1758 0v17.062h-1.7461v-17.062zm5.8125 0v17.062h-1.7578v-17.062zm3.9961 0h4.7344q1.582 0 2.6953 0.58594 1.1133 0.58594 1.6992 1.7227 0.58594 1.125 0.58594 2.7656 0 1.1836-0.41016 2.168-0.39844 0.97266-1.1484 1.6406-0.73828 0.65625-1.7578 0.94922l-0.51562 0.22266h-4.5703l-0.02344-1.5469h3.5391q1.0547 0 1.7461-0.46875 0.70312-0.48047 1.043-1.2656 0.35156-0.78516 0.35156-1.6992 0-1.0664-0.35156-1.8633-0.33984-0.79688-1.0664-1.2305-0.71484-0.43359-1.8164-0.43359h-2.9766v15.516h-1.7578zm8.4727 17.062-3.5273-7.6875 1.8281-0.01172 3.5742 7.5469v0.15234zm8.3906 0h-3.0586l0.02344-1.5469h3.0352q1.5352 0 2.5547-0.60938 1.0195-0.62109 1.5352-1.8281t0.51562-2.9648v-3.1875q0-1.3594-0.29297-2.3672-0.29297-1.0195-0.85547-1.6758-0.5625-0.66797-1.3945-0.99609-0.83203-0.33984-1.9219-0.33984h-3.2578v-1.5469h3.2578q1.4062 0 2.543 0.44531t1.9453 1.3359q0.82031 0.87891 1.2539 2.1797 0.44531 1.2891 0.44531 2.9883v3.1641q0 1.6992-0.44531 3-0.43359 1.3008-1.2656 2.1797-0.82031 0.87891-1.9922 1.3242-1.1602 0.44531-2.625 0.44531zm-2.1445-17.062v17.062h-1.7461v-17.062z" fill="#24262b" stroke-miterlimit="50" stroke-width="0" style="font-variation-settings:'wdth' 75, 'wght' 450"/></g></svg>
