<?xml version="1.0" encoding="UTF-8" standalone="no"?>
<svg
   xml:space="preserve"
   width="757"
   height="83"
   version="1.1"
   id="svg9"
   sodipodi:docname="logo.svg"
   xmlns:inkscape="http://www.inkscape.org/namespaces/inkscape"
   xmlns:sodipodi="http://sodipodi.sourceforge.net/DTD/sodipodi-0.dtd"
   xmlns:xlink="http://www.w3.org/1999/xlink"
   xmlns="http://www.w3.org/2000/svg"
   xmlns:svg="http://www.w3.org/2000/svg"><sodipodi:namedview
   id="namedview9"
   pagecolor="#ffffff"
   bordercolor="#000000"
   borderopacity="0.25"
   inkscape:showpageshadow="2"
   inkscape:pageopacity="0.0"
   inkscape:pagecheckerboard="0"
   inkscape:deskcolor="#d1d1d1" />&#10;  <defs
   id="defs7">&#10;    <linearGradient
   id="a">&#10;      <stop
   offset="0"
   stop-color="#1f2937"
   id="stop1" />&#10;      <stop
   offset="1"
   stop-color="#1f2937"
   id="stop2" />&#10;    </linearGradient>&#10;    <linearGradient
   id="b">&#10;      <stop
   offset="0"
   stop-color="#030712"
   id="stop3" />&#10;      <stop
   offset="1"
   stop-color="#1f2937"
   id="stop4" />&#10;    </linearGradient>&#10;    <linearGradient
   id="c">&#10;      <stop
   offset="0"
   stop-color="#1f2937"
   id="stop5" />&#10;      <stop
   offset=".5"
   stop-color="#030712"
   id="stop6" />&#10;      <stop
   offset="1"
   stop-color="#1f2937"
   id="stop7" />&#10;    </linearGradient>&#10;    <linearGradient
   xlink:href="#a"
   id="d"
   x1="461.6"
   x2="505.3"
   y1="144.9"
   y2="144.9"
   gradientUnits="userSpaceOnUse" />&#10;    <linearGradient
   xlink:href="#b"
   id="e"
   x1="423"
   x2="500.5"
   y1="144.3"
   y2="144.3"
   gradientUnits="userSpaceOnUse" />&#10;    <linearGradient
   xlink:href="#c"
   id="f"
   x1="23"
   x2="165.6"
   y1="-197.2"
   y2="-197.2"
   gradientTransform="matrix(4.5604,0,0,4.5604,-467.21934,1230.1322)"
   gradientUnits="userSpaceOnUse" />&#10;  <linearGradient
   inkscape:collect="always"
   xlink:href="#c"
   id="linearGradient9"
   gradientUnits="userSpaceOnUse"
   gradientTransform="matrix(4.5604,0,0,4.5604,128.1,1335.5)"
   x1="23"
   y1="-197.2"
   x2="165.6"
   y2="-197.2" /></defs>&#10;  <rect
   style="font-variation-settings:'wdth' 75, 'wght' 450;fill:#000000;fill-opacity:1;stroke:#d6a4de;stroke-width:0;stroke-linecap:round;stroke-linejoin:round;stroke-miterlimit:50"
   id="rect10"
   width="1277.9069"
   height="552.02435"
   x="-390.34021"
   y="-617.5553" /><rect
   style="font-variation-settings:'wdth' 75, 'wght' 450;fill:#dbdbdb;fill-opacity:1;stroke:#d6a4de;stroke-width:0;stroke-linecap:round;stroke-linejoin:round;stroke-miterlimit:50"
   id="rect9"
   width="913.41418"
   height="285.31995"
   x="-443.28467"
   y="-675.99597" /><rect
   style="font-variation-settings:'wdth' 75, 'wght' 450;fill:#f23b45;fill-opacity:1;stroke:#d6a4de;stroke-width:0;stroke-linecap:round;stroke-linejoin:round;stroke-miterlimit:50"
   id="rect9-3"
   width="913.41418"
   height="285.31995"
   x="96.087837"
   y="-365.57114" /><path
   fill="url(#d)"
   d="M505.2 113.8 462 128.4l-.4 33.6 43.4 14a11.5 11.5 0 0 0 .3-2v-59.3a11.5 11.5 0 0 0 0-.9z"
   style="font-variation-settings:&quot;wdth&quot;75,&quot;wght&quot;450"
   transform="translate(-422.8 -102.8)"
   id="path7" />&#10;  <path
   fill="url(#e)"
   d="M434.5 103.1a11.5 11.5 0 0 0-11.5 11.6v59.2a11.5 11.5 0 0 0 11.6 11.6h59.1a11.5 11.5 0 0 0 4.5-1l-47.7-14.7-.2-47.5 50.2-17a11.5 11.5 0 0 0-6.8-2.2z"
   style="font-variation-settings:&quot;wdth&quot;75,&quot;wght&quot;450"
   transform="translate(-422.8 -102.8)"
   id="path8" />&#10;  <path
   fill="url(#f)"
   d="m -67.319339,333.83221 h -14.7 l -0.1,-8.5 h 13.4 q 3,0 5.2,-1.3 2.3,-1.3 3.6,-3.7 1.2,-2.5 1.2,-6 0,-3.7 -1,-6 -1.1,-2.5 -3.4,-3.5 -2.2,-1.2 -5.7,-1.2 h -10.5 v 63.4 h -10.6 v -72.4 h 21.1 q 4.9,0 8.7,1.2 3.9,1.1 6.5,3.5 2.7,2.4 4.1,6 1.4,3.7 1.4,8.7 0,4.5 -2,8.2 -1.9,3.6 -5.5,6 -3.6,2.2 -8.7,2.8 z m -0.4,33.2 h -18.2 l 5.4,-9 h 12.8 q 3.4,0 5.7,-1.5 2.3,-1.4 3.5,-4.1 1.1,-2.8 1.1,-6.4 0,-3.8 -1,-6.5 -1,-2.8 -3.1,-4.3 -2.2,-1.5 -5.8,-1.5 h -12 l 0.1,-8.4 h 15.7 l 2.5,3.1 q 4.8,0.3 8,2.8 3.2,2.5 4.7,6.4 1.5,3.8 1.5,8.4 0,6.8 -2.5,11.5 -2.5,4.7 -7.3,7.1 -4.6,2.4 -11,2.4 z m 33.8,-72.4 h 21 q 7.1999999,0 11.99999991,2.5 4.99999999,2.5 7.49999999,7.4 2.5,4.8 2.5,11.9 0,5.2 -1.6,9.3 -1.6,4.1 -4.7,7 -2.99999999,2.8 -7.5,4.2 l -3,1.5 H -25.919339 l -0.1,-9 h 13 q 3.8999999,0 6.3999999,-1.6 2.6,-1.7 3.8,-4.6 1.3,-2.9 1.3,-6.5 0,-4 -1.1,-7 -1.2,-2.9 -3.7,-4.5 -2.4,-1.6 -6.4999999,-1.6 h -10.5 v 63.4 h -10.6 z m 34.29999991,72.4 -14.19999991,-32.7 h 11.0999999 l 14.4000001,32 v 0.7 z m 44.50000009,-64.2 -18.6,64.2 h -11 l 23.2,-72.4 h 6.8 z m 15,64.2 -18.6,-64.2 -0.5,-8.2 h 7 l 23.1,72.4 z m 0.2,-26.9 v 9 h -34.3 v -9 z m 54.999999,3.6 h 10.6 q -0.4,7.6 -3,13.1 -2.8,5.4 -8,8.3 -5.2,2.9 -12.8,2.9 -5.499999,0 -9.999999,-2.1 -4.5,-2.1 -7.7,-6.1 -3.1,-4 -4.7,-9.7 -1.7,-5.6 -1.7,-12.8 v -13 q 0,-7.2 1.7,-12.8 1.7,-5.7 4.9,-9.7 3.2,-4 7.8,-6 4.6,-2.2 10.399999,-2.2 7.3,0 12.3,2.9 5,2.8 7.7,8.3 2.7,5.5 3.1,13.4 h -10.6 q -0.3,-5.6 -1.6,-9 -1.3,-3.5 -4,-5 -2.6,-1.6 -7,-1.6 -3.599999,0 -6.299999,1.5 -2.7,1.3 -4.4,4.1 -1.7,2.8 -2.5,6.8 -0.9,4 -0.9,9.1 v 13.2 q 0,4.9 0.7,9 0.7,3.9 2.3,6.8 1.6,2.8 4.2,4.4 2.5,1.5 6.299999,1.5 4.6,0 7.4,-1.5 2.8,-1.4 4,-4.8 1.4,-3.4 1.8,-9 z m 32.7,-49 v 72.3 h -10.7 v -72.4 z m 36.2,0 -24.5,34.3 -14.5,17.6 -2,-11.4 10.4,-14.4 17.9,-26.2 z m -11.2,72.3 -19.8,-34.8 6.8,-8 25.6,42.8 z m 59.7,-9 v 9 h -31.5 v -9 z m -29,-63.4 v 72.4 h -10.7 v -72.4 z m 24.8,30.6 v 8.9 h -27.3 v -8.9 z m 3.8,-30.6 v 9 h -31 v -9 z m 37,0 v 72.4 h -10.6 v -72.4 z m 18.7,0 v 9 h -47.9 v -9 z m -622.9,1 v 72.4 h -7.3 v -72.4 z m 19.8,0 v 6.6 h -47 v -6.6 z m 51.2,31.8 v 6.5 h -33.8 v -6.5 z m -32.6,-31.8 v 72.4 h -7.4 v -72.4 z m 39,0 v 72.4 h -7.4 v -72.4 z m 24.6,0 v 72.4 h -7.4 v -72.4 z m 17,0 h 20 q 6.8,0 11.5,2.5 4.7,2.5 7.2,7.3 2.5,4.8 2.5,11.7 0,5 -1.8,9.2 -1.6,4.2 -4.8,7 -3.2,2.8 -7.5,4 l -2.2,1 h -19.4 v -6.6 h 15 q 4.4,0 7.4,-2 3,-2 4.4,-5.4 1.5,-3.3 1.5,-7.2 0,-4.5 -1.5,-7.9 -1.5,-3.4 -4.5,-5.2 -3,-1.8 -7.7,-1.8 h -12.7 v 65.8 h -7.4 z m 36,72.4 -15,-32.6 h 7.7 l 15.2,32 v 0.6 z m 35.5,0 h -13 l 0.1,-6.6 h 12.9 q 6.5,0 10.8,-2.6 4.4,-2.6 6.6,-7.7 2.1,-5.1 2.1,-12.6 v -13.5 q 0,-5.8 -1.2,-10 -1.2,-4.4 -3.6,-7.2 -2.4,-2.8 -6,-4.2 -3.5,-1.4 -8.1,-1.4 h -13.8 v -6.6 h 13.8 q 6,0 10.8,1.9 4.8,1.9 8.2,5.7 3.5,3.7 5.4,9.2 1.8,5.5 1.8,12.7 v 13.4 q 0,7.2 -1.8,12.7 -1.9,5.5 -5.4,9.3 -3.5,3.7 -8.5,5.6 -4.9,1.9 -11.1,1.9 z m -9,-72.4 v 72.4 h -7.5 v -72.4 z"
   style="font-variation-settings:'wdth' 75, 'wght' 450;fill:url(#f)"
   id="path9" /><path
   fill="url(#f)"
   d="m 528,439.2 h -14.7 l -0.1,-8.5 h 13.4 q 3,0 5.2,-1.3 2.3,-1.3 3.6,-3.7 1.2,-2.5 1.2,-6 0,-3.7 -1,-6 -1.1,-2.5 -3.4,-3.5 Q 530,409 526.5,409 H 516 v 63.4 H 505.4 V 400 h 21.1 q 4.9,0 8.7,1.2 3.9,1.1 6.5,3.5 2.7,2.4 4.1,6 1.4,3.7 1.4,8.7 0,4.5 -2,8.2 -1.9,3.6 -5.5,6 -3.6,2.2 -8.7,2.8 z m -0.4,33.2 h -18.2 l 5.4,-9 h 12.8 q 3.4,0 5.7,-1.5 2.3,-1.4 3.5,-4.1 1.1,-2.8 1.1,-6.4 0,-3.8 -1,-6.5 -1,-2.8 -3.1,-4.3 -2.2,-1.5 -5.8,-1.5 h -12 l 0.1,-8.4 h 15.7 l 2.5,3.1 q 4.8,0.3 8,2.8 3.2,2.5 4.7,6.4 1.5,3.8 1.5,8.4 0,6.8 -2.5,11.5 -2.5,4.7 -7.3,7.1 -4.6,2.4 -11,2.4 z M 561.4,400 h 21 q 7.2,0 12,2.5 5,2.5 7.5,7.4 2.5,4.8 2.5,11.9 0,5.2 -1.6,9.3 -1.6,4.1 -4.7,7 -3,2.8 -7.5,4.2 l -3,1.5 h -18.2 l -0.1,-9 h 13 q 3.9,0 6.4,-1.6 2.6,-1.7 3.8,-4.6 1.3,-2.9 1.3,-6.5 0,-4 -1.1,-7 -1.2,-2.9 -3.7,-4.5 -2.4,-1.6 -6.5,-1.6 H 572 v 63.4 h -10.6 z m 34.3,72.4 -14.2,-32.7 h 11.1 l 14.4,32 v 0.7 z m 44.5,-64.2 -18.6,64.2 h -11 L 633.8,400 h 6.8 z m 15,64.2 -18.6,-64.2 -0.5,-8.2 h 7 l 23.1,72.4 z m 0.2,-26.9 v 9 h -34.3 v -9 z m 55,3.6 H 721 q -0.4,7.6 -3,13.1 -2.8,5.4 -8,8.3 -5.2,2.9 -12.8,2.9 -5.5,0 -10,-2.1 -4.5,-2.1 -7.7,-6.1 -3.1,-4 -4.7,-9.7 -1.7,-5.6 -1.7,-12.8 v -13 q 0,-7.2 1.7,-12.8 1.7,-5.7 4.9,-9.7 3.2,-4 7.8,-6 4.6,-2.2 10.4,-2.2 7.3,0 12.3,2.9 5,2.8 7.7,8.3 2.7,5.5 3.1,13.4 h -10.6 q -0.3,-5.6 -1.6,-9 -1.3,-3.5 -4,-5 -2.6,-1.6 -7,-1.6 -3.6,0 -6.3,1.5 -2.7,1.3 -4.4,4.1 -1.7,2.8 -2.5,6.8 -0.9,4 -0.9,9.1 v 13.2 q 0,4.9 0.7,9 0.7,3.9 2.3,6.8 1.6,2.8 4.2,4.4 2.5,1.5 6.3,1.5 4.6,0 7.4,-1.5 2.8,-1.4 4,-4.8 1.4,-3.4 1.8,-9 z m 32.7,-49 v 72.3 H 732.4 V 400 Z m 36.2,0 -24.5,34.3 -14.5,17.6 -2,-11.4 10.4,-14.4 17.9,-26.2 z m -11.2,72.3 -19.8,-34.8 6.8,-8 25.6,42.8 z m 59.7,-9 v 9 h -31.5 v -9 z m -29,-63.4 v 72.4 H 788.1 V 400 Z m 24.8,30.6 v 8.9 h -27.3 v -8.9 z m 3.8,-30.6 v 9 h -31 v -9 z m 37,0 v 72.4 H 853.8 V 400 Z m 18.7,0 v 9 h -47.9 v -9 z m -622.9,1 v 72.4 h -7.3 V 401 Z m 19.8,0 v 6.6 H 233 V 401 Z m 51.2,31.8 v 6.5 h -33.8 v -6.5 z M 298.6,401 v 72.4 h -7.4 V 401 Z m 39,0 v 72.4 h -7.4 V 401 Z m 24.6,0 v 72.4 h -7.4 V 401 Z m 17,0 h 20 q 6.8,0 11.5,2.5 4.7,2.5 7.2,7.3 2.5,4.8 2.5,11.7 0,5 -1.8,9.2 -1.6,4.2 -4.8,7 -3.2,2.8 -7.5,4 l -2.2,1 h -19.4 v -6.6 h 15 q 4.4,0 7.4,-2 3,-2 4.4,-5.4 1.5,-3.3 1.5,-7.2 0,-4.5 -1.5,-7.9 -1.5,-3.4 -4.5,-5.2 -3,-1.8 -7.7,-1.8 h -12.7 v 65.8 h -7.4 z m 36,72.4 -15,-32.6 h 7.7 l 15.2,32 v 0.6 z m 35.5,0 h -13 l 0.1,-6.6 h 12.9 q 6.5,0 10.8,-2.6 4.4,-2.6 6.6,-7.7 2.1,-5.1 2.1,-12.6 v -13.5 q 0,-5.8 -1.2,-10 -1.2,-4.4 -3.6,-7.2 -2.4,-2.8 -6,-4.2 -3.5,-1.4 -8.1,-1.4 H 437.5 V 401 h 13.8 q 6,0 10.8,1.9 4.8,1.9 8.2,5.7 3.5,3.7 5.4,9.2 1.8,5.5 1.8,12.7 v 13.4 q 0,7.2 -1.8,12.7 -1.9,5.5 -5.4,9.3 -3.5,3.7 -8.5,5.6 -4.9,1.9 -11.1,1.9 z m -9,-72.4 v 72.4 h -7.5 V 401 Z"
   style="font-variation-settings:'wdth' 75, 'wght' 450;fill:url(#linearGradient9)"
   id="path9-5" />&#10;</svg>
