<?xml version="1.0" encoding="UTF-8" standalone="no"?>
<!-- Uploaded to: SVG Repo, www.svgrepo.com, Generator: SVG Repo Mixer Tools -->

<svg
   fill="#000000"
   version="1.1"
   id="Capa_1"
   width="418"
   height="93"
   viewBox="0 0 417.85863 92.968496"
   xml:space="preserve"
   sodipodi:docname="virus-total-text-logo-svgrepo-com.svg"
   inkscape:export-filename="../Documents/GitHub/My Projects/thirdbracket-projects/bracketui-dev/apps/docs/public/logo.svg"
   inkscape:export-xdpi="96"
   inkscape:export-ydpi="96"
   xmlns:inkscape="http://www.inkscape.org/namespaces/inkscape"
   xmlns:sodipodi="http://sodipodi.sourceforge.net/DTD/sodipodi-0.dtd"
   xmlns="http://www.w3.org/2000/svg"
   xmlns:svg="http://www.w3.org/2000/svg"><defs
   id="defs9" /><sodipodi:namedview
   id="namedview9"
   pagecolor="#ffffff"
   bordercolor="#000000"
   borderopacity="0.25"
   inkscape:showpageshadow="2"
   inkscape:pageopacity="0.0"
   inkscape:pagecheckerboard="0"
   inkscape:deskcolor="#d1d1d1"
   showgrid="true"
   inkscape:document-units="px" />&#10;&#10;<path
   id="text9-6-2-04-7-2-7-3-2-3-7"
   style="font-size:133.288px;font-family:Anta;-inkscape-font-specification:'Anta, Normal';stroke-width:0.999662"
   d="m 374.09857,25.332602 h 8.78607 V 0.21093922 h 13.73231 V 25.332602 h 20.76117 V 39.06491 h -20.76117 v 34.558552 q 0,2.21279 1.69214,3.83984 1.75721,1.56197 4.16525,1.56197 h 14.90378 v 13.73231 h -15.09903 q -5.33673,0 -9.7623,-2.5382 -4.3605,-2.60328 -7.02886,-6.89869 -2.60329,-4.3605 -2.60329,-9.63214 V 39.06491 h -8.78607 z m -66.96654,13.927554 q 0,-5.792301 4.23033,-9.827387 4.23033,-4.100167 10.1528,-4.100167 h 28.11543 q 5.40181,0 9.76231,2.668363 4.42558,2.603281 7.02886,7.093941 2.66836,4.425578 2.66836,9.827386 v 1.887379 q 0,5.336726 -2.66836,9.762304 -2.60328,4.360496 -7.02886,7.028859 -4.3605,2.603281 -9.76231,2.603281 H 328.67418 V 52.536889 h 21.08658 q 2.34295,0 3.97,-1.692132 1.69214,-1.692133 1.69214,-4.100168 v -1.822297 q 0,-2.473117 -1.69214,-4.16525 -1.62705,-1.692132 -3.97,-1.692132 h -28.89642 v 34.623642 q 0,2.21279 1.49688,3.77475 1.49689,1.56197 3.6446,1.56197 h 38.33331 v 13.73231 h -38.33331 q -5.20656,0 -9.50198,-2.5382 -4.29541,-2.60328 -6.83361,-6.89869 -2.5382,-4.3605 -2.5382,-9.56706 z m -201.35515,10.28296 q 0,-6.703449 3.2541,-12.170339 3.31918,-5.466891 8.85116,-8.720992 5.53197,-3.319183 12.23542,-3.319183 h 37.61741 v 67.42498 H 154.00266 V 39.06491 h -23.8851 q -4.3605,0 -7.48444,3.123937 -3.12393,3.058855 -3.12393,7.484433 v 18.61346 q 0,4.425578 3.12393,7.614602 3.12394,3.12393 7.48444,3.12393 h 16.07526 v 13.73231 h -16.07526 q -6.70345,0 -12.23542,-3.2541 -5.53198,-3.31918 -8.85116,-8.85116 -3.2541,-5.53197 -3.2541,-12.235418 z M 242.64433,0.21093922 h 13.73231 V 51.170167 h 4.62082 l 24.40576,-25.837565 h 17.83248 l -30.7838,32.671178 33.51724,34.753802 h -19.1992 L 259.7609,64.902475 h -3.38426 V 92.757582 H 242.64433 Z M 172.77056,49.67328 q 0,-6.703449 3.38427,-12.235421 3.38426,-5.531973 9.0464,-8.786074 5.66214,-3.319183 12.56083,-3.319183 h 37.94282 V 39.06491 h -37.94282 q -4.62082,0 -7.94001,3.189019 -3.31918,3.123937 -3.31918,7.614597 v 18.28805 q 0,4.49066 3.2541,7.679676 3.31919,3.18902 8.00509,3.18902 h 37.94282 v 13.73231 h -37.94282 q -6.89869,0 -12.56083,-3.31918 -5.66214,-3.31919 -9.0464,-8.85116 -3.38427,-5.59705 -3.38427,-12.300502 z M 67.017814,44.20639 q 0,-5.206562 2.603281,-9.501976 2.668363,-4.295414 7.028859,-6.833613 4.425578,-2.538199 9.762304,-2.538199 H 101.4462 V 38.999828 H 86.412258 q -2.342953,0 -4.035086,1.62705 -1.62705,1.561969 -1.62705,3.83984 V 92.757582 H 67.017814 Z M 0.48039277,0.21093922 H 14.212701 V 79.025272 h 23.885104 q 4.425578,0 7.484434,-3.12393 3.123937,-3.123942 3.123937,-7.484438 v -18.61346 q 0,-4.425578 -3.123937,-7.549515 Q 42.523383,39.06491 38.097805,39.06491 H 22.022544 V 25.332602 h 16.075261 q 6.703449,0 12.235422,3.319183 5.531972,3.254101 8.786074,8.786074 3.319183,5.531972 3.319183,12.235421 v 18.873788 q 0,6.638364 -3.319183,12.170344 -3.254102,5.46689 -8.786074,8.78607 -5.531973,3.2541 -12.235422,3.2541 H 14.212701 q -5.6621367,0 -9.6972225,-4.03508 -4.03508573,-4.03509 -4.03508573,-9.69723 z" /></svg>
