<svg version="1.1" viewBox="0 0 161 18" xml:space="preserve" xmlns="http://www.w3.org/2000/svg"><defs><linearGradient id="linearGradient7-9" x1="-.51585" x2="4.7596" y1="2.3563" y2="2.4056" gradientTransform="matrix(.99999 0 0 .99999 216.43 156.64)" gradientUnits="userSpaceOnUse"><stop stop-color="#24262b" offset=".77106"/><stop stop-color="#24262b" stop-opacity=".2" offset=".9999"/><stop stop-color="#24262b" stop-opacity="0" offset="1"/></linearGradient><linearGradient id="linearGradient7-9-6" x1="-.51585" x2="4.7596" y1="2.3563" y2="2.4056" gradientTransform="matrix(.99999 0 0 .99999 216.43 156.64)" gradientUnits="userSpaceOnUse"><stop stop-color="#d8d9de" offset=".77106"/><stop stop-color="#d8d9de" stop-opacity=".2" offset=".9999"/><stop stop-color="#d8d9de" stop-opacity="0" offset="1"/></linearGradient></defs><g transform="matrix(.99999 0 0 .99999 .0096607 200.18)"><g transform="matrix(.9697 0 0 .9697 .65163 .045455)"><path d="m86.923-196.56h-3.2264l-0.0218-1.853h2.932q0.66489 0 1.1554-0.2834 0.5014-0.2834 0.77389-0.81749 0.2725-0.5341 0.2725-1.2862 0-0.83928-0.2398-1.3516-0.22889-0.52319-0.71939-0.76299-0.49049-0.2507-1.2535-0.2507h-2.2999v13.897h-2.3326v-15.87h4.6325q1.0682 0 1.9075 0.2507 0.85019 0.25069 1.4279 0.77389 0.58859 0.52319 0.89379 1.3298 0.3161 0.79569 0.3161 1.9075 0 0.98101-0.436 1.7876-0.4251 0.79569-1.2208 1.308-0.79569 0.5014-1.9075 0.6213zm-0.08723 7.292h-3.9894l1.188-1.962h2.8013q0.75209 0 1.2535-0.327 0.50139-0.32699 0.75209-0.91559 0.2616-0.5995 0.2616-1.3952 0-0.82838-0.218-1.4279-0.21799-0.6104-0.69758-0.93738-0.47959-0.327-1.2644-0.327h-2.6269l0.02183-1.853h3.4443l0.53409 0.68669q1.0573 0.0654 1.7549 0.6104 0.69759 0.54499 1.0355 1.3952 0.3379 0.85019 0.3379 1.853 0 1.4933-0.5559 2.5178-0.5559 1.0246-1.5914 1.5587-1.0246 0.5232-2.4416 0.5232zm7.412-15.87h4.6216q1.5587 0 2.6269 0.54499 1.0681 0.545 1.6241 1.6132 0.55587 1.0573 0.55587 2.616 0 1.1445-0.35967 2.0492-0.34883 0.89379-1.0246 1.5151-0.67579 0.6213-1.635 0.93738l-0.65399 0.32699h-4.0112l-0.0218-1.962h2.8558q0.8502 0 1.406-0.3706 0.56682-0.3706 0.8393-1.0028 0.28341-0.63219 0.28341-1.4279 0-0.87199-0.25069-1.5151-0.25068-0.6431-0.79571-0.99189-0.54499-0.35969-1.4388-0.35969h-2.2889v13.897h-2.3326zm7.51 15.87-3.0956-7.1612 2.4307-0.0109 3.1609 7.0304v0.1417zm9.7774-14.083-4.0874 14.083h-2.4088l5.0793-15.87h1.5042zm3.2918 14.083-4.0874-14.083-0.10901-1.7876h1.526l5.0793 15.87zm0.0327-5.8859v1.9729h-7.5209v-1.9729zm12.059 0.7739h2.3217q-0.0764 1.6786-0.6758 2.8776-0.59948 1.188-1.7331 1.8203-1.1335 0.63219-2.8013 0.63219-1.2208 0-2.2018-0.4578-0.98101-0.4687-1.6786-1.3407-0.6867-0.87199-1.0464-2.1145-0.35969-1.2426-0.35969-2.8121v-2.8666q0-1.5587 0.37061-2.8012 0.37057-1.2426 1.0681-2.1146 0.70849-0.88289 1.7112-1.3407 1.0028-0.4578 2.278-0.4578 1.6023 0 2.7031 0.6213 1.1009 0.62129 1.6895 1.8312 0.5995 1.199 0.68672 2.932h-2.3326q-0.0655-1.2208-0.35972-1.9729-0.2834-0.75209-0.8611-1.09-0.57769-0.3488-1.5259-0.3488-0.8066 0-1.3952 0.3161-0.58859 0.30519-0.97012 0.91559-0.37059 0.6104-0.55588 1.4933-0.1853 0.87199-0.1853 1.9946v2.8885q0 1.0682 0.1526 1.9511 0.16349 0.87199 0.50139 1.5042 0.34878 0.6213 0.91559 0.97012 0.5668 0.3379 1.3952 0.3379 1.0136 0 1.6132-0.327 0.6104-0.32699 0.8938-1.0682 0.29429-0.7412 0.38151-1.9729zm7.1612-10.758v15.87h-2.3326v-15.87zm7.9569 0-5.3846 7.5319-3.1828 3.8695-0.4251-2.507 2.2672-3.1609 3.924-5.7334zm-2.4633 15.87-4.3382-7.619 1.4933-1.7767 5.6135 9.3961zm13.079-1.962v1.962h-6.8887v-1.962zm-6.3546-13.908v15.87h-2.3326v-15.87zm5.439 6.7144v1.9402h-5.9732v-1.9402zm0.8393-6.7144v1.9729h-6.8124v-1.9729zm8.0986 0v15.87h-2.3108v-15.87zm4.1093 0v1.9729h-10.496v-1.9729zm-136.58 0.218v15.87h-1.6132v-15.87zm4.3382 0v1.4388h-10.289v-1.4388zm11.216 6.965v1.4388h-7.401v-1.4388zm-7.1286-6.965v15.87h-1.6241v-15.87zm8.5346 0v15.87h-1.6241v-15.87zm5.4063 0v15.87h-1.635v-15.87zm3.7169 0h4.4036q1.4715 0 2.507 0.545 1.0355 0.545 1.5805 1.6023 0.545 1.0464 0.545 2.5724 0 1.1009-0.3815 2.0165-0.3706 0.9047-1.0682 1.526-0.68669 0.61039-1.635 0.88289l-0.47959 0.2071h-4.2509l-0.02182-1.4388h3.2918q0.981 0 1.6241-0.436 0.65399-0.44689 0.97012-1.1772 0.327-0.7303 0.327-1.5805 0-0.99188-0.327-1.7331-0.31608-0.74119-0.99187-1.1445-0.66489-0.4033-1.6895-0.4033h-2.7686v14.432h-1.635zm7.8807 15.87-3.2808-7.1503 1.7004-0.0109 3.3244 7.0196v0.14169zm7.8043 0h-2.8449l0.02183-1.4388h2.8231q1.4279 0 2.3762-0.5668 0.94826-0.57769 1.4279-1.7004 0.47966-1.1227 0.47959-2.7576v-2.9648q0-1.2644-0.2725-2.2018-0.27253-0.94826-0.79572-1.5587-0.5232-0.6213-1.2971-0.92649-0.77389-0.31609-1.7876-0.31609h-3.0302v-1.4388h3.0302q1.3079 0 2.3653 0.41419 1.0574 0.4142 1.8094 1.2426 0.76299 0.8175 1.1663 2.0274 0.41419 1.199 0.41419 2.7795v2.943q0 1.5805-0.41419 2.7904-0.40329 1.2099-1.1772 2.0274-0.76299 0.8175-1.853 1.2317-1.0791 0.4142-2.4416 0.4142zm-1.9946-15.87v15.87h-1.6241v-15.87z" fill="#24262b" stroke-miterlimit="50" stroke-width="0" style="font-variation-settings:'wdth' 75, 'wght' 450"/></g><g transform="matrix(3.6746,0,0,3.6746,-795.29,-775.59)"><g fill="#24262b"><path d="m221.18 157.23-2.5161 0.85007-0.0202 1.9446 2.529 0.81596a0.61912 0.61912 0 0 0 8e-3 -0.0625v-3.5243a0.61912 0.61912 0 0 0-1e-3 -0.0238z" stroke-width=".99999" style="font-variation-settings:'wght' 700"/><path d="m220.82 161.36-2.8122-0.86661-0.01-2.7466 2.9156-0.98649a0.61912 0.61912 0 0 0-0.34365-0.10439h-3.5243a0.61912 0.61912 0 0 0-0.61908 0.61908v3.5243a0.61912 0.61912 0 0 0 0.61908 0.61908h3.5243a0.61912 0.61912 0 0 0 0.25011-0.0584z" style="font-variation-settings:'wght' 700"/></g><path d="m220.91 156.74a0.61912 0.61912 0 0 0-5.2e-4 0l-2.9156 0.98649 0.01 2.7466 2.8122 0.86661a0.61912 0.61912 0 0 0 0.3607-0.49816l-2.529-0.81596 0.0202-1.9446 2.5161-0.85007a0.61912 0.61912 0 0 0-0.27389-0.49093z" fill="url(#linearGradient7-9-6)" stroke-width=".99999" style="font-variation-settings:'wght' 700"/></g></g><g transform="matrix(.99999 0 0 .99999 -1.5872 233.37)" display="none"><g transform="matrix(.9697 0 0 .9697 .65163 .045455)"><path d="m87.698-196.56h-3.2264l-0.0218-1.853h2.932q0.66489 0 1.1554-0.2834 0.5014-0.2834 0.77389-0.81749 0.2725-0.5341 0.2725-1.2862 0-0.83928-0.2398-1.3516-0.22889-0.52319-0.71939-0.76299-0.49049-0.2507-1.2535-0.2507h-2.2999v13.897h-2.3326v-15.87h4.6325q1.0682 0 1.9075 0.2507 0.85019 0.25069 1.4279 0.77389 0.58859 0.52319 0.89379 1.3298 0.3161 0.79569 0.3161 1.9075 0 0.98101-0.436 1.7876-0.4251 0.79569-1.2208 1.308-0.79569 0.5014-1.9075 0.6213zm-0.08723 7.292h-3.9894l1.188-1.962h2.8013q0.75209 0 1.2535-0.327 0.50139-0.32699 0.75209-0.91559 0.2616-0.5995 0.2616-1.3952 0-0.82838-0.218-1.4279-0.21799-0.6104-0.69758-0.93738-0.47959-0.327-1.2644-0.327h-2.6269l0.02183-1.853h3.4443l0.53409 0.68669q1.0573 0.0654 1.7549 0.6104 0.69759 0.54499 1.0355 1.3952 0.3379 0.85019 0.3379 1.853 0 1.4933-0.5559 2.5178-0.5559 1.0246-1.5914 1.5587-1.0246 0.5232-2.4416 0.5232zm7.412-15.87h4.6216q1.5587 0 2.6269 0.54499 1.0681 0.545 1.6241 1.6132 0.55587 1.0573 0.55587 2.616 0 1.1445-0.35967 2.0492-0.34883 0.89379-1.0246 1.5151-0.67579 0.6213-1.635 0.93738l-0.65399 0.32699h-4.0112l-0.0218-1.962h2.8558q0.8502 0 1.406-0.3706 0.56682-0.3706 0.8393-1.0028 0.28341-0.63219 0.28341-1.4279 0-0.87199-0.25069-1.5151-0.25068-0.6431-0.79571-0.99189-0.54499-0.35969-1.4388-0.35969h-2.2889v13.897h-2.3326zm7.51 15.87-3.0956-7.1612 2.4307-0.0109 3.1609 7.0304v0.1417zm9.7774-14.083-4.0874 14.083h-2.4088l5.0793-15.87h1.5042zm3.2918 14.083-4.0874-14.083-0.10901-1.7876h1.526l5.0793 15.87zm0.0327-5.8859v1.9729h-7.5209v-1.9729zm12.059 0.7739h2.3217q-0.0764 1.6786-0.6758 2.8776-0.59948 1.188-1.7331 1.8203-1.1335 0.63219-2.8013 0.63219-1.2208 0-2.2018-0.4578-0.98101-0.4687-1.6786-1.3407-0.6867-0.87199-1.0464-2.1145-0.35969-1.2426-0.35969-2.8121v-2.8666q0-1.5587 0.37061-2.8012 0.37057-1.2426 1.0681-2.1146 0.70849-0.88289 1.7112-1.3407 1.0028-0.4578 2.278-0.4578 1.6023 0 2.7031 0.6213 1.1009 0.62129 1.6895 1.8312 0.5995 1.199 0.68672 2.932h-2.3326q-0.0655-1.2208-0.35972-1.9729-0.2834-0.75209-0.8611-1.09-0.57769-0.3488-1.5259-0.3488-0.8066 0-1.3952 0.3161-0.58859 0.30519-0.97012 0.91559-0.37059 0.6104-0.55588 1.4933-0.1853 0.87199-0.1853 1.9946v2.8885q0 1.0682 0.1526 1.9511 0.16349 0.87199 0.50139 1.5042 0.34878 0.6213 0.91559 0.97012 0.5668 0.3379 1.3952 0.3379 1.0136 0 1.6132-0.327 0.6104-0.32699 0.8938-1.0682 0.29429-0.7412 0.38151-1.9729zm7.1612-10.758v15.87h-2.3326v-15.87zm7.9569 0-5.3846 7.5319-3.1828 3.8695-0.4251-2.507 2.2672-3.1609 3.924-5.7334zm-2.4633 15.87-4.3382-7.619 1.4933-1.7767 5.6135 9.3961zm13.079-1.962v1.962h-6.8887v-1.962zm-6.3546-13.908v15.87h-2.3326v-15.87zm5.439 6.7144v1.9402h-5.9732v-1.9402zm0.8393-6.7144v1.9729h-6.8124v-1.9729zm8.0986 0v15.87h-2.3108v-15.87zm4.1093 0v1.9729h-10.496v-1.9729zm-136.58 0.218v15.87h-1.6132v-15.87zm4.3382 0v1.4388h-10.289v-1.4388zm11.216 6.965v1.4388h-7.401v-1.4388zm-7.1286-6.965v15.87h-1.6241v-15.87zm8.5346 0v15.87h-1.6241v-15.87zm5.4063 0v15.87h-1.635v-15.87zm3.7169 0h4.4036q1.4715 0 2.507 0.545 1.0355 0.545 1.5805 1.6023 0.545 1.0464 0.545 2.5724 0 1.1009-0.3815 2.0165-0.3706 0.9047-1.0682 1.526-0.68669 0.61039-1.635 0.88289l-0.47959 0.2071h-4.2509l-0.02182-1.4388h3.2918q0.981 0 1.6241-0.436 0.65399-0.44689 0.97012-1.1772 0.327-0.7303 0.327-1.5805 0-0.99188-0.327-1.7331-0.31608-0.74119-0.99187-1.1445-0.66489-0.4033-1.6895-0.4033h-2.7686v14.432h-1.635zm7.8807 15.87-3.2808-7.1503 1.7004-0.0109 3.3244 7.0196v0.14169zm7.8043 0h-2.8449l0.02183-1.4388h2.8231q1.4279 0 2.3762-0.5668 0.94826-0.57769 1.4279-1.7004 0.47966-1.1227 0.47959-2.7576v-2.9648q0-1.2644-0.2725-2.2018-0.27253-0.94826-0.79572-1.5587-0.5232-0.6213-1.2971-0.92649-0.77389-0.31609-1.7876-0.31609h-3.0302v-1.4388h3.0302q1.3079 0 2.3653 0.41419 1.0574 0.4142 1.8094 1.2426 0.76299 0.8175 1.1663 2.0274 0.41419 1.199 0.41419 2.7795v2.943q0 1.5805-0.41419 2.7904-0.40329 1.2099-1.1772 2.0274-0.76299 0.8175-1.853 1.2317-1.0791 0.4142-2.4416 0.4142zm-1.9946-15.87v15.87h-1.6241v-15.87z" fill="#d8d9de" stroke-miterlimit="50" stroke-width="0" style="font-variation-settings:'wdth' 75, 'wght' 450"/></g><g transform="matrix(3.6746,0,0,3.6746,-795.29,-775.59)"><g fill="#d8d9de"><path d="m221.18 157.23-2.5161 0.85007-0.0202 1.9446 2.529 0.81596a0.61912 0.61912 0 0 0 8e-3 -0.0625v-3.5243a0.61912 0.61912 0 0 0-1e-3 -0.0238z" stroke-width=".99999" style="font-variation-settings:'wght' 700"/><path d="m220.82 161.36-2.8122-0.86661-0.01-2.7466 2.9156-0.98649a0.61912 0.61912 0 0 0-0.34365-0.10439h-3.5243a0.61912 0.61912 0 0 0-0.61908 0.61908v3.5243a0.61912 0.61912 0 0 0 0.61908 0.61908h3.5243a0.61912 0.61912 0 0 0 0.25011-0.0584z" style="font-variation-settings:'wght' 700"/></g><path d="m220.91 156.74a0.61912 0.61912 0 0 0-5.2e-4 0l-2.9156 0.98649 0.01 2.7466 2.8122 0.86661a0.61912 0.61912 0 0 0 0.3607-0.49816l-2.529-0.81596 0.0202-1.9446 2.5161-0.85007a0.61912 0.61912 0 0 0-0.27389-0.49093z" fill="url(#linearGradient7-9)" stroke-width=".99999" style="font-variation-settings:'wght' 700"/></g></g></svg>
