<?xml version="1.0" encoding="UTF-8" standalone="no"?>
<!-- Created with Inkscape (http://www.inkscape.org/) -->

<svg
   width="216.02438mm"
   height="43.023342mm"
   viewBox="0 0 216.02438 43.023342"
   version="1.1"
  />
  

    <path
       
       d="m 3.4492366,253.97666 h 6.3839141 v 36.63943 H 20.936926 q 2.057375,0 3.479384,-1.45227 1.452265,-1.45226 1.452265,-3.47938 v -8.65308 q 0,-2.05737 -1.452265,-3.50964 -1.422009,-1.48252 -3.479384,-1.48252 h -7.473113 v -6.38391 h 7.473113 q 3.116318,0 5.688037,1.54303 2.571719,1.51277 4.084495,4.08449 1.543031,2.57172 1.543031,5.68804 v 8.7741 q 0,3.08606 -1.543031,5.65778 -1.512776,2.54146 -4.084495,4.0845 Q 24.053244,297 20.936926,297 H 9.8331507 q -2.63223,0 -4.508072,-1.87584 -1.8758421,-1.87584 -1.8758421,-4.50807 z m 36.0645754,20.45273 q 0,-2.42045 1.210221,-4.41731 1.240476,-1.99686 3.267596,-3.17683 2.057375,-1.17996 4.538327,-1.17996 h 6.989025 v 6.35365 h -6.989025 q -1.089199,0 -1.875842,0.75639 -0.756388,0.72614 -0.756388,1.78508 V 297 h -6.383914 z m 20.846054,2.48095 q 0,-3.11632 1.512776,-5.65778 1.543031,-2.54147 4.11475,-4.05424 2.571719,-1.54303 5.688037,-1.54303 H 89.163118 V 297 H 82.779204 V 272.0392 H 71.675429 q -2.027119,0 -3.479384,1.45227 -1.452265,1.422 -1.452265,3.47938 v 8.65308 q 0,2.05737 1.452265,3.53989 1.452265,1.45227 3.479384,1.45227 h 7.473113 V 297 h -7.473113 q -3.116318,0 -5.688037,-1.51277 -2.571719,-1.54304 -4.11475,-4.11475 -1.512776,-2.57172 -1.512776,-5.68804 z m 35.762016,0.0605 q 0,-3.11632 1.573287,-5.68804 1.573287,-2.57172 4.205521,-4.08449 2.63222,-1.54303 5.83931,-1.54303 h 17.63896 v 6.38391 H 107.74 q -2.14814,0 -3.69118,1.48252 -1.54302,1.45227 -1.54302,3.5399 v 8.5018 q 0,2.08763 1.51277,3.57015 1.54303,1.48252 3.72143,1.48252 h 17.63896 v 6.38391 H 107.74 q -3.20709,0 -5.83931,-1.54303 -2.632234,-1.54303 -4.205521,-4.11475 -1.573287,-2.60197 -1.573287,-5.71829 z m 36.215858,-22.99419 h 6.38392 v 23.69007 h 2.14814 l 11.34582,-12.01144 h 8.29001 l -14.31086,15.18827 15.58159,16.15644 h -8.92538 l -12.55604,-12.94936 h -1.57328 v 12.94936 h -6.38392 z m 32.76673,18.15331 q 0,-2.69274 1.9666,-4.56859 1.96661,-1.90609 4.71986,-1.90609 h 13.07039 q 2.51121,0 4.53833,1.24047 2.05737,1.21022 3.26759,3.29785 1.24048,2.05738 1.24048,4.56859 v 0.87741 q 0,2.48095 -1.24048,4.53832 -1.21022,2.02712 -3.26759,3.2676 -2.02712,1.21022 -4.53833,1.21022 h -9.74228 v -6.35366 h 9.80279 q 1.0892,0 1.84559,-0.78664 0.78664,-0.78664 0.78664,-1.9061 v -0.84715 q 0,-1.14971 -0.78664,-1.93636 -0.75639,-0.78664 -1.84559,-0.78664 h -13.43345 v 16.09594 q 0,1.02868 0.69588,1.75482 0.69587,0.72613 1.69431,0.72613 h 17.82049 v 6.38391 h -17.82049 q -2.42045,0 -4.41731,-1.17996 -1.99686,-1.21022 -3.17683,-3.20709 -1.17996,-2.02712 -1.17996,-4.44756 z m 34.24923,-6.47468 h 4.08449 v -11.67863 h 6.38392 v 11.67863 h 9.65151 v 6.38391 h -9.65151 v 16.06568 q 0,1.02869 0.78664,1.78508 0.8169,0.72613 1.93635,0.72613 h 6.92852 v 6.38391 h -7.01928 q -2.48096,0 -4.53833,-1.17996 -2.02712,-1.21022 -3.2676,-3.20709 -1.21022,-2.02712 -1.21022,-4.47781 V 272.0392 h -4.08449 z"
        />
 
</svg>
