<?xml version="1.0" encoding="UTF-8" standalone="no"?>
<svg
   width="119.99999"
   height="26.639023"
   fill="#000000"
   version="1.1"
   viewBox="0 0 119.9598 26.629857"
   xml:space="preserve"
   id="svg1"
   xmlns="http://www.w3.org/2000/svg"
   xmlns:svg="http://www.w3.org/2000/svg"><defs
   id="defs1" />&#10;&#10;<path
   d="m 107.50642,7.2282788 h 2.52815 V -4.211884e-4 h 3.9513 V 7.2282788 h 5.97385 v 3.9513102 h -5.97385 v 9.94414 q 0,0.63672 0.48689,1.10488 0.50562,0.44946 1.19851,0.44946 h 4.28854 v 3.9513 h -4.34465 q -1.5356,0 -2.80904,-0.73036 -1.25471,-0.74908 -2.02252,-1.98506 -0.74909,-1.2547 -0.74909,-2.77157 v -9.96285 h -2.52815 z M 88.237072,11.235979 q 0,-1.6667002 1.21724,-2.8277702 1.21725,-1.17981 2.92147,-1.17981 h 8.089918 q 1.55434,0 2.80904,0.76782 1.27344,0.74908 2.02253,2.0412202 0.76781,1.27344 0.76781,2.82778 v 0.54309 q 0,1.5356 -0.76781,2.80904 -0.74909,1.25471 -2.02253,2.02252 -1.2547,0.74909 -2.80904,0.74909 h -6.029958 v -3.9326 h 6.067648 q 0.67419,0 1.14235,-0.48689 0.48689,-0.48689 0.48689,-1.17981 v -0.52436 q 0,-0.71162 -0.48689,-1.19851 -0.46816,-0.48689 -1.14235,-0.48689 h -8.314648 v 9.96285 q 0,0.63672 0.43073,1.08618 0.43072,0.44945 1.04871,0.44945 h 11.030088 v 3.9513 H 93.668182 q -1.49817,0 -2.73414,-0.73035 -1.23598,-0.74908 -1.96633,-1.98506 -0.73035,-1.25471 -0.73035,-2.75287 z m -57.940131,2.95887 q 0,-1.92886 0.936348,-3.50184 0.95508,-1.5730702 2.546879,-2.5094202 1.5918,-0.95508 3.520548,-0.95508 H 48.124782 V 26.629649 h -3.951301 v -15.44983 h -6.872765 q -1.254708,0 -2.153591,0.89888 -0.898883,0.88018 -0.898883,2.15359 v 5.35578 q 0,1.27344 0.898883,2.19105 0.898883,0.89889 2.153591,0.89889 h 4.625485 v 3.9513 h -4.625485 q -1.928863,0 -3.520548,-0.93635 -1.591799,-0.95508 -2.546879,-2.54688 -0.936348,-1.5918 -0.936348,-3.52055 z M 69.680462,-1.311884e-4 h 3.9513 V 14.663009 h 1.32961 l 7.02268,-7.4347302 h 5.13105 l -8.85791,9.4008902 9.64431,10.00025 h -5.52439 l -7.77168,-8.01511 h -0.97381 v 8.01511 h -3.9513 z M 49.574638,14.232259 q 0,-1.92886 0.973812,-3.52055 0.973812,-1.5918002 2.603042,-2.5281402 1.62924,-0.95508 3.61436,-0.95508 h 10.91787 v 3.9513002 h -10.91787 q -1.32961,0 -2.28469,0.91761 -0.95508,0.89889 -0.95508,2.19106 v 5.26226 q 0,1.29217 0.93635,2.20979 0.95508,0.91761 2.30342,0.91761 h 10.91787 v 3.9513 h -10.91787 q -1.98506,0 -3.61436,-0.95508 -1.62923,-0.95508 -2.603042,-2.54688 -0.973812,-1.6105 -0.973812,-3.53954 z M 19.14571,12.659189 q 0,-1.49816 0.749084,-2.7341402 0.767816,-1.23598 2.022524,-1.96633 1.27344,-0.73035 2.809043,-0.73035 h 4.325943 v 3.9326002 h -4.325943 q -0.674184,0 -1.161076,0.46816 -0.468159,0.44945 -0.468159,1.10488 v 13.89544 H 19.145825 Z M 8.7834717e-5,-1.011884e-4 H 3.9513888 V 22.678149 h 6.8727652 q 1.27344,0 2.153591,-0.89888 0.898883,-0.89889 0.898883,-2.15359 v -5.35578 q 0,-1.27344 -0.898883,-2.17233 -0.88018,-0.91761 -2.153591,-0.91761 H 6.1986688 V 7.2286588 h 4.6254852 q 1.928863,0 3.520547,0.95508 1.591801,0.93635 2.528148,2.5281502 0.95508,1.5918 0.95508,3.52054 v 5.43088 q 0,1.91016 -0.95508,3.50185 -0.936347,1.57307 -2.528148,2.52815 -1.591799,0.93634 -3.520547,0.93634 H 3.9513888 q -1.629235,0 -2.790311,-1.16107 Q 1.8347168e-6,24.307499 1.8347168e-6,22.678269 Z"
   stroke-width="0.287646"
   id="path1-0" /></svg>
