<svg width="684" height="80" version="1.1" viewBox="0 0 180.98 21.167" xml:space="preserve" xmlns="http://www.w3.org/2000/svg"><path d="m26.752 0.66146v2.158h3.7837v17.686h2.4944v-17.686h3.7837v-2.158h-10.062zm12.248 0v19.844h2.5228v-9.1653h6.9226v9.1653h2.5228v-19.844h-2.5228v8.4362h-6.9226v-8.4362h-2.5228zm16.341 0v19.844h2.5223v-19.844h-2.5223zm6.8947 0v19.844h2.4665v-8.8568h2.2981l3.3636 8.8568h2.6908l-3.7-9.3333c1.5135-0.33634 3.3352-1.8778 3.3352-5.101 0-3.9239-2.4384-5.4095-5.3253-5.4095h-5.1289zm13.79 0v19.844h4.5403c4.6806 0 7.4554-3.5036 7.4554-9.894 0-6.4184-2.7468-9.9498-7.4275-9.9498h-4.5682zm62.856 0c-4.2141 0-6.9608 4.1341-6.9608 9.9219 0 5.7344 2.6934 9.9219 6.9608 9.9219 2.3204 0 3.8408-1.0404 4.8276-2.5073l-1.8402-2.1601c-0.58678 0.90684-1.5202 1.6536-2.7471 1.6536-2.6138 0-3.8938-3.1207-3.8938-6.9081 0-3.8407 1.2801-6.9345 3.8406-6.9345 1.1736 0 2.1071 0.53335 2.8272 1.5735l1.8402-2.2407c-1.0135-1.4669-2.6941-2.3203-4.8545-2.3203zm-130.77 5.1676e-4 5.7779 2.9549v13.934l-5.7779 2.9538h12.723c1.641 0 2.9766-1.3356 2.9766-2.9766v-13.89c0-1.641-1.3356-2.9766-2.9766-2.9766h-12.723zm-5.2689 0.0025838c-0.4973 0.022446-0.98893 0.17107-1.4309 0.4439-0.88398 0.54666-1.4118 1.4934-1.4118 2.5332v13.883c0 1.0397 0.52782 1.9865 1.4118 2.5332 0.88399 0.54567 1.9663 0.59501 2.8959 0.12971l7.598-3.7987v-11.611l-7.598-3.7987v-0.0010335c-0.4648-0.23265-0.96772-0.33664-1.465-0.31419zm89.043 0.47697v18.884h5.6012c2.4271 0 5.3072-1.3334 5.3072-5.2808 0-2.8805-1.7066-4.2941-3.1202-4.6142v-0.053744c1.3069-0.53343 2.4805-1.8402 2.4805-4.1873 0-3.8941-3.014-4.7475-5.2545-4.7475h-5.0142zm13.843 0v18.884h3.0939v-8.0548h1.787l2.9337 8.0548h3.361l-3.3874-8.6951c1.3336-0.3734 2.9606-1.8669 2.9606-4.8007 0-3.7607-2.2403-5.3878-5.3609-5.3878h-5.3878zm16.51 0-4.6943 18.884h3.2008l0.96014-4.0008h4.9609l0.93328 4.0008h3.3342l-4.6142-18.884h-4.0809zm23.738 0v18.884h3.2008v-9.1752h0.08009l5.041 9.1752h3.7073l-5.8947-10.189 5.548-8.6951h-3.6008l-4.8008 8.1881h-0.08009v-8.1881h-3.2008zm14.136 0v18.884h8.722v-2.8541h-5.6544v-5.5743h4.9873v-2.6138h-4.9873v-5.0142h5.3873v-2.8272h-8.4548zm9.6552 0v2.7208h3.5476v16.163h3.1471v-16.163h3.5471v-2.7208h-10.242zm-105.06 1.65h2.2701c1.5976 0 3.2231 0.72888 3.2231 3.3915 0 2.2422-1.2608 3.5031-3.1667 3.5031h-2.3265v-6.8947zm13.818 0.084233h2.0459c2.8028 0 4.933 2.4942 4.933 7.7354 0 5.1571-2.1302 7.6796-4.933 7.6796h-2.0459v-15.415zm16.353 0.93276h1.7606c1.3603 0 2.6407 0.66708 2.6407 2.5874 0 1.9204-1.3072 2.667-2.5874 2.667h-1.8138v-5.2545zm13.95 0h1.8138c1.2802 0 2.6939 0.5872 2.6939 2.881 0 1.947-1.1469 2.9337-2.6939 2.9337h-1.8138v-5.8146zm15.336 0.34675h0.10697l2.0004 9.3617h-4.161l2.0536-9.3617zm-29.286 7.3081h1.9472c1.3336 0 2.9073 0.80002 2.9073 3.0138 0 1.9737-1.2803 2.881-2.8272 2.881h-2.0273v-5.8947z" stroke-width=".99212"/></svg>
