<?xml version="1.0" encoding="UTF-8" standalone="no"?>
<!-- Created with Inkscape (http://www.inkscape.org/) -->

<svg
   width="2438.3293"
   height="297.59906"
   viewBox="0 0 645.14129 78.739751"
   version="1.1"
   id="svg1"
   inkscape:version="1.3 (1:1.3+202307231459+0e150ed6c4)"
   sodipodi:docname="TEMP.svg"
   xml:space="preserve"
   xmlns:inkscape="http://www.inkscape.org/namespaces/inkscape"
   xmlns:sodipodi="http://sodipodi.sourceforge.net/DTD/sodipodi-0.dtd"
   xmlns="http://www.w3.org/2000/svg"
   xmlns:svg="http://www.w3.org/2000/svg"><sodipodi:namedview
     id="namedview1"
     pagecolor="#ffffff"
     bordercolor="#000000"
     borderopacity="0.25"
     inkscape:showpageshadow="2"
     inkscape:pageopacity="0.0"
     inkscape:pagecheckerboard="0"
     inkscape:deskcolor="#d1d1d1"
     inkscape:document-units="px"
     inkscape:zoom="0.01"
     inkscape:cx="-8100"
     inkscape:cy="1800"
     inkscape:window-width="1280"
     inkscape:window-height="656"
     inkscape:window-x="0"
     inkscape:window-y="27"
     inkscape:window-maximized="1"
     inkscape:current-layer="layer1" /><defs
     id="defs1" /><g
     inkscape:label="Layer 1"
     inkscape:groupmode="layer"
     id="layer1"
     transform="translate(5e-7,-6.932209)"><path
       id="text3-8"
       style="font-weight:600;font-size:105.833px;font-family:'Avenir Next LT Pro';-inkscape-font-specification:'Avenir Next LT Pro, Semi-Bold';stroke:#374151;stroke-width:0"
       d="m 338.75565,62.812034 c 0,-11.429964 -6.77331,-17.039113 -12.38246,-18.309109 v -0.211666 c 5.18581,-2.11666 9.84247,-7.302477 9.84247,-16.615781 0,-15.451618 -11.95913,-18.8382744 -20.8491,-18.8382744 H 295.46995 V 83.766968 h 22.22493 c 9.6308,0 21.06077,-5.29165 21.06077,-20.954934 z M 324.78569,29.686305 c 0,7.619976 -5.18581,10.5833 -10.2658,10.5833 h -7.19664 V 19.420504 h 6.98498 c 5.39748,0 10.47746,2.645825 10.47746,10.265801 z m 1.79916,32.067399 c 0,7.831642 -5.07998,11.429964 -11.21829,11.429964 h -8.04331 V 49.794575 h 7.72581 c 5.29165,0 11.53579,3.17499 11.53579,11.959129 z M 394.74121,83.766968 381.30042,49.26541 c 5.29165,-1.481662 11.74746,-7.40831 11.74746,-19.04994 0,-14.922453 -8.88997,-21.3782664 -21.27243,-21.3782664 H 350.39718 V 83.766968 h 12.27663 V 51.805402 h 7.09081 l 11.64163,31.961566 z m -14.18162,-52.9165 c 0,7.725809 -4.55082,11.64163 -10.68914,11.64163 h -7.19664 V 19.420504 h 7.19664 c 5.07999,0 10.68914,2.328326 10.68914,11.429964 z m 69.84962,52.9165 L 432.1001,8.8372036 H 415.90766 L 397.28105,83.766968 h 12.69996 l 3.80999,-15.87495 h 19.68493 l 3.70416,15.87495 z M 431.88844,57.943716 h -16.50995 l 8.14914,-37.147383 h 0.42333 z m 69.21459,17.779944 -7.30248,-8.572473 c -2.32833,3.598322 -6.03248,6.561646 -10.9008,6.561646 -10.37163,0 -15.45162,-12.382461 -15.45162,-27.410747 0,-15.239952 5.07999,-27.51658 15.23995,-27.51658 4.65666,0 8.36081,2.11666 11.2183,6.244147 l 7.30248,-8.889972 c -4.02165,-5.820815 -10.68913,-9.2074714 -19.26161,-9.2074714 -16.72161,0 -27.62241,16.4041154 -27.62241,39.3698764 0,22.754095 10.68913,39.369876 27.62241,39.369876 9.20747,0 15.23996,-4.127487 19.15578,-9.948302 z M 557.82934,83.766968 534.44025,43.338762 556.45351,8.8372036 H 542.16606 L 523.11612,41.327935 h -0.3175 V 8.8372036 H 510.09866 V 83.766968 h 12.69996 V 47.360416 h 0.3175 l 20.00244,36.406552 z m 42.96806,0 V 72.442837 H 578.36081 V 50.32374 h 19.79077 V 39.952106 H 578.36081 V 20.055502 h 21.37826 V 8.8372036 H 566.19001 V 83.766968 Z M 645.14131,19.63217 V 8.8372036 H 604.50144 V 19.63217 h 14.07579 v 64.134798 h 12.48829 V 19.63217 Z m -604.501438,0 V 8.8372036 H 0 V 19.63217 H 14.075789 V 83.766968 H 26.564083 V 19.63217 Z m 55.03307,64.134798 V 8.8372036 H 83.078815 V 39.211275 H 60.642219 V 8.8372036 H 48.048092 V 83.766968 H 60.642219 V 50.535406 h 22.436596 v 33.231562 z m 27.939898,0 V 8.8372036 H 110.91288 V 83.766968 Z m 59.58398,0 -13.44079,-34.501558 c 5.29165,-1.481662 11.74746,-7.40831 11.74746,-19.04994 0,-14.922453 -8.88997,-21.3782664 -21.27243,-21.3782664 H 138.85279 V 83.766968 h 12.27663 V 51.805402 h 7.09081 l 11.64163,31.961566 z m -14.18162,-52.9165 c 0,7.725809 -4.55082,11.64163 -10.68914,11.64163 h -7.19664 V 19.420504 h 7.19664 c 5.07999,0 10.68914,2.328326 10.68914,11.429964 z M 205.20434,8.4231856 c -3.66622,-1.83511 -7.935,-1.63944 -11.42121,0.51252 -3.48623,2.1559204 -5.56774,5.8886504 -5.56774,9.9891804 v 54.7544 c 0,4.10053 2.08152,7.83324 5.56774,9.98917 3.48621,2.15195 7.75499,2.34764 11.42121,0.51254 l 29.96353,-14.98177 V 23.408806 L 205.20434,8.4270556 Z m 65.17787,-1.24819 h -50.17654 l 22.7876,11.6520704 v 54.95398 l -22.7876,11.64812 h 50.17654 c 6.47163,0 11.73811,-5.26648 11.73811,-11.73817 v -54.77789 c 0,-6.47162 -5.26648,-11.7381104 -11.73811,-11.7381104 z" /></g></svg>
