<?xml version="1.0" encoding="UTF-8" standalone="no"?>
<!-- Created with Inkscape (http://www.inkscape.org/) -->

<svg
   width="2587.5903"
   height="297.59912"
   viewBox="0 0 684.63326 78.739767"
   version="1.1"
   id="svg1"
   inkscape:version="1.3 (1:1.3+202307231459+0e150ed6c4)"
   sodipodi:docname="TEMP.svg"
   xml:space="preserve"
   xmlns:inkscape="http://www.inkscape.org/namespaces/inkscape"
   xmlns:sodipodi="http://sodipodi.sourceforge.net/DTD/sodipodi-0.dtd"
   xmlns="http://www.w3.org/2000/svg"
   xmlns:svg="http://www.w3.org/2000/svg"><sodipodi:namedview
     id="namedview1"
     pagecolor="#ffffff"
     bordercolor="#000000"
     borderopacity="0.25"
     inkscape:showpageshadow="2"
     inkscape:pageopacity="0.0"
     inkscape:pagecheckerboard="0"
     inkscape:deskcolor="#d1d1d1"
     inkscape:document-units="px"
     inkscape:zoom="0.01"
     inkscape:cx="-8100"
     inkscape:cy="1800"
     inkscape:window-width="1280"
     inkscape:window-height="656"
     inkscape:window-x="0"
     inkscape:window-y="27"
     inkscape:window-maximized="1"
     inkscape:current-layer="layer1" /><defs
     id="defs1" /><g
     inkscape:label="Layer 1"
     inkscape:groupmode="layer"
     id="layer1"
     transform="translate(-36.310589,-139.69791)"><path
       id="text2-4"
       style="font-weight:600;font-size:105.833px;font-family:'Avenir Next LT Pro';-inkscape-font-specification:'Avenir Next LT Pro, Semi-Bold';stroke:#374151;stroke-width:0"
       d="m 414.55817,195.57773 c 0,-11.42997 -6.77331,-17.03911 -12.38246,-18.30911 v -0.21167 c 5.18582,-2.11666 9.84247,-7.30247 9.84247,-16.61578 0,-15.45162 -11.95913,-18.83827 -20.8491,-18.83827 h -19.89661 v 74.92976 h 22.22493 c 9.63081,0 21.06077,-5.29165 21.06077,-20.95493 z M 400.58821,162.452 c 0,7.61998 -5.18581,10.5833 -10.2658,10.5833 h -7.19664 v -20.8491 h 6.98498 c 5.39748,0 10.47746,2.64582 10.47746,10.2658 z m 1.79917,32.0674 c 0,7.83164 -5.07999,11.42996 -11.2183,11.42996 h -8.04331 v -23.38909 h 7.72581 c 5.29165,0 11.5358,3.17499 11.5358,11.95913 z m 68.15635,22.01326 -13.44079,-34.50156 c 5.29165,-1.48166 11.74746,-7.40831 11.74746,-19.04994 0,-14.92245 -8.88997,-21.37826 -21.27243,-21.37826 H 426.1997 v 74.92976 h 12.27663 V 184.5711 h 7.09081 l 11.64163,31.96156 z m -14.18162,-52.9165 c 0,7.72581 -4.55082,11.64163 -10.68913,11.64163 h -7.19665 V 152.1862 h 7.19665 c 5.07998,0 10.68913,2.32832 10.68913,11.42996 z m 69.84963,52.9165 -18.30911,-74.92976 h -16.19245 l -18.62661,74.92976 h 12.69996 l 3.80999,-15.87495 h 19.68494 l 3.70415,15.87495 z m -18.52078,-25.82325 h -16.50995 l 8.14914,-37.14738 h 0.42334 z m 69.21459,17.77994 -7.30248,-8.57247 c -2.32833,3.59832 -6.03248,6.56165 -10.9008,6.56165 -10.37163,0 -15.45162,-12.38246 -15.45162,-27.41075 0,-15.23995 5.07999,-27.51658 15.23996,-27.51658 4.65665,0 8.3608,2.11666 11.21829,6.24415 l 7.30248,-8.88997 c -4.02165,-5.82082 -10.68913,-9.20748 -19.26161,-9.20748 -16.72161,0 -27.62241,16.40412 -27.62241,39.36988 0,22.7541 10.68913,39.36988 27.62241,39.36988 9.20748,0 15.23996,-4.12749 19.15578,-9.94831 z m 56.72631,8.04331 -23.38909,-40.4282 22.01327,-34.50156 h -14.28746 l -19.04994,32.49073 h -0.3175 V 141.6029 h -12.69996 v 74.92976 h 12.69996 v -36.40655 h 0.3175 l 20.00244,36.40655 z m 42.96807,0 v -11.32413 h -22.4366 v -22.1191 H 673.9541 V 172.7178 h -19.79077 v -19.8966 h 21.37827 v -11.2183 h -33.54906 v 74.92976 z m 44.3439,-64.1348 V 141.6029 h -40.63987 v 10.79496 h 14.07579 v 64.1348 h 12.48829 v -64.1348 z m -546.3089,-4.44498 v -6.34998 h -36.1951 v 6.34998 h 14.39337 v 68.57978 h 7.30253 v -68.57978 z m 52.07003,68.57978 V 141.6029 h -7.40835 v 32.80823 H 190.6157 V 141.6029 h -7.40836 v 74.92976 h 7.40836 v -35.55989 h 28.68091 v 35.55989 z m 24.55331,0 V 141.6029 h -7.40831 v 74.92976 z m 55.56216,0 -14.60495,-35.98322 c 6.13831,-0.95249 13.44079,-6.45581 13.44079,-19.15577 0,-14.81662 -9.41914,-19.79077 -19.2616,-19.79077 h -17.99161 v 74.92976 h 7.30247 v -34.71322 h 9.63081 l 13.54662,34.71322 z m -8.3608,-54.82149 c 0,8.9958 -4.97415,14.28745 -12.91163,14.28745 h -9.84247 v -28.15157 h 9.52497 c 6.66748,0 13.22913,3.06915 13.22913,13.86412 z m 63.60562,17.46244 c 0,-24.65909 -10.5833,-37.57071 -27.09325,-37.57071 h -16.19245 v 74.92976 h 16.08662 c 16.50994,0 27.19908,-12.80579 27.19908,-37.35905 z m -7.30248,0 c 0,20.8491 -8.67831,30.90324 -20.00244,30.90324 h -8.6783 v -62.01814 h 8.6783 c 11.32413,0 20.00244,9.9483 20.00244,31.1149 z M 53.299541,141.18888 c -3.66622,-1.83511 -7.93499,-1.63944 -11.4212,0.51252 -3.48623,2.15592 -5.56775,5.88865 -5.56775,9.98918 v 54.7544 c 0,4.10053 2.08152,7.83324 5.56775,9.98917 3.48621,2.15195 7.75498,2.34764 11.4212,0.51254 l 29.96353,-14.98177 V 156.1745 l -29.96353,-14.98175 z m 65.177869,-1.24819 H 68.300881 l 22.7876,11.65207 v 54.95398 l -22.7876,11.64812 h 50.176529 c 6.47163,0 11.73812,-5.26648 11.73812,-11.73817 V 151.6788 c 0,-6.47162 -5.26649,-11.73811 -11.73812,-11.73811 z" /></g></svg>
