<?xml version="1.0" encoding="UTF-8" standalone="no"?>
<svg
   viewBox="0 0 800 600"
   version="1.1"
   id="svg74"
   sodipodi:docname="web.svg"
   width="800"
   height="600"
   inkscape:version="1.3 (1:1.3+202307231459+0e150ed6c4)"
   xmlns:inkscape="http://www.inkscape.org/namespaces/inkscape"
   xmlns:sodipodi="http://sodipodi.sourceforge.net/DTD/sodipodi-0.dtd"
   xmlns:xlink="http://www.w3.org/1999/xlink"
   xmlns="http://www.w3.org/2000/svg"
   xmlns:svg="http://www.w3.org/2000/svg">
  <defs
     id="defs74">
    <linearGradient
       id="linearGradient76"
       inkscape:collect="always">
      <stop
         style="stop-color:#bfcee2;stop-opacity:1;"
         offset="0"
         id="stop76" />
      <stop
         style="stop-color:#636e9f;stop-opacity:1;"
         offset="1"
         id="stop77" />
    </linearGradient>
    <linearGradient
       id="linearGradient74"
       inkscape:collect="always">
      <stop
         style="stop-color:#d7e2ee;stop-opacity:1;"
         offset="0"
         id="stop74" />
      <stop
         style="stop-color:#525b81;stop-opacity:1;"
         offset="1"
         id="stop75" />
    </linearGradient>
    <linearGradient
       inkscape:collect="always"
       xlink:href="#linearGradient74"
       id="linearGradient75"
       x1="43"
       y1="223.35501"
       x2="457"
       y2="223.35501"
       gradientUnits="userSpaceOnUse" />
    <linearGradient
       inkscape:collect="always"
       xlink:href="#linearGradient76"
       id="linearGradient77"
       x1="43"
       y1="223.35501"
       x2="457"
       y2="223.35501"
       gradientUnits="userSpaceOnUse" />
  </defs>
  <sodipodi:namedview
     id="namedview74"
     pagecolor="#ffffff"
     bordercolor="#000000"
     borderopacity="0.25"
     inkscape:showpageshadow="2"
     inkscape:pageopacity="0.0"
     inkscape:pagecheckerboard="0"
     inkscape:deskcolor="#d1d1d1"
     inkscape:zoom="0.6675088"
     inkscape:cx="389.50797"
     inkscape:cy="359.54582"
     inkscape:window-width="1280"
     inkscape:window-height="656"
     inkscape:window-x="0"
     inkscape:window-y="27"
     inkscape:window-maximized="1"
     inkscape:current-layer="svg74" />
  <rect
     style="font-variation-settings:'wdth' 75, 'wght' 324;display:none;fill:#ffffff;fill-opacity:1;stroke:#d7e2ee;stroke-width:2;stroke-linecap:round;stroke-linejoin:round;stroke-miterlimit:50;stroke-opacity:0.08"
     id="rect75"
     width="814.37225"
     height="628.73877"
     x="-10.500011"
     y="44.085388" />
  <g
     id="freepik--landing-page--inject-1"
     transform="matrix(1.3243529,0,0,1.3243529,68.911775,6.1128381)">
    <rect
       x="43"
       y="92.660004"
       width="414"
       height="261.39001"
       style="display:inline;fill:url(#linearGradient75);fill-opacity:0.503651"
       id="rect1" />
    <rect
       x="43"
       y="92.660004"
       width="414"
       height="261.39001"
       style="display:inline;opacity:0.6;fill:url(#linearGradient77);fill-opacity:1"
       id="rect2" />
    <path
       d="m 338,338.74 c -1.77,0 -3.57,0 -5.39,-0.11 -36,-1.5 -59.19,-16.59 -83.79,-32.56 -10.61,-6.89 -21.58,-14 -34.07,-20.43 -21.35,-11 -36.28,-5.91 -52.09,-0.56 -10.41,3.52 -21.16,7.16 -34.26,6.32 -15.07,-1 -26.29,-6.53 -33.34,-16.54 -10.9,-15.47 -9.6,-39 -4.76,-55.88 9.59,-33.39 32.32,-59.24 65.73,-74.74 31.89,-14.81 72.28,-19.82 116.78,-14.49 58.47,7 110,35.51 134.36,74.4 16.25,25.91 19.58,54.93 9.62,83.93 -11.12,32.39 -39.68,50.66 -78.79,50.66 z M 189.92,278.63 c 7.53,0 15.68,1.75 25.06,6.57 12.51,6.42 23.49,13.55 34.11,20.45 24.54,15.93 47.72,31 83.54,32.48 41.64,1.74 72.14,-16.57 83.69,-50.21 9.91,-28.86 6.6,-57.73 -9.58,-83.5 -24.32,-38.77 -75.67,-67.19 -134,-74.17 -93.29,-11.17 -163,22.88 -182,88.87 -4.81,16.76 -6.11,40.13 4.69,55.45 7,9.89 18,15.38 33,16.33 13,0.83 23.7,-2.79 34.06,-6.3 8.99,-3.03 17.69,-5.97 27.43,-5.97 z"
       style="opacity:0.3;fill:#ffffff"
       id="path4" />
    <path
       d="m 417.91,169.91 c 26,39.68 20.93,98.42 -29.05,132.82 -54.48,37.5 -106.36,27.75 -132.9,-11.32 -26.54,-39.07 -14.86,-88.83 26.82,-124.53 41.68,-35.7 107.62,-38.98 135.13,3.03 z"
       style="fill:#ffffff"
       id="path5" />
    <g
       style="opacity:0.5"
       id="g8">
      <rect
         x="71.019997"
         y="104.97"
         width="23.969999"
         height="3.2"
         rx="1.45"
         style="fill:#ce6691"
         id="rect5" />
      <rect
         x="118.95"
         y="104.97"
         width="23.969999"
         height="3.2"
         rx="1.45"
         style="fill:#ce6691"
         id="rect6" />
      <rect
         x="166.89"
         y="104.97"
         width="23.969999"
         height="3.2"
         rx="1.45"
         style="fill:#ce6691"
         id="rect7" />
      <rect
         x="214.83"
         y="104.97"
         width="23.969999"
         height="3.2"
         rx="1.45"
         style="fill:#ce6691"
         id="rect8" />
    </g>
    <rect
       x="390.78"
       y="104.97"
       width="43.540001"
       height="5.8200002"
       rx="2.6300001"
       style="fill:#ce6691"
       id="rect9" />
    <rect
       x="71.019997"
       y="151.86"
       width="124.16"
       height="12.15"
       rx="6.0700002"
       style="fill:#ffffff"
       id="rect10" />
    <rect
       x="71.019997"
       y="176.21001"
       width="153.75999"
       height="25.389999"
       rx="5.4200001"
       style="fill:#ffffff"
       id="rect11" />
    <rect
       x="71.019997"
       y="211.94"
       width="108.64"
       height="25.389999"
       rx="5.4200001"
       style="fill:#ffffff"
       id="rect12" />
    <path
       d="M 175.57,254.7 H 73.26 A 2.24,2.24 0 0 1 71,252.45 v 0 a 2.24,2.24 0 0 1 2.24,-2.24 h 102.33 a 2.24,2.24 0 0 1 2.24,2.24 v 0 a 2.24,2.24 0 0 1 -2.24,2.25 z"
       style="opacity:0.3;fill:#ce6691"
       id="path12" />
    <path
       d="m 144.23,263.36 h -71 A 2.24,2.24 0 0 1 71,261.12 v 0 a 2.24,2.24 0 0 1 2.24,-2.24 h 71 a 2.24,2.24 0 0 1 2.24,2.24 v 0 a 2.24,2.24 0 0 1 -2.25,2.24 z"
       style="opacity:0.3;fill:#ce6691"
       id="path13" />
    <rect
       x="71.019997"
       y="284.91"
       width="100.64"
       height="30.379999"
       rx="15.19"
       style="opacity:0.1;fill:#ce6691"
       id="rect13" />
    <path
       d="m 155.26,312.32 h -68 A 14.71,14.71 0 0 1 72.5,297.61 v 0 a 14.71,14.71 0 0 1 14.71,-14.7 h 68.05 a 14.71,14.71 0 0 1 14.74,14.7 v 0 a 14.71,14.71 0 0 1 -14.74,14.71 z"
       style="fill:#ce6691"
       id="path14" />
    <path
       d="M 138.17,301.51 H 104.3 a 3.9,3.9 0 0 1 -3.9,-3.9 v 0 a 3.9,3.9 0 0 1 3.9,-3.89 h 33.87 a 3.89,3.89 0 0 1 3.9,3.89 v 0 a 3.89,3.89 0 0 1 -3.9,3.9 z"
       style="opacity:0.4;fill:#ffffff"
       id="path15" />
    <path
       d="m 291.9,133 a 16,16 0 0 1 -28,14.1 15.74,15.74 0 0 0 8.12,0 16,16 0 0 0 8.42,-25.51 16,16 0 0 1 11.46,11.41 z"
       style="fill:#ffffff"
       id="path16" />
    <circle
       cx="437.17001"
       cy="179.89"
       r="0.88999999"
       style="opacity:0.6;fill:#ffffff"
       id="circle16" />
    <path
       d="m 371.42,132.18 a 0.89,0.89 0 1 1 -0.89,-0.89 0.89,0.89 0 0 1 0.89,0.89 z"
       style="opacity:0.6;fill:#ffffff"
       id="path17" />
    <circle
       cx="302.5"
       cy="145.57001"
       r="0.88999999"
       style="opacity:0.6;fill:#ffffff"
       id="circle17" />
    <circle
       cx="341.26001"
       cy="171.81"
       r="0.88999999"
       style="opacity:0.6;fill:#ce6691"
       id="circle18" />
    <path
       d="m 413.44,218.33 a 0.89,0.89 0 1 1 -0.89,-0.89 0.89,0.89 0 0 1 0.89,0.89 z"
       style="opacity:0.6;fill:#ce6691"
       id="path18" />
    <path
       d="m 328.55,127.94 c -2.63,0.89 -3.35,1.61 -4.24,4.24 -0.89,-2.63 -1.61,-3.35 -4.24,-4.24 2.63,-0.89 3.35,-1.61 4.24,-4.24 0.89,2.63 1.61,3.35 4.24,4.24 z"
       style="opacity:0.7;fill:#ffffff"
       id="path19" />
    <circle
       cx="418.97"
       cy="144.69"
       r="2.71"
       style="opacity:0.7;fill:#ffffff"
       id="circle19" />
    <path
       d="m 250.92,157.93 a 3.41,3.41 0 0 0 -2.71,2.71 3.41,3.41 0 0 0 -2.71,-2.71 3.41,3.41 0 0 0 2.71,-2.71 3.41,3.41 0 0 0 2.71,2.71 z"
       style="opacity:0.7;fill:#ffffff"
       id="path20" />
    <path
       d="m 313.68,172.39 c -2.08,0.7 -2.64,1.27 -3.35,3.35 -0.7,-2.08 -1.27,-2.65 -3.35,-3.35 2.08,-0.7 2.65,-1.27 3.35,-3.35 0.67,2.08 1.27,2.65 3.35,3.35 z"
       style="opacity:0.7;fill:#ce6691"
       id="path21" />
    <circle
       cx="346.51999"
       cy="145.57001"
       r="1.5700001"
       style="opacity:0.7;fill:#ce6691"
       id="circle21" />
    <path
       d="m 382.11,241.7 c 0.4,-1.47 7.13,-0.92 15,1.23 7.87,2.15 14,5.1 13.58,6.57 l 8.31,2.27 c 0.64,-2.32 -9,-7 -21.47,-10.38 -12.47,-3.38 -23.13,-4.29 -23.76,-2 z"
       style="fill:#ce6691"
       id="path22" />
    <path
       d="m 385.79,238.82 a 108.31,108.31 0 0 1 11.77,2.57 112.74,112.74 0 0 1 11.44,3.76 13.31,13.31 0 0 1 0.07,2.45 48.58,48.58 0 0 0 -11.95,-4.67 c -5.22,-1.42 -9.94,-2.15 -12.65,-2.05 a 12.14,12.14 0 0 1 1.32,-2.06 z"
       style="opacity:0.2"
       id="path23" />
    <circle
       cx="396.42001"
       cy="245.60001"
       r="11.37"
       transform="rotate(-23.26,396.37125,245.5941)"
       style="fill:#ce6691"
       id="circle23" />
    <circle
       cx="396.42001"
       cy="245.60001"
       r="11.37"
       style="opacity:0.4;fill:#ffffff"
       id="circle24" />
    <path
       d="m 387.49,242.32 c 0.09,2.16 1.74,3.2 3.68,2.34 a 6.15,6.15 0 0 0 3.33,-5.48 c -0.09,-2.16 -1.74,-3.21 -3.67,-2.34 a 6.14,6.14 0 0 0 -3.34,5.48 z"
       style="opacity:0.1;fill:#ffffff"
       id="path24" />
    <path
       d="m 398.36,240.85 a 1.49,1.49 0 1 0 0.88,-1.9 1.49,1.49 0 0 0 -0.88,1.9 z"
       style="opacity:0.1;fill:#ffffff"
       id="path25" />
    <path
       d="m 401.09,253 a 1.26,1.26 0 0 0 1.62,0.76 1.27,1.27 0 0 0 -0.87,-2.38 1.25,1.25 0 0 0 -0.75,1.62 z"
       style="opacity:0.1;fill:#ffffff"
       id="path26" />
    <path
       d="m 395.4,249.32 a 58.2,58.2 0 0 0 10.84,2 10.55,10.55 0 0 1 -1.31,1.79 c -3,-0.54 -6.43,-1.3 -9.95,-2.26 -3.52,-0.96 -6.83,-2 -9.73,-3.11 a 10.13,10.13 0 0 1 -0.21,-2.2 59.42,59.42 0 0 0 10.36,3.78 z"
       style="opacity:0.5;fill:#ce6691"
       id="path27" />
    <path
       d="m 382.11,241.7 c -0.41,1.47 5.67,4.41 13.57,6.57 7.9,2.16 14.64,2.7 15,1.23 l 8.31,2.27 c -0.63,2.33 -11.27,1.45 -23.77,-2 -12.5,-3.45 -22.1,-8.05 -21.46,-10.38 z"
       style="fill:#ce6691"
       id="path28" />
    <path
       d="m 223.34,283 -10.9,18 17.33,-4.85 17.33,-4.84 -21.14,-9 a 2.06,2.06 0 0 0 -2.62,0.69 z"
       style="fill:#ce6691"
       id="path29" />
    <path
       d="m 223.34,283 -10.9,18 17.33,-4.85 17.33,-4.84 -21.14,-9 a 2.06,2.06 0 0 0 -2.62,0.69 z"
       style="opacity:0.5;fill:#ffffff"
       id="path30" />
    <path
       d="m 255,314.46 -33,9.23 a 1.71,1.71 0 0 1 -2,-1.07 l -7.87,-20.73 A 1.37,1.37 0 0 1 213,300 l 33,-9.22 a 1.7,1.7 0 0 1 2,1.07 l 7.87,20.73 a 1.36,1.36 0 0 1 -0.87,1.88 z"
       style="fill:#ce6691"
       id="path31" />
    <path
       d="m 255,314.46 -33,9.23 a 1.71,1.71 0 0 1 -2,-1.07 l -7.87,-20.73 A 1.37,1.37 0 0 1 213,300 l 33,-9.22 a 1.7,1.7 0 0 1 2,1.07 l 7.87,20.73 a 1.36,1.36 0 0 1 -0.87,1.88 z"
       style="opacity:0.3;fill:#ffffff"
       id="path32" />
    <path
       d="m 234.72,310.5 -19.95,-9.62 a 0.72,0.72 0 0 1 0,-1.35 l 14.73,-4.12 14.74,-4.12 a 0.8,0.8 0 0 1 0.92,1.1 l -9.52,17.86 a 0.68,0.68 0 0 1 -0.92,0.25 z"
       style="opacity:0.2;fill:#ce6691"
       id="path33" />
    <path
       d="m 235.17,305.86 a 2.59,2.59 0 0 0 -3.43,1 l -9.74,16.83 33,-9.23 z"
       style="fill:#263238"
       id="path34" />
    <path
       d="m 234.19,305.71 -12.21,18 16.5,-4.61 L 255,314.46 236.69,305 a 2,2 0 0 0 -2.5,0.71 z"
       style="fill:#ce6691"
       id="path35" />
    <path
       d="m 236.69,305 a 2,2 0 0 0 -2.5,0.7 l -12.21,18 33,-9.23 z"
       style="opacity:0.12;fill:#ffffff"
       id="path36" />
  </g>
  <g
     id="freepik--Character--inject-1"
     transform="translate(133.7074,99.14715)">
    <path
       d="m 272.22,174.05 c 3.33,-3.59 8.34,4.82 8.34,4.82 0,0 3.28,1.2 0.21,3.83 -9.55,-4.29 -8.55,-8.65 -8.55,-8.65 z"
       style="fill:#263238"
       id="path37" />
    <path
       d="m 301.53,292.9 c -7.6,-12.93 48,-24.16 48.61,-35.23 -8.48,-16.63 -23.07,-36 -23.07,-36 l -48.34,21.27 c 0,0 8.63,43.71 22.8,49.96 z"
       id="path38" />
    <path
       d="m 315.3,272.78 15.21,-24.12 c 0,0 51,37.34 55,45.38 4,8.04 5.5,73.43 5.5,73.43 l -9.59,-0.2 c 0,0 -12.22,-33 -12.92,-62.62 C 339.3,292 315.3,272.78 315.3,272.78 Z"
       style="fill:#263238"
       id="path39" />
    <path
       d="m 338.62,279.38 a 19.76,19.76 0 0 0 1.76,10.62 c -3.68,-2.23 -7.05,-4.4 -10.06,-6.4 l -0.49,-0.91 z"
       id="path40" />
    <path
       d="m 400.57,380.61 c 0,0 -11.12,-8.27 -11.44,-13.86 l -8,0.55 -1.65,8.58 4.26,1.5 0.87,-1 0.86,1.64 c 3.45,1.21 12.67,4.31 15.11,4.29 a 1.7,1.7 0 0 0 -0.01,-1.7 z"
       style="fill:#263238"
       id="path41" />
    <polygon
       points="391.51,369.73 380.28,369.07 379.45,364.15 392.06,364.06 "
       style="fill:#ce6691"
       id="polygon41" />
    <path
       d="m 302.23,271.45 26.6,-10.26 c 0,0 18.55,60.39 17,69.25 -1.55,8.86 -39.47,62.17 -39.47,62.17 l -7.56,-5.89 c 0,0 9.92,-33.78 27,-57.93 -15.8,-27.57 -23.57,-57.34 -23.57,-57.34 z"
       style="fill:#263238"
       id="path42" />
    <path
       d="m 306.18,408.86 c 0,0 -4,-13.28 -0.89,-17.95 l -6.74,-4.32 -6.45,5.89 2.52,3.75 1.31,-0.31 -0.29,1.83 c 2,3 7.58,11 9.55,12.48 a 1.71,1.71 0 0 0 0.99,-1.37 z"
       style="fill:#263238"
       id="path43" />
    <polygon
       points="305.41,394.72 296.8,387.49 299.07,383.04 309.24,390.51 "
       style="fill:#ce6691"
       id="polygon43" />
    <path
       d="m 310.61,198.49 c 2.28,1.44 4.77,3 7.18,4.46 2.41,1.46 4.88,2.9 7.32,4.28 2.44,1.38 4.9,2.65 7.32,3.79 a 40.65,40.65 0 0 0 6.83,2.57 l -2.5,0.07 a 3.79,3.79 0 0 0 1.41,-0.42 17.41,17.41 0 0 0 2.34,-1.24 c 1.63,-1 3.37,-2.22 5.06,-3.53 1.69,-1.31 3.43,-2.67 5.14,-4.07 l 5.16,-4.23 0.07,-0.06 a 3.67,3.67 0 0 1 5.53,4.65 71.08,71.08 0 0 1 -3.87,6 c -1.39,1.94 -2.86,3.83 -4.45,5.67 a 52.54,52.54 0 0 1 -5.31,5.36 31.66,31.66 0 0 1 -3.36,2.54 16.7,16.7 0 0 1 -4.87,2.21 5.14,5.14 0 0 1 -2,0.13 l -0.48,-0.07 a 44.91,44.91 0 0 1 -10.06,-2.72 c -1.52,-0.58 -3,-1.2 -4.45,-1.83 -1.45,-0.63 -2.85,-1.33 -4.25,-2 -2.79,-1.39 -5.48,-2.89 -8.13,-4.44 -2.65,-1.55 -5.19,-3.17 -7.82,-5 a 7.32,7.32 0 0 1 8.08,-12.19 z"
       style="fill:#263238"
       id="path44" />
    <path
       d="m 360.15,204 c 3.63,0.26 6.55,-5.83 6.55,-5.83 l 2.41,-3.41 a 2.89,2.89 0 0 0 -0.34,-3.73 l -2.53,-2.5 a 2.9,2.9 0 0 0 -4.14,0.08 l -2.84,3 a 5.31,5.31 0 0 0 -1.13,1.88 l -1,2.85 a 6.66,6.66 0 0 0 1.68,6.93 l 0.24,0.23 a 1.66,1.66 0 0 0 1.1,0.5 z"
       style="fill:#ffb573"
       id="path45" />
    <path
       d="m 353.49,201.38 c 0,0 0.87,-2 1.57,-3.36 2.25,-0.39 7.85,4.32 8.58,6.31 -0.49,1.07 -3.22,3.21 -3.22,3.21 -1.71,-1.92 -5.6,-4.81 -6.93,-6.16 z"
       style="fill:#e0e0e0"
       id="path46" />
    <path
       d="m 271.45,217 c 8.13,-6.18 20.72,-13.36 30,-16.78 a 11.77,11.77 0 0 1 13.18,3.78 c 9.13,11.66 16.58,28.71 28.41,51.68 -15.36,17.7 -39.47,22.8 -39.47,22.8 -3.31,-4.1 -6.41,-13.76 -9.93,-22.24 -6.3,-7.22 -15.07,-14.58 -23.56,-24.09 A 10.22,10.22 0 0 1 271.45,217 Z"
       style="fill:#ffffff"
       id="path47" />
    <path
       d="m 329.83,262.28 a 0.49,0.49 0 0 1 -0.46,-0.32 c -8.21,-20.66 -30.74,-45.24 -35.33,-48.42 a 0.5,0.5 0 0 1 0.56,-0.82 c 4.65,3.21 27.42,28 35.7,48.87 a 0.51,0.51 0 0 1 -0.28,0.65 0.43,0.43 0 0 1 -0.19,0.04 z"
       style="fill:#e6e6e6"
       id="path48" />
    <path
       d="m 278,212.44 c 17.12,8.87 9.38,62.18 36.17,85.56 -15.78,-0.09 -26.79,-11.35 -26.79,-11.35 0,0 -10,-43.39 -19.95,-56 -6.06,-7.65 2.51,-14.14 10.57,-18.21 z"
       style="fill:#263238"
       id="path49" />
    <path
       d="m 293.94,203.7 c 8.83,3.35 57,46.58 58.06,71 4.81,-17.4 -3.29,-32 -3.29,-32 0,0 -16.25,-18.23 -23.35,-27.9 -7.1,-9.67 -15.48,-19 -22.1,-16.91 -8.47,2.59 -9.32,5.81 -9.32,5.81 z"
       style="fill:#263238"
       id="path50" />
    <path
       d="m 270.4,195.21 14.73,2.39 c 0.71,4.19 2.38,8 8.81,6.1 2.49,1.05 1.25,4.62 -0.52,7 -4,1.72 -10.07,3.55 -14.19,1.73 -0.72,-2.95 -4.91,-12.7 -8.83,-17.22 z"
       style="fill:#ffb573"
       id="path51" />
    <path
       d="m 294.6,207.2 a 8.8,8.8 0 0 1 -0.25,4.33 c -1.53,0.88 -4.75,0.45 -4.75,0.45 0,0 -0.54,-2.91 0.38,-4.1 3.53,-1.04 4.62,-0.68 4.62,-0.68 z"
       style="fill:#ce6691"
       id="path52" />
    <path
       d="m 291.82,211.42 a 4.25,4.25 0 0 1 1.31,-2.1 c 8.16,7.54 27.94,12.12 32.65,15.67 2.26,1.56 6.33,5.6 6.28,10.72 -4.41,-3.72 -10,-2.43 -12.6,-4.47 -7.3,-7.03 -23.61,-12.36 -27.64,-19.82 z"
       style="fill:#ce6691"
       id="path53" />
    <path
       d="m 276.54,196.21 8.59,1.39 a 14.54,14.54 0 0 0 0.73,2.87 c -2.16,1.47 -6.62,1 -8,-1 a 9.89,9.89 0 0 1 -1.32,-3.26 z"
       style="opacity:0.2"
       id="path54" />
    <path
       d="m 264.83,193.63 c 5.64,4.66 8.7,7.68 13.94,7.53 7.88,-0.24 11.55,-9.17 7.41,-15.44 -3.73,-5.65 -12.32,-12.33 -19.29,-9.05 a 10.09,10.09 0 0 0 -2.06,16.96 z"
       style="fill:#ffb573"
       id="path55" />
    <path
       d="m 267.5,195.85 c 3.39,-3 1.51,-5.89 -0.33,-5.53 1.61,-2.19 -1.72,-5.86 -4.37,-5.31 4.24,-3 12.49,-6.54 11.15,-12.57 -1.25,-5.66 -11.91,-5.31 -11.65,1.85 1.79,-0.61 2.21,2.13 -3,4.36 -8.4,3.6 -7.58,9.77 -3.21,10.21 -3.24,1.99 3.6,8.73 11.41,6.99 z"
       style="fill:#263238"
       id="path56" />
    <path
       d="m 271.88,178.53 c 3.15,-4.41 2.79,-8 2.35,-9.95 2.35,3.87 0.89,8.48 -2.35,9.95 z"
       style="fill:#263238"
       id="path57" />
    <path
       d="m 250.92,188.17 c 5.32,1.06 8.41,-0.72 10.05,-1.94 -2.57,3.77 -7.37,4.29 -10.05,1.94 z"
       style="fill:#263238"
       id="path58" />
    <path
       d="m 266.06,198.62 a 6.27,6.27 0 0 0 4.75,0.89 c 2.18,-0.47 2.24,-2.68 0.78,-4.2 -1.32,-1.36 -4,-2.76 -5.81,-1.48 a 2.87,2.87 0 0 0 0.28,4.79 z"
       style="fill:#ffb573"
       id="path59" />
    <path
       d="m 272.55,187 c 0.43,0.4 1,0.5 1.26,0.22 0.26,-0.28 0.13,-0.85 -0.31,-1.26 -0.44,-0.41 -1,-0.5 -1.26,-0.22 -0.26,0.28 -0.13,0.86 0.31,1.26 z"
       style="fill:#263238"
       id="path60" />
    <path
       d="m 277.69,182.12 c 0.44,0.41 1,0.51 1.27,0.22 0.27,-0.29 0.12,-0.85 -0.31,-1.25 -0.43,-0.4 -1,-0.51 -1.27,-0.22 -0.27,0.29 -0.12,0.85 0.31,1.25 z"
       style="fill:#263238"
       id="path61" />
    <path
       d="m 277.16,183.68 a 20.89,20.89 0 0 0 5.64,1.38 3.46,3.46 0 0 1 -1.54,2.46 z"
       style="fill:#ed893e"
       id="path62" />
    <path
       d="m 270.07,186.85 a 0.3,0.3 0 0 1 -0.14,0.1 0.35,0.35 0 0 1 -0.45,-0.21 3.52,3.52 0 0 1 0.31,-3.19 0.35,0.35 0 0 1 0.56,0.42 v 0 a 2.83,2.83 0 0 0 -0.22,2.53 0.34,0.34 0 0 1 -0.06,0.35 z"
       style="fill:#263238"
       id="path63" />
    <path
       d="m 278.62,178.23 a 0.36,0.36 0 0 1 -0.27,0.19 2.72,2.72 0 0 0 -2.16,1.29 0.35,0.35 0 0 1 -0.47,0.14 0.35,0.35 0 0 1 -0.15,-0.47 3.41,3.41 0 0 1 2.71,-1.66 0.35,0.35 0 0 1 0.34,0.51 z"
       style="fill:#263238"
       id="path64" />
    <path
       d="m 279.05,211.75 c 0,0 -0.21,-0.62 -0.2,-0.62 -0.47,0 -2.21,1.58 -1.35,2.46 2.94,2.92 10.41,2.71 13.43,1.82 -0.95,-0.89 -1.39,-5.78 -1,-7.52 -2.41,1.59 -5.57,2.81 -10.88,3.86 z"
       style="fill:#e6e6e6"
       id="path65" />
    <path
       d="m 290,207.88 a 11.45,11.45 0 0 1 8.44,2.35 c 0.78,-1.26 -0.31,-3.77 -0.79,-4.54 -1.5,-2.59 -3.12,-3.89 -5.85,-1.54 -0.17,1.09 0.71,2.07 -1.8,3.73 z"
       style="fill:#e6e6e6"
       id="path66" />
    <path
       d="M 279.21,228.82 275,234.6 c -1.39,2 -2.74,3.92 -4.05,5.87 -1.31,1.95 -2.54,3.93 -3.64,5.84 -0.55,1 -1,1.91 -1.46,2.81 a 18.32,18.32 0 0 0 -1,2.37 13.87,13.87 0 0 0 -0.3,5 43.34,43.34 0 0 0 1.16,6.45 131.92,131.92 0 0 0 4.34,13.54 l 0.06,0.18 a 3.66,3.66 0 0 1 -6.24,3.6 58.5,58.5 0 0 1 -4.7,-6.48 64.24,64.24 0 0 1 -3.88,-7.08 44.14,44.14 0 0 1 -2.87,-8 24.32,24.32 0 0 1 -0.58,-9.92 29.09,29.09 0 0 1 1.29,-4.78 c 0.52,-1.43 1.08,-2.76 1.67,-4 a 76.72,76.72 0 0 1 3.83,-7.21 c 1.35,-2.29 2.79,-4.49 4.27,-6.64 1.48,-2.15 3,-4.21 4.74,-6.34 a 7.32,7.32 0 0 1 11.61,8.89 z"
       style="fill:#263238"
       id="path67" />
    <path
       d="m 263.36,278.51 a 1.77,1.77 0 0 1 0.9,-0.74 l 3.24,-1.22 a 1.76,1.76 0 0 1 1.82,0.38 l 2.11,2 a 19.79,19.79 0 0 1 4.66,7 l 0.35,0.88 a 2.91,2.91 0 0 1 -1.71,3.77 l -3.34,1.22 a 2.89,2.89 0 0 1 -3.52,-1.3 l -2.05,-3.64 c 0,0 -4.25,-5.18 -2.46,-8.35 z"
       style="fill:#ffb573"
       id="path68" />
    <path
       d="m 269.55,275.42 a 13.41,13.41 0 0 1 2.82,2.93 c -0.91,2.09 -7.93,4.15 -10,3.67 -0.63,-1 -0.9,-4.46 -0.9,-4.46 2.53,-0.36 6.22,-1.77 8.08,-2.14 z"
       style="fill:#e0e0e0"
       id="path69" />
    <path
       d="m 280.67,190.94 a 7.55,7.55 0 0 0 0.8,-0.8 0.18,0.18 0 0 0 0,-0.27 0.21,0.21 0 0 0 -0.29,0 5.72,5.72 0 0 1 -4.51,2.07 0.2,0.2 0 0 0 -0.22,0.18 0.21,0.21 0 0 0 0.19,0.21 6.13,6.13 0 0 0 4.03,-1.39 z"
       style="fill:#263238"
       id="path70" />
    <path
       d="m 365.79,185.05 46.73,-17.53 a 1.24,1.24 0 0 0 0.64,-1.87 l -15.29,-26 a 1.89,1.89 0 0 0 -2.21,-0.79 l -46.73,17.53 a 1.25,1.25 0 0 0 -0.64,1.87 l 15.29,26 a 1.89,1.89 0 0 0 2.21,0.79 z"
       style="fill:#ce6691"
       id="path71" />
    <path
       d="m 363.37,221 46.73,-17.53 a 2.81,2.81 0 0 0 1.57,-2.22 l 2.81,-32.82 c 0.08,-0.93 -0.49,-1.44 -1.28,-1.15 l -46.73,17.52 a 2.79,2.79 0 0 0 -1.57,2.2 l -2.81,32.83 c -0.09,0.93 0.5,1.45 1.28,1.17 z"
       style="fill:#ce6691"
       id="path72" />
    <path
       d="m 366.56,188.1 a 2.82,2.82 0 0 1 1.58,-2.21 l 44.69,-16.78 a 1.11,1.11 0 0 1 1.49,1.13 l -2.65,31 a 2.77,2.77 0 0 1 -1.57,2.22 l -44.7,16.77 a 1.1,1.1 0 0 1 -1.49,-1.13 z"
       style="opacity:0.2"
       id="path73" />
    <g
       style="opacity:0.3"
       id="g74">
      <circle
         cx="270.78"
         cy="187.75"
         r="23.540001"
         transform="rotate(-57.46,270.7565,187.74226)"
         style="fill:#ce6691"
         id="circle73" />
      <ellipse
         cx="255.2"
         cy="187.23"
         rx="10.59"
         ry="6.79"
         transform="rotate(-84.9,255.21495,187.22902)"
         style="opacity:0.4;fill:#ffffff"
         id="ellipse73" />
      <path
         d="m 265.35,193.39 c -1,-0.56 -2.53,0.21 -3.34,1.72 -0.81,1.51 -0.64,3.19 0.39,3.75 1.03,0.56 2.53,-0.22 3.35,-1.73 0.82,-1.51 0.64,-3.13 -0.4,-3.74 z"
         style="opacity:0.4;fill:#ffffff"
         id="path74" />
    </g>
  </g>
</svg>
