<?xml version="1.0" encoding="utf-8"?>
<!-- Generator: Adobe Illustrator 27.5.0, SVG Export Plug-In . SVG Version: 6.00 Build 0)  -->
<svg version="1.1" xmlns="http://www.w3.org/2000/svg" xmlns:xlink="http://www.w3.org/1999/xlink" x="0px" y="0px"
	 viewBox="0 0 750 500" style="enable-background:new 0 0 750 500;" xml:space="preserve">
<g id="Background_Simple">
	<g>
		<path style="fill:#92E3A9;" d="M735.73,201.028c3.286-84.433-54.05-158.635-135.54-175.004
			C551.474,16.24,491.694,8.649,439.923,14.969c-109.759,13.399-44.781,17.865-34.245,18.758
			c10.537,0.893,52.684,11.612-0.878,15.185c-53.562,3.573-105.368-21.438-177.37-28.584
			c-72.002-7.146-160.687,3.573-192.297,74.139C3.523,165.033,4.401,318.67,24.597,381.197s37.757-48.235,50.928-28.584
			c13.171,19.651,66.733,100.043,203.712,119.694s365.277-16.078,397.765-44.662c32.489-28.584,17.561-10.719,23.708,3.573
			c6.146,14.292,27.22-26.797,30.732-115.228C732.946,278.135,734.008,245.255,735.73,201.028z"/>
		<path style="opacity:0.7;fill:#FFFFFF;" d="M735.73,201.028c3.286-84.433-54.05-158.635-135.54-175.004
			C551.474,16.24,491.694,8.649,439.923,14.969c-109.759,13.399-44.781,17.865-34.245,18.758
			c10.537,0.893,52.684,11.612-0.878,15.185c-53.562,3.573-105.368-21.438-177.37-28.584
			c-72.002-7.146-160.687,3.573-192.297,74.139C3.523,165.033,4.401,318.67,24.597,381.197s37.757-48.235,50.928-28.584
			c13.171,19.651,66.733,100.043,203.712,119.694s365.277-16.078,397.765-44.662c32.489-28.584,17.561-10.719,23.708,3.573
			c6.146,14.292,27.22-26.797,30.732-115.228C732.946,278.135,734.008,245.255,735.73,201.028z"/>
	</g>
</g>
<g id="Floor">
	
		<line style="fill:none;stroke:#263238;stroke-linecap:round;stroke-linejoin:round;stroke-miterlimit:10;" x1="26.631" y1="454.416" x2="731.398" y2="454.416"/>
</g>
<g id="Graphics">
	<g>
		
			<rect x="702.112" y="211.483" transform="matrix(0.7071 -0.7071 0.7071 0.7071 53.0068 565.8865)" style="fill:none;stroke:#9C9C9C;stroke-linecap:round;stroke-linejoin:round;stroke-miterlimit:10;" width="14.951" height="14.951"/>
		
			<rect x="49.14" y="79.336" transform="matrix(0.7071 -0.7071 0.7071 0.7071 -44.8028 65.4601)" style="fill:none;stroke:#9C9C9C;stroke-linecap:round;stroke-linejoin:round;stroke-miterlimit:10;" width="14.951" height="14.951"/>
		
			<rect x="437.425" y="364.708" transform="matrix(0.7071 -0.7071 0.7071 0.7071 -132.1425 421.8631)" style="fill:none;stroke:#9C9C9C;stroke-linecap:round;stroke-linejoin:round;stroke-miterlimit:10;" width="11.465" height="11.465"/>
		
			<rect x="443.312" y="40.451" transform="matrix(0.7071 -0.7071 0.7071 0.7071 98.8651 331.0489)" style="fill:none;stroke:#9C9C9C;stroke-linecap:round;stroke-linejoin:round;stroke-miterlimit:10;" width="11.465" height="11.465"/>
		
			<rect x="25.316" y="263.507" transform="matrix(0.7071 -0.7071 0.7071 0.7071 -181.2873 100.813)" style="fill:none;stroke:#9C9C9C;stroke-linecap:round;stroke-linejoin:round;stroke-miterlimit:10;" width="11.465" height="11.465"/>
		
			<rect x="33.142" y="65.147" transform="matrix(0.7071 -0.7071 0.7071 0.7071 -38.7332 48.2483)" style="fill:none;stroke:#9C9C9C;stroke-linecap:round;stroke-linejoin:round;stroke-miterlimit:10;" width="11.465" height="11.465"/>
		
			<rect x="322.411" y="427.519" transform="matrix(0.7071 -0.7071 0.7071 0.7071 -210.2438 358.9291)" style="fill:none;stroke:#9C9C9C;stroke-linecap:round;stroke-linejoin:round;stroke-miterlimit:10;" width="11.465" height="11.465"/>
		
			<rect x="713.556" y="197.293" transform="matrix(0.7071 -0.7071 0.7071 0.7071 67.1138 568.0786)" style="fill:none;stroke:#9C9C9C;stroke-linecap:round;stroke-linejoin:round;stroke-miterlimit:10;" width="11.465" height="11.465"/>
		
			<rect x="714.493" y="379.44" transform="matrix(0.7071 -0.7071 0.7071 0.7071 -61.409 622.0909)" style="fill:none;stroke:#9C9C9C;stroke-linecap:round;stroke-linejoin:round;stroke-miterlimit:10;" width="11.465" height="11.465"/>
		<g>
			
				<line style="fill:none;stroke:#9C9C9C;stroke-linecap:round;stroke-linejoin:round;stroke-miterlimit:10;" x1="716.383" y1="68.453" x2="716.383" y2="85.021"/>
			
				<line style="fill:none;stroke:#9C9C9C;stroke-linecap:round;stroke-linejoin:round;stroke-miterlimit:10;" x1="708.099" y1="76.737" x2="724.667" y2="76.737"/>
		</g>
		<g>
			
				<line style="fill:none;stroke:#9C9C9C;stroke-linecap:round;stroke-linejoin:round;stroke-miterlimit:10;" x1="55.416" y1="117.74" x2="55.416" y2="134.307"/>
			
				<line style="fill:none;stroke:#9C9C9C;stroke-linecap:round;stroke-linejoin:round;stroke-miterlimit:10;" x1="47.132" y1="126.024" x2="63.7" y2="126.024"/>
		</g>
		<g>
			
				<line style="fill:none;stroke:#9C9C9C;stroke-linecap:round;stroke-linejoin:round;stroke-miterlimit:10;" x1="710.76" y1="313.148" x2="710.76" y2="338.921"/>
			
				<line style="fill:none;stroke:#9C9C9C;stroke-linecap:round;stroke-linejoin:round;stroke-miterlimit:10;" x1="697.873" y1="326.035" x2="723.646" y2="326.035"/>
		</g>
		<g>
			
				<line style="fill:none;stroke:#9C9C9C;stroke-linecap:round;stroke-linejoin:round;stroke-miterlimit:10;" x1="427.982" y1="304.739" x2="446.207" y2="322.963"/>
			
				<line style="fill:none;stroke:#9C9C9C;stroke-linecap:round;stroke-linejoin:round;stroke-miterlimit:10;" x1="427.982" y1="322.963" x2="446.207" y2="304.739"/>
		</g>
		<g>
			
				<line style="fill:none;stroke:#9C9C9C;stroke-linecap:round;stroke-linejoin:round;stroke-miterlimit:10;" x1="24.045" y1="413.898" x2="37.14" y2="426.993"/>
			
				<line style="fill:none;stroke:#9C9C9C;stroke-linecap:round;stroke-linejoin:round;stroke-miterlimit:10;" x1="24.045" y1="426.993" x2="37.14" y2="413.898"/>
		</g>
		<g>
			
				<line style="fill:none;stroke:#9C9C9C;stroke-linecap:round;stroke-linejoin:round;stroke-miterlimit:10;" x1="338.01" y1="25.893" x2="351.105" y2="38.989"/>
			
				<line style="fill:none;stroke:#9C9C9C;stroke-linecap:round;stroke-linejoin:round;stroke-miterlimit:10;" x1="338.01" y1="38.989" x2="351.105" y2="25.893"/>
		</g>
	</g>
</g>
<g id="Arrow">
	<polygon style="fill:none;stroke:#263238;stroke-linecap:round;stroke-linejoin:round;stroke-miterlimit:10;" points="
		442.208,76.814 404.521,48.129 404.521,63.224 348.762,63.224 348.762,90.404 404.521,90.404 404.521,105.498 	"/>
</g>
<g id="Screen_2">
	<g>
		<path style="fill:#FFFFFF;stroke:#263238;stroke-linecap:round;stroke-linejoin:round;stroke-miterlimit:10;" d="M676.886,454.416
			H484.6c-6.226,0-11.272-5.047-11.272-11.272V47.579c0-6.226,5.047-11.272,11.272-11.272h192.286
			c6.226,0,11.272,5.047,11.272,11.272v395.564C688.159,449.369,683.112,454.416,676.886,454.416z"/>
		<path style="fill:#92E3A9;stroke:#263238;stroke-miterlimit:10;" d="M473.327,418.896v24.248c0,6.226,5.047,11.272,11.272,11.272
			h192.286c6.226,0,11.272-5.047,11.272-11.272v-24.248H473.327z"/>
		<g>
			<path style="fill:#263238;stroke:#263238;stroke-miterlimit:10;" d="M566.303,206.074h32.439c3.366,0,6.095-2.729,6.095-6.095
				V167.54c0-3.366-2.729-6.095-6.095-6.095h-32.439c-3.366,0-6.095,2.729-6.095,6.095v32.439
				C560.208,203.346,562.937,206.074,566.303,206.074z"/>
			<polygon style="fill:#92E3A9;stroke:#263238;stroke-miterlimit:10;" points="594.514,184.628 572.829,172.108 572.829,197.148 
							"/>
		</g>
		<g>
			<path style="fill:#92E3A9;stroke:#263238;stroke-miterlimit:10;" d="M658.682,78.135h-41.571c-8.86,0-16.042-7.182-16.042-16.042
				l0,0c0-8.86,7.182-16.042,16.042-16.042h41.571c8.86,0,16.042,7.182,16.042,16.042l0,0
				C674.724,70.952,667.542,78.135,658.682,78.135z"/>
			
				<circle style="fill:#FFFFFF;stroke:#263238;stroke-linecap:round;stroke-linejoin:round;stroke-miterlimit:10;" cx="616.629" cy="62.093" r="14.259"/>
		</g>
		<g>
			
				<line style="fill:none;stroke:#263238;stroke-linecap:round;stroke-linejoin:round;stroke-miterlimit:10;" x1="488.524" y1="64.989" x2="516.359" y2="64.989"/>
			
				<line style="fill:none;stroke:#263238;stroke-linecap:round;stroke-linejoin:round;stroke-miterlimit:10;" x1="488.524" y1="72.28" x2="516.359" y2="72.28"/>
			
				<line style="fill:none;stroke:#263238;stroke-linecap:round;stroke-linejoin:round;stroke-miterlimit:10;" x1="488.524" y1="79.57" x2="516.359" y2="79.57"/>
		</g>
		<g>
			<rect x="492.196" y="285.684" style="fill:#92E3A9;stroke:#263238;stroke-miterlimit:10;" width="151.584" height="115.98"/>
			<polygon style="fill:#263238;stroke:#263238;stroke-miterlimit:10;" points="643.78,331.745 620.629,309.543 578.736,357.26 
				553.932,338.703 492.196,401.664 643.78,401.664 			"/>
			<circle style="fill:#263238;stroke:#263238;stroke-miterlimit:10;" cx="525.996" cy="318.821" r="15.906"/>
		</g>
		
			<line style="fill:none;stroke:#263238;stroke-linecap:round;stroke-linejoin:round;stroke-miterlimit:10;" x1="487.15" y1="91.686" x2="672.832" y2="91.686"/>
		<g>
			
				<ellipse transform="matrix(0.9735 -0.2285 0.2285 0.9735 -50.67 159.9867)" style="fill:#263238;stroke:#263238;stroke-linecap:round;stroke-linejoin:round;stroke-miterlimit:10;" cx="665.595" cy="298.82" rx="12.899" ry="12.899"/>
			<path style="fill:#FFFFFF;stroke:#263238;stroke-linecap:round;stroke-linejoin:round;stroke-miterlimit:10;" d="M670.566,294.46
				c0-2.745-2.226-4.971-4.971-4.971c-2.745,0-4.971,2.226-4.971,4.971c0,2.745,2.226,4.971,4.971,4.971
				C668.341,299.431,670.566,297.205,670.566,294.46z"/>
			<path style="fill:#FFFFFF;stroke:#263238;stroke-linecap:round;stroke-linejoin:round;stroke-miterlimit:10;" d="
				M665.595,300.377c-4.536,0-8.212,3.677-8.212,8.212c0,0.063,0.008,0.124,0.009,0.186c2.229,1.839,5.087,2.944,8.203,2.944
				s5.974-1.105,8.203-2.944c0.001-0.063,0.01-0.123,0.01-0.186C673.808,304.054,670.131,300.377,665.595,300.377z"/>
		</g>
		<g>
			
				<ellipse transform="matrix(0.9735 -0.2285 0.2285 0.9735 -60.3559 161.1081)" style="fill:#263238;stroke:#263238;stroke-linecap:round;stroke-linejoin:round;stroke-miterlimit:10;" cx="665.595" cy="341.212" rx="12.899" ry="12.899"/>
			<path style="fill:#FFFFFF;stroke:#263238;stroke-linecap:round;stroke-linejoin:round;stroke-miterlimit:10;" d="
				M670.566,336.851c0-2.745-2.226-4.971-4.971-4.971c-2.745,0-4.971,2.226-4.971,4.971c0,2.745,2.226,4.971,4.971,4.971
				C668.341,341.822,670.566,339.597,670.566,336.851z"/>
			<path style="fill:#FFFFFF;stroke:#263238;stroke-linecap:round;stroke-linejoin:round;stroke-miterlimit:10;" d="
				M665.595,342.768c-4.536,0-8.212,3.677-8.212,8.212c0,0.063,0.008,0.124,0.009,0.186c2.229,1.839,5.087,2.944,8.203,2.944
				s5.974-1.105,8.203-2.944c0.001-0.063,0.01-0.123,0.01-0.186C673.808,346.445,670.131,342.768,665.595,342.768z"/>
		</g>
		<g>
			
				<ellipse transform="matrix(0.9735 -0.2285 0.2285 0.9735 -70.0419 162.2295)" style="fill:#263238;stroke:#263238;stroke-linecap:round;stroke-linejoin:round;stroke-miterlimit:10;" cx="665.595" cy="383.603" rx="12.899" ry="12.899"/>
			<path style="fill:#FFFFFF;stroke:#263238;stroke-linecap:round;stroke-linejoin:round;stroke-miterlimit:10;" d="
				M670.566,379.242c0-2.745-2.226-4.971-4.971-4.971c-2.745,0-4.971,2.226-4.971,4.971c0,2.745,2.226,4.971,4.971,4.971
				C668.341,384.213,670.566,381.988,670.566,379.242z"/>
			<path style="fill:#FFFFFF;stroke:#263238;stroke-linecap:round;stroke-linejoin:round;stroke-miterlimit:10;" d="M665.595,385.16
				c-4.536,0-8.212,3.677-8.212,8.212c0,0.063,0.008,0.124,0.009,0.186c2.229,1.839,5.087,2.944,8.203,2.944
				s5.974-1.105,8.203-2.944c0.001-0.063,0.01-0.123,0.01-0.186C673.808,388.836,670.131,385.16,665.595,385.16z"/>
		</g>
		<path style="fill:#A3A3A3;stroke:#263238;stroke-miterlimit:10;" d="M654.928,142.585H507.488
			c-9.898,0-17.921-8.024-17.921-17.921v0c0-9.898,8.024-17.921,17.921-17.921h147.439c9.898,0,17.921,8.024,17.921,17.921v0
			C672.849,134.561,664.826,142.585,654.928,142.585z"/>
		<path style="fill:#92E3A9;stroke:#263238;stroke-miterlimit:10;" d="M573.223,142.585h-65.734
			c-9.898,0-17.921-8.024-17.921-17.921v0c0-9.898,8.024-17.921,17.921-17.921h65.734c9.898,0,17.921,8.024,17.921,17.921v0
			C591.144,134.561,583.121,142.585,573.223,142.585z"/>
		<g>
			<path style="fill:#92E3A9;stroke:#263238;stroke-miterlimit:10;" d="M498.291,206.074h32.439c3.366,0,6.095-2.729,6.095-6.095
				V167.54c0-3.366-2.729-6.095-6.095-6.095h-32.439c-3.366,0-6.095,2.729-6.095,6.095v32.439
				C492.196,203.346,494.925,206.074,498.291,206.074z"/>
			<path style="fill:#263238;stroke:#263238;stroke-miterlimit:10;" d="M532.952,187.592v-6.564l-5.584-0.295
				c-0.244-1.063-0.617-2.076-1.104-3.022l3.747-4.164l-4.641-4.641l-3.994,3.593c-0.956-0.572-1.993-1.023-3.088-1.336
				l-0.288-5.467h-6.564l-0.289,5.467c-1.052,0.3-2.049,0.73-2.974,1.27l-4.218-3.795l-4.641,4.641l3.905,4.34
				c-0.448,0.852-0.804,1.76-1.055,2.711l-6.059,0.32v6.564l6.227,0.329c0.261,0.83,0.603,1.623,1.017,2.371l-4.302,4.781
				l4.641,4.641l4.786-4.307c0.708,0.389,1.457,0.713,2.238,0.966l0.346,6.55h6.564l0.334-6.324
				c0.838-0.215,1.644-0.512,2.408-0.882l4.739,4.264l4.641-4.641l-4.007-4.453c0.507-0.812,0.925-1.683,1.244-2.602
				L532.952,187.592z M514.717,190.76c-3.93,0-7.115-3.186-7.115-7.115c0-3.929,3.185-7.115,7.115-7.115
				c3.929,0,7.115,3.186,7.115,7.115C521.832,187.575,518.646,190.76,514.717,190.76z"/>
		</g>
		<g>
			<path style="fill:#92E3A9;stroke:#263238;stroke-miterlimit:10;" d="M634.315,206.074h32.439c3.366,0,6.095-2.729,6.095-6.095
				V167.54c0-3.366-2.729-6.095-6.095-6.095h-32.439c-3.366,0-6.095,2.729-6.095,6.095v32.439
				C628.22,203.346,630.949,206.074,634.315,206.074z"/>
			<g>
				
					<ellipse transform="matrix(0.3791 -0.9254 0.9254 0.3791 233.8979 716.0914)" style="fill:#263238;stroke:#263238;stroke-miterlimit:10;" cx="650.535" cy="183.76" rx="15.646" ry="15.646"/>
				
					<rect x="642.591" y="175.816" style="fill:#FFFFFF;stroke:#263238;stroke-linecap:round;stroke-linejoin:round;stroke-miterlimit:10;" width="15.888" height="15.888"/>
			</g>
		</g>
		<g>
			<path style="fill:#FFFFFF;stroke:#263238;stroke-linecap:round;stroke-linejoin:round;stroke-miterlimit:10;" d="M566.303,264.92
				h32.439c3.366,0,6.095-2.729,6.095-6.095v-32.439c0-3.366-2.729-6.095-6.095-6.095h-32.439c-3.366,0-6.095,2.729-6.095,6.095
				v32.439C560.208,262.191,562.937,264.92,566.303,264.92z"/>
			<g>
				
					<rect x="567.626" y="232.43" style="fill:#92E3A9;stroke:#263238;stroke-linecap:round;stroke-linejoin:round;stroke-miterlimit:10;" width="30.14" height="21.051"/>
				<polygon style="fill:#92E3A9;stroke:#263238;stroke-linecap:round;stroke-linejoin:round;stroke-miterlimit:10;" points="
					567.626,232.43 582.696,242.955 597.766,232.43 				"/>
			</g>
		</g>
		<g>
			<path style="fill:#92E3A9;stroke:#263238;stroke-miterlimit:10;" d="M498.291,264.92h32.439c3.366,0,6.095-2.729,6.095-6.095
				v-32.439c0-3.366-2.729-6.095-6.095-6.095h-32.439c-3.366,0-6.095,2.729-6.095,6.095v32.439
				C492.196,262.191,494.925,264.92,498.291,264.92z"/>
			<g>
				<path style="fill:#263238;" d="M525.04,236.167c-0.37-1.316-0.863-2.674-1.316-3.414c-0.658-1.111-1.07-1.399-3.332-1.399
					h-4.112v20.032c0,3.208,0.328,3.661,4.236,3.908v1.152h-11.97v-1.152c3.826-0.247,4.156-0.659,4.156-3.908v-20.032h-3.743
					c-2.262,0-2.921,0.247-3.621,1.481c-0.493,0.823-0.822,1.81-1.357,3.332h-1.233c0.247-2.509,0.493-5.101,0.617-7.404h0.946
					c0.617,0.987,1.07,0.946,2.221,0.946h16.288c1.152,0,1.481-0.165,2.098-0.946h0.988c0,1.933,0.165,4.895,0.37,7.281
					L525.04,236.167z"/>
			</g>
		</g>
		<g>
			<path style="fill:#263238;stroke:#263238;stroke-miterlimit:10;" d="M634.315,264.92h32.439c3.366,0,6.095-2.729,6.095-6.095
				v-32.439c0-3.366-2.729-6.095-6.095-6.095h-32.439c-3.366,0-6.095,2.729-6.095,6.095v32.439
				C628.22,262.191,630.949,264.92,634.315,264.92z"/>
			<g>
				<circle style="fill:none;stroke:#92E3A9;stroke-miterlimit:10;" cx="650.535" cy="242.605" r="15.63"/>
				<ellipse style="fill:none;stroke:#92E3A9;stroke-miterlimit:10;" cx="650.535" cy="242.605" rx="6.924" ry="15.63"/>
				<line style="fill:none;stroke:#92E3A9;stroke-miterlimit:10;" x1="640.433" y1="230.738" x2="660.862" y2="230.738"/>
				<line style="fill:none;stroke:#92E3A9;stroke-miterlimit:10;" x1="635.738" y1="236.828" x2="665.557" y2="236.828"/>
				<line style="fill:none;stroke:#92E3A9;stroke-miterlimit:10;" x1="640.433" y1="254.592" x2="660.862" y2="254.592"/>
				<line style="fill:none;stroke:#92E3A9;stroke-miterlimit:10;" x1="635.738" y1="248.502" x2="665.557" y2="248.502"/>
				<line style="fill:none;stroke:#92E3A9;stroke-miterlimit:10;" x1="635.231" y1="242.68" x2="666.064" y2="242.68"/>
			</g>
		</g>
	</g>
</g>
<g id="Screen_1">
	<g>
		<path style="fill:#FFFFFF;stroke:#263238;stroke-linecap:round;stroke-linejoin:round;stroke-miterlimit:10;" d="M292.757,454.416
			H100.471c-6.226,0-11.272-5.047-11.272-11.272V47.579c0-6.226,5.047-11.272,11.272-11.272h192.286
			c6.226,0,11.272,5.047,11.272,11.272v395.564C304.03,449.369,298.983,454.416,292.757,454.416z"/>
		<path style="fill:#92E3A9;stroke:#263238;stroke-miterlimit:10;" d="M89.199,418.896v24.248c0,6.226,5.047,11.272,11.272,11.272
			h192.286c6.226,0,11.272-5.047,11.272-11.272v-24.248H89.199z"/>
		<g>
			<rect x="172.324" y="164.991" style="fill:#263238;stroke:#263238;stroke-miterlimit:10;" width="44.629" height="44.629"/>
			<rect x="59.067" y="164.991" style="fill:#263238;stroke:#263238;stroke-miterlimit:10;" width="44.629" height="44.629"/>
			<rect x="172.324" y="223.836" style="fill:#263238;stroke:#263238;stroke-miterlimit:10;" width="44.629" height="44.629"/>
			<rect x="234.169" y="223.836" style="fill:#263238;stroke:#263238;stroke-miterlimit:10;" width="44.629" height="44.629"/>
			<rect x="59.067" y="223.836" style="fill:#263238;stroke:#263238;stroke-miterlimit:10;" width="44.629" height="44.629"/>
		</g>
		<g>
			
				<rect x="174.35" y="161.445" style="fill:#FFFFFF;stroke:#263238;stroke-linecap:round;stroke-linejoin:round;stroke-miterlimit:10;" width="44.629" height="44.629"/>
			<rect x="61.092" y="161.445" style="fill:#92E3A9;stroke:#263238;stroke-miterlimit:10;" width="44.629" height="44.629"/>
			<rect x="174.35" y="220.291" style="fill:#92E3A9;stroke:#263238;stroke-miterlimit:10;" width="44.629" height="44.629"/>
			<rect x="236.194" y="220.291" style="fill:#92E3A9;stroke:#263238;stroke-miterlimit:10;" width="44.629" height="44.629"/>
			
				<rect x="61.092" y="220.291" style="fill:#FFFFFF;stroke:#263238;stroke-linecap:round;stroke-linejoin:round;stroke-miterlimit:10;" width="44.629" height="44.629"/>
		</g>
		<path style="fill:#263238;stroke:#263238;stroke-miterlimit:10;" d="M315.621,49.762H274.05c-8.86,0-16.042,7.182-16.042,16.042
			c0,8.86,7.182,16.042,16.042,16.042h41.571c8.86,0,16.042-7.182,16.042-16.042C331.663,56.944,324.481,49.762,315.621,49.762z"/>
		<g>
			<path style="fill:#92E3A9;stroke:#263238;stroke-miterlimit:10;" d="M318.618,78.135h-41.571c-8.86,0-16.042-7.182-16.042-16.042
				l0,0c0-8.86,7.182-16.042,16.042-16.042h41.571c8.86,0,16.042,7.182,16.042,16.042l0,0
				C334.66,70.952,327.478,78.135,318.618,78.135z"/>
			
				<circle style="fill:#FFFFFF;stroke:#263238;stroke-linecap:round;stroke-linejoin:round;stroke-miterlimit:10;" cx="276.565" cy="62.093" r="14.259"/>
		</g>
		<g>
			
				<line style="fill:none;stroke:#263238;stroke-linecap:round;stroke-linejoin:round;stroke-miterlimit:10;" x1="107.403" y1="64.989" x2="135.238" y2="64.989"/>
			
				<line style="fill:none;stroke:#263238;stroke-linecap:round;stroke-linejoin:round;stroke-miterlimit:10;" x1="107.403" y1="72.28" x2="135.238" y2="72.28"/>
			
				<line style="fill:none;stroke:#263238;stroke-linecap:round;stroke-linejoin:round;stroke-miterlimit:10;" x1="107.403" y1="79.57" x2="135.238" y2="79.57"/>
		</g>
		
			<circle style="fill:#FFFFFF;stroke:#263238;stroke-linecap:round;stroke-linejoin:round;stroke-miterlimit:10;" cx="276.403" cy="300.264" r="12.592"/>
		
			<ellipse transform="matrix(0.1608 -0.987 0.987 0.1608 -104.9577 559.2659)" style="fill:#FFFFFF;stroke:#263238;stroke-linecap:round;stroke-linejoin:round;stroke-miterlimit:10;" cx="276.403" cy="341.354" rx="12.592" ry="12.592"/>
		
			<circle style="fill:#FFFFFF;stroke:#263238;stroke-linecap:round;stroke-linejoin:round;stroke-miterlimit:10;" cx="276.403" cy="382.445" r="12.592"/>
		
			<line style="fill:none;stroke:#263238;stroke-linecap:round;stroke-linejoin:round;stroke-miterlimit:10;" x1="106.094" y1="91.686" x2="291.776" y2="91.686"/>
		<g>
			<g>
				<rect x="49.692" y="290.748" style="fill:#263238;stroke:#263238;stroke-miterlimit:10;" width="151.584" height="115.98"/>
			</g>
			<line style="fill:#263238;stroke:#263238;stroke-miterlimit:10;" x1="49.692" y1="406.729" x2="201.275" y2="290.748"/>
			<line style="fill:#263238;stroke:#263238;stroke-miterlimit:10;" x1="49.692" y1="290.748" x2="201.275" y2="406.729"/>
		</g>
		<g>
			<g>
				
					<rect x="54.25" y="285.684" style="fill:#FFFFFF;stroke:#263238;stroke-linecap:round;stroke-linejoin:round;stroke-miterlimit:10;" width="151.584" height="115.98"/>
			</g>
			
				<line style="fill:none;stroke:#263238;stroke-linecap:round;stroke-linejoin:round;stroke-miterlimit:10;" x1="54.25" y1="401.664" x2="205.834" y2="285.684"/>
			
				<line style="fill:none;stroke:#263238;stroke-linecap:round;stroke-linejoin:round;stroke-miterlimit:10;" x1="54.25" y1="285.684" x2="205.834" y2="401.664"/>
		</g>
		<path style="fill:#263238;stroke:#263238;stroke-miterlimit:10;" d="M325.931,145.117H178.492
			c-9.898,0-17.921-8.024-17.921-17.921l0,0c0-9.898,8.024-17.921,17.921-17.921h147.439c9.898,0,17.921,8.024,17.921,17.921l0,0
			C343.853,137.094,335.829,145.117,325.931,145.117z"/>
		<path style="fill:#FFFFFF;stroke:#263238;stroke-linecap:round;stroke-linejoin:round;stroke-miterlimit:10;" d="M329.983,142.585
			H182.544c-9.898,0-17.921-8.024-17.921-17.921v0c0-9.898,8.024-17.921,17.921-17.921h147.439c9.898,0,17.921,8.024,17.921,17.921
			v0C347.904,134.561,339.881,142.585,329.983,142.585z"/>
	</g>
</g>
<g id="Character">
	<g>
		<polyline style="fill:#263238;stroke:#263238;stroke-miterlimit:10;" points="234.485,162.262 234.485,208.041 276.488,208.041 
			276.488,164.26 234.485,162.262 		"/>
		<polygon style="fill:#92E3A9;stroke:#263238;stroke-miterlimit:10;" points="281.847,205.245 238.152,205.245 234.485,162.262 
			278.18,162.262 		"/>
		<g>
			<path style="fill:#FFFFFF;stroke:#263238;stroke-miterlimit:10;" d="M314.841,234.79c0,0-27.362-20.282-28.701-21.43
				c-1.339-1.148-4.975-5.549-6.314-7.08c-1.339-1.531-8.993-3.827-8.993-3.827s-4.018-2.87-4.784-4.018
				c-0.765-1.148-3.061,0.574-1.722,2.87c1.339,2.296,4.592,4.21,4.592,4.21h-16.073c0,0,7.462,6.888,8.802,8.228
				c1.339,1.339,15.69,1.913,15.69,1.913s11.289,16.455,20.091,24.301c8.802,7.845,19.326,13.394,21.239,13.011
				c1.913-0.383,2.679-4.018,2.105-5.549C320.199,245.888,314.841,234.79,314.841,234.79z"/>
			<path style="fill:none;stroke:#263238;stroke-miterlimit:10;" d="M258.395,206.471l5.932,3.253c0,0,7.845-3.444,9.95-2.87
				c2.105,0.574,4.209,3.253,4.209,3.253"/>
		</g>
		<g>
			<path style="fill:#92E3A9;stroke:#263238;stroke-miterlimit:10;" d="M343.966,307.11l3.929,68.63c0,0-2.357,16.503-0.262,23.313
				c2.096,6.811,3.405,25.671,3.405,25.671s-2.095,3.143-1.572,4.191c0.524,1.048,2.357,7.858,2.357,7.858l0.786,3.667
				c0,0,4.977-2.357,6.811-2.357c1.834,0,5.763,2.881,5.763,2.881s4.191-7.073,3.929-9.168c-0.262-2.096-2.096-4.191-2.096-5.501
				c0-1.31,0.524-3.929,0.524-6.025s-0.262-0.524-0.262-6.287c0-5.763,2.096-52.389,2.096-53.175c0-0.786,5.239-39.03,5.239-39.03
				l9.168,40.602c0,0-1.572,22.527,0,36.935c1.572,14.407,1.31,27.766,1.31,27.766s-2.881,4.977-2.096,5.763
				c0.786,0.786,2.358,3.405,2.358,3.405s-0.786,2.881-0.262,4.453c0.524,1.572,0.524,1.572,0.524,1.572l15.193-5.501l3.667,1.048
				c0,0,0.786-2.358,0.262-4.453c-0.524-2.096-1.834-4.191-1.572-5.239c0.262-1.048,0.524-2.619,0.786-4.715
				c0.262-2.096-0.262-4.977-0.262-7.073s2.882-56.057,2.619-57.366c-0.262-1.31-2.881-52.127-2.881-52.127L343.966,307.11z"/>
			<line style="fill:none;stroke:#263238;stroke-miterlimit:10;" x1="376.335" y1="317.418" x2="387.966" y2="313.361"/>
			<path style="fill:none;stroke:#263238;stroke-miterlimit:10;" d="M386.777,433.954c0,0,15.884-4.935,13.725-5.397
				c-2.159-0.463-9.099,1.696-9.715,2.005"/>
			<path style="fill:none;stroke:#263238;stroke-miterlimit:10;" d="M353.93,436.73c0,0,12.8-5.243,12.954-4.472
				c0.154,0.771-2.93,2.467-2.93,2.467"/>
			<path style="fill:none;stroke:#263238;stroke-miterlimit:10;" d="M366.576,430.099c0,0-13.262-2.622-14.188-3.547
				s2.467-1.388,2.467-1.388"/>
			<g>
				<path style="fill:#FFFFFF;stroke:#263238;stroke-miterlimit:10;" d="M352.61,440.441c0,0-2.073,9.088-2.69,11.247
					c-0.617,2.159-1.542,5.552-0.463,6.785c1.079,1.234,6.168,2.005,11.412,1.696c5.243-0.309,6.785-1.696,7.094-3.084
					c0.308-1.388-1.079-6.785-1.542-8.944c-0.463-2.159-1.237-7.176-1.237-7.176s-3.819-2.453-5.763-2.881
					C357.477,437.655,352.61,440.441,352.61,440.441z"/>
				<path style="fill:none;stroke:#263238;stroke-miterlimit:10;" d="M348.99,456.113c-0.069,0.99,0.029,1.857,0.468,2.36
					c1.08,1.234,6.169,2.005,11.412,1.696c5.243-0.309,6.785-1.696,7.094-3.084c0.06-0.268,0.055-0.689,0.006-1.205
					c-1.781,0.714-4.556,1.533-8.108,1.64C355.853,457.642,351.619,456.782,348.99,456.113z"/>
			</g>
			<g>
				<path style="fill:#FFFFFF;stroke:#263238;stroke-miterlimit:10;" d="M385.616,442.275c0,0-0.38,10.956,0.236,12.189
					c0.617,1.234,8.019,1.234,11.103,1.85c3.084,0.617,6.939,1.851,8.944,2.159c2.005,0.308,11.566,0.154,12.954-0.617
					c1.388-0.771,1.234-3.239-0.154-4.626c-1.388-1.388-3.701-1.542-6.323-3.547c-2.622-2.005-6.939-6.631-7.402-8.019
					c-0.463-1.388-0.499-3.843-0.499-3.843l-3.667-1.048L385.616,442.275z"/>
				<path style="fill:none;stroke:#263238;stroke-miterlimit:10;" d="M418.943,453.529c-1.162,0.999-3.295,2.414-6.542,3.015
					c-5.273,0.977-10.937-1.758-15.625-2.344c-3.823-0.478-9.333-1.994-11.235-2.538c0.047,1.383,0.141,2.461,0.311,2.801
					c0.617,1.234,8.019,1.234,11.103,1.85c3.084,0.617,6.939,1.851,8.944,2.159c2.005,0.308,11.566,0.154,12.954-0.617
					C420.15,457.137,420.086,454.947,418.943,453.529z"/>
			</g>
		</g>
		<path style="fill:#263238;stroke:#263238;stroke-miterlimit:10;" d="M368.88,205.666c0,0-21.239,3.253-23.918,4.401
			c-2.679,1.148-8.036,8.419-8.036,8.419l-19.98,13.242l-3.444,1.339c0,0,6.123,21.813,7.271,22.004
			c1.148,0.191,23.233-9.989,23.233-9.989l-1.148,42.287l-1.913,22.961c0,0,6.314,1.148,24.683,1.722
			c18.369,0.574,40.756-2.296,41.33-2.296c0.574,0,0.957-44.2,0.957-44.2l0.383-8.993l14.351-10.141
			c0,0-12.055-28.893-13.011-32.146c-0.957-3.253-2.105-4.784-5.166-6.314c-3.061-1.531-15.499-3.827-15.499-3.827L368.88,205.666z"
			/>
		<g>
			<polygon style="fill:#FFFFFF;stroke:#263238;stroke-linecap:round;stroke-linejoin:round;stroke-miterlimit:10;" points="
				368.788,218.236 361.89,208.686 366.944,205.469 			"/>
			<polygon style="fill:#FFFFFF;stroke:#263238;stroke-linecap:round;stroke-linejoin:round;stroke-miterlimit:10;" points="
				361.89,208.686 360.052,217.416 365.719,214.352 			"/>
		</g>
		<g>
			<path style="fill:#FFFFFF;stroke:#263238;stroke-linecap:round;stroke-linejoin:round;stroke-miterlimit:10;" d="
				M359.472,161.589c0,0-5.109,9.767-4.658,11.269c0.451,1.503,0.601,2.855,0.601,2.855s-6.762,7.813-5.56,9.166
				c1.202,1.352,3.306,2.705,3.306,2.705s1.052,8.715,1.052,9.316c0,0.601-0.751,4.357,0.751,5.559
				c1.503,1.202,3.306,1.202,4.508,1.052c1.202-0.15,5.109-1.352,5.109-1.352s3.306,17.43,4.207,16.077
				c0.902-1.352,18.031-16.077,18.031-16.077l-0.601-8.264c0,0,8.865-13.223,9.166-16.077c0.301-2.855-4.057-15.326-5.56-17.279
				c-1.503-1.953-16.979-5.86-22.538-5.409C361.726,155.579,357.819,158.584,359.472,161.589z"/>
			<path style="fill:#263238;stroke:#263238;stroke-linecap:round;stroke-linejoin:round;stroke-miterlimit:10;" d="
				M372.094,198.702c1.202-1.503,2.554-18.932,3.306-20.285c0.751-1.352,4.808-2.404,6.311-1.352c1.503,1.052,1.503,8.114,0,10.518
				c-1.503,2.404-3.306,1.653-0.751,4.057c2.554,2.404,5.259,2.254,5.259,2.254s8.865-13.223,9.166-16.077
				c0.301-2.855-4.057-15.326-5.56-17.279c-1.503-1.953-16.979-5.86-22.538-5.409c-5.559,0.451-9.466,3.456-7.813,6.461
				c0,0,3.155-0.601,6.611,0.301s4.057,2.705,3.456,3.155c-0.601,0.451-5.109,2.705-4.508,4.658
				c0.601,1.953,7.663,6.161,7.663,6.161s-1.202,7.212-1.503,9.767c-0.301,2.554-3.456,5.559-3.456,5.559s-8.565-5.109-11.57-4.357
				c-3.005,0.751-3.005,0.751-3.005,0.751s1.052,8.715,1.052,9.316c0,0.601-0.751,4.357,0.751,5.559
				c1.503,1.202,3.306,1.202,4.508,1.052c1.202-0.15,5.109-1.352,5.109-1.352S370.892,200.205,372.094,198.702z"/>
			<path style="fill:none;stroke:#263238;stroke-linecap:round;stroke-linejoin:round;stroke-miterlimit:10;" d="M361.576,174.361
				c-1.953-2.705-4.207-1.503-4.207-1.503"/>
			<path style="fill:none;stroke:#FFFFFF;stroke-linecap:round;stroke-linejoin:round;stroke-miterlimit:10;" d="M356.167,191.34
				c0,0,2.554,0,5.409-1.352"/>
			<path style="fill:#263238;" d="M360.374,178.568c0,0.996-0.404,1.803-0.902,1.803c-0.498,0-0.902-0.807-0.902-1.803
				c0-0.996,0.404-1.803,0.902-1.803C359.97,176.765,360.374,177.572,360.374,178.568z"/>
		</g>
		<polygon style="fill:none;stroke:#263238;stroke-linecap:round;stroke-linejoin:round;stroke-miterlimit:10;" points="
			370.459,211.841 368.788,218.236 373.223,214.812 		"/>
		<polygon style="fill:#FFFFFF;stroke:#263238;stroke-linecap:round;stroke-linejoin:round;stroke-miterlimit:10;" points="
			370.459,211.841 374.64,221.074 390.494,203.13 386.661,198.949 		"/>
		<line style="fill:none;stroke:#FFFFFF;stroke-miterlimit:10;" x1="344.005" y1="245.083" x2="340.753" y2="223.078"/>
		<line style="fill:none;stroke:#FFFFFF;stroke-miterlimit:10;" x1="394.52" y1="228.245" x2="402.012" y2="251.284"/>
		<g>
			<path style="fill:#FFFFFF;stroke:#263238;stroke-miterlimit:10;" d="M404.337,253.307c0,0,3.216,14.719,3.365,16.505
				c0.149,1.785,5.802,8.183,9.522,8.183c3.72,0,9.82-5.356,10.415-7.29c0.595-1.934-2.827-7.885-6.844-9.076
				C416.777,260.439,405.825,251.67,404.337,253.307z"/>
			<polygon style="fill:#FFFFFF;stroke:#263238;stroke-miterlimit:10;" points="428.009,266.139 431.724,272.154 418.33,268.589 
				409.788,269.146 			"/>
			<g>
				<path style="fill:#FFFFFF;stroke:#263238;stroke-miterlimit:10;" d="M413.671,265.986c0,0-4.702-1.333-3.94,0
					c0.762,1.334,6.512,8.668,7.941,9.24s5.525,0.381,7.049-0.19c1.524-0.572,7.928-1.479,9.167-1.955
					c1.238-0.476,4.573-0.953,4.477-1.905c-0.095-0.953-3.144-1.238-5.049-0.857c-1.905,0.381-4.975-2.236-4.975-2.236
					L413.671,265.986z"/>
				<polygon style="fill:#A3A3A3;stroke:#263238;stroke-miterlimit:10;" points="393.948,269.957 365.245,264.982 430.301,265.556 
					452.499,269.957 				"/>
				<polygon style="fill:#A3A3A3;stroke:#263238;stroke-miterlimit:10;" points="452.499,269.957 393.948,269.957 406.572,228.819 
					465.123,228.819 				"/>
				<path style="fill:#FFFFFF;stroke:#263238;stroke-miterlimit:10;" d="M427.596,272.456c0,0-0.346-8.289,0.26-8.788
					c0.606-0.499,1.953-0.601,2.275,0.775c0.322,1.375,0.459,6.034,0.67,7.426c0.211,1.392-0.29,2.587-0.608,2.737
					c-0.318,0.15-3.088-0.143-3.088-0.143"/>
				<path style="fill:#FFFFFF;stroke:#263238;stroke-miterlimit:10;" d="M423.578,272.94c-0.111-0.735,0.34-8.824,0.34-8.824
					s0.364-1.558,1.513-1.088c1.15,0.47,1.462,3.322,1.509,3.637c0.048,0.315,0.981,4.898,1.124,5.842
					c0.143,0.945-0.082,1.837-1.307,2.452s-4.036,0.363-4.036,0.363"/>
				<path style="fill:#FFFFFF;stroke:#263238;stroke-miterlimit:10;" d="M420.819,273.714c0.029-0.743,1.089-9.625,1.089-9.625
					s0.65-1.462,1.691-0.784c1.041,0.678,0.81,3.538,0.798,3.856c-0.013,0.318,0.041,4.995,0.004,5.949
					c-0.038,0.955-0.426,1.789-1.745,2.163c-1.319,0.373-2.736,0.211-2.736,0.211"/>
				<path style="fill:#FFFFFF;stroke:#263238;stroke-miterlimit:10;" d="M418.248,272.374c0.023-0.586,0.86-7.598,0.86-7.598
					s0.513-1.154,1.335-0.618c0.822,0.535,0.64,2.793,0.63,3.044c-0.01,0.251,0.033,3.943,0.003,4.697
					c-0.03,0.754-0.336,1.413-1.378,1.707c-1.042,0.295-2.16,0.167-2.16,0.167"/>
			</g>
		</g>
	</g>
</g>
<g id="Speech_Bubble">
	<g>
		<path style="fill:#FFFFFF;stroke:#263238;stroke-linecap:round;stroke-linejoin:round;stroke-miterlimit:10;" d="M447.128,116.653
			c-18.118,0-32.806,14.688-32.806,32.806c0,7.257,2.361,13.961,6.351,19.394l-12.315,16.063l20.051-8.522
			c5.309,3.697,11.759,5.871,18.719,5.871c18.118,0,32.806-14.688,32.806-32.806S465.247,116.653,447.128,116.653z"/>
		<g>
			<path style="fill:#263238;" d="M435.924,161.056l-12.522-8.815v-5.025l12.522-8.815v5.52l-8.032,5.808l8.032,5.808V161.056z"/>
			<path style="fill:#263238;" d="M439.96,164.598l9.968-33.365h3.666l-10.009,33.365H439.96z"/>
			<path style="fill:#263238;" d="M457.508,161.056v-5.52l8.074-5.849l-8.074-5.767v-5.52l12.564,8.815v5.025L457.508,161.056z"/>
		</g>
	</g>
</g>
</svg>
