<svg enable-background="new 0 0 500 500" version="1.1" viewBox="0 0 500 500" xml:space="preserve" xmlns="http://www.w3.org/2000/svg" xmlns:xlink="http://www.w3.org/1999/xlink">
<g id="Background">
	<rect x="-406.75" y="-128.71" width="1292.5" height="953.89" display="none" stroke-miterlimit="50" stroke-width="0"/><g transform="matrix(.61621 0 0 .61621 .43572 -132.62)" fill-opacity="0" opacity=".54" stroke="#fc708d" stroke-width=".99966"><g fill="none" fill-opacity="0" stroke="#fc708d" stroke-linecap="square" stroke-width=".99966"><line x1="54" y2="54" opacity="1"/><line x1="54" x2="108" y2="54" opacity="1"/><line x1="108" x2="162" y2="54" opacity="1"/><line x1="216" x2="162" y2="54" opacity="1"/><line x1="216" x2="270" y2="54" opacity="1"/><line x1="270" x2="324" y2="54" opacity="1"/><line x1="324" x2="378" y2="54" opacity="1"/><line x1="432" x2="378" y2="54" opacity="1"/><line x1="432" x2="486" y2="54" opacity="1"/><line x1="486" x2="540" y2="54" opacity="1"/><line x1="540" x2="594" y2="54" opacity="1"/><line x1="594" x2="648" y2="54" opacity="1"/><line x1="702" x2="648" y2="54" opacity="1"/><line x1="702" x2="756" y2="54" opacity="1"/><line x1="756" x2="810" y2="54" opacity="1"/><line x1="54" y1="54" y2="108" opacity=".94"/><line x1="108" x2="54" y1="54" y2="108" opacity=".94"/><line x1="108" x2="162" y1="54" y2="108" opacity=".94"/><line x1="162" x2="216" y1="54" y2="108" opacity=".94"/><line x1="216" x2="270" y1="54" y2="108" opacity=".94"/><line x1="270" x2="324" y1="54" y2="108" opacity=".94"/><line x1="378" x2="324" y1="54" y2="108" opacity=".94"/><line x1="378" x2="432" y1="54" y2="108" opacity=".94"/><line x1="432" x2="486" y1="54" y2="108" opacity=".94"/><line x1="486" x2="540" y1="54" y2="108" opacity=".94"/><line x1="594" x2="540" y1="54" y2="108" opacity=".94"/><line x1="594" x2="648" y1="54" y2="108" opacity=".94"/><line x1="702" x2="648" y1="54" y2="108" opacity=".94"/><line x1="756" x2="702" y1="54" y2="108" opacity=".94"/><line x1="756" x2="810" y1="54" y2="108" opacity=".94"/><line x2="54" y1="108" y2="162" opacity=".87"/><line x1="54" x2="108" y1="108" y2="162" opacity=".87"/><line x1="108" x2="162" y1="108" y2="162" opacity=".87"/><line x1="162" x2="216" y1="108" y2="162" opacity=".87"/><line x1="216" x2="270" y1="108" y2="162" opacity=".87"/><line x1="324" x2="270" y1="108" y2="162" opacity=".87"/><line x1="324" x2="378" y1="108" y2="162" opacity=".87"/><line x1="432" x2="378" y1="108" y2="162" opacity=".87"/><line x1="486" x2="432" y1="108" y2="162" opacity=".87"/><line x1="486" x2="540" y1="108" y2="162" opacity=".87"/><line x1="540" x2="594" y1="108" y2="162" opacity=".87"/><line x1="594" x2="648" y1="108" y2="162" opacity=".87"/><line x1="648" x2="702" y1="108" y2="162" opacity=".87"/><line x1="702" x2="756" y1="108" y2="162" opacity=".87"/><line x1="810" x2="756" y1="108" y2="162" opacity=".87"/><line x2="54" y1="162" y2="216" opacity=".81"/><line x1="54" x2="108" y1="162" y2="216" opacity=".81"/><line x1="108" x2="162" y1="162" y2="216" opacity=".81"/><line x1="216" x2="162" y1="162" y2="216" opacity=".81"/><line x1="270" x2="216" y1="162" y2="216" opacity=".81"/><line x1="270" x2="324" y1="162" y2="216" opacity=".81"/><line x1="324" x2="378" y1="162" y2="216" opacity=".81"/><line x1="378" x2="432" y1="162" y2="216" opacity=".81"/><line x1="432" x2="486" y1="162" y2="216" opacity=".81"/><line x1="486" x2="540" y1="162" y2="216" opacity=".81"/><line x1="540" x2="594" y1="162" y2="216" opacity=".81"/><line x1="648" x2="594" y1="162" y2="216" opacity=".81"/><line x1="648" x2="702" y1="162" y2="216" opacity=".81"/><line x1="702" x2="756" y1="162" y2="216" opacity=".81"/><line x1="756" x2="810" y1="162" y2="216" opacity=".81"/><line x2="54" y1="216" y2="270" opacity=".74"/><line x1="108" x2="54" y1="216" y2="270" opacity=".74"/><line x1="162" x2="108" y1="216" y2="270" opacity=".74"/><line x1="162" x2="216" y1="216" y2="270" opacity=".74"/><line x1="270" x2="216" y1="216" y2="270" opacity=".74"/><line x1="270" x2="324" y1="216" y2="270" opacity=".74"/><line x1="324" x2="378" y1="216" y2="270" opacity=".74"/><line x1="378" x2="432" y1="216" y2="270" opacity=".74"/><line x1="486" x2="432" y1="216" y2="270" opacity=".74"/><line x1="486" x2="540" y1="216" y2="270" opacity=".74"/><line x1="540" x2="594" y1="216" y2="270" opacity=".74"/><line x1="594" x2="648" y1="216" y2="270" opacity=".74"/><line x1="648" x2="702" y1="216" y2="270" opacity=".74"/><line x1="702" x2="756" y1="216" y2="270" opacity=".74"/><line x1="756" x2="810" y1="216" y2="270" opacity=".74"/><line x2="54" y1="270" y2="324" opacity=".68"/><line x1="54" x2="108" y1="270" y2="324" opacity=".68"/><line x1="108" x2="162" y1="270" y2="324" opacity=".68"/><line x1="216" x2="162" y1="270" y2="324" opacity=".68"/><line x1="216" x2="270" y1="270" y2="324" opacity=".68"/><line x1="270" x2="324" y1="270" y2="324" opacity=".68"/><line x1="324" x2="378" y1="270" y2="324" opacity=".68"/><line x1="432" x2="378" y1="270" y2="324" opacity=".68"/><line x1="486" x2="432" y1="270" y2="324" opacity=".68"/><line x1="486" x2="540" y1="270" y2="324" opacity=".68"/><line x1="540" x2="594" y1="270" y2="324" opacity=".68"/><line x1="594" x2="648" y1="270" y2="324" opacity=".68"/><line x1="648" x2="702" y1="270" y2="324" opacity=".68"/><line x1="702" x2="756" y1="270" y2="324" opacity=".68"/><line x1="810" x2="756" y1="270" y2="324" opacity=".68"/><line x1="54" y1="324" y2="378" opacity=".62"/><line x1="54" x2="108" y1="324" y2="378" opacity=".62"/><line x1="162" x2="108" y1="324" y2="378" opacity=".62"/><line x1="162" x2="216" y1="324" y2="378" opacity=".62"/><line x1="216" x2="270" y1="324" y2="378" opacity=".62"/><line x1="270" x2="324" y1="324" y2="378" opacity=".62"/><line x1="324" x2="378" y1="324" y2="378" opacity=".62"/><line x1="432" x2="378" y1="324" y2="378" opacity=".62"/><line x1="486" x2="432" y1="324" y2="378" opacity=".62"/><line x1="540" x2="486" y1="324" y2="378" opacity=".62"/><line x1="594" x2="540" y1="324" y2="378" opacity=".62"/><line x1="648" x2="594" y1="324" y2="378" opacity=".62"/><line x1="702" x2="648" y1="324" y2="378" opacity=".62"/><line x1="756" x2="702" y1="324" y2="378" opacity=".62"/><line x1="756" x2="810" y1="324" y2="378" opacity=".62"/><line x1="54" y1="378" y2="432" opacity=".55"/><line x1="108" x2="54" y1="378" y2="432" opacity=".55"/><line x1="108" x2="162" y1="378" y2="432" opacity=".55"/><line x1="162" x2="216" y1="378" y2="432" opacity=".55"/><line x1="216" x2="270" y1="378" y2="432" opacity=".55"/><line x1="270" x2="324" y1="378" y2="432" opacity=".55"/><line x1="324" x2="378" y1="378" y2="432" opacity=".55"/><line x1="378" x2="432" y1="378" y2="432" opacity=".55"/><line x1="432" x2="486" y1="378" y2="432" opacity=".55"/><line x1="486" x2="540" y1="378" y2="432" opacity=".55"/><line x1="540" x2="594" y1="378" y2="432" opacity=".55"/><line x1="594" x2="648" y1="378" y2="432" opacity=".55"/><line x1="648" x2="702" y1="378" y2="432" opacity=".55"/><line x1="702" x2="756" y1="378" y2="432" opacity=".55"/><line x1="756" x2="810" y1="378" y2="432" opacity=".55"/><line x2="54" y1="432" y2="486" opacity=".49"/><line x1="108" x2="54" y1="432" y2="486" opacity=".49"/><line x1="108" x2="162" y1="432" y2="486" opacity=".49"/><line x1="162" x2="216" y1="432" y2="486" opacity=".49"/><line x1="270" x2="216" y1="432" y2="486" opacity=".49"/><line x1="324" x2="270" y1="432" y2="486" opacity=".49"/><line x1="324" x2="378" y1="432" y2="486" opacity=".49"/><line x1="432" x2="378" y1="432" y2="486" opacity=".49"/><line x1="432" x2="486" y1="432" y2="486" opacity=".49"/><line x1="540" x2="486" y1="432" y2="486" opacity=".49"/><line x1="594" x2="540" y1="432" y2="486" opacity=".49"/><line x1="648" x2="594" y1="432" y2="486" opacity=".49"/><line x1="648" x2="702" y1="432" y2="486" opacity=".49"/><line x1="702" x2="756" y1="432" y2="486" opacity=".49"/><line x1="756" x2="810" y1="432" y2="486" opacity=".49"/><line x2="54" y1="486" y2="540" opacity=".42"/><line x1="54" x2="108" y1="486" y2="540" opacity=".42"/><line x1="108" x2="162" y1="486" y2="540" opacity=".42"/><line x1="162" x2="216" y1="486" y2="540" opacity=".42"/><line x1="216" x2="270" y1="486" y2="540" opacity=".42"/><line x1="324" x2="270" y1="486" y2="540" opacity=".42"/><line x1="324" x2="378" y1="486" y2="540" opacity=".42"/><line x1="378" x2="432" y1="486" y2="540" opacity=".42"/><line x1="432" x2="486" y1="486" y2="540" opacity=".42"/><line x1="540" x2="486" y1="486" y2="540" opacity=".42"/><line x1="540" x2="594" y1="486" y2="540" opacity=".42"/><line x1="594" x2="648" y1="486" y2="540" opacity=".42"/><line x1="648" x2="702" y1="486" y2="540" opacity=".42"/><line x1="702" x2="756" y1="486" y2="540" opacity=".42"/><line x1="756" x2="810" y1="486" y2="540" opacity=".42"/><line x2="54" y1="540" y2="594" opacity=".36"/><line x1="54" x2="108" y1="540" y2="594" opacity=".36"/><line x1="108" x2="162" y1="540" y2="594" opacity=".36"/><line x1="216" x2="162" y1="540" y2="594" opacity=".36"/><line x1="216" x2="270" y1="540" y2="594" opacity=".36"/><line x1="270" x2="324" y1="540" y2="594" opacity=".36"/><line x1="324" x2="378" y1="540" y2="594" opacity=".36"/><line x1="432" x2="378" y1="540" y2="594" opacity=".36"/><line x1="432" x2="486" y1="540" y2="594" opacity=".36"/><line x1="486" x2="540" y1="540" y2="594" opacity=".36"/><line x1="540" x2="594" y1="540" y2="594" opacity=".36"/><line x1="594" x2="648" y1="540" y2="594" opacity=".36"/><line x1="648" x2="702" y1="540" y2="594" opacity=".36"/><line x1="702" x2="756" y1="540" y2="594" opacity=".36"/><line x1="756" x2="810" y1="540" y2="594" opacity=".36"/><line x2="54" y1="594" y2="648" opacity=".29"/><line x1="108" x2="54" y1="594" y2="648" opacity=".29"/><line x1="108" x2="162" y1="594" y2="648" opacity=".29"/><line x1="162" x2="216" y1="594" y2="648" opacity=".29"/><line x1="216" x2="270" y1="594" y2="648" opacity=".29"/><line x1="270" x2="324" y1="594" y2="648" opacity=".29"/><line x1="324" x2="378" y1="594" y2="648" opacity=".29"/><line x1="432" x2="378" y1="594" y2="648" opacity=".29"/><line x1="486" x2="432" y1="594" y2="648" opacity=".29"/><line x1="486" x2="540" y1="594" y2="648" opacity=".29"/><line x1="540" x2="594" y1="594" y2="648" opacity=".29"/><line x1="594" x2="648" y1="594" y2="648" opacity=".29"/><line x1="702" x2="648" y1="594" y2="648" opacity=".29"/><line x1="702" x2="756" y1="594" y2="648" opacity=".29"/><line x1="810" x2="756" y1="594" y2="648" opacity=".29"/><line x2="54" y1="648" y2="702" opacity=".23"/><line x1="54" x2="108" y1="648" y2="702" opacity=".23"/><line x1="162" x2="108" y1="648" y2="702" opacity=".23"/><line x1="216" x2="162" y1="648" y2="702" opacity=".23"/><line x1="216" x2="270" y1="648" y2="702" opacity=".23"/><line x1="324" x2="270" y1="648" y2="702" opacity=".23"/><line x1="324" x2="378" y1="648" y2="702" opacity=".23"/><line x1="378" x2="432" y1="648" y2="702" opacity=".23"/><line x1="432" x2="486" y1="648" y2="702" opacity=".23"/><line x1="486" x2="540" y1="648" y2="702" opacity=".23"/><line x1="540" x2="594" y1="648" y2="702" opacity=".23"/><line x1="594" x2="648" y1="648" y2="702" opacity=".23"/><line x1="648" x2="702" y1="648" y2="702" opacity=".23"/><line x1="756" x2="702" y1="648" y2="702" opacity=".23"/><line x1="810" x2="756" y1="648" y2="702" opacity=".23"/><line x2="54" y1="702" y2="756" opacity=".17"/><line x1="54" x2="108" y1="702" y2="756" opacity=".17"/><line x1="108" x2="162" y1="702" y2="756" opacity=".17"/><line x1="216" x2="162" y1="702" y2="756" opacity=".17"/><line x1="216" x2="270" y1="702" y2="756" opacity=".17"/><line x1="324" x2="270" y1="702" y2="756" opacity=".17"/><line x1="378" x2="324" y1="702" y2="756" opacity=".17"/><line x1="378" x2="432" y1="702" y2="756" opacity=".17"/><line x1="432" x2="486" y1="702" y2="756" opacity=".17"/><line x1="486" x2="540" y1="702" y2="756" opacity=".17"/><line x1="540" x2="594" y1="702" y2="756" opacity=".17"/><line x1="594" x2="648" y1="702" y2="756" opacity=".17"/><line x1="702" x2="648" y1="702" y2="756" opacity=".17"/><line x1="702" x2="756" y1="702" y2="756" opacity=".17"/><line x1="756" x2="810" y1="702" y2="756" opacity=".17"/><line x1="54" y1="756" y2="810" opacity=".1"/><line x1="54" x2="108" y1="756" y2="810" opacity=".1"/><line x1="108" x2="162" y1="756" y2="810" opacity=".1"/><line x1="162" x2="216" y1="756" y2="810" opacity=".1"/><line x1="216" x2="270" y1="756" y2="810" opacity=".1"/><line x1="270" x2="324" y1="756" y2="810" opacity=".1"/><line x1="324" x2="378" y1="756" y2="810" opacity=".1"/><line x1="378" x2="432" y1="756" y2="810" opacity=".1"/><line x1="432" x2="486" y1="756" y2="810" opacity=".1"/><line x1="486" x2="540" y1="756" y2="810" opacity=".1"/><line x1="594" x2="540" y1="756" y2="810" opacity=".1"/><line x1="594" x2="648" y1="756" y2="810" opacity=".1"/><line x1="648" x2="702" y1="756" y2="810" opacity=".1"/><line x1="756" x2="702" y1="756" y2="810" opacity=".1"/><line x1="756" x2="810" y1="756" y2="810" opacity=".1"/></g></g><rect width="500" height="500" display="none" opacity=".11615"/>
</g>
<g id="Objects" transform="translate(-19.785 -8.4009)">
	
		<path d="m158.59 70.99c-2.691-0.849-3.075-4.499-0.619-5.888 3.061-1.732 1.539-6.415-1.955-6.017-2.804 0.319-4.639-2.859-2.96-5.127 2.092-2.827-1.203-6.486-4.233-4.701-2.431 1.432-5.4-0.725-4.79-3.48 0.761-3.433-3.737-5.436-5.779-2.573-1.639 2.297-5.229 1.534-5.791-1.231-0.701-3.446-5.625-3.446-6.326 0-0.563 2.765-4.153 3.528-5.791 1.231-2.042-2.863-6.541-0.86-5.779 2.573 0.611 2.755-2.358 4.912-4.79 3.48-3.03-1.785-6.325 1.875-4.233 4.701 1.678 2.268-0.157 5.447-2.96 5.127-3.494-0.398-5.016 4.285-1.955 6.017 2.456 1.389 2.072 5.039-0.619 5.888-3.354 1.058-2.839 5.955 0.661 6.292 2.809 0.271 3.943 3.761 1.83 5.631-2.634 2.33-0.172 6.595 3.163 5.479 2.676-0.895 5.132 1.832 3.962 4.4-1.458 3.2 2.526 6.094 5.118 3.719 2.08-1.906 5.433-0.414 5.409 2.408-0.031 3.517 4.786 4.54 6.188 1.316 1.125-2.588 4.795-2.588 5.921 0 1.402 3.225 6.219 2.201 6.188-1.316-0.025-2.822 3.328-4.314 5.409-2.408 2.593 2.376 6.576-0.519 5.118-3.719-1.17-2.568 1.286-5.295 3.962-4.4 3.335 1.116 5.797-3.149 3.163-5.479-2.113-1.87-0.979-5.36 1.83-5.631 3.497-0.337 4.012-5.235 0.658-6.292zm-29.291 18.202c-10.167 0-18.409-8.242-18.409-18.409s8.242-18.409 18.409-18.409 18.409 8.242 18.409 18.409-8.242 18.409-18.409 18.409z" fill="#6f7082"/>
		<path d="m141.29 356.57c0.146-0.761 0.22-1.547 0.22-2.351s-0.074-1.59-0.22-2.353h-4.087c-0.186-0.656-0.445-1.28-0.77-1.861l2.888-2.888c-0.889-1.307-2.019-2.436-3.325-3.328l-2.89 2.89c-0.582-0.326-1.206-0.586-1.861-0.77v-4.089c-0.761-0.146-1.547-0.22-2.351-0.22s-1.59 0.074-2.353 0.22v4.089c-0.656 0.184-1.278 0.445-1.861 0.77l-2.89-2.89c-1.307 0.892-2.436 2.021-3.323 3.328l2.888 2.888c-0.326 0.582-0.586 1.206-0.77 1.861h-4.087c-0.146 0.764-0.22 1.549-0.22 2.353s0.074 1.59 0.22 2.351h4.087c0.184 0.656 0.445 1.28 0.77 1.861l-2.888 2.888c0.887 1.307 2.016 2.436 3.323 3.328l2.89-2.89c0.584 0.326 1.206 0.586 1.861 0.772v4.087c0.763 0.146 1.549 0.22 2.353 0.22s1.59-0.074 2.351-0.22v-4.087c0.656-0.186 1.28-0.447 1.861-0.772l2.89 2.89c1.307-0.889 2.436-2.019 3.325-3.325l-2.888-2.89c0.326-0.582 0.584-1.206 0.77-1.861h4.087zm-12.397 0.194c-1.406 0-2.546-1.14-2.546-2.546s1.14-2.546 2.546-2.546 2.546 1.14 2.546 2.546-1.14 2.546-2.546 2.546z" fill="#42444f"/>
		<path d="m248.9 411.15v-1.87c0-1.703 1.381-3.083 3.083-3.083h17.187c1.703 0 3.083-1.38 3.083-3.083s-1.381-3.083-3.083-3.083h-41.753c-1.703 0-3.084-1.38-3.084-3.083v-0.506c0-1.703 1.381-3.083 3.084-3.083h18.096c1.703 0 3.083-1.38 3.083-3.083v-2.78" fill="none" stroke="#6f7082" stroke-miterlimit="10" stroke-width="2.0664"/>
		
			<path d="m342.45 121.88v258.17c0 4.079-3.306 7.385-7.385 7.385h-173.1c-4.079 0-7.385-3.306-7.385-7.385v-258.17c0-4.078 3.306-7.385 7.385-7.385h173.1c4.078 1e-3 7.385 3.307 7.385 7.385z" fill="#6f7082"/>
			<path d="m342.45 121.88v6.029h-187.86v-6.029c0-4.078 3.306-7.385 7.385-7.385h173.1c4.078 1e-3 7.385 3.307 7.385 7.385z" fill="#42444f"/>
			<path d="m342.45 375.24v4.804c0 4.079-3.306 7.385-7.385 7.385h-173.1c-4.079 0-7.385-3.306-7.385-7.385v-4.804z" fill="#42444f"/>
			
				<path d="m330.66 121.74c0 1.232 0.998 2.23 2.23 2.23s2.23-0.998 2.23-2.23-0.999-2.23-2.23-2.23c-1.232 0-2.23 0.998-2.23 2.23z" fill="#34909d"/>
				<path d="m322.87 121.74c0 1.232 0.999 2.23 2.23 2.23 1.232 0 2.23-0.998 2.23-2.23s-0.998-2.23-2.23-2.23-2.23 0.998-2.23 2.23z" fill="#e76700"/>
				<path d="m315.07 121.74c0 1.232 0.999 2.23 2.23 2.23 1.232 0 2.23-0.998 2.23-2.23s-0.998-2.23-2.23-2.23c-1.231 0-2.23 0.998-2.23 2.23z" fill="#ba0034"/>
			
			<path d="m334.69 203.58h-172.35c-2.703 0-4.894-2.191-4.894-4.894v-63.13c0-2.703 2.191-4.894 4.894-4.894h172.35c2.703 0 4.894 2.191 4.894 4.894v63.13c1e-3 2.703-2.19 4.894-4.893 4.894z" fill="#42444f"/>
			<path d="m212.85 215.51v34.769c0 1.712-0.986 3.207-2.416 3.922-0.596 0.314-1.257 0.477-1.972 0.477h-41.389c-2.427 0-4.388-1.972-4.388-4.399v-34.769c0-0.715 0.163-1.376 0.477-1.972 0.715-1.43 2.199-2.416 3.911-2.416h41.389c2.417-1e-3 4.388 1.961 4.388 4.388z" fill="#35363b"/>
			<path d="m210.91 217.45v34.78c0 0.704-0.173 1.376-0.477 1.972-0.596 0.314-1.257 0.477-1.972 0.477h-41.389c-2.427 0-4.388-1.972-4.388-4.399v-34.769c0-0.715 0.163-1.376 0.477-1.972 0.596-0.314 1.257-0.477 1.972-0.477h41.378c2.427 0 4.399 1.961 4.399 4.388z" fill="#42444f"/><g fill="#fff">
			<rect x="217.67" y="211.12" width="117.45" height="3.309"/>
			<rect x="217.67" y="219.2" width="117.45" height="3.309"/>
			<rect x="217.67" y="227.29" width="117.45" height="3.309"/>
			<rect x="217.67" y="235.37" width="117.45" height="3.309"/>
			</g>
				<path d="m331.46 254.67h-26.927c-2.018 0-3.669-1.651-3.669-3.669s1.651-3.669 3.669-3.669h26.927c2.018 0 3.669 1.651 3.669 3.669s-1.651 3.669-3.669 3.669z" fill="#35363b"/>
				<path d="m324.05 252.66h-12.109c-0.914 0-1.655-0.741-1.655-1.655s0.741-1.655 1.655-1.655h12.109c0.914 0 1.655 0.741 1.655 1.655s-0.741 1.655-1.655 1.655z" fill="#e6eaf0"/>
			
			<g fill="#35363b">
				
					<rect x="162.68" y="269.55" width="18.488" height="18.488"/>
					<rect x="162.68" y="289.92" width="18.488" height="1.898"/>
					<rect x="162.68" y="293.68" width="18.488" height="1.898"/>
					<rect x="162.68" y="297.45" width="12.268" height="1.898"/>
				
				
					<rect x="188.34" y="269.55" width="18.488" height="18.488"/>
					<rect x="188.34" y="289.92" width="18.488" height="1.898"/>
					<rect x="188.34" y="293.68" width="18.488" height="1.898"/>
					<rect x="188.34" y="297.45" width="12.268" height="1.898"/>
				
				
					<rect x="214" y="269.55" width="18.488" height="18.488"/>
					<rect x="214" y="289.92" width="18.488" height="1.898"/>
					<rect x="214" y="293.68" width="18.488" height="1.898"/>
					<rect x="214" y="297.45" width="12.268" height="1.898"/>
				
				
					<rect x="239.66" y="269.55" width="18.488" height="18.488"/>
					<rect x="239.66" y="289.92" width="18.488" height="1.898"/>
					<rect x="239.66" y="293.68" width="18.488" height="1.898"/>
					<rect x="239.66" y="297.45" width="12.268" height="1.898"/>
				
				
					<rect x="265.32" y="269.55" width="18.488" height="18.488"/>
					<rect x="265.32" y="289.92" width="18.488" height="1.898"/>
					<rect x="265.32" y="293.68" width="18.488" height="1.898"/>
					<rect x="265.32" y="297.45" width="12.268" height="1.898"/>
				
				
					<rect x="290.98" y="269.55" width="18.488" height="18.488"/>
					<rect x="290.98" y="289.92" width="18.488" height="1.898"/>
					<rect x="290.98" y="293.68" width="18.488" height="1.898"/>
					<rect x="290.98" y="297.45" width="12.268" height="1.898"/>
				
				
					<rect x="316.64" y="269.55" width="18.488" height="18.488"/>
					<rect x="316.64" y="289.92" width="18.488" height="1.898"/>
					<rect x="316.64" y="293.68" width="18.488" height="1.898"/>
					<rect x="316.64" y="297.45" width="12.268" height="1.898"/>
				
			</g><g fill="#fff">
			
				
					<polygon points="162.68 168.15 169.75 175.22 169.75 161.07"/>
				
				<polygon points="328.05 161.07 328.05 175.22 335.12 168.15"/>
			
			
				<circle cx="237.38" cy="200.83" r="1.285"/>
				</g><path d="m244.23 200.83c0 0.71-0.575 1.285-1.285 1.285s-1.285-0.575-1.285-1.285 0.575-1.285 1.285-1.285 1.285 0.575 1.285 1.285z" fill="#6f7082"/><g fill="#fff">
				<path d="m249.8 200.83c0 0.71-0.575 1.285-1.285 1.285s-1.285-0.575-1.285-1.285 0.575-1.285 1.285-1.285 1.285 0.575 1.285 1.285z"/>
				<circle cx="254.08" cy="200.83" r="1.285"/>
				<circle cx="259.65" cy="200.83" r="1.285"/>
			</g>
			
				<line x1="162.68" x2="335.12" y1="308.24" y2="308.24" fill="none" stroke="#35363b" stroke-miterlimit="10" stroke-width="1.0835"/>
			
				<line x1="162.68" x2="335.12" y1="262.11" y2="262.11" fill="none" stroke="#35363b" stroke-miterlimit="10" stroke-width="1.0835"/>
			<g fill="#fff">
				<path d="m232.37 336.44h-60.388c-5.134 0-9.296-4.162-9.296-9.296s4.162-9.296 9.296-9.296h60.388c5.134 0 9.296 4.162 9.296 9.296-1e-3 5.135-4.162 9.296-9.296 9.296z"/>
				<path d="m325.83 336.44h-62.451c-5.134 0-9.296-4.162-9.296-9.296s4.162-9.296 9.296-9.296h62.451c5.134 0 9.296 4.162 9.296 9.296 0 5.135-4.162 9.296-9.296 9.296z"/>
			
			
				<path d="m232.37 359.82h-60.388c-5.134 0-9.296-4.162-9.296-9.296s4.162-9.296 9.296-9.296h60.388c5.134 0 9.296 4.162 9.296 9.296-1e-3 5.134-4.162 9.296-9.296 9.296z"/>
				<path d="m325.83 359.82h-62.451c-5.134 0-9.296-4.162-9.296-9.296s4.162-9.296 9.296-9.296h62.451c5.134 0 9.296 4.162 9.296 9.296s-4.162 9.296-9.296 9.296z"/>
			</g>
		
		
			<path d="m401.88 111.15-4.273-1.347c-0.947-0.299-1.082-1.583-0.218-2.073l3.899-2.206c1.077-0.609 0.542-2.258-0.688-2.118l-4.451 0.507c-0.987 0.112-1.633-1.007-1.042-1.805l2.665-3.601c0.736-0.995-0.423-2.283-1.49-1.655l-3.86 2.274c-0.856 0.504-1.901-0.255-1.686-1.225l0.97-4.374c0.268-1.209-1.316-1.914-2.034-0.906l-2.602 3.647c-0.577 0.809-1.841 0.54-2.039-0.433l-0.893-4.39c-0.247-1.213-1.98-1.213-2.227 0l-0.893 4.39c-0.198 0.973-1.462 1.242-2.039 0.433l-2.602-3.647c-0.719-1.008-2.302-0.303-2.034 0.906l0.97 4.374c0.215 0.97-0.83 1.729-1.686 1.225l-3.86-2.274c-1.067-0.628-2.227 0.66-1.49 1.655l2.665 3.601c0.591 0.799-0.055 1.918-1.042 1.805l-4.451-0.507c-1.23-0.14-1.766 1.508-0.688 2.118l3.899 2.206c0.865 0.489 0.73 1.774-0.218 2.073l-4.273 1.347c-1.181 0.372-0.999 2.096 0.233 2.215l4.46 0.429c0.989 0.095 1.388 1.324 0.644 1.982l-3.355 2.969c-0.927 0.82-0.061 2.321 1.113 1.929l4.249-1.422c0.942-0.315 1.806 0.645 1.395 1.549l-1.858 4.077c-0.513 1.126 0.889 2.145 1.802 1.309l3.303-3.027c0.732-0.671 1.913-0.146 1.904 0.848l-0.039 4.48c-0.011 1.238 1.685 1.598 2.178 0.463l1.786-4.108c0.396-0.911 1.688-0.911 2.084 0l1.786 4.108c0.494 1.135 2.189 0.775 2.178-0.463l-0.039-4.48c-9e-3 -0.993 1.172-1.519 1.904-0.848l3.303 3.027c0.913 0.836 2.315-0.183 1.802-1.309l-1.858-4.077c-0.412-0.904 0.453-1.864 1.394-1.549l4.249 1.422c1.174 0.393 2.041-1.108 1.114-1.929l-3.355-2.969c-0.744-0.658-0.345-1.887 0.644-1.982l4.46-0.429c1.229-0.119 1.41-1.843 0.23-2.215zm-18.857 6.147c-4.033 0-7.302-3.269-7.302-7.302s3.269-7.302 7.302-7.302 7.302 3.269 7.302 7.302-3.27 7.302-7.302 7.302z" fill="#6f7082"/>
			<path d="m399.12 138.75-2.338-0.737c-0.518-0.164-0.592-0.867-0.119-1.134l2.134-1.207c0.59-0.334 0.297-1.236-0.377-1.159l-2.436 0.277c-0.54 0.062-0.894-0.551-0.57-0.988l1.458-1.971c0.403-0.545-0.232-1.25-0.815-0.906l-2.112 1.244c-0.468 0.276-1.04-0.14-0.923-0.671l0.531-2.394c0.147-0.661-0.72-1.047-1.113-0.496l-1.424 1.996c-0.316 0.443-1.007 0.296-1.116-0.237l-0.489-2.402c-0.135-0.664-1.084-0.664-1.219 0l-0.489 2.402c-0.108 0.533-0.8 0.68-1.116 0.237l-1.424-1.996c-0.393-0.552-1.26-0.166-1.113 0.496l0.531 2.394c0.118 0.531-0.454 0.946-0.923 0.671l-2.112-1.244c-0.584-0.344-1.218 0.361-0.815 0.906l1.458 1.971c0.323 0.437-0.03 1.049-0.57 0.988l-2.436-0.277c-0.673-0.077-0.966 0.826-0.377 1.159l2.134 1.207c0.473 0.268 0.399 0.971-0.119 1.134l-2.338 0.737c-0.646 0.204-0.547 1.147 0.127 1.212l2.44 0.235c0.541 0.052 0.76 0.725 0.352 1.085l-1.836 1.625c-0.507 0.449-0.033 1.27 0.609 1.055l2.325-0.778c0.516-0.172 0.989 0.353 0.763 0.848l-1.017 2.231c-0.281 0.616 0.486 1.174 0.986 0.716l1.808-1.656c0.401-0.367 1.047-0.08 1.042 0.464l-0.021 2.452c-6e-3 0.677 0.922 0.875 1.192 0.253l0.978-2.248c0.217-0.498 0.924-0.498 1.141 0l0.978 2.248c0.27 0.621 1.198 0.424 1.192-0.253l-0.021-2.452c-5e-3 -0.544 0.641-0.831 1.042-0.464l1.808 1.656c0.499 0.458 1.267-0.1 0.986-0.716l-1.017-2.231c-0.225-0.495 0.248-1.02 0.763-0.848l2.325 0.778c0.642 0.215 1.117-0.606 0.609-1.055l-1.836-1.625c-0.407-0.36-0.189-1.033 0.352-1.085l2.44-0.235c0.674-0.065 0.773-1.008 0.127-1.212zm-10.319 3.364c-2.207 0-3.996-1.789-3.996-3.996s1.789-3.996 3.996-3.996 3.996 1.789 3.996 3.996-1.789 3.996-3.996 3.996z" fill="#35363b"/>
		
		
			
				<rect x="83.239" y="283.17" width="37.013" height="48.299" fill="#ccd0d6"/>
				<rect x="75.537" y="275.46" width="37.013" height="48.299" fill="#dbdfe6"/>
				<rect x="67.315" y="267.24" width="37.013" height="48.299" fill="#42444f"/>
			
			<polygon points="120.25 308.25 120.25 305.69 67.317 305.69 67.317 306.26" fill="#35363b" opacity=".26"/>
			<rect x="65.508" y="299.05" width="55.73" height="6.642" fill="#fff"/>
		
		
			
				<rect transform="matrix(.9844 -.1758 .1758 .9844 -31.38 70.642)" x="360.47" y="203.1" width="45.299" height="18.758" fill="#ccd7e6"/>
			<rect x="360.86" y="204.63" width="45.299" height="18.757" fill="#e1e9f5"/>
			
				<rect transform="matrix(.9969 .0786 -.0786 .9969 18.254 -29.49)" x="362.69" y="209.18" width="42.344" height="16.065" fill="#fff"/>
			<path d="m394.79 208.58-4.365 4.365c-0.633 0.633-1.492 0.989-2.388 0.989h-28.894c-1.865 0-3.377 1.512-3.377 3.377v25.068c0 1.865 1.512 3.377 3.377 3.377h50.005c1.865 0 3.377-1.512 3.377-3.377v-31.411c0-1.865-1.512-3.377-3.377-3.377h-11.97c-0.895 0-1.754 0.356-2.388 0.989z" fill="#6f7082"/>
		
		<path d="m370.02 355.29c0.249-1.315 0.385-2.669 0.385-4.057s-0.136-2.742-0.385-4.056h-3.527c-0.716 0-0.97-0.948-0.35-1.306l3.055-1.766c-0.908-2.603-2.298-4.978-4.065-7.021l-3.215 1.858c-0.618 0.357-1.311-0.332-0.958-0.952l1.837-3.228c-2.054-1.753-4.439-3.126-7.049-4.016l-1.624 2.855c-0.355 0.624-1.308 0.372-1.308-0.346v-3.283c-1.314-0.249-2.669-0.385-4.056-0.385s-2.742 0.136-4.057 0.385v3.527c0 0.716-0.948 0.97-1.306 0.35l-1.766-3.055c-2.603 0.908-4.978 2.298-7.021 4.065l1.858 3.215c0.357 0.618-0.332 1.311-0.952 0.958l-3.228-1.837c-1.752 2.054-3.126 4.439-4.016 7.049l2.854 1.624c0.624 0.355 0.372 1.308-0.346 1.308h-3.283c-0.249 1.315-0.385 2.669-0.385 4.056s0.136 2.742 0.385 4.057h3.527c0.716 0 0.97 0.948 0.35 1.306l-3.055 1.766c0.908 2.603 2.298 4.978 4.065 7.021l3.215-1.858c0.618-0.357 1.312 0.332 0.959 0.952l-1.837 3.228c2.054 1.753 4.439 3.126 7.049 4.016l1.624-2.855c0.355-0.624 1.308-0.372 1.308 0.346v3.283c1.315 0.249 2.67 0.385 4.057 0.385s2.742-0.136 4.056-0.385v-3.526c0-0.716 0.948-0.97 1.306-0.35l1.766 3.055c2.603-0.908 4.978-2.298 7.021-4.065l-1.858-3.215c-0.357-0.618 0.332-1.311 0.952-0.958l3.228 1.837c1.752-2.054 3.126-4.439 4.016-7.049l-2.854-1.624c-0.624-0.355-0.372-1.308 0.346-1.308h3.282zm-20.632 5.617c-5.85 0.37-10.674-4.453-10.304-10.303 0.305-4.825 4.22-8.74 9.044-9.044 5.85-0.37 10.673 4.453 10.304 10.304-0.305 4.824-4.219 8.738-9.044 9.043z" fill="#42444f"/>
		
		<g fill="#42444f">
			<polygon points="425.3 283.56 389.24 280.31 408.61 308.33 412.3 292.96"/>
			
				<path d="m431.87 294.1h-12.111c-0.424 0-0.771-0.347-0.771-0.771s0.347-0.771 0.771-0.771h12.111c0.424 0 0.771 0.347 0.771 0.771s-0.347 0.771-0.771 0.771z"/>
				<path d="m433.87 300h-14.114c-0.424 0-0.771-0.347-0.771-0.771s0.347-0.771 0.771-0.771h14.114c0.424 0 0.771 0.347 0.771 0.771 1e-3 0.424-0.346 0.771-0.771 0.771z"/>
				<path d="m426.96 305.38h-12.111c-0.424 0-0.771-0.347-0.771-0.771s0.347-0.771 0.771-0.771h12.111c0.424 0 0.771 0.347 0.771 0.771 1e-3 0.424-0.346 0.771-0.771 0.771z"/>
				<path d="m437.53 305.38h-1.666c-0.424 0-0.771-0.347-0.771-0.771s0.347-0.771 0.771-0.771h1.666c0.424 0 0.772 0.347 0.772 0.771-1e-3 0.424-0.348 0.771-0.772 0.771z"/>
			
		</g>
		
			
				
					<g fill="none" stroke="#35363b" stroke-linecap="round" stroke-miterlimit="10" stroke-width="1.6252">
						
							<line x1="176.79" x2="176.79" y1="248.95" y2="248.95"/>
						
							<line x1="173.54" x2="113.44" y1="248.95" y2="248.95" stroke-dasharray="0, 3.249"/>
						
							<line x1="111.81" x2="111.81" y1="248.95" y2="248.95"/>
						
							<line x1="111.81" x2="111.81" y1="245.7" y2="185.59" stroke-dasharray="0, 3.249"/>
						
							<line x1="111.81" x2="111.81" y1="183.97" y2="183.97"/>
						
							<line x1="115.06" x2="175.17" y1="183.97" y2="183.97" stroke-dasharray="0, 3.249"/>
						
							<line x1="176.79" x2="176.79" y1="183.97" y2="183.97"/>
						
							<line x1="176.79" x2="176.79" y1="187.22" y2="247.32" stroke-dasharray="0, 3.249"/>
					</g><g fill="#42444f">
				
				
					
						<rect x="109.97" y="182.12" width="3.686" height="3.686"/>
						<rect x="142.46" y="182.12" width="3.686" height="3.686"/>
						<rect x="174.95" y="182.12" width="3.686" height="3.686"/>
					
					
						<rect x="109.97" y="214.62" width="3.686" height="3.686"/>
						<rect x="174.95" y="214.62" width="3.686" height="3.686"/>
					
					
						<rect x="109.97" y="247.11" width="3.686" height="3.686"/>
						<rect x="142.46" y="247.11" width="3.686" height="3.686"/>
						</g><rect x="174.95" y="247.11" width="3.686" height="3.686" fill="#35363b"/>
					
				
			
			<path d="m168.5 243.93h-47.884c-1.679 0-3.04-1.361-3.04-3.04v-47.884c0-1.679 1.361-3.04 3.04-3.04h47.884c1.679 0 3.04 1.361 3.04 3.04v47.884c0 1.679-1.361 3.04-3.04 3.04z" fill="#c9d0db"/>
			<path d="m168.5 242.84h-47.884c-1.679 0-3.04-1.361-3.04-3.04v-47.884c0-1.679 1.361-3.04 3.04-3.04h47.884c1.679 0 3.04 1.361 3.04 3.04v47.884c0 1.679-1.361 3.04-3.04 3.04z" fill="#e6eaf0"/>
		
		<g fill="#42444f">
			
				<rect x="370.95" y="378.59" width="20.416" height="2.9"/>
				<rect x="394.11" y="378.59" width="21.744" height="2.9"/>
				<rect x="417.27" y="378.59" width="18.051" height="2.9"/>
				<rect x="370.95" y="396.05" width="17.411" height="2.9"/>
				<rect x="390.12" y="396.05" width="15.547" height="2.9"/>
				<polygon points="433.94 395.99 433.94 398.89 407.09 398.95 407.09 396.05"/>
				<rect x="370.95" y="384.41" width="10.987" height="2.9"/>
				<rect x="384.68" y="384.41" width="42.797" height="2.9"/>
				<rect x="430.22" y="384.41" width="6.413" height="2.9"/>
				<rect x="370.95" y="390.23" width="20.416" height="2.9"/>
				<rect x="393.13" y="390.23" width="17.787" height="2.9"/>
				<rect x="413.66" y="390.23" width="15.398" height="2.9"/>
			
			
				<rect x="370.95" y="401.73" width="20.416" height="2.9"/>
				<rect x="394.11" y="401.73" width="21.744" height="2.9"/>
				<rect x="417.27" y="401.73" width="18.051" height="2.9"/>
				<rect x="370.95" y="419.2" width="17.411" height="2.9"/>
				<rect x="390.12" y="419.2" width="15.547" height="2.9"/>
				<polygon points="433.94 419.14 433.94 422.04 407.09 422.1 407.09 419.2"/>
				<rect x="370.95" y="407.55" width="10.987" height="2.9"/>
				<rect x="384.68" y="407.55" width="42.797" height="2.9"/>
				<rect x="430.22" y="407.55" width="6.413" height="2.9"/>
				<rect x="370.95" y="413.37" width="20.416" height="2.9"/>
				<rect x="393.13" y="413.37" width="17.787" height="2.9"/>
				<rect x="413.66" y="413.37" width="15.398" height="2.9"/>
			
		</g>
		
			
				
					<rect transform="matrix(-.7071 -.7071 .7071 -.7071 -72.009 792.78)" x="103.22" y="405.53" width="49.923" height="11.546" fill="#42444f"/>
				<path d="m101.98 393.26 4.473 4.473 8.164-8.164-4.473-4.473c-2.254-2.254-5.91-2.254-8.164 0s-2.254 5.91 0 8.164z" fill="#e1e9f5"/>
				<polygon points="154.03 437.15 152.31 432.01 149.92 424.88 141.76 433.04 148.89 435.43" fill="#e1e9f5"/>
				<polygon points="152.31 432.01 148.89 435.43 154.03 437.15" fill="#42444f"/>
			
			<path d="m154.03 437.15-49.499-5.759c-1.716-0.2-3.223 1.142-3.223 2.87 0 1.596 1.294 2.889 2.889 2.889z" fill="#e1e9f5"/>
		
		
			<path d="m144.56 177.15v-48.41c0-3.054-1.213-5.983-3.373-8.143l-9.801-9.801c-2.16-2.16-3.373-5.089-3.373-8.143v-20.355c0-6.36 5.156-11.516 11.516-11.516h6.008" fill="none" stroke="#42444f" stroke-dasharray="0, 3.2504" stroke-linecap="round" stroke-miterlimit="10" stroke-width="1.6252"/>
		
			<line x1="161.88" x2="182.54" y1="70.783" y2="70.783" fill="none" stroke="#42444f" stroke-dasharray="0, 3.2504" stroke-linecap="round" stroke-miterlimit="10" stroke-width="1.6252"/>
		<path d="m90.438 231.9c-0.1-0.132 32.658-9.909 32.658-9.909s-18.215 28.929-18.315 28.797-3.631-9.87-3.631-9.87l-10.973 8.333-2.18-2.87 10.973-8.333c1e-3 -1e-3 -8.432-6.017-8.532-6.148z" fill="#42444f"/>
		<g id="computer_keyboard_mouse_1_">
			
				
					<path d="m322.71 442.63c-3.828 0-6.961-3.132-6.961-6.961v-10.573c0-3.828 3.132-6.961 6.961-6.961 3.828 0 6.961 3.132 6.961 6.961v10.573c0 3.829-3.133 6.961-6.961 6.961z" fill="#42444f"/>
					<path d="m322.71 424.35c-0.238 0-0.434-0.195-0.434-0.434v-3.233c0-0.239 0.195-0.434 0.434-0.434s0.434 0.195 0.434 0.434v3.233c0 0.238-0.196 0.434-0.434 0.434z" fill="#6f7082"/>
				
				
					
						<path d="m297.31 449.83h-96.429c-2.576 0-4.663-2.088-4.663-4.664v-29.569c0-2.576 2.088-4.663 4.663-4.663h96.429c2.576 0 4.663 2.088 4.663 4.663v29.569c0 2.576-2.088 4.664-4.663 4.664z" fill="#e6eaf0"/>
						<rect x="205.84" y="413.71" width="5.85" height="5.85" fill="#6f7082"/>
						<g fill="#6f7082">
							<rect x="218.01" y="413.71" width="5.85" height="5.85"/>
							<rect x="224.78" y="413.71" width="5.85" height="5.85"/>
							<rect x="231.55" y="413.71" width="5.85" height="5.85"/>
							<rect x="238.33" y="413.71" width="5.85" height="5.85"/>
							<rect x="245.1" y="413.71" width="5.85" height="5.85"/>
						
						
							<rect x="258.34" y="413.71" width="5.85" height="5.85"/>
							<rect x="265.11" y="413.71" width="5.85" height="5.85"/>
							<rect x="271.88" y="413.71" width="5.85" height="5.85"/>
							<rect x="278.66" y="413.71" width="5.85" height="5.85"/>
							<rect x="285.43" y="413.71" width="5.85" height="5.85"/>
						
						
							<rect x="198.76" y="422.74" width="5.952" height="5.952"/>
							<rect x="206.66" y="422.74" width="5.952" height="5.952"/>
							<rect x="214.57" y="422.74" width="5.952" height="5.952"/>
							<rect x="222.47" y="422.74" width="5.952" height="5.952"/>
							<rect x="230.37" y="422.74" width="5.952" height="5.952"/>
							<rect x="238.27" y="422.74" width="5.952" height="5.952"/>
							<rect x="246.18" y="422.74" width="5.952" height="5.952"/>
							<rect x="254.08" y="422.74" width="5.952" height="5.952"/>
							<rect x="261.98" y="422.74" width="5.952" height="5.952"/>
							<rect x="269.88" y="422.74" width="5.952" height="5.952"/>
							<rect x="277.78" y="422.74" width="5.952" height="5.952"/>
							<rect x="285.69" y="422.74" width="5.952" height="5.952"/>
							<rect x="293.59" y="422.74" width="5.952" height="5.952"/>
						
						
							<rect x="198.76" y="437.52" width="5.952" height="5.952"/>
							<rect x="206.66" y="437.52" width="5.952" height="5.952"/>
							<rect x="214.57" y="437.52" width="37.664" height="5.952"/>
							<rect x="254.08" y="437.52" width="5.952" height="5.952"/>
							<rect x="261.98" y="437.52" width="5.952" height="5.952"/>
							<rect x="269.88" y="437.52" width="5.952" height="5.952"/>
							<rect x="277.78" y="437.52" width="5.952" height="5.952"/>
							<rect x="285.69" y="437.52" width="5.952" height="5.952"/>
							<rect x="293.59" y="437.52" width="5.952" height="5.952"/>
						
						
							<rect x="202.56" y="430.23" width="5.952" height="5.952"/>
							<rect x="210.46" y="430.23" width="5.952" height="5.952"/>
							<rect x="218.37" y="430.23" width="5.952" height="5.952"/>
							<rect x="226.27" y="430.23" width="5.952" height="5.952"/>
							<rect x="234.17" y="430.23" width="5.952" height="5.952"/>
							<rect x="242.07" y="430.23" width="5.952" height="5.952"/>
							<rect x="249.97" y="430.23" width="5.952" height="5.952"/>
							<rect x="257.88" y="430.23" width="5.952" height="5.952"/>
							<rect x="265.78" y="430.23" width="5.952" height="5.952"/>
							<rect x="273.68" y="430.23" width="5.952" height="5.952"/>
							<rect x="281.58" y="430.23" width="5.952" height="5.952"/>
							<rect x="289.48" y="430.23" width="5.952" height="5.952"/>
						</g>
					
					<circle cx="298.02" cy="415.07" r="1.414" fill="#35363b"/>
				
			
		</g>
		
			
				<circle transform="matrix(.3827 -.9239 .9239 .3827 -69.515 158.61)" cx="83.934" cy="131.32" r="4.459" fill="none" stroke="#e6eaf0" stroke-miterlimit="10" stroke-width="1.0835"/>
			<path d="m60.422 213.62c0 1.119-0.907 2.027-2.027 2.027-1.119 0-2.027-0.908-2.027-2.027s0.908-2.027 2.027-2.027c1.12 1e-3 2.027 0.908 2.027 2.027z" fill="#e6eaf0"/>
			<path d="m91.23 357.52c0 2.015-1.633 3.648-3.648 3.648s-3.648-1.633-3.648-3.648 1.633-3.648 3.648-3.648 3.648 1.633 3.648 3.648z" fill="#e6eaf0"/>
			<path d="m450.22 157.64c0 1.757-1.424 3.181-3.181 3.181s-3.181-1.424-3.181-3.181 1.424-3.182 3.181-3.182c1.756 1e-3 3.181 1.425 3.181 3.182z" fill="none" stroke="#e6eaf0" stroke-miterlimit="10" stroke-width="1.0835"/><g fill="#e6eaf0">
			<circle cx="444.54" cy="254.67" r="2.045"/>
			<path d="m369.77 289.67c0 1.632-1.323 2.954-2.954 2.954-1.632 0-2.954-1.323-2.954-2.954 0-1.632 1.323-2.954 2.954-2.954 1.632 0 2.954 1.323 2.954 2.954z"/>
			<circle cx="455.9" cy="347.69" r="2.5"/>
			<path d="m347.5 405.79c0 1.255-1.017 2.272-2.272 2.272s-2.272-1.017-2.272-2.272 1.017-2.272 2.272-2.272 2.272 1.017 2.272 2.272z"/>
			</g><path d="m182.98 403.29c0 2.134-1.73 3.863-3.863 3.863s-3.863-1.73-3.863-3.863 1.73-3.863 3.863-3.863 3.863 1.73 3.863 3.863z" fill="none" stroke="#e6eaf0" stroke-miterlimit="10" stroke-width="1.0835"/>
			<path d="m246.62 99.374c0 1.004-0.814 1.818-1.818 1.818s-1.818-0.814-1.818-1.818 0.814-1.818 1.818-1.818 1.818 0.814 1.818 1.818z" fill="#e6eaf0"/>
			<g id="_x30__26_">
				
					<path d="m391.91 345.22c0 3.125 2.533 5.658 5.658 5.658h20.409c1.18 0 2.137 0.957 2.137 2.137s-0.957 2.137-2.137 2.137h-3.006c-2.038 0-3.69 1.652-3.69 3.69v0.195c0 2.038 1.652 3.69 3.69 3.69h39.74c2.038 0 3.69-1.652 3.69-3.69s-1.652-3.69-3.69-3.69h-27.1c-1.18 0-2.137-0.957-2.137-2.137v-0.195c0-1.18 0.957-2.137 2.137-2.137h11.508c3.125 0 5.658-2.533 5.658-5.658s-2.533-5.658-5.658-5.658h-41.55c-3.126 0-5.659 2.533-5.659 5.658z" fill="#e6eaf0"/>
				
			</g>
			<g id="_x30__27_">
				<g fill="#e6eaf0">
					<path d="m95.91 169.02h-25.464c-1.443 0-2.623-1.18-2.623-2.623 0-1.442 1.18-2.623 2.623-2.623h25.464c1.442 0 2.623 1.18 2.623 2.623 0 1.442-1.181 2.623-2.623 2.623z"/>
					<path d="m108.02 169.02h-2.957c-1.442 0-2.623-1.18-2.623-2.623 0-1.442 1.18-2.623 2.623-2.623h2.957c1.442 0 2.623 1.18 2.623 2.623 0 1.442-1.18 2.623-2.623 2.623z"/>
					<path d="m122.95 169.02h-0.528c-1.442 0-2.623-1.18-2.623-2.623 0-1.442 1.18-2.623 2.623-2.623h0.528c1.443 0 2.623 1.18 2.623 2.623 0 1.442-1.18 2.623-2.623 2.623z"/>
				</g>
			</g>
			<g id="_x30__28_">
				<g fill="#e6eaf0">
					<path d="m385.62 453.21h-25.464c-1.443 0-2.623-1.18-2.623-2.623 0-1.442 1.18-2.623 2.623-2.623h25.464c1.442 0 2.623 1.18 2.623 2.623-1e-3 1.443-1.181 2.623-2.623 2.623z"/>
					<path d="m397.74 453.21h-2.957c-1.443 0-2.623-1.18-2.623-2.623 0-1.442 1.18-2.623 2.623-2.623h2.957c1.443 0 2.623 1.18 2.623 2.623-1e-3 1.443-1.181 2.623-2.623 2.623z"/>
					<path d="m412.67 453.21h-0.528c-1.443 0-2.623-1.18-2.623-2.623 0-1.442 1.18-2.623 2.623-2.623h0.528c1.442 0 2.623 1.18 2.623 2.623s-1.181 2.623-2.623 2.623z"/>
				</g>
			</g>
		
		<g id="cloud_13_">
			<path d="m332.66 88.994c-0.627 0-1.225 0.113-1.785 0.31-0.577-2.874-2.57-5.232-5.22-6.323 0.103-0.804 0.161-1.622 0.161-2.454 0-10.605-8.597-19.201-19.201-19.201-9.598 0-17.55 7.042-18.974 16.241-0.786-0.174-1.602-0.269-2.44-0.269-6.194 0-11.216 5.021-11.216 11.216s5.021 11.216 11.216 11.216h47.459c2.964 0 5.367-2.403 5.367-5.367 0-2.966-2.403-5.369-5.367-5.369z" fill="#42444f"/>
		</g>
	<g transform="translate(19.785 8.4009)" display="none">
	
		<path d="m445.63 275.22c-14.306-16.434-33.22-28.11-52.316-38.601-17.913-9.842-38.656-22.279-40.268-42.653-2.007-25.373 26.749-41.81 36.047-65.504 9.277-23.639-3.225-51.542-23.321-67.067s-46.022-21.123-71.201-24.423c-36.055-4.725-75.823-4.678-104.9 17.162-25.988 19.522-37.975 52.651-43.14 84.742-0.052 0.321-0.103 0.642-0.153 0.963-7.933 50.323-32.41 96.828-70.813 130.3-3.027 2.639-5.896 5.455-8.566 8.488-23.224 26.39-27.229 66.595-13.995 99.163s41.718 57.505 74.068 71.26c32.351 13.756 68.325 17.163 103.42 15.2 67.543-3.777 133.87-27.25 188.75-66.801 21.641-15.596 42.8-35.874 46.739-62.257 3.218-21.549-6.054-43.541-20.36-59.975z" fill="#dde3eb"/>
		<path d="m443.85 274.98c-14.173-16.282-32.913-27.849-51.831-38.243-17.747-9.75-38.298-22.072-39.895-42.258-1.989-25.138 26.501-41.423 35.713-64.896 9.191-23.42-3.195-51.064-23.105-66.445s-45.595-20.927-70.54-24.196c-35.721-4.681-75.12-4.635-103.92 17.003-25.747 19.341-37.623 52.163-42.74 83.956-0.051 0.318-0.102 0.636-0.152 0.954-7.86 49.857-32.11 95.93-70.157 129.1-2.999 2.615-5.842 5.404-8.487 8.41-23.009 26.145-26.977 65.978-13.866 98.243 13.111 32.266 41.331 56.972 73.382 70.6s67.692 17.004 102.46 15.059c66.917-3.742 132.63-26.997 187-66.182 21.441-15.451 42.403-35.541 46.306-61.68 3.188-21.35-5.998-43.138-20.171-59.42z" fill="#f0f3f7"/>
		<g id="phone_3_" opacity=".17">
			
				
					<path d="m345.71 146.53v221.75c0 13.924-11.287 25.211-25.211 25.211h-119.19c-13.924 0-25.211-11.287-25.211-25.211v-221.75c0-13.924 11.287-25.211 25.211-25.211h119.19c13.923 0 25.21 11.287 25.21 25.211z" fill="#42444f"/>
				
			
		</g>
		<path d="m183.98 147.93h-122.16c-35.662 0-38.556-53.05 4.903-53.05 0-50.12 80.256-54.549 80.256-2.236 18.368 0 37.573-2.129 42.034 13.445 1.76 6.135 0.799 10.758-4.363 18.437 20.282-4.904 28.08 23.404-0.67 23.404z" fill="#6f7082"/>
		<g id="phone_2_">
			
				<path d="m183.98 147.93h-26.309v-23.538c0-11.587 9.393-20.98 20.98-20.98h10.362c1.76 6.134 0.799 13.435-4.363 21.114 20.282-4.904 28.08 23.404-0.67 23.404z" fill="#6f7082" opacity=".2"/>
			
		</g>
		<path d="m167.99 365.49h-40.75c-5.339 0-9.667-4.328-9.667-9.667v-85.242c0-5.339 4.328-9.667 9.667-9.667h40.75z" fill="#c3c9d4"/>
		<path d="m168.99 365.49h-40.75c-5.339 0-9.667-4.328-9.667-9.667v-85.242c0-5.339 4.328-9.667 9.667-9.667h40.75z" fill="#fff"/>
		<g id="phone_1_">
			
				
					<path d="m180.71 382.43c-9.54 0-17.302-7.762-17.302-17.302v-239.73c0-9.54 7.762-17.302 17.302-17.302h137.17c9.54 0 17.302 7.762 17.302 17.302v239.73c0 9.54-7.762 17.302-17.302 17.302z" fill="#42444f"/>
					<path d="m317.88 109.18c8.964 0 16.222 7.258 16.222 16.222v239.73c0 8.964-7.258 16.222-16.222 16.222h-137.17c-8.964 0-16.222-7.258-16.222-16.222v-239.73c0-8.964 7.258-16.222 16.222-16.222h137.17m0-2.16h-137.17c-10.136 0-18.382 8.246-18.382 18.382v239.73c0 10.136 8.246 18.382 18.382 18.382h137.17c10.136 0 18.382-8.246 18.382-18.382v-239.73c0-10.136-8.246-18.382-18.382-18.382z" fill="#35363b"/>
				
			
		</g>
		<path d="m321.58 334.61v35.943h-118.51v-35.943c0-3.985 3.219-7.204 7.193-7.204h104.12c3.974 0 7.193 3.219 7.193 7.204z" fill="#191a1c"/>
		<path d="m316.04 329.06v35.943h-118.51v-35.943c0-3.985 3.218-7.204 7.193-7.204h104.12c3.974 0 7.193 3.219 7.193 7.204z" fill="#27282b"/>
		<path d="m309.3 322.33v35.943h-118.51v-35.943c0-3.985 3.218-7.204 7.193-7.204h104.12c3.974 0 7.192 3.218 7.192 7.204z" fill="#52545c"/>
		<path d="m334.11 358.27v6.858c0 8.964-7.258 16.222-16.222 16.222h-137.17c-8.964 0-16.222-7.258-16.222-16.222v-6.858z" fill="#35363b"/>
		<circle cx="249.29" cy="368.87" r="9.064" fill="#fff"/>
		<path d="m291.73 109.18c-0.389 2.84-1.717 5.389-3.65 7.333-2.333 2.322-5.54 3.769-9.072 3.769h-59.433c-6.48 0-11.869-4.86-12.722-11.103h84.877z" fill="#35363b"/>
		<g id="Artwork_2_4_">
			
				<rect x="365.87" y="178.59" width="35.972" height="49.694" fill="#e6eaf0"/>
				<polygon points="375.26 178.59 365.87 178.59 365.87 187.98" fill="#42444f"/><g fill="#6f7082">
				<rect x="373.43" y="184.16" width="20.839" height="1.162"/>
				<rect x="373.43" y="187.5" width="20.839" height="1.162"/>
				<rect x="373.43" y="190.84" width="20.839" height="1.162"/>
				<rect x="373.43" y="194.18" width="20.839" height="1.162"/>
				<rect x="373.43" y="197.52" width="20.839" height="1.162"/>
				<rect x="373.43" y="200.87" width="20.839" height="1.162"/>
				<rect x="373.43" y="204.21" width="20.839" height="1.162"/>
				<rect x="373.43" y="207.55" width="20.839" height="1.162"/>
				<rect x="373.43" y="210.89" width="20.839" height="1.162"/>
				<rect x="373.43" y="214.23" width="20.839" height="1.162"/>
				<rect x="373.43" y="217.58" width="20.839" height="1.162"/>
				<rect x="373.43" y="220.92" width="12.604" height="1.162"/>
			</g>
		</g>
		<g id="Artwork_2_5_">
			
				<rect x="384.44" y="194.96" width="35.972" height="49.694" fill="#d9dde3"/>
				<polygon points="393.83 194.96 384.44 194.96 384.44 204.35" fill="#42444f"/><g fill="#6f7082">
				<rect x="392.01" y="200.53" width="20.839" height="1.162"/>
				<rect x="392.01" y="203.87" width="20.839" height="1.162"/>
				<rect x="392.01" y="207.21" width="20.839" height="1.162"/>
				<rect x="392.01" y="210.55" width="20.839" height="1.162"/>
				<rect x="392.01" y="213.89" width="20.839" height="1.162"/>
				<rect x="392.01" y="217.24" width="20.839" height="1.162"/>
				<rect x="392.01" y="220.58" width="20.839" height="1.162"/>
				<rect x="392.01" y="223.92" width="20.839" height="1.162"/>
				<rect x="392.01" y="227.26" width="20.839" height="1.162"/>
				<rect x="392.01" y="230.6" width="20.839" height="1.162"/>
				<rect x="392.01" y="233.94" width="20.839" height="1.162"/>
				<rect x="392.01" y="237.29" width="12.604" height="1.162"/>
			</g>
		</g>
		
			<polyline points="365.76 201.84 343.88 201.84 330.05 215.67" fill="none" stroke="#6f7082" stroke-dasharray="0, 2.5902" stroke-linecap="round" stroke-miterlimit="10" stroke-width="1.6281"/>
		<path d="m253.5 410.48v25.575c0 2.581-2.095 4.677-4.666 4.677h-56.96c-2.581 0-4.666-2.095-4.666-4.677v-25.575c0-2.581 2.084-4.676 4.666-4.676h56.96c2.571-1e-3 4.666 2.095 4.666 4.676z" fill="#6f7082"/>
		<path d="m253.5 410.48v9.353c-0.151 0.011-0.313 0.011-0.464 0.011-5.908 0-10.703-4.795-10.703-10.714 0-1.166 0.184-2.279 0.529-3.326h5.972c2.571-1e-3 4.666 2.095 4.666 4.676z" fill="#42444f"/>
		
			
				<circle transform="matrix(.7071 -.7071 .7071 .7071 -213.62 298.93)" cx="254.03" cy="407.32" r="10.709" fill="#fff"/>
			<polyline points="248 409.46 250.77 412.24 260.03 402.98" fill="none" stroke="#55c0ed" stroke-miterlimit="10" stroke-width="2.16"/>
		
		
			
				<path d="m230.19 431.32h-20.117c-0.957 0-1.733-0.776-1.733-1.733v-12.649c0-0.957 0.776-1.733 1.733-1.733h20.117c0.957 0 1.733 0.776 1.733 1.733v12.649c-1e-3 0.957-0.776 1.733-1.733 1.733z" fill="#fff"/>
				<g fill="none" stroke="#e6eaf0" stroke-linecap="round" stroke-linejoin="round" stroke-miterlimit="10" stroke-width=".54">
					
						<line x1="209.72" x2="230.55" y1="430.32" y2="416.5"/>
					
						<line x1="230.55" x2="209.72" y1="430.32" y2="416.5"/>
				</g>
			
			<g fill="none" stroke="#fff" stroke-linecap="round" stroke-linejoin="round" stroke-miterlimit="10" stroke-width="2.16">
				
					<polyline points="238.5 420.15 241.14 422.8 238.5 425.44"/>
				
					<polyline points="201.77 425.62 199.12 422.97 201.77 420.32"/>
			</g>
		
		
			<path d="m313.77 458.47h-42.214c-1.239 0-2.243-1.004-2.243-2.243v-27.225c0-1.239 1.004-2.243 2.243-2.243h42.214c1.239 0 2.243 1.004 2.243 2.243v27.225c0 1.239-1.004 2.243-2.243 2.243z" fill="#e6eaf0"/>
			<path d="m312.9 457.52h-42.214c-1.239 0-2.243-1.004-2.243-2.243v-27.225c0-1.239 1.004-2.243 2.243-2.243h42.214c1.239 0 2.243 1.004 2.243 2.243v27.225c0 1.239-1.004 2.243-2.243 2.243z" fill="#fff"/>
			<path d="m286.19 452.51h-7.971c-0.741 0-1.341-0.6-1.341-1.341v-16.798c0-0.74 0.6-1.341 1.341-1.341h7.971c0.741 0 1.341 0.6 1.341 1.341v16.798c-1e-3 0.74-0.601 1.341-1.341 1.341z" fill="#e6eaf0"/>
			<g fill="#42444f">
				<rect x="292.24" y="434.29" width="13.35" height="1.967"/>
				<rect x="292.24" y="439.16" width="13.35" height="1.967"/>
				<rect x="292.24" y="444.03" width="13.35" height="1.967"/>
				<rect x="292.24" y="448.9" width="13.35" height="1.967"/>
			</g>
		
		
			<path d="m393.93 442.22h-64.162c-2.935 0-5.314-2.379-5.314-5.314v-33.886c0-2.935 2.379-5.314 5.314-5.314h64.162c2.935 0 5.314 2.379 5.314 5.314v33.886c-1e-3 2.935-2.38 5.314-5.314 5.314z" fill="#e6eaf0"/>
			<path d="m393.93 441.14h-64.162c-2.935 0-5.314-2.379-5.314-5.314v-33.886c0-2.935 2.379-5.314 5.314-5.314h64.162c2.935 0 5.314 2.379 5.314 5.314v33.886c-1e-3 2.935-2.38 5.314-5.314 5.314z" fill="#fff"/>
			
				
					<path d="m342.37 432.26h-7.874c-0.786 0-1.424-0.638-1.424-1.424v-22.946c0-0.786 0.638-1.424 1.424-1.424h7.874c0.786 0 1.424 0.637 1.424 1.424v22.946c0 0.786-0.637 1.424-1.424 1.424z" fill="#d2d6db"/>
					<path d="m342.37 431.3h-7.874c-0.786 0-1.424-0.638-1.424-1.424v-22.946c0-0.786 0.638-1.424 1.424-1.424h7.874c0.786 0 1.424 0.637 1.424 1.424v22.946c0 0.787-0.637 1.424-1.424 1.424z" fill="#e6eaf0"/>
					<rect x="334.17" y="406.94" width="8.526" height="19.772" fill="#fff"/>
				
				
					<path d="m357.98 432.26h-7.874c-0.786 0-1.424-0.638-1.424-1.424v-22.946c0-0.786 0.638-1.424 1.424-1.424h7.874c0.786 0 1.424 0.637 1.424 1.424v22.946c0 0.786-0.637 1.424-1.424 1.424z" fill="#d2d6db"/>
					<path d="m357.98 431.3h-7.874c-0.786 0-1.424-0.638-1.424-1.424v-22.946c0-0.786 0.638-1.424 1.424-1.424h7.874c0.786 0 1.424 0.637 1.424 1.424v22.946c0 0.787-0.637 1.424-1.424 1.424z" fill="#e6eaf0"/>
					<rect x="349.78" y="406.94" width="8.526" height="19.772" fill="#fff"/>
				
				
					<path d="m373.59 432.26h-7.874c-0.786 0-1.424-0.638-1.424-1.424v-22.946c0-0.786 0.638-1.424 1.424-1.424h7.874c0.786 0 1.424 0.637 1.424 1.424v22.946c0 0.786-0.637 1.424-1.424 1.424z" fill="#d2d6db"/>
					<path d="m373.59 431.3h-7.874c-0.786 0-1.424-0.638-1.424-1.424v-22.946c0-0.786 0.638-1.424 1.424-1.424h7.874c0.786 0 1.424 0.637 1.424 1.424v22.946c0 0.787-0.637 1.424-1.424 1.424z" fill="#e6eaf0"/>
					<rect x="365.39" y="406.94" width="8.526" height="19.772" fill="#fff"/>
				
				
					<path d="m389.2 432.26h-7.874c-0.786 0-1.424-0.638-1.424-1.424v-22.946c0-0.786 0.637-1.424 1.424-1.424h7.874c0.786 0 1.424 0.637 1.424 1.424v22.946c0 0.786-0.637 1.424-1.424 1.424z" fill="#d2d6db"/>
					<path d="m389.2 431.3h-7.874c-0.786 0-1.424-0.638-1.424-1.424v-22.946c0-0.786 0.637-1.424 1.424-1.424h7.874c0.786 0 1.424 0.637 1.424 1.424v22.946c0 0.787-0.637 1.424-1.424 1.424z" fill="#e6eaf0"/>
					<rect x="381" y="406.94" width="8.526" height="19.772" fill="#fff"/><g fill="none" stroke-miterlimit="10">
				
			
		
		<path d="m411.91 377.75c0 1.79-1.451 3.241-3.241 3.241s-3.241-1.451-3.241-3.241 1.451-3.241 3.241-3.241 3.241 1.45 3.241 3.241z" stroke="#6f7082" stroke-width="1.08"/>
		<path d="m375.89 267.44c0 4.31-3.494 7.804-7.804 7.804s-7.804-3.494-7.804-7.804 3.494-7.804 7.804-7.804c4.31 1e-3 7.804 3.494 7.804 7.804z" stroke="#fff" stroke-width="6.2598"/>
		
			<g stroke="#6f7082" stroke-width="1.728">
				
					<line x1="289.19" x2="289.19" y1="349.45" y2="405.77"/>
				<path d="m296.16 414.64c-3.143 3.848-8.81 4.419-12.657 1.276-3.848-3.143-4.419-8.81-1.276-12.657 3.143-3.848 8.81-4.419 12.657-1.276 3.847 3.142 4.419 8.809 1.276 12.657z" stroke-dasharray="2.16, 1.728"/>
				<path d="m292.23 408.95c0 1.68-1.362 3.041-3.041 3.041-1.68 0-3.041-1.362-3.041-3.041 0-1.68 1.362-3.041 3.041-3.041 1.68 0 3.041 1.362 3.041 3.041z"/>
			</g>
			</g><path d="m291.57 348.68c0 1.315-1.066 2.381-2.381 2.381s-2.381-1.066-2.381-2.381 1.066-2.381 2.381-2.381c1.315 1e-3 2.381 1.067 2.381 2.381z" fill="#6f7082"/>
		
		
			<g id="pencil_edit_2_">
				
					
						<path d="m150.34 304.18c1.389 1.388 1.389 3.64 0 5.028l-15.893 15.892h-5.028v-5.028l15.892-15.892c1.389-1.389 3.641-1.389 5.029 0z" fill="#e6eaf0"/>
						<path d="m144.89 304.59-1.335 1.336-14.092 14.092 5.027 5.027 15.428-15.428z" fill="#55c0ed"/>
					
				
				<polygon points="129.42 325.1 132.27 325.1 129.42 322.25" fill="#42444f"/>
			</g>
			
				
					<polygon points="150.4 339.02 146.86 355.69 134.12 355.69 130.58 339.02" fill="#e6eaf0"/>
				
				<g fill="#6f7082">
					<path d="m149.26 336.4h-17.546c-0.971 0-1.758 0.787-1.758 1.758v1.121h21.061v-1.121c0-0.971-0.787-1.758-1.757-1.758z"/>
					<path d="m143.62 336.86h-1.08v-1.244c0-0.247-0.202-0.447-0.448-0.447h-3.2c-0.247 0-0.447 0.2-0.447 0.447v1.244h-1.08v-1.244c0-0.842 0.686-1.527 1.527-1.527h3.2c0.843 0 1.528 0.686 1.528 1.527z"/>
				
				
					<path d="m140.57 352.18c-0.339 0-0.616-0.277-0.616-0.616v-8.544c0-0.339 0.277-0.616 0.616-0.616s0.616 0.277 0.616 0.616v8.544c0 0.339-0.277 0.616-0.616 0.616z"/>
					<path d="m145.22 352.18c-0.339 0-0.616-0.277-0.616-0.616v-8.544c0-0.339 0.277-0.616 0.616-0.616s0.616 0.277 0.616 0.616v8.544c0 0.339-0.277 0.616-0.616 0.616z"/>
					<path d="m135.92 352.18c-0.339 0-0.616-0.277-0.616-0.616v-8.544c0-0.339 0.277-0.616 0.616-0.616s0.616 0.277 0.616 0.616v8.544c0 0.339-0.277 0.616-0.616 0.616z"/>
				</g>
			
			<g id="gear_12_">
				<path d="m152.17 284.71c0.134-0.705 0.207-1.432 0.207-2.176s-0.073-1.471-0.207-2.176h-1.892c-0.384 0-0.52-0.508-0.188-0.701l1.639-0.947c-0.487-1.397-1.233-2.671-2.181-3.767l-1.725 0.997c-0.332 0.192-0.704-0.178-0.514-0.511l0.985-1.732c-1.102-0.94-2.382-1.677-3.782-2.155l-0.871 1.531c-0.191 0.335-0.702 0.2-0.702-0.186v-1.761c-0.705-0.134-1.432-0.207-2.176-0.207s-1.471 0.073-2.176 0.207v1.892c0 0.384-0.508 0.52-0.701 0.188l-0.947-1.639c-1.397 0.487-2.671 1.233-3.767 2.181l0.997 1.725c0.192 0.331-0.178 0.703-0.511 0.514l-1.732-0.985c-0.94 1.102-1.677 2.382-2.155 3.782l1.531 0.871c0.335 0.191 0.2 0.702-0.186 0.702h-1.761c-0.134 0.705-0.207 1.432-0.207 2.176s0.073 1.471 0.207 2.176h1.892c0.384 0 0.52 0.508 0.188 0.7l-1.639 0.947c0.487 1.397 1.233 2.671 2.181 3.767l1.725-0.997c0.332-0.192 0.704 0.178 0.514 0.511l-0.985 1.732c1.102 0.94 2.382 1.677 3.782 2.155l0.871-1.531c0.191-0.335 0.702-0.2 0.702 0.186v1.761c0.705 0.134 1.432 0.206 2.176 0.206s1.471-0.073 2.176-0.206v-1.892c0-0.384 0.508-0.52 0.7-0.188l0.947 1.639c1.397-0.487 2.671-1.233 3.767-2.181l-0.997-1.725c-0.192-0.332 0.178-0.704 0.511-0.514l1.732 0.985c0.94-1.102 1.677-2.382 2.155-3.782l-1.531-0.871c-0.335-0.191-0.2-0.702 0.186-0.702h1.762zm-11.069 3.014c-3.139 0.198-5.726-2.389-5.528-5.528 0.163-2.588 2.264-4.689 4.852-4.852 3.139-0.198 5.726 2.389 5.528 5.528-0.164 2.588-2.264 4.688-4.852 4.852z" fill="#6f7082"/>
			</g>
		
		<g id="_x30__7_">
			<path d="m115.11 379.87h-0.876c-0.485 0-0.878-0.393-0.878-0.878v-0.876c0-0.427-0.286-0.821-0.705-0.904-0.563-0.112-1.061 0.322-1.061 0.866v0.914c0 0.485-0.393 0.878-0.878 0.878h-0.876c-0.427 0-0.821 0.286-0.904 0.705-0.112 0.563 0.322 1.061 0.866 1.061h0.914c0.485 0 0.878 0.393 0.878 0.878v0.876c0 0.427 0.286 0.821 0.705 0.904 0.563 0.112 1.061-0.322 1.061-0.866v-0.914c0-0.485 0.393-0.878 0.878-0.878h0.914c0.544 0 0.977-0.498 0.866-1.061-0.083-0.418-0.477-0.705-0.904-0.705z" fill="#6f7082"/>
		</g>
		<g id="_x30__8_">
			<path d="m85.478 303.89h-1.123c-0.622 0-1.126-0.504-1.126-1.126v-1.123c0-0.548-0.367-1.053-0.904-1.159-0.721-0.143-1.361 0.412-1.361 1.11v1.172c0 0.622-0.504 1.126-1.126 1.126h-1.123c-0.548 0-1.053 0.367-1.159 0.904-0.143 0.721 0.412 1.361 1.11 1.361h1.172c0.622 0 1.126 0.504 1.126 1.126v1.123c0 0.548 0.367 1.053 0.904 1.159 0.722 0.143 1.361-0.412 1.361-1.11v-1.172c0-0.622 0.504-1.126 1.126-1.126h1.172c0.698 0 1.253-0.639 1.11-1.361-0.107-0.537-0.612-0.904-1.159-0.904z" fill="#42444f"/>
		</g>
		<g fill="#fff">
			<path d="m120.43 244.41-13.407 13.407c-0.76 0.76-2.002 0.76-2.762 0-0.759-0.759-0.759-2.002 0-2.762l13.407-13.407c0.759-0.76 2.002-0.76 2.762 0 0.759 0.76 0.759 2.003 0 2.762z"/>
			<path d="m126.8 238.03-1.557 1.557c-0.759 0.76-2.002 0.76-2.762 0-0.759-0.76-0.759-2.002 0-2.762l1.557-1.557c0.76-0.759 2.002-0.759 2.762 0 0.76 0.76 0.76 2.003 0 2.762z"/>
			<path d="m134.66 230.17-0.278 0.278c-0.76 0.76-2.002 0.76-2.762 0s-0.76-2.002 0-2.762l0.278-0.278c0.759-0.76 2.002-0.76 2.762 0 0.759 0.759 0.759 2.002 0 2.762z"/>
		</g>
		
			<path d="m107.84 150.09c0 2.889-2.342 5.23-5.23 5.23s-5.23-2.342-5.23-5.23 2.342-5.23 5.23-5.23 5.23 2.341 5.23 5.23z" fill="#35363b"/>
			<path d="m170.21 212.29c0 2.889-2.342 5.23-5.23 5.23-2.889 0-5.23-2.342-5.23-5.23s2.342-5.23 5.23-5.23 5.23 2.341 5.23 5.23z" fill="#35363b"/>
			<path d="m164.79 212.29h-42.451c-10.872 0-19.685-8.813-19.685-19.685v-42.517" fill="none" stroke="#35363b" stroke-linecap="round" stroke-linejoin="round" stroke-miterlimit="10" stroke-width="2.16"/>
		
		<g fill="#35363b">
			<rect x="366.61" y="116" width="21.623" height="2.678"/>
			<rect x="390.16" y="116" width="16.646" height="2.678"/>
			<rect x="408.58" y="116" width="13.216" height="2.678"/>
			<rect x="377.28" y="122.2" width="44.516" height="2.678"/>
			<rect x="366.61" y="122.2" width="8.179" height="2.678"/>
			<rect x="391.15" y="128.39" width="21.056" height="2.678"/>
			<rect x="414.2" y="128.39" width="7.597" height="2.678"/>
			<rect x="366.61" y="128.39" width="22.619" height="2.678"/>
			<rect x="382.48" y="134.59" width="18.338" height="2.678"/>
			<rect x="366.61" y="134.59" width="13.799" height="2.678"/>
		
		
			<rect x="182.77" y="270.26" width="20.817" height="2.578"/>
			<rect x="205.44" y="270.26" width="16.025" height="2.578"/>
			<rect x="223.17" y="270.26" width="12.723" height="2.578"/>
			<rect x="193.04" y="276.22" width="42.856" height="2.578"/>
			<rect x="182.77" y="276.22" width="7.874" height="2.578"/>
			<rect x="206.4" y="282.18" width="20.271" height="2.578"/>
			<rect x="228.58" y="282.18" width="7.313" height="2.578"/>
			<rect x="182.77" y="282.18" width="21.776" height="2.578"/>
			<rect x="198.04" y="288.15" width="17.654" height="2.578"/>
			<rect x="182.77" y="288.15" width="13.284" height="2.578"/>
		
		
			<rect x="249.18" y="270.26" width="20.817" height="2.578"/>
			<rect x="271.84" y="270.26" width="16.025" height="2.578"/>
			<rect x="289.58" y="270.26" width="12.723" height="2.578"/>
			<rect x="259.45" y="276.22" width="42.855" height="2.578"/>
			<rect x="249.18" y="276.22" width="7.874" height="2.578"/>
			<rect x="272.8" y="282.18" width="20.271" height="2.578"/>
			<rect x="294.99" y="282.18" width="7.313" height="2.578"/>
			<rect x="249.18" y="282.18" width="21.776" height="2.578"/>
			<rect x="264.45" y="288.15" width="17.654" height="2.578"/>
			<rect x="249.18" y="288.15" width="13.284" height="2.578"/>
		</g>
		<g id="_x30__9_">
			<path d="m367.23 162.98h-0.867c-0.48 0-0.87-0.389-0.87-0.87v-0.867c0-0.423-0.283-0.813-0.698-0.896-0.557-0.111-1.051 0.318-1.051 0.857v0.906c0 0.48-0.389 0.87-0.87 0.87h-0.867c-0.423 0-0.813 0.283-0.895 0.698-0.111 0.557 0.318 1.051 0.857 1.051h0.906c0.48 0 0.87 0.389 0.87 0.87v0.867c0 0.423 0.284 0.813 0.698 0.896 0.557 0.111 1.051-0.318 1.051-0.857v-0.906c0-0.48 0.389-0.87 0.87-0.87h0.906c0.539 0 0.968-0.494 0.857-1.051-0.084-0.415-0.474-0.698-0.897-0.698z" fill="#42444f"/>
		</g>
		<path d="m435.01 145.52c0 1.706-1.383 3.09-3.09 3.09-1.706 0-3.09-1.383-3.09-3.09 0-1.706 1.383-3.09 3.09-3.09 1.706 1e-3 3.09 1.384 3.09 3.09z" fill="#e6eaf0"/>
		<path d="m408.03 96.604c0 1.117-0.905 2.022-2.022 2.022s-2.022-0.905-2.022-2.022 0.905-2.022 2.022-2.022 2.022 0.906 2.022 2.022z" fill="#6f7082"/>
		
			
				
					<path d="m353.01 73.77v12.312c0 2.592-2.095 4.698-4.698 4.698h-118.29c-1.296 0-2.484-0.529-3.337-1.393-0.832-0.842-1.361-2.009-1.361-3.305v-12.312c0-2.603 2.106-4.698 4.698-4.698h118.29c1.534 0 2.894 0.734 3.748 1.868 0.605 0.789 0.951 1.761 0.951 2.83z" fill="#d8dde6"/>
					<path d="m353.01 73.77v12.312c0 2.592-2.095 4.698-4.698 4.698h-118.29c-1.296 0-2.484-0.529-3.337-1.393-0.119-0.356-0.173-0.734-0.173-1.134v-13.792c0-2.182 1.782-3.964 3.964-3.964h119.77c0.659 0 1.274 0.162 1.814 0.443 0.605 0.789 0.951 1.761 0.951 2.83z" fill="#fff"/>
				
				<path d="m348.79 88.291h-13.326c-0.951 0-1.723-0.771-1.723-1.723v-13.325c0-0.951 0.771-1.723 1.723-1.723h13.326c0.951 0 1.723 0.771 1.723 1.723v13.326c0 0.951-0.772 1.722-1.723 1.722z" fill="#42444f"/>
			
			
				<path d="m348.15 83.897-3.094-3.094-0.496 0.496-0.563-0.563c1.328-1.729 1.219-4.208-0.365-5.791-1.723-1.722-4.515-1.722-6.238 0-1.723 1.723-1.723 4.515 0 6.238 1.602 1.602 4.119 1.694 5.85 0.316l0.558 0.558-0.496 0.496 3.094 3.094c0.483 0.483 1.266 0.483 1.749 0 0.484-0.485 0.484-1.268 1e-3 -1.75zm-7.636-2.607c-0.351 0-0.689-0.056-1.005-0.159-0.894-0.293-1.616-0.965-1.975-1.826-0.16-0.382-0.248-0.801-0.248-1.242 0-1.783 1.446-3.228 3.228-3.228 0.441 0 0.861 0.088 1.243 0.247 0.861 0.36 1.533 1.081 1.825 1.976 0.104 0.316 0.16 0.654 0.16 1.005 0 1.782-1.445 3.227-3.228 3.227z" fill="#fff"/>
			
		
		
			
				<line x1="308.57" x2="308.57" y1="81.885" y2="109.36" fill="none" stroke="#6f7082" stroke-miterlimit="10" stroke-width="1.08"/>
			<circle cx="308.57" cy="109.33" r="3.019" fill="#6f7082"/>
			<circle cx="308.57" cy="81.961" r="3.019" fill="#6f7082"/>
		
		<g id="_x30__10_">
			<g fill="#6f7082">
				<path d="m127.58 414.93 13.78-13.78c0.781-0.781 2.058-0.781 2.839 0s0.781 2.058 0 2.839l-13.78 13.78c-0.781 0.781-2.058 0.781-2.839 0-0.781-0.78-0.781-2.058 0-2.839z"/>
				<path d="m121.03 421.48 1.6-1.6c0.781-0.781 2.058-0.781 2.839 0s0.781 2.058 0 2.839l-1.6 1.6c-0.781 0.781-2.058 0.781-2.839 0s-0.781-2.058 0-2.839z"/>
				<path d="m112.95 429.56 0.286-0.286c0.781-0.781 2.058-0.781 2.839 0s0.781 2.058 0 2.839l-0.286 0.286c-0.781 0.781-2.058 0.781-2.839 0s-0.781-2.058 0-2.839z"/>
			</g>
		</g>
		<g id="_x30__11_">
			<path d="m176.3 398.58h-0.955c-0.529 0-0.958-0.429-0.958-0.958v-0.955c0-0.466-0.312-0.896-0.769-0.987-0.614-0.122-1.158 0.351-1.158 0.944v0.998c0 0.529-0.429 0.958-0.958 0.958h-0.955c-0.466 0-0.896 0.312-0.986 0.769-0.122 0.614 0.351 1.158 0.944 1.158h0.997c0.529 0 0.958 0.429 0.958 0.958v0.955c0 0.466 0.312 0.896 0.769 0.987 0.614 0.122 1.158-0.351 1.158-0.944v-0.997c0-0.529 0.429-0.958 0.958-0.958h0.998c0.594 0 1.066-0.544 0.944-1.158-0.091-0.458-0.521-0.77-0.987-0.77z" fill="#fff"/>
		</g>
		
		
			<path d="m283.82 303.58h15.565c1.579 0 2.871-1.292 2.871-2.871s-1.292-2.871-2.871-2.871h-15.565c-1.579 0-2.871 1.292-2.871 2.871 1e-3 1.579 1.292 2.871 2.871 2.871z" fill="#55c0ed"/>
			<rect x="286.03" y="300.12" width="11.149" height="1.183" fill="#fff"/>
		
		
			<path d="m217.46 303.58h15.565c1.579 0 2.871-1.292 2.871-2.871s-1.292-2.871-2.871-2.871h-15.565c-1.579 0-2.871 1.292-2.871 2.871 1e-3 1.579 1.292 2.871 2.871 2.871z" fill="#55c0ed"/>
			<rect x="219.67" y="300.12" width="11.149" height="1.183" fill="#fff"/>
		
		<g fill="#fff">
			<path d="m252.4 116.11h-19.76c-0.901 0-1.638-0.737-1.638-1.638s0.737-1.638 1.638-1.638h19.76c0.901 0 1.638 0.737 1.638 1.638s-0.737 1.638-1.638 1.638z"/>
			<path d="m264.97 116.11h-4.438c-0.901 0-1.638-0.737-1.638-1.638s0.737-1.638 1.638-1.638h4.438c0.901 0 1.638 0.737 1.638 1.638s-0.737 1.638-1.638 1.638z"/>
		</g>
		
			<path d="m287.42 131.39c0 2.507-2.033 4.54-4.54 4.54s-4.54-2.032-4.54-4.54c0-2.507 2.033-4.54 4.54-4.54 2.508 1e-3 4.54 2.033 4.54 4.54z" fill="#e0625b"/>
			<path d="m299.91 131.39c0 2.507-2.032 4.54-4.54 4.54-2.507 0-4.54-2.032-4.54-4.54 0-2.507 2.033-4.54 4.54-4.54 2.508 1e-3 4.54 2.033 4.54 4.54z" fill="#ffda58"/>
			<path d="m312.39 131.39c0 2.507-2.033 4.54-4.54 4.54s-4.54-2.032-4.54-4.54c0-2.507 2.033-4.54 4.54-4.54 2.508 1e-3 4.54 2.033 4.54 4.54z" fill="#34909d"/>
		
		<rect x="174.32" y="154.93" width="148.68" height="28.14" fill="#35363b"/>
		
		
			
		
			
				<path d="m302.1 256.75h-104.12c-3.976 0-7.2-3.224-7.2-7.2v-49.66c0-3.976 3.224-7.2 7.2-7.2h104.12c3.976 0 7.2 3.223 7.2 7.2v49.66c0 3.977-3.224 7.2-7.2 7.2z" fill="#35363b"/>
				
					<circle cx="227.72" cy="248.86" r="2.661" fill="#e6eaf0"/>
					<circle cx="238.88" cy="248.86" r="2.661" fill="#55c0ed"/><g fill="#e6eaf0">
					<circle cx="250.04" cy="248.86" r="2.661"/>
					<path d="m263.87 248.86c0 1.47-1.191 2.661-2.661 2.661s-2.661-1.191-2.661-2.661 1.191-2.661 2.661-2.661c1.469-1e-3 2.661 1.191 2.661 2.661z"/>
					<path d="m275.03 248.86c0 1.47-1.191 2.661-2.661 2.661s-2.661-1.191-2.661-2.661 1.191-2.661 2.661-2.661c1.469-1e-3 2.661 1.191 2.661 2.661z"/>
				</g>
			
			<g fill="#6f7082">
				<path d="m175.1 223.82 5.918 5.918c0.341 0.341 0.925 0.1 0.925-0.383v-11.835c0-0.483-0.584-0.724-0.925-0.383l-5.918 5.918c-0.212 0.211-0.212 0.554 0 0.765z"/>
				<path d="m324.99 223.82-5.918 5.918c-0.341 0.341-0.925 0.1-0.925-0.383v-11.835c0-0.483 0.583-0.724 0.925-0.383l5.918 5.918c0.211 0.211 0.211 0.554 0 0.765z"/>
			</g>
		
		<g id="Artwork_2_6_">
			
				<rect x="406.06" y="170.58" width="35.972" height="49.694" fill="#cdd1d6"/>
				<polygon points="415.45 170.58 406.06 170.58 406.06 179.98" fill="#42444f"/><g fill="#6f7082">
				<rect x="413.63" y="176.15" width="20.839" height="1.162"/>
				<rect x="413.63" y="179.5" width="20.839" height="1.162"/>
				<rect x="413.63" y="182.84" width="20.839" height="1.162"/>
				<rect x="413.63" y="186.18" width="20.839" height="1.162"/>
				<rect x="413.63" y="189.52" width="20.839" height="1.162"/>
				<rect x="413.63" y="192.86" width="20.839" height="1.162"/>
				<rect x="413.63" y="196.2" width="20.839" height="1.162"/>
				<rect x="413.63" y="199.55" width="20.839" height="1.162"/>
				<rect x="413.63" y="202.89" width="20.839" height="1.162"/>
				<rect x="413.63" y="206.23" width="20.839" height="1.162"/>
				<rect x="413.63" y="209.57" width="20.839" height="1.162"/>
				<rect x="413.63" y="212.91" width="12.604" height="1.162"/>
			</g>
		</g>
		<circle cx="203.8" cy="60.556" r="6.823" fill="#fff"/>
		<g id="_x30__25_">
			
				<path d="m35.931 376.36c2.586 2.586 6.779 2.586 9.365 0l16.891-16.891c0.977-0.977 2.56-0.977 3.536 0s0.976 2.56 0 3.536l-2.488 2.488c-1.687 1.687-1.687 4.421 0 6.108l0.162 0.162c1.687 1.687 4.421 1.687 6.108 0l32.889-32.888c1.687-1.687 1.687-4.421 0-6.108s-4.421-1.687-6.108 0l-22.428 22.428c-0.977 0.977-2.56 0.977-3.536 0l-0.162-0.162c-0.977-0.977-0.977-2.56 0-3.536l9.524-9.524c2.586-2.586 2.586-6.779 0-9.365s-6.779-2.586-9.365 0l-34.387 34.387c-2.587 2.587-2.587 6.779-1e-3 9.365z" fill="#fff"/>
			
		</g>
		
			<g id="folder_file_2_">
				
					
						<rect transform="matrix(-.9844 -.1758 .1758 -.9844 739.44 681.55)" x="372.48" y="296.68" width="54.836" height="22.707" fill="#ccd7e6"/>
					
						<rect transform="rotate(180 399.42 309.88)" x="372.01" y="298.52" width="54.836" height="22.707" fill="#e1e9f5"/>
					
						<rect transform="matrix(-.9969 .0786 -.0786 -.9969 821.42 595.19)" x="373.37" y="304.03" width="51.259" height="19.447" fill="#fff"/>
					<path d="m385.78 303.31 5.284 5.284c0.767 0.767 1.806 1.197 2.891 1.197h34.977c2.258 0 4.088 1.83 4.088 4.088v30.345c0 2.258-1.83 4.088-4.088 4.088h-60.533c-2.258 0-4.088-1.83-4.088-4.088v-38.024c0-2.258 1.83-4.088 4.088-4.088h14.491c1.084 1e-3 2.124 0.431 2.89 1.198z" fill="#42444f"/>
				
			</g>
			<g fill="#fff">
				<rect x="413.48" y="340.27" width="9.321" height="1.716"/>
				<rect x="413.48" y="337.16" width="12.654" height="1.716"/>
			</g>
			<path d="m429.69 315.33c0 1.161-0.941 2.102-2.102 2.102s-2.102-0.941-2.102-2.102 0.941-2.102 2.102-2.102c1.161 1e-3 2.102 0.941 2.102 2.102z" fill="#55c0ed"/>
		
		
	
</g>
</g>
</svg>
