<?xml version="1.0" encoding="UTF-8" standalone="no"?>
<svg
   enable-background="new 0 0 500 500"
   version="1.1"
   viewBox="0 0 500 500"
   xml:space="preserve"
   id="svg149"
   sodipodi:docname="2.svg"
   inkscape:version="1.3 (1:1.3+202307231459+0e150ed6c4)"
   xmlns:inkscape="http://www.inkscape.org/namespaces/inkscape"
   xmlns:sodipodi="http://sodipodi.sourceforge.net/DTD/sodipodi-0.dtd"
   xmlns="http://www.w3.org/2000/svg"
   xmlns:svg="http://www.w3.org/2000/svg"><defs
   id="defs149" /><sodipodi:namedview
   id="namedview149"
   pagecolor="#ffffff"
   bordercolor="#000000"
   borderopacity="0.25"
   inkscape:showpageshadow="2"
   inkscape:pageopacity="0.0"
   inkscape:pagecheckerboard="0"
   inkscape:deskcolor="#d1d1d1"
   inkscape:zoom="0.6675088"
   inkscape:cx="250.18397"
   inkscape:cy="250.18397"
   inkscape:window-width="1280"
   inkscape:window-height="656"
   inkscape:window-x="0"
   inkscape:window-y="27"
   inkscape:window-maximized="1"
   inkscape:current-layer="Objects" />&#10;&#10;<g
   id="Objects"
   transform="matrix(0.86475909,0,0,0.86475909,27.067864,21.269145)">&#10;	<g
   transform="translate(19.785,8.4009)"
   enable-background="new 0 0 500 500"
   id="g149">&#10;	&#10;		<path
   d="m 445.63,275.22 c -14.306,-16.434 -33.22,-28.11 -52.316,-38.601 -17.913,-9.842 -38.656,-22.279 -40.268,-42.653 -2.007,-25.373 26.749,-41.81 36.047,-65.504 C 398.37,104.823 385.868,76.92 365.772,61.395 345.676,45.87 319.75,40.272 294.571,36.972 c -36.055,-4.725 -75.823,-4.678 -104.9,17.162 -25.988,19.522 -37.975,52.651 -43.14,84.742 -0.052,0.321 -0.103,0.642 -0.153,0.963 -7.933,50.323 -32.41,96.828 -70.813,130.3 -3.027,2.639 -5.896,5.455 -8.566,8.488 -23.224,26.39 -27.229,66.595 -13.995,99.163 13.234,32.568 41.718,57.505 74.068,71.26 32.351,13.756 68.325,17.163 103.42,15.2 67.543,-3.777 133.87,-27.25 188.75,-66.801 21.641,-15.596 42.8,-35.874 46.739,-62.257 3.218,-21.549 -6.054,-43.541 -20.36,-59.975 z"
   display="none"
   fill="#dde3eb"
   id="path1" />&#10;		<path
   d="m 443.85,274.98 c -14.173,-16.282 -32.913,-27.849 -51.831,-38.243 -17.747,-9.75 -38.298,-22.072 -39.895,-42.258 -1.989,-25.138 26.501,-41.423 35.713,-64.896 9.191,-23.42 -3.195,-51.064 -23.105,-66.445 -19.91,-15.381 -45.595,-20.927 -70.54,-24.196 -35.721,-4.681 -75.12,-4.635 -103.92,17.003 -25.747,19.341 -37.623,52.163 -42.74,83.956 -0.051,0.318 -0.102,0.636 -0.152,0.954 -7.86,49.857 -32.11,95.93 -70.157,129.1 -2.999,2.615 -5.842,5.404 -8.487,8.41 -23.009,26.145 -26.977,65.978 -13.866,98.243 13.111,32.266 41.331,56.972 73.382,70.6 32.051,13.628 67.692,17.004 102.46,15.059 66.917,-3.742 132.63,-26.997 187,-66.182 21.441,-15.451 42.403,-35.541 46.306,-61.68 3.188,-21.35 -5.998,-43.138 -20.171,-59.42 z"
   display="none"
   fill="#f0f3f7"
   id="path2" />&#10;		<g
   id="phone_3_"
   opacity="0.17">&#10;			&#10;				&#10;					<path
   d="m 345.71,146.53 v 221.75 c 0,13.924 -11.287,25.211 -25.211,25.211 h -119.19 c -13.924,0 -25.211,-11.287 -25.211,-25.211 V 146.53 c 0,-13.924 11.287,-25.211 25.211,-25.211 h 119.19 c 13.923,0 25.21,11.287 25.21,25.211 z"
   fill="#42444f"
   id="path3" />&#10;				&#10;			&#10;		</g>&#10;		<path
   d="M 180.48852,148.35014 H 81.569255 c -28.877365,0 -31.220787,-42.95734 3.970213,-42.95734 0,-40.584754 64.987432,-44.171144 64.987432,-1.8106 14.87352,0 30.4248,-1.72396 34.0371,10.88711 1.42517,4.96783 0.647,8.71131 -3.53294,14.9294 16.42338,-3.97103 22.73782,18.95143 -0.54254,18.95143 z"
   fill="#6f7082"
   id="path4"
   style="fill:#d9dde3;fill-opacity:1;stroke-width:0.809752" />&#10;		<g
   id="phone_2_">&#10;			&#10;				<path
   d="m 183.98,147.93 h -26.309 v -23.538 c 0,-11.587 9.393,-20.98 20.98,-20.98 h 10.362 c 1.76,6.134 0.799,13.435 -4.363,21.114 20.282,-4.904 28.08,23.404 -0.67,23.404 z"
   fill="#6f7082"
   opacity="0.2"
   id="path5" />&#10;			&#10;		</g>&#10;		<path
   d="m 167.99,365.49 h -40.75 c -5.339,0 -9.667,-4.328 -9.667,-9.667 v -85.242 c 0,-5.339 4.328,-9.667 9.667,-9.667 h 40.75 z"
   fill="#c3c9d4"
   id="path6" />&#10;		<path
   d="m 168.99,365.49 h -40.75 c -5.339,0 -9.667,-4.328 -9.667,-9.667 v -85.242 c 0,-5.339 4.328,-9.667 9.667,-9.667 h 40.75 z"
   fill="#ffffff"
   id="path7" />&#10;		<g
   id="phone_1_">&#10;			&#10;				&#10;					<path
   d="m 180.71,382.43 c -9.54,0 -17.302,-7.762 -17.302,-17.302 v -239.73 c 0,-9.54 7.762,-17.302 17.302,-17.302 h 137.17 c 9.54,0 17.302,7.762 17.302,17.302 v 239.73 c 0,9.54 -7.762,17.302 -17.302,17.302 z"
   fill="#42444f"
   id="path8"
   style="display:inline;fill:#d9dde3;fill-opacity:1" />&#10;					<path
   d="m 317.88,109.18 c 8.964,0 16.222,7.258 16.222,16.222 v 239.73 c 0,8.964 -7.258,16.222 -16.222,16.222 H 180.71 c -8.964,0 -16.222,-7.258 -16.222,-16.222 v -239.73 c 0,-8.964 7.258,-16.222 16.222,-16.222 h 137.17 m 0,-2.16 H 180.71 c -10.136,0 -18.382,8.246 -18.382,18.382 v 239.73 c 0,10.136 8.246,18.382 18.382,18.382 h 137.17 c 10.136,0 18.382,-8.246 18.382,-18.382 v -239.73 c 0,-10.136 -8.246,-18.382 -18.382,-18.382 z"
   fill="#35363b"
   id="path9"
   style="display:inline" />&#10;				&#10;			&#10;		</g>&#10;		<path
   d="m 321.58,334.61 v 35.943 H 203.07 V 334.61 c 0,-3.985 3.219,-7.204 7.193,-7.204 h 104.12 c 3.974,0 7.193,3.219 7.193,7.204 z"
   fill="#191a1c"
   id="path10"
   style="fill:#52545c;fill-opacity:1" />&#10;		<path
   d="m 316.04,329.06 v 35.943 H 197.53 V 329.06 c 0,-3.985 3.218,-7.204 7.193,-7.204 h 104.12 c 3.974,0 7.193,3.219 7.193,7.204 z"
   fill="#27282b"
   id="path11"
   style="fill:#6f7082;fill-opacity:1" />&#10;		<path
   d="m 309.3,322.33 v 35.943 H 190.79 V 322.33 c 0,-3.985 3.218,-7.204 7.193,-7.204 h 104.12 c 3.974,0 7.192,3.218 7.192,7.204 z"
   fill="#52545c"
   id="path12" />&#10;		<path
   d="m 334.11,358.27 v 6.858 c 0,8.964 -7.258,16.222 -16.222,16.222 h -137.17 c -8.964,0 -16.222,-7.258 -16.222,-16.222 v -6.858 z"
   fill="#35363b"
   id="path13"
   style="fill:#6f7082;fill-opacity:1" />&#10;		<circle
   cx="249.28999"
   cy="368.87"
   r="9.0640001"
   fill="#ffffff"
   id="circle13" />&#10;		<path
   d="m 291.73,109.18 c -0.389,2.84 -1.717,5.389 -3.65,7.333 -2.333,2.322 -5.54,3.769 -9.072,3.769 h -59.433 c -6.48,0 -11.869,-4.86 -12.722,-11.103 h 84.877 z"
   fill="#35363b"
   id="path14"
   style="fill:#6f7082;fill-opacity:1" />&#10;		<g
   id="Artwork_2_4_">&#10;			&#10;				<rect
   x="365.87"
   y="178.59"
   width="35.972"
   height="49.694"
   fill="#e6eaf0"
   id="rect14" />&#10;				<polygon
   points="365.87,187.98 375.26,178.59 365.87,178.59 "
   fill="#42444f"
   id="polygon14" /><g
   fill="#6f7082"
   id="g26">&#10;				<rect
   x="373.42999"
   y="184.16"
   width="20.839001"
   height="1.1619999"
   id="rect15" />&#10;				<rect
   x="373.42999"
   y="187.5"
   width="20.839001"
   height="1.1619999"
   id="rect16" />&#10;				<rect
   x="373.42999"
   y="190.84"
   width="20.839001"
   height="1.1619999"
   id="rect17" />&#10;				<rect
   x="373.42999"
   y="194.17999"
   width="20.839001"
   height="1.1619999"
   id="rect18" />&#10;				<rect
   x="373.42999"
   y="197.52"
   width="20.839001"
   height="1.1619999"
   id="rect19" />&#10;				<rect
   x="373.42999"
   y="200.87"
   width="20.839001"
   height="1.1619999"
   id="rect20" />&#10;				<rect
   x="373.42999"
   y="204.21001"
   width="20.839001"
   height="1.1619999"
   id="rect21" />&#10;				<rect
   x="373.42999"
   y="207.55"
   width="20.839001"
   height="1.1619999"
   id="rect22" />&#10;				<rect
   x="373.42999"
   y="210.89"
   width="20.839001"
   height="1.1619999"
   id="rect23" />&#10;				<rect
   x="373.42999"
   y="214.23"
   width="20.839001"
   height="1.1619999"
   id="rect24" />&#10;				<rect
   x="373.42999"
   y="217.58"
   width="20.839001"
   height="1.1619999"
   id="rect25" />&#10;				<rect
   x="373.42999"
   y="220.92"
   width="12.604"
   height="1.1619999"
   id="rect26" />&#10;			</g>&#10;		</g>&#10;		<g
   id="Artwork_2_5_">&#10;			&#10;				<rect
   x="384.44"
   y="194.96001"
   width="35.972"
   height="49.694"
   fill="#d9dde3"
   id="rect27" />&#10;				<polygon
   points="384.44,204.35 393.83,194.96 384.44,194.96 "
   fill="#42444f"
   id="polygon27" /><g
   fill="#6f7082"
   id="g39">&#10;				<rect
   x="392.01001"
   y="200.53"
   width="20.839001"
   height="1.1619999"
   id="rect28" />&#10;				<rect
   x="392.01001"
   y="203.87"
   width="20.839001"
   height="1.1619999"
   id="rect29" />&#10;				<rect
   x="392.01001"
   y="207.21001"
   width="20.839001"
   height="1.1619999"
   id="rect30" />&#10;				<rect
   x="392.01001"
   y="210.55"
   width="20.839001"
   height="1.1619999"
   id="rect31" />&#10;				<rect
   x="392.01001"
   y="213.89"
   width="20.839001"
   height="1.1619999"
   id="rect32" />&#10;				<rect
   x="392.01001"
   y="217.24001"
   width="20.839001"
   height="1.1619999"
   id="rect33" />&#10;				<rect
   x="392.01001"
   y="220.58"
   width="20.839001"
   height="1.1619999"
   id="rect34" />&#10;				<rect
   x="392.01001"
   y="223.92"
   width="20.839001"
   height="1.1619999"
   id="rect35" />&#10;				<rect
   x="392.01001"
   y="227.25999"
   width="20.839001"
   height="1.1619999"
   id="rect36" />&#10;				<rect
   x="392.01001"
   y="230.60001"
   width="20.839001"
   height="1.1619999"
   id="rect37" />&#10;				<rect
   x="392.01001"
   y="233.94"
   width="20.839001"
   height="1.1619999"
   id="rect38" />&#10;				<rect
   x="392.01001"
   y="237.28999"
   width="12.604"
   height="1.1619999"
   id="rect39" />&#10;			</g>&#10;		</g>&#10;		&#10;			<polyline
   points="365.76 201.84 343.88 201.84 330.05 215.67"
   fill="none"
   stroke="#6f7082"
   stroke-dasharray="0, 2.5902"
   stroke-linecap="round"
   stroke-miterlimit="10"
   stroke-width="1.6281"
   id="polyline39" />&#10;		<path
   d="m 253.5,410.48 v 25.575 c 0,2.581 -2.095,4.677 -4.666,4.677 h -56.96 c -2.581,0 -4.666,-2.095 -4.666,-4.677 V 410.48 c 0,-2.581 2.084,-4.676 4.666,-4.676 h 56.96 c 2.571,-10e-4 4.666,2.095 4.666,4.676 z"
   fill="#6f7082"
   id="path39" />&#10;		<path
   d="m 253.5,410.48 v 9.353 c -0.151,0.011 -0.313,0.011 -0.464,0.011 -5.908,0 -10.703,-4.795 -10.703,-10.714 0,-1.166 0.184,-2.279 0.529,-3.326 h 5.972 c 2.571,-10e-4 4.666,2.095 4.666,4.676 z"
   fill="#42444f"
   id="path40" />&#10;		&#10;			&#10;				<circle
   transform="matrix(0.7071,-0.7071,0.7071,0.7071,-213.62,298.93)"
   cx="254.03"
   cy="407.32001"
   r="10.709"
   fill="#ffffff"
   id="circle40" />&#10;			<polyline
   points="248 409.46 250.77 412.24 260.03 402.98"
   fill="none"
   stroke="#55c0ed"
   stroke-miterlimit="10"
   stroke-width="2.16"
   id="polyline40"
   style="stroke:#f63d69;stroke-opacity:1" />&#10;		&#10;		&#10;			&#10;				<path
   d="m 230.19,431.32 h -20.117 c -0.957,0 -1.733,-0.776 -1.733,-1.733 v -12.649 c 0,-0.957 0.776,-1.733 1.733,-1.733 h 20.117 c 0.957,0 1.733,0.776 1.733,1.733 v 12.649 c -0.001,0.957 -0.776,1.733 -1.733,1.733 z"
   fill="#ffffff"
   id="path41" />&#10;				<g
   fill="none"
   stroke="#e6eaf0"
   stroke-linecap="round"
   stroke-linejoin="round"
   stroke-miterlimit="10"
   stroke-width="0.54"
   id="g42">&#10;					&#10;						<line
   x1="209.72"
   x2="230.55"
   y1="430.32001"
   y2="416.5"
   id="line41" />&#10;					&#10;						<line
   x1="230.55"
   x2="209.72"
   y1="430.32001"
   y2="416.5"
   id="line42" />&#10;				</g>&#10;			&#10;			<g
   fill="none"
   stroke="#ffffff"
   stroke-linecap="round"
   stroke-linejoin="round"
   stroke-miterlimit="10"
   stroke-width="2.16"
   id="g43">&#10;				&#10;					<polyline
   points="238.5 420.15 241.14 422.8 238.5 425.44"
   id="polyline42" />&#10;				&#10;					<polyline
   points="201.77 425.62 199.12 422.97 201.77 420.32"
   id="polyline43" />&#10;			</g>&#10;		&#10;		&#10;			<path
   d="m 313.77,458.47 h -42.214 c -1.239,0 -2.243,-1.004 -2.243,-2.243 v -27.225 c 0,-1.239 1.004,-2.243 2.243,-2.243 h 42.214 c 1.239,0 2.243,1.004 2.243,2.243 v 27.225 c 0,1.239 -1.004,2.243 -2.243,2.243 z"
   fill="#e6eaf0"
   id="path43" />&#10;			<path
   d="m 312.9,457.52 h -42.214 c -1.239,0 -2.243,-1.004 -2.243,-2.243 v -27.225 c 0,-1.239 1.004,-2.243 2.243,-2.243 H 312.9 c 1.239,0 2.243,1.004 2.243,2.243 v 27.225 c 0,1.239 -1.004,2.243 -2.243,2.243 z"
   fill="#ffffff"
   id="path44" />&#10;			<path
   d="m 286.19,452.51 h -7.971 c -0.741,0 -1.341,-0.6 -1.341,-1.341 v -16.798 c 0,-0.74 0.6,-1.341 1.341,-1.341 h 7.971 c 0.741,0 1.341,0.6 1.341,1.341 v 16.798 c -0.001,0.74 -0.601,1.341 -1.341,1.341 z"
   fill="#e6eaf0"
   id="path45" />&#10;			<g
   fill="#42444f"
   id="g48"
   style="fill:#f63d69;fill-opacity:1">&#10;				<rect
   x="292.23999"
   y="434.29001"
   width="13.35"
   height="1.967"
   id="rect45"
   style="fill:#f63d69;fill-opacity:1" />&#10;				<rect
   x="292.23999"
   y="439.16"
   width="13.35"
   height="1.967"
   id="rect46"
   style="fill:#f63d69;fill-opacity:1" />&#10;				<rect
   x="292.23999"
   y="444.03"
   width="13.35"
   height="1.967"
   id="rect47"
   style="fill:#f63d69;fill-opacity:1" />&#10;				<rect
   x="292.23999"
   y="448.89999"
   width="13.35"
   height="1.967"
   id="rect48"
   style="fill:#f63d69;fill-opacity:1" />&#10;			</g>&#10;		&#10;		&#10;			<path
   d="m 411.08692,427.29813 h -64.162 c -2.935,0 -5.314,-2.379 -5.314,-5.314 v -33.886 c 0,-2.935 2.379,-5.314 5.314,-5.314 h 64.162 c 2.935,0 5.314,2.379 5.314,5.314 v 33.886 c -10e-4,2.935 -2.38,5.314 -5.314,5.314 z"
   fill="#e6eaf0"
   id="path48" />&#10;			<path
   d="m 411.21584,419.02092 h -64.162 c -2.935,0 -5.314,-2.379 -5.314,-5.314 v -33.886 c 0,-2.935 2.379,-5.314 5.314,-5.314 h 64.162 c 2.935,0 5.314,2.379 5.314,5.314 v 33.886 c -10e-4,2.935 -2.38,5.314 -5.314,5.314 z"
   fill="#ffffff"
   id="path49" />&#10;			&#10;				&#10;					<path
   d="m 362.27918,413.93026 h -7.874 c -0.786,0 -1.424,-0.638 -1.424,-1.424 v -22.946 c 0,-0.786 0.638,-1.424 1.424,-1.424 h 7.874 c 0.786,0 1.424,0.637 1.424,1.424 v 22.946 c 0,0.786 -0.637,1.424 -1.424,1.424 z"
   fill="#d2d6db"
   id="path50" />&#10;					<path
   d="m 362.27918,412.97026 h -7.874 c -0.786,0 -1.424,-0.638 -1.424,-1.424 v -22.946 c 0,-0.786 0.638,-1.424 1.424,-1.424 h 7.874 c 0.786,0 1.424,0.637 1.424,1.424 v 22.946 c 0,0.787 -0.637,1.424 -1.424,1.424 z"
   fill="#e6eaf0"
   id="path51" />&#10;					<rect
   x="354.07919"
   y="388.61026"
   width="8.526"
   height="19.771999"
   fill="#ffffff"
   id="rect51" />&#10;				&#10;				&#10;					<path
   d="m 377.88918,413.93026 h -7.874 c -0.786,0 -1.424,-0.638 -1.424,-1.424 v -22.946 c 0,-0.786 0.638,-1.424 1.424,-1.424 h 7.874 c 0.786,0 1.424,0.637 1.424,1.424 v 22.946 c 0,0.786 -0.637,1.424 -1.424,1.424 z"
   fill="#d2d6db"
   id="path52" />&#10;					<path
   d="m 377.88918,412.97026 h -7.874 c -0.786,0 -1.424,-0.638 -1.424,-1.424 v -22.946 c 0,-0.786 0.638,-1.424 1.424,-1.424 h 7.874 c 0.786,0 1.424,0.637 1.424,1.424 v 22.946 c 0,0.787 -0.637,1.424 -1.424,1.424 z"
   fill="#e6eaf0"
   id="path53" />&#10;					<rect
   x="369.68918"
   y="388.61026"
   width="8.526"
   height="19.771999"
   fill="#ffffff"
   id="rect53" />&#10;				&#10;				&#10;					<path
   d="m 393.49918,413.93026 h -7.874 c -0.786,0 -1.424,-0.638 -1.424,-1.424 v -22.946 c 0,-0.786 0.638,-1.424 1.424,-1.424 h 7.874 c 0.786,0 1.424,0.637 1.424,1.424 v 22.946 c 0,0.786 -0.637,1.424 -1.424,1.424 z"
   fill="#d2d6db"
   id="path54" />&#10;					<path
   d="m 393.49918,412.97026 h -7.874 c -0.786,0 -1.424,-0.638 -1.424,-1.424 v -22.946 c 0,-0.786 0.638,-1.424 1.424,-1.424 h 7.874 c 0.786,0 1.424,0.637 1.424,1.424 v 22.946 c 0,0.787 -0.637,1.424 -1.424,1.424 z"
   fill="#e6eaf0"
   id="path55" />&#10;					<rect
   x="385.29919"
   y="388.61026"
   width="8.526"
   height="19.771999"
   fill="#ffffff"
   id="rect55" />&#10;				&#10;				&#10;					<path
   d="m 409.10918,413.93026 h -7.874 c -0.786,0 -1.424,-0.638 -1.424,-1.424 v -22.946 c 0,-0.786 0.637,-1.424 1.424,-1.424 h 7.874 c 0.786,0 1.424,0.637 1.424,1.424 v 22.946 c 0,0.786 -0.637,1.424 -1.424,1.424 z"
   fill="#d2d6db"
   id="path56" />&#10;					<path
   d="m 409.10918,412.97026 h -7.874 c -0.786,0 -1.424,-0.638 -1.424,-1.424 v -22.946 c 0,-0.786 0.637,-1.424 1.424,-1.424 h 7.874 c 0.786,0 1.424,0.637 1.424,1.424 v 22.946 c 0,0.787 -0.637,1.424 -1.424,1.424 z"
   fill="#e6eaf0"
   id="path57" />&#10;					<rect
   x="400.90918"
   y="388.61026"
   width="8.526"
   height="19.771999"
   fill="#ffffff"
   id="rect57" /><g
   fill="none"
   stroke-miterlimit="10"
   id="g62">&#10;				&#10;			&#10;		&#10;		<path
   d="m 411.91,377.75 c 0,1.79 -1.451,3.241 -3.241,3.241 -1.79,0 -3.241,-1.451 -3.241,-3.241 0,-1.79 1.451,-3.241 3.241,-3.241 1.79,0 3.241,1.45 3.241,3.241 z"
   stroke="#6f7082"
   stroke-width="1.08"
   id="path58" />&#10;		<path
   d="m 375.89,267.44 c 0,4.31 -3.494,7.804 -7.804,7.804 -4.31,0 -7.804,-3.494 -7.804,-7.804 0,-4.31 3.494,-7.804 7.804,-7.804 4.31,10e-4 7.804,3.494 7.804,7.804 z"
   stroke="#ffffff"
   stroke-width="6.2598"
   id="path59" />&#10;		&#10;			<g
   stroke="#6f7082"
   stroke-width="1.728"
   id="g61">&#10;				&#10;					<line
   x1="289.19"
   x2="289.19"
   y1="349.45001"
   y2="405.76999"
   id="line59" />&#10;				<path
   d="m 296.16,414.64 c -3.143,3.848 -8.81,4.419 -12.657,1.276 -3.848,-3.143 -4.419,-8.81 -1.276,-12.657 3.143,-3.848 8.81,-4.419 12.657,-1.276 3.847,3.142 4.419,8.809 1.276,12.657 z"
   stroke-dasharray="2.16, 1.728"
   id="path60" />&#10;				<path
   d="m 292.23,408.95 c 0,1.68 -1.362,3.041 -3.041,3.041 -1.68,0 -3.041,-1.362 -3.041,-3.041 0,-1.68 1.362,-3.041 3.041,-3.041 1.68,0 3.041,1.362 3.041,3.041 z"
   id="path61" />&#10;			</g>&#10;			</g><path
   d="m 291.57,348.68 c 0,1.315 -1.066,2.381 -2.381,2.381 -1.315,0 -2.381,-1.066 -2.381,-2.381 0,-1.315 1.066,-2.381 2.381,-2.381 1.315,0.001 2.381,1.067 2.381,2.381 z"
   fill="#6f7082"
   id="path62" />&#10;		&#10;		&#10;			<g
   id="pencil_edit_2_">&#10;				&#10;					&#10;						<path
   d="m 150.34,304.18 c 1.389,1.388 1.389,3.64 0,5.028 L 134.447,325.1 h -5.028 v -5.028 l 15.892,-15.892 c 1.389,-1.389 3.641,-1.389 5.029,0 z"
   fill="#e6eaf0"
   id="path63" />&#10;						<path
   d="m 144.89,304.59 -1.335,1.336 -14.092,14.092 5.027,5.027 15.428,-15.428 z"
   fill="#55c0ed"
   id="path64"
   style="fill:#f63d69;fill-opacity:1" />&#10;					&#10;				&#10;				<polygon
   points="129.42,322.25 129.42,325.1 132.27,325.1 "
   fill="#42444f"
   id="polygon64" />&#10;			</g>&#10;			&#10;				&#10;					<polygon
   points="134.12,355.69 130.58,339.02 150.4,339.02 146.86,355.69 "
   fill="#e6eaf0"
   id="polygon65" />&#10;				&#10;				<g
   fill="#6f7082"
   id="g69">&#10;					<path
   d="m 149.26,336.4 h -17.546 c -0.971,0 -1.758,0.787 -1.758,1.758 v 1.121 h 21.061 v -1.121 c 0,-0.971 -0.787,-1.758 -1.757,-1.758 z"
   id="path65" />&#10;					<path
   d="m 143.62,336.86 h -1.08 v -1.244 c 0,-0.247 -0.202,-0.447 -0.448,-0.447 h -3.2 c -0.247,0 -0.447,0.2 -0.447,0.447 v 1.244 h -1.08 v -1.244 c 0,-0.842 0.686,-1.527 1.527,-1.527 h 3.2 c 0.843,0 1.528,0.686 1.528,1.527 z"
   id="path66" />&#10;				&#10;				&#10;					<path
   d="m 140.57,352.18 c -0.339,0 -0.616,-0.277 -0.616,-0.616 v -8.544 c 0,-0.339 0.277,-0.616 0.616,-0.616 0.339,0 0.616,0.277 0.616,0.616 v 8.544 c 0,0.339 -0.277,0.616 -0.616,0.616 z"
   id="path67" />&#10;					<path
   d="m 145.22,352.18 c -0.339,0 -0.616,-0.277 -0.616,-0.616 v -8.544 c 0,-0.339 0.277,-0.616 0.616,-0.616 0.339,0 0.616,0.277 0.616,0.616 v 8.544 c 0,0.339 -0.277,0.616 -0.616,0.616 z"
   id="path68" />&#10;					<path
   d="m 135.92,352.18 c -0.339,0 -0.616,-0.277 -0.616,-0.616 v -8.544 c 0,-0.339 0.277,-0.616 0.616,-0.616 0.339,0 0.616,0.277 0.616,0.616 v 8.544 c 0,0.339 -0.277,0.616 -0.616,0.616 z"
   id="path69" />&#10;				</g>&#10;			&#10;			<g
   id="gear_12_">&#10;				<path
   d="m 152.17,284.71 c 0.134,-0.705 0.207,-1.432 0.207,-2.176 0,-0.744 -0.073,-1.471 -0.207,-2.176 h -1.892 c -0.384,0 -0.52,-0.508 -0.188,-0.701 l 1.639,-0.947 c -0.487,-1.397 -1.233,-2.671 -2.181,-3.767 l -1.725,0.997 c -0.332,0.192 -0.704,-0.178 -0.514,-0.511 l 0.985,-1.732 c -1.102,-0.94 -2.382,-1.677 -3.782,-2.155 l -0.871,1.531 c -0.191,0.335 -0.702,0.2 -0.702,-0.186 v -1.761 c -0.705,-0.134 -1.432,-0.207 -2.176,-0.207 -0.744,0 -1.471,0.073 -2.176,0.207 v 1.892 c 0,0.384 -0.508,0.52 -0.701,0.188 l -0.947,-1.639 c -1.397,0.487 -2.671,1.233 -3.767,2.181 l 0.997,1.725 c 0.192,0.331 -0.178,0.703 -0.511,0.514 l -1.732,-0.985 c -0.94,1.102 -1.677,2.382 -2.155,3.782 l 1.531,0.871 c 0.335,0.191 0.2,0.702 -0.186,0.702 h -1.761 c -0.134,0.705 -0.207,1.432 -0.207,2.176 0,0.744 0.073,1.471 0.207,2.176 h 1.892 c 0.384,0 0.52,0.508 0.188,0.7 l -1.639,0.947 c 0.487,1.397 1.233,2.671 2.181,3.767 l 1.725,-0.997 c 0.332,-0.192 0.704,0.178 0.514,0.511 l -0.985,1.732 c 1.102,0.94 2.382,1.677 3.782,2.155 l 0.871,-1.531 c 0.191,-0.335 0.702,-0.2 0.702,0.186 v 1.761 c 0.705,0.134 1.432,0.206 2.176,0.206 0.744,0 1.471,-0.073 2.176,-0.206 v -1.892 c 0,-0.384 0.508,-0.52 0.7,-0.188 l 0.947,1.639 c 1.397,-0.487 2.671,-1.233 3.767,-2.181 l -0.997,-1.725 c -0.192,-0.332 0.178,-0.704 0.511,-0.514 l 1.732,0.985 c 0.94,-1.102 1.677,-2.382 2.155,-3.782 l -1.531,-0.871 c -0.335,-0.191 -0.2,-0.702 0.186,-0.702 h 1.762 z m -11.069,3.014 c -3.139,0.198 -5.726,-2.389 -5.528,-5.528 0.163,-2.588 2.264,-4.689 4.852,-4.852 3.139,-0.198 5.726,2.389 5.528,5.528 -0.164,2.588 -2.264,4.688 -4.852,4.852 z"
   fill="#6f7082"
   id="path70" />&#10;			</g>&#10;		&#10;		<g
   id="_x30__7_">&#10;			<path
   d="m 115.11,379.87 h -0.876 c -0.485,0 -0.878,-0.393 -0.878,-0.878 v -0.876 c 0,-0.427 -0.286,-0.821 -0.705,-0.904 -0.563,-0.112 -1.061,0.322 -1.061,0.866 v 0.914 c 0,0.485 -0.393,0.878 -0.878,0.878 h -0.876 c -0.427,0 -0.821,0.286 -0.904,0.705 -0.112,0.563 0.322,1.061 0.866,1.061 h 0.914 c 0.485,0 0.878,0.393 0.878,0.878 v 0.876 c 0,0.427 0.286,0.821 0.705,0.904 0.563,0.112 1.061,-0.322 1.061,-0.866 v -0.914 c 0,-0.485 0.393,-0.878 0.878,-0.878 h 0.914 c 0.544,0 0.977,-0.498 0.866,-1.061 -0.083,-0.418 -0.477,-0.705 -0.904,-0.705 z"
   fill="#6f7082"
   id="path71" />&#10;		</g>&#10;		<g
   id="_x30__8_">&#10;			<path
   d="m 85.478,303.89 h -1.123 c -0.622,0 -1.126,-0.504 -1.126,-1.126 v -1.123 c 0,-0.548 -0.367,-1.053 -0.904,-1.159 -0.721,-0.143 -1.361,0.412 -1.361,1.11 v 1.172 c 0,0.622 -0.504,1.126 -1.126,1.126 h -1.123 c -0.548,0 -1.053,0.367 -1.159,0.904 -0.143,0.721 0.412,1.361 1.11,1.361 h 1.172 c 0.622,0 1.126,0.504 1.126,1.126 v 1.123 c 0,0.548 0.367,1.053 0.904,1.159 0.722,0.143 1.361,-0.412 1.361,-1.11 v -1.172 c 0,-0.622 0.504,-1.126 1.126,-1.126 h 1.172 c 0.698,0 1.253,-0.639 1.11,-1.361 -0.107,-0.537 -0.612,-0.904 -1.159,-0.904 z"
   fill="#42444f"
   id="path72" />&#10;		</g>&#10;		<g
   fill="#ffffff"
   id="g75">&#10;			<path
   d="m 120.43,244.41 -13.407,13.407 c -0.76,0.76 -2.002,0.76 -2.762,0 -0.759,-0.759 -0.759,-2.002 0,-2.762 l 13.407,-13.407 c 0.759,-0.76 2.002,-0.76 2.762,0 0.759,0.76 0.759,2.003 0,2.762 z"
   id="path73" />&#10;			<path
   d="m 126.8,238.03 -1.557,1.557 c -0.759,0.76 -2.002,0.76 -2.762,0 -0.759,-0.76 -0.759,-2.002 0,-2.762 l 1.557,-1.557 c 0.76,-0.759 2.002,-0.759 2.762,0 0.76,0.76 0.76,2.003 0,2.762 z"
   id="path74" />&#10;			<path
   d="m 134.66,230.17 -0.278,0.278 c -0.76,0.76 -2.002,0.76 -2.762,0 -0.76,-0.76 -0.76,-2.002 0,-2.762 l 0.278,-0.278 c 0.759,-0.76 2.002,-0.76 2.762,0 0.759,0.759 0.759,2.002 0,2.762 z"
   id="path75" />&#10;		</g>&#10;		&#10;			<path
   d="m 107.84,150.09 c 0,2.889 -2.342,5.23 -5.23,5.23 -2.888,0 -5.23,-2.342 -5.23,-5.23 0,-2.888 2.342,-5.23 5.23,-5.23 2.888,0 5.23,2.341 5.23,5.23 z"
   fill="#35363b"
   id="path76" />&#10;			<path
   d="m 170.21,212.29 c 0,2.889 -2.342,5.23 -5.23,5.23 -2.889,0 -5.23,-2.342 -5.23,-5.23 0,-2.888 2.342,-5.23 5.23,-5.23 2.888,0 5.23,2.341 5.23,5.23 z"
   fill="#35363b"
   id="path77" />&#10;			<path
   d="m 164.79,212.29 h -42.451 c -10.872,0 -19.685,-8.813 -19.685,-19.685 v -42.517"
   fill="none"
   stroke="#35363b"
   stroke-linecap="round"
   stroke-linejoin="round"
   stroke-miterlimit="10"
   stroke-width="2.16"
   id="path78"
   style="fill:#f63d69;fill-opacity:0;stroke:#f63d69;stroke-opacity:1" />&#10;		&#10;		<g
   fill="#35363b"
   id="g107">&#10;			<rect
   x="366.60999"
   y="116"
   width="21.622999"
   height="2.678"
   id="rect78" />&#10;			<rect
   x="390.16"
   y="116"
   width="16.646"
   height="2.678"
   id="rect79" />&#10;			<rect
   x="408.57999"
   y="116"
   width="13.216"
   height="2.678"
   id="rect80" />&#10;			<rect
   x="377.28"
   y="122.2"
   width="44.515999"
   height="2.678"
   id="rect81" />&#10;			<rect
   x="366.60999"
   y="122.2"
   width="8.1789999"
   height="2.678"
   id="rect82" />&#10;			<rect
   x="391.14999"
   y="128.39"
   width="21.056"
   height="2.678"
   id="rect83" />&#10;			<rect
   x="414.20001"
   y="128.39"
   width="7.5970001"
   height="2.678"
   id="rect84" />&#10;			<rect
   x="366.60999"
   y="128.39"
   width="22.618999"
   height="2.678"
   id="rect85" />&#10;			<rect
   x="382.48001"
   y="134.59"
   width="18.337999"
   height="2.678"
   id="rect86" />&#10;			<rect
   x="366.60999"
   y="134.59"
   width="13.799"
   height="2.678"
   id="rect87" />&#10;		&#10;		&#10;			<rect
   x="182.77"
   y="270.26001"
   width="20.816999"
   height="2.5780001"
   id="rect88" />&#10;			<rect
   x="205.44"
   y="270.26001"
   width="16.025"
   height="2.5780001"
   id="rect89" />&#10;			<rect
   x="223.17"
   y="270.26001"
   width="12.723"
   height="2.5780001"
   id="rect90" />&#10;			<rect
   x="193.03999"
   y="276.22"
   width="42.855999"
   height="2.5780001"
   id="rect91" />&#10;			<rect
   x="182.77"
   y="276.22"
   width="7.8740001"
   height="2.5780001"
   id="rect92" />&#10;			<rect
   x="206.39999"
   y="282.17999"
   width="20.271"
   height="2.5780001"
   id="rect93" />&#10;			<rect
   x="228.58"
   y="282.17999"
   width="7.3130002"
   height="2.5780001"
   id="rect94" />&#10;			<rect
   x="182.77"
   y="282.17999"
   width="21.775999"
   height="2.5780001"
   id="rect95" />&#10;			<rect
   x="198.03999"
   y="288.14999"
   width="17.653999"
   height="2.5780001"
   id="rect96" />&#10;			<rect
   x="182.77"
   y="288.14999"
   width="13.284"
   height="2.5780001"
   id="rect97" />&#10;		&#10;		&#10;			<rect
   x="249.17999"
   y="270.26001"
   width="20.816999"
   height="2.5780001"
   id="rect98" />&#10;			<rect
   x="271.84"
   y="270.26001"
   width="16.025"
   height="2.5780001"
   id="rect99" />&#10;			<rect
   x="289.57999"
   y="270.26001"
   width="12.723"
   height="2.5780001"
   id="rect100" />&#10;			<rect
   x="259.45001"
   y="276.22"
   width="42.855"
   height="2.5780001"
   id="rect101" />&#10;			<rect
   x="249.17999"
   y="276.22"
   width="7.8740001"
   height="2.5780001"
   id="rect102" />&#10;			<rect
   x="272.79999"
   y="282.17999"
   width="20.271"
   height="2.5780001"
   id="rect103" />&#10;			<rect
   x="294.98999"
   y="282.17999"
   width="7.3130002"
   height="2.5780001"
   id="rect104" />&#10;			<rect
   x="249.17999"
   y="282.17999"
   width="21.775999"
   height="2.5780001"
   id="rect105" />&#10;			<rect
   x="264.45001"
   y="288.14999"
   width="17.653999"
   height="2.5780001"
   id="rect106" />&#10;			<rect
   x="249.17999"
   y="288.14999"
   width="13.284"
   height="2.5780001"
   id="rect107" />&#10;		</g>&#10;		<g
   id="_x30__9_">&#10;			<path
   d="m 367.23,162.98 h -0.867 c -0.48,0 -0.87,-0.389 -0.87,-0.87 v -0.867 c 0,-0.423 -0.283,-0.813 -0.698,-0.896 -0.557,-0.111 -1.051,0.318 -1.051,0.857 v 0.906 c 0,0.48 -0.389,0.87 -0.87,0.87 h -0.867 c -0.423,0 -0.813,0.283 -0.895,0.698 -0.111,0.557 0.318,1.051 0.857,1.051 h 0.906 c 0.48,0 0.87,0.389 0.87,0.87 v 0.867 c 0,0.423 0.284,0.813 0.698,0.896 0.557,0.111 1.051,-0.318 1.051,-0.857 v -0.906 c 0,-0.48 0.389,-0.87 0.87,-0.87 h 0.906 c 0.539,0 0.968,-0.494 0.857,-1.051 -0.084,-0.415 -0.474,-0.698 -0.897,-0.698 z"
   fill="#42444f"
   id="path107" />&#10;		</g>&#10;		<path
   d="m 435.01,145.52 c 0,1.706 -1.383,3.09 -3.09,3.09 -1.706,0 -3.09,-1.383 -3.09,-3.09 0,-1.706 1.383,-3.09 3.09,-3.09 1.706,0.001 3.09,1.384 3.09,3.09 z"
   fill="#e6eaf0"
   id="path108" />&#10;		<path
   d="m 408.03,96.604 c 0,1.117 -0.905,2.022 -2.022,2.022 -1.117,0 -2.022,-0.905 -2.022,-2.022 0,-1.117 0.905,-2.022 2.022,-2.022 1.117,0 2.022,0.906 2.022,2.022 z"
   fill="#6f7082"
   id="path109"
   style="fill:#f63d69;fill-opacity:1" />&#10;		&#10;			&#10;				&#10;					<path
   d="m 353.01,73.77 v 12.312 c 0,2.592 -2.095,4.698 -4.698,4.698 h -118.29 c -1.296,0 -2.484,-0.529 -3.337,-1.393 -0.832,-0.842 -1.361,-2.009 -1.361,-3.305 V 73.77 c 0,-2.603 2.106,-4.698 4.698,-4.698 h 118.29 c 1.534,0 2.894,0.734 3.748,1.868 0.605,0.789 0.951,1.761 0.951,2.83 z"
   fill="#d8dde6"
   id="path110" />&#10;					<path
   d="m 353.01,73.77 v 12.312 c 0,2.592 -2.095,4.698 -4.698,4.698 h -118.29 c -1.296,0 -2.484,-0.529 -3.337,-1.393 -0.119,-0.356 -0.173,-0.734 -0.173,-1.134 V 74.461 c 0,-2.182 1.782,-3.964 3.964,-3.964 h 119.77 c 0.659,0 1.274,0.162 1.814,0.443 0.605,0.789 0.951,1.761 0.951,2.83 z"
   fill="#fff"
   id="path111"
   style="fill:#d9dde3;fill-opacity:1" />&#10;				&#10;				<path
   d="m 348.79,88.291 h -13.326 c -0.951,0 -1.723,-0.771 -1.723,-1.723 V 73.243 c 0,-0.951 0.771,-1.723 1.723,-1.723 h 13.326 c 0.951,0 1.723,0.771 1.723,1.723 v 13.326 c 0,0.951 -0.772,1.722 -1.723,1.722 z"
   fill="#42444f"
   id="path112" />&#10;			&#10;			&#10;				<path
   d="m 348.15,83.897 -3.094,-3.094 -0.496,0.496 -0.563,-0.563 c 1.328,-1.729 1.219,-4.208 -0.365,-5.791 -1.723,-1.722 -4.515,-1.722 -6.238,0 -1.723,1.723 -1.723,4.515 0,6.238 1.602,1.602 4.119,1.694 5.85,0.316 l 0.558,0.558 -0.496,0.496 3.094,3.094 c 0.483,0.483 1.266,0.483 1.749,0 0.484,-0.485 0.484,-1.268 10e-4,-1.75 z m -7.636,-2.607 c -0.351,0 -0.689,-0.056 -1.005,-0.159 -0.894,-0.293 -1.616,-0.965 -1.975,-1.826 -0.16,-0.382 -0.248,-0.801 -0.248,-1.242 0,-1.783 1.446,-3.228 3.228,-3.228 0.441,0 0.861,0.088 1.243,0.247 0.861,0.36 1.533,1.081 1.825,1.976 0.104,0.316 0.16,0.654 0.16,1.005 0,1.782 -1.445,3.227 -3.228,3.227 z"
   fill="#fff"
   id="path113"
   style="fill:#ffffff;fill-opacity:1" />&#10;			&#10;		&#10;		&#10;			&#10;				<line
   x1="308.57001"
   x2="308.57001"
   y1="81.885002"
   y2="109.36"
   fill="none"
   stroke="#6f7082"
   stroke-miterlimit="10"
   stroke-width="1.08"
   id="line113" />&#10;			<circle
   cx="308.57001"
   cy="109.33"
   r="3.0190001"
   fill="#6f7082"
   id="circle113" />&#10;			<circle
   cx="308.57001"
   cy="81.960999"
   r="3.0190001"
   fill="#6f7082"
   id="circle114"
   style="fill:#f63d69;fill-opacity:1" />&#10;		&#10;		<g
   id="_x30__10_">&#10;			<g
   fill="#6f7082"
   id="g116">&#10;				<path
   d="m 127.58,414.93 13.78,-13.78 c 0.781,-0.781 2.058,-0.781 2.839,0 0.781,0.781 0.781,2.058 0,2.839 l -13.78,13.78 c -0.781,0.781 -2.058,0.781 -2.839,0 -0.781,-0.78 -0.781,-2.058 0,-2.839 z"
   id="path114" />&#10;				<path
   d="m 121.03,421.48 1.6,-1.6 c 0.781,-0.781 2.058,-0.781 2.839,0 0.781,0.781 0.781,2.058 0,2.839 l -1.6,1.6 c -0.781,0.781 -2.058,0.781 -2.839,0 -0.781,-0.781 -0.781,-2.058 0,-2.839 z"
   id="path115" />&#10;				<path
   d="m 112.95,429.56 0.286,-0.286 c 0.781,-0.781 2.058,-0.781 2.839,0 0.781,0.781 0.781,2.058 0,2.839 l -0.286,0.286 c -0.781,0.781 -2.058,0.781 -2.839,0 -0.781,-0.781 -0.781,-2.058 0,-2.839 z"
   id="path116" />&#10;			</g>&#10;		</g>&#10;		<g
   id="_x30__11_">&#10;			<path
   d="m 176.3,398.58 h -0.955 c -0.529,0 -0.958,-0.429 -0.958,-0.958 v -0.955 c 0,-0.466 -0.312,-0.896 -0.769,-0.987 -0.614,-0.122 -1.158,0.351 -1.158,0.944 v 0.998 c 0,0.529 -0.429,0.958 -0.958,0.958 h -0.955 c -0.466,0 -0.896,0.312 -0.986,0.769 -0.122,0.614 0.351,1.158 0.944,1.158 h 0.997 c 0.529,0 0.958,0.429 0.958,0.958 v 0.955 c 0,0.466 0.312,0.896 0.769,0.987 0.614,0.122 1.158,-0.351 1.158,-0.944 v -0.997 c 0,-0.529 0.429,-0.958 0.958,-0.958 h 0.998 c 0.594,0 1.066,-0.544 0.944,-1.158 -0.091,-0.458 -0.521,-0.77 -0.987,-0.77 z"
   fill="#ffffff"
   id="path117" />&#10;		</g>&#10;		&#10;		&#10;			<path
   d="m 283.82,303.58 h 15.565 c 1.579,0 2.871,-1.292 2.871,-2.871 0,-1.579 -1.292,-2.871 -2.871,-2.871 H 283.82 c -1.579,0 -2.871,1.292 -2.871,2.871 10e-4,1.579 1.292,2.871 2.871,2.871 z"
   fill="#55c0ed"
   id="path118"
   style="fill:#f63d69;fill-opacity:1" />&#10;			<rect
   x="286.03"
   y="300.12"
   width="11.149"
   height="1.183"
   fill="#ffffff"
   id="rect118" />&#10;		&#10;		&#10;			<path
   d="m 217.46,303.58 h 15.565 c 1.579,0 2.871,-1.292 2.871,-2.871 0,-1.579 -1.292,-2.871 -2.871,-2.871 H 217.46 c -1.579,0 -2.871,1.292 -2.871,2.871 0.001,1.579 1.292,2.871 2.871,2.871 z"
   fill="#55c0ed"
   id="path119"
   style="fill:#f63d69;fill-opacity:1" />&#10;			<rect
   x="219.67"
   y="300.12"
   width="11.149"
   height="1.183"
   fill="#ffffff"
   id="rect119" />&#10;		&#10;		<g
   fill="#ffffff"
   id="g121">&#10;			<path
   d="m 252.4,116.11 h -19.76 c -0.901,0 -1.638,-0.737 -1.638,-1.638 0,-0.901 0.737,-1.638 1.638,-1.638 h 19.76 c 0.901,0 1.638,0.737 1.638,1.638 0,0.901 -0.737,1.638 -1.638,1.638 z"
   id="path120" />&#10;			<path
   d="m 264.97,116.11 h -4.438 c -0.901,0 -1.638,-0.737 -1.638,-1.638 0,-0.901 0.737,-1.638 1.638,-1.638 h 4.438 c 0.901,0 1.638,0.737 1.638,1.638 0,0.901 -0.737,1.638 -1.638,1.638 z"
   id="path121" />&#10;		</g>&#10;		&#10;			<path
   d="m 287.42,131.39 c 0,2.507 -2.033,4.54 -4.54,4.54 -2.507,0 -4.54,-2.032 -4.54,-4.54 0,-2.507 2.033,-4.54 4.54,-4.54 2.508,0.001 4.54,2.033 4.54,4.54 z"
   fill="#e0625b"
   id="path122" />&#10;			<path
   d="m 299.91,131.39 c 0,2.507 -2.032,4.54 -4.54,4.54 -2.507,0 -4.54,-2.032 -4.54,-4.54 0,-2.507 2.033,-4.54 4.54,-4.54 2.508,0.001 4.54,2.033 4.54,4.54 z"
   fill="#ffda58"
   id="path123" />&#10;			<path
   d="m 312.39,131.39 c 0,2.507 -2.033,4.54 -4.54,4.54 -2.507,0 -4.54,-2.032 -4.54,-4.54 0,-2.507 2.033,-4.54 4.54,-4.54 2.508,0.001 4.54,2.033 4.54,4.54 z"
   fill="#34909d"
   id="path124" />&#10;		&#10;		<rect
   x="174.32001"
   y="154.92999"
   width="148.67999"
   height="28.139999"
   fill="#35363b"
   id="rect124"
   style="fill:#52545c;fill-opacity:1" />&#10;		&#10;		&#10;			&#10;		&#10;			&#10;				<path
   d="M 302.1,256.75 H 197.98 c -3.976,0 -7.2,-3.224 -7.2,-7.2 v -49.66 c 0,-3.976 3.224,-7.2 7.2,-7.2 H 302.1 c 3.976,0 7.2,3.223 7.2,7.2 v 49.66 c 0,3.977 -3.224,7.2 -7.2,7.2 z"
   fill="#35363b"
   id="path126"
   style="fill:#52545c;fill-opacity:1" />&#10;				&#10;					<circle
   cx="227.72"
   cy="248.86"
   r="2.661"
   fill="#e6eaf0"
   id="circle126" />&#10;					<circle
   cx="238.88"
   cy="248.86"
   r="2.661"
   fill="#55c0ed"
   id="circle127"
   style="fill:#f63d69;fill-opacity:1" /><g
   fill="#e6eaf0"
   id="g129">&#10;					<circle
   cx="250.03999"
   cy="248.86"
   r="2.661"
   id="circle128" />&#10;					<path
   d="m 263.87,248.86 c 0,1.47 -1.191,2.661 -2.661,2.661 -1.47,0 -2.661,-1.191 -2.661,-2.661 0,-1.47 1.191,-2.661 2.661,-2.661 1.469,-0.001 2.661,1.191 2.661,2.661 z"
   id="path128" />&#10;					<path
   d="m 275.03,248.86 c 0,1.47 -1.191,2.661 -2.661,2.661 -1.47,0 -2.661,-1.191 -2.661,-2.661 0,-1.47 1.191,-2.661 2.661,-2.661 1.469,-0.001 2.661,1.191 2.661,2.661 z"
   id="path129" />&#10;				</g>&#10;			&#10;			<g
   fill="#6f7082"
   id="g131">&#10;				<path
   d="m 175.1,223.82 5.918,5.918 c 0.341,0.341 0.925,0.1 0.925,-0.383 V 217.52 c 0,-0.483 -0.584,-0.724 -0.925,-0.383 l -5.918,5.918 c -0.212,0.211 -0.212,0.554 0,0.765 z"
   id="path130" />&#10;				<path
   d="m 324.99,223.82 -5.918,5.918 c -0.341,0.341 -0.925,0.1 -0.925,-0.383 V 217.52 c 0,-0.483 0.583,-0.724 0.925,-0.383 l 5.918,5.918 c 0.211,0.211 0.211,0.554 0,0.765 z"
   id="path131" />&#10;			</g>&#10;		&#10;		<g
   id="Artwork_2_6_">&#10;			&#10;				<rect
   x="406.06"
   y="170.58"
   width="35.972"
   height="49.694"
   fill="#cdd1d6"
   id="rect131" />&#10;				<polygon
   points="406.06,179.98 415.45,170.58 406.06,170.58 "
   fill="#42444f"
   id="polygon131" /><g
   fill="#6f7082"
   id="g143">&#10;				<rect
   x="413.63"
   y="176.14999"
   width="20.839001"
   height="1.1619999"
   id="rect132" />&#10;				<rect
   x="413.63"
   y="179.5"
   width="20.839001"
   height="1.1619999"
   id="rect133" />&#10;				<rect
   x="413.63"
   y="182.84"
   width="20.839001"
   height="1.1619999"
   id="rect134" />&#10;				<rect
   x="413.63"
   y="186.17999"
   width="20.839001"
   height="1.1619999"
   id="rect135" />&#10;				<rect
   x="413.63"
   y="189.52"
   width="20.839001"
   height="1.1619999"
   id="rect136" />&#10;				<rect
   x="413.63"
   y="192.86"
   width="20.839001"
   height="1.1619999"
   id="rect137" />&#10;				<rect
   x="413.63"
   y="196.2"
   width="20.839001"
   height="1.1619999"
   id="rect138" />&#10;				<rect
   x="413.63"
   y="199.55"
   width="20.839001"
   height="1.1619999"
   id="rect139" />&#10;				<rect
   x="413.63"
   y="202.89"
   width="20.839001"
   height="1.1619999"
   id="rect140" />&#10;				<rect
   x="413.63"
   y="206.23"
   width="20.839001"
   height="1.1619999"
   id="rect141" />&#10;				<rect
   x="413.63"
   y="209.57001"
   width="20.839001"
   height="1.1619999"
   id="rect142" />&#10;				<rect
   x="413.63"
   y="212.91"
   width="12.604"
   height="1.1619999"
   id="rect143" />&#10;			</g>&#10;		</g>&#10;		<circle
   cx="203.8"
   cy="60.556"
   r="6.823"
   fill="#ffffff"
   id="circle143" />&#10;		<g
   id="_x30__25_">&#10;			&#10;				<path
   d="m 35.931,376.36 c 2.586,2.586 6.779,2.586 9.365,0 l 16.891,-16.891 c 0.977,-0.977 2.56,-0.977 3.536,0 0.976,0.977 0.976,2.56 0,3.536 l -2.488,2.488 c -1.687,1.687 -1.687,4.421 0,6.108 l 0.162,0.162 c 1.687,1.687 4.421,1.687 6.108,0 l 32.889,-32.888 c 1.687,-1.687 1.687,-4.421 0,-6.108 -1.687,-1.687 -4.421,-1.687 -6.108,0 l -22.428,22.428 c -0.977,0.977 -2.56,0.977 -3.536,0 l -0.162,-0.162 c -0.977,-0.977 -0.977,-2.56 0,-3.536 l 9.524,-9.524 c 2.586,-2.586 2.586,-6.779 0,-9.365 -2.586,-2.586 -6.779,-2.586 -9.365,0 l -34.387,34.387 c -2.587,2.587 -2.587,6.779 -0.001,9.365 z"
   fill="#ffffff"
   id="path143" />&#10;			&#10;		</g>&#10;		&#10;			<g
   id="folder_file_2_">&#10;				&#10;					&#10;						<rect
   transform="matrix(-0.9844,-0.1758,0.1758,-0.9844,739.44,681.55)"
   x="372.48001"
   y="296.67999"
   width="54.835999"
   height="22.707001"
   fill="#ccd7e6"
   id="rect144" />&#10;					&#10;						<rect
   transform="rotate(180,399.42,309.88)"
   x="372.01001"
   y="298.51999"
   width="54.835999"
   height="22.707001"
   fill="#e1e9f5"
   id="rect145" />&#10;					&#10;						<rect
   transform="matrix(-0.9969,0.0786,-0.0786,-0.9969,821.42,595.19)"
   x="373.37"
   y="304.03"
   width="51.258999"
   height="19.447001"
   fill="#ffffff"
   id="rect146" />&#10;					<path
   d="m 385.78,303.31 5.284,5.284 c 0.767,0.767 1.806,1.197 2.891,1.197 h 34.977 c 2.258,0 4.088,1.83 4.088,4.088 v 30.345 c 0,2.258 -1.83,4.088 -4.088,4.088 h -60.533 c -2.258,0 -4.088,-1.83 -4.088,-4.088 V 306.2 c 0,-2.258 1.83,-4.088 4.088,-4.088 h 14.491 c 1.084,10e-4 2.124,0.431 2.89,1.198 z"
   fill="#42444f"
   id="path146"
   style="fill:#6f7082;fill-opacity:1" />&#10;				&#10;			</g>&#10;			<g
   fill="#ffffff"
   id="g148">&#10;				<rect
   x="413.48001"
   y="340.26999"
   width="9.3210001"
   height="1.716"
   id="rect147" />&#10;				<rect
   x="413.48001"
   y="337.16"
   width="12.654"
   height="1.716"
   id="rect148" />&#10;			</g>&#10;			<path
   d="m 429.69,315.33 c 0,1.161 -0.941,2.102 -2.102,2.102 -1.161,0 -2.102,-0.941 -2.102,-2.102 0,-1.161 0.941,-2.102 2.102,-2.102 1.161,10e-4 2.102,0.941 2.102,2.102 z"
   fill="#55c0ed"
   id="path148" />&#10;		&#10;		&#10;	&#10;</g>&#10;</g>&#10;</svg>
