<?xml version="1.0" encoding="utf-8"?>
<!-- Generator: Adobe Illustrator 27.5.0, SVG Export Plug-In . SVG Version: 6.00 Build 0)  -->
<svg version="1.1" xmlns="http://www.w3.org/2000/svg" xmlns:xlink="http://www.w3.org/1999/xlink" x="0px" y="0px"
	 viewBox="0 0 500 500" style="enable-background:new 0 0 500 500;" xml:space="preserve">
<g id="Background">
	<rect style="fill:#FFFFFF;" width="500" height="500"/>
</g>
<g id="Objects">
	<g>
		<path style="opacity:0.49;fill:#E6EAF0;" d="M386.548,116.394v298.92c0,2.46-0.86,4.72-2.31,6.5c-1.88,2.31-4.75,3.79-7.97,3.79
			h-249.04c-5.68,0-10.28-4.61-10.28-10.29v-298.92c0-5.68,4.6-10.29,10.28-10.29h249.04
			C381.948,106.104,386.548,110.714,386.548,116.394z"/>
		<g>
			<path style="fill:#E6EAF0;" d="M113.718,298.131H59.666c-2.365,0-4.281,1.917-4.281,4.281c0,2.365,1.917,4.281,4.281,4.281
				h12.851c0.893,0,1.617,0.724,1.617,1.617v0.148c0,0.893-0.724,1.617-1.617,1.617H47.867c-1.542,0-2.792,1.25-2.792,2.792
				c0,1.542,1.25,2.792,2.792,2.792H85.7c1.542,0,2.792-1.25,2.792-2.792v-0.148c0-1.542-1.25-2.792-2.792-2.792h-5.893
				c-0.893,0-1.617-0.724-1.617-1.617c0-0.893,0.724-1.617,1.617-1.617h33.911c2.365,0,4.281-1.917,4.281-4.281
				C117.999,300.048,116.082,298.131,113.718,298.131z M92.968,309.911c-1.575,0-2.852,1.277-2.852,2.852
				c0,1.575,1.277,2.852,2.852,2.852c1.575,0,2.852-1.277,2.852-2.852C95.82,311.188,94.543,309.911,92.968,309.911z
				 M100.206,309.911c-1.575,0-2.852,1.277-2.852,2.852c0,1.575,1.277,2.852,2.852,2.852c1.575,0,2.852-1.277,2.852-2.852
				C103.058,311.188,101.781,309.911,100.206,309.911z"/>
			<path style="fill:none;stroke:#6F7082;stroke-miterlimit:10;" d="M80.064,155.65h-0.627c-5.733,0-10.423-4.69-10.423-10.423
				V91.339c0-5.733,4.69-10.423,10.423-10.423h0.627c5.733,0,10.423,4.69,10.423,10.423v53.888
				C90.487,150.959,85.796,155.65,80.064,155.65z"/>
			<g id="gear_11_">
				<path style="fill:#6F7082;" d="M87.372,146.704c0.087-0.452,0.131-0.918,0.131-1.395c0-0.477-0.044-0.944-0.131-1.397h-2.425
					c-0.111-0.389-0.264-0.76-0.457-1.105l1.714-1.714c-0.528-0.776-1.198-1.446-1.974-1.975l-1.715,1.715
					c-0.345-0.193-0.716-0.348-1.105-0.457v-2.427c-0.452-0.087-0.918-0.131-1.395-0.131c-0.477,0-0.944,0.044-1.397,0.131v2.427
					c-0.389,0.109-0.758,0.264-1.105,0.457l-1.715-1.715c-0.776,0.529-1.446,1.199-1.972,1.975l1.714,1.714
					c-0.193,0.345-0.348,0.716-0.457,1.105h-2.425c-0.087,0.453-0.131,0.92-0.131,1.397c0,0.477,0.044,0.944,0.131,1.395h2.425
					c0.109,0.389,0.264,0.76,0.457,1.105l-1.714,1.714c0.526,0.775,1.197,1.446,1.972,1.975l1.715-1.715
					c0.347,0.193,0.716,0.348,1.105,0.458v2.425c0.453,0.087,0.919,0.131,1.397,0.131c0.477,0,0.943-0.044,1.395-0.131v-2.425
					c0.389-0.111,0.76-0.265,1.105-0.458l1.715,1.715c0.776-0.528,1.446-1.198,1.974-1.974l-1.714-1.715
					c0.193-0.345,0.347-0.716,0.457-1.105H87.372z M80.015,146.819c-0.835,0-1.511-0.676-1.511-1.511
					c0-0.835,0.676-1.511,1.511-1.511c0.834,0,1.511,0.676,1.511,1.511C81.526,146.142,80.849,146.819,80.015,146.819z"/>
			</g>
			<g>
				<path style="fill:#39A6D4;" d="M414.017,120.088h-87.65c-4.477,0-8.107-3.63-8.107-8.107V65.798
					c0-4.477,3.629-8.107,8.107-8.107h87.65c4.477,0,8.107,3.63,8.107,8.107v46.183
					C422.123,116.458,418.494,120.088,414.017,120.088z"/>
				<path style="fill:#55C0ED;" d="M413.713,118.493h-87.65c-4.477,0-8.107-3.63-8.107-8.107V64.202
					c0-4.477,3.629-8.107,8.107-8.107h87.65c4.477,0,8.107,3.63,8.107,8.107v46.184C421.819,114.863,418.19,118.493,413.713,118.493
					z"/>
				<path style="fill:#35363B;" d="M376.548,106.394v298.92c0,2.46-0.86,4.72-2.31,6.5c-1.88,2.31-4.75,3.79-7.97,3.79h-249.04
					c-5.68,0-10.28-4.61-10.28-10.29v-298.92c0-5.68,4.6-10.29,10.28-10.29h249.04C371.948,96.104,376.548,100.714,376.548,106.394z
					"/>
				<path style="fill:#27282B;" d="M344.198,186.434v87.36c0,2.52-2.04,4.56-4.56,4.56h-198.12c-0.84,0-1.63-0.23-2.31-0.63
					c-1.35-0.79-2.25-2.25-2.25-3.93v-87.36c0-2.52,2.04-4.56,4.56-4.56h198.12c1.67,0,3.14,0.9,3.93,2.25
					C343.968,184.794,344.198,185.584,344.198,186.434z"/>
				<path style="fill:#323338;" d="M344.198,186.434v87.36c0,2.52-2.04,4.56-4.56,4.56h-198.12c-0.84,0-1.63-0.23-2.31-0.63
					c-0.41-0.68-0.64-1.48-0.64-2.32v-87.36c0-2.52,2.04-4.56,4.55-4.56h198.13c0.85,0,1.64,0.23,2.32,0.64
					C343.968,184.794,344.198,185.584,344.198,186.434z"/>
				<path style="opacity:0.24;fill:#35363B;" d="M376.548,221.424v96.48h-149.49c-2.52,0-4.56-2.04-4.56-4.56v-87.36
					c0-2.52,2.04-4.56,4.56-4.56H376.548z"/>
				<g>
					<path style="fill:#27282B;" d="M242.388,340.394v49.32c0,0.85-0.32,1.62-0.85,2.2c-0.59,0.68-1.48,1.11-2.46,1.11h-120.57
						c-1.83,0-3.31-1.48-3.31-3.31v-49.32c0-0.57,0.14-1.1,0.39-1.56c0.56-1.04,1.65-1.75,2.92-1.75h120.57
						C240.908,337.084,242.388,338.564,242.388,340.394z"/>
					<path style="fill:#323338;" d="M241.548,341.084v50.58c0,0.09,0,0.17-0.01,0.25c-0.59,0.68-1.48,1.11-2.46,1.11h-120.57
						c-1.83,0-3.31-1.48-3.31-3.31v-49.32c0-0.57,0.14-1.1,0.39-1.56c0.42-0.27,0.92-0.43,1.45-0.43h121.83
						C240.348,338.404,241.548,339.604,241.548,341.084z"/>
				</g>
				<path style="opacity:0.24;fill:#35363B;" d="M230.028,349.154v49.32c0,1.83-1.48,3.31-3.31,3.31h-119.77v-55.94h119.77
					C228.548,345.844,230.028,347.324,230.028,349.154z"/>
				<g>
					<path style="fill:#27282B;" d="M368.654,340.394v49.32c0,0.85-0.32,1.62-0.85,2.2c-0.59,0.68-1.48,1.11-2.46,1.11h-114.57
						c-1.83,0-3.31-1.48-3.31-3.31v-49.32c0-0.57,0.14-1.1,0.39-1.56c0.56-1.04,1.65-1.75,2.92-1.75h114.57
						C367.174,337.084,368.654,338.564,368.654,340.394z"/>
					<path style="fill:#323338;" d="M367.814,341.084v50.58c0,0.09,0,0.17-0.01,0.25c-0.59,0.68-1.48,1.11-2.46,1.11h-114.57
						c-1.83,0-3.31-1.48-3.31-3.31v-49.32c0-0.57,0.14-1.1,0.39-1.56c0.42-0.27,0.92-0.43,1.45-0.43h115.83
						C366.614,338.404,367.814,339.604,367.814,341.084z"/>
				</g>
				<path style="opacity:0.24;fill:#35363B;" d="M376.548,355.864v49.45c0,2.46-0.86,4.72-2.31,6.5h-74.87
					c-1.83,0-3.31-1.48-3.31-3.31v-49.32c0-1.83,1.48-3.32,3.31-3.32H376.548z"/>
				<g>
					<path style="fill:#E6EAF0;" d="M412.593,300.374H214.47c-2.516,0-4.556-2.04-4.556-4.556v-87.36
						c0-2.516,2.04-4.556,4.556-4.556h198.123c2.516,0,4.556,2.04,4.556,4.556v87.36
						C417.149,298.334,415.109,300.374,412.593,300.374z"/>
					<line style="fill:none;stroke:#FFFFFF;stroke-miterlimit:10;" x1="214.579" y1="295.375" x2="413.102" y2="208.664"/>
					<line style="fill:none;stroke:#FFFFFF;stroke-miterlimit:10;" x1="413.102" y1="295.375" x2="214.579" y2="208.664"/>
					<g id="transform_1_">
						<g>
							<g>
								<g>
									
										<line style="fill:none;stroke:#42444F;stroke-width:1.5075;stroke-linecap:round;stroke-miterlimit:10;" x1="425.892" y1="309.354" x2="425.892" y2="309.354"/>
									
										<line style="fill:none;stroke:#42444F;stroke-width:1.5075;stroke-linecap:round;stroke-miterlimit:10;stroke-dasharray:0,2.3906;" x1="423.501" y1="309.354" x2="202.367" y2="309.354"/>
									
										<line style="fill:none;stroke:#42444F;stroke-width:1.5075;stroke-linecap:round;stroke-miterlimit:10;" x1="201.171" y1="309.354" x2="201.171" y2="309.354"/>
									
										<line style="fill:none;stroke:#42444F;stroke-width:1.5075;stroke-linecap:round;stroke-miterlimit:10;stroke-dasharray:0,2.4009;" x1="201.171" y1="306.953" x2="201.171" y2="197.71"/>
									
										<line style="fill:none;stroke:#42444F;stroke-width:1.5075;stroke-linecap:round;stroke-miterlimit:10;" x1="201.171" y1="196.51" x2="201.171" y2="196.51"/>
									
										<line style="fill:none;stroke:#42444F;stroke-width:1.5075;stroke-linecap:round;stroke-miterlimit:10;stroke-dasharray:0,2.3906;" x1="203.562" y1="196.51" x2="424.697" y2="196.51"/>
									
										<line style="fill:none;stroke:#42444F;stroke-width:1.5075;stroke-linecap:round;stroke-miterlimit:10;" x1="425.892" y1="196.51" x2="425.892" y2="196.51"/>
									
										<line style="fill:none;stroke:#42444F;stroke-width:1.5075;stroke-linecap:round;stroke-miterlimit:10;stroke-dasharray:0,2.4009;" x1="425.892" y1="198.911" x2="425.892" y2="308.153"/>
								</g>
							</g>
							<g>
								<g>
									<rect x="197.971" y="193.31" style="fill:#42444F;" width="6.401" height="6.401"/>
									<rect x="311.158" y="193.31" style="fill:#42444F;" width="6.401" height="6.401"/>
									<rect x="422.691" y="193.31" style="fill:#42444F;" width="6.401" height="6.401"/>
								</g>
								<g>
									<rect x="197.971" y="249.732" style="fill:#42444F;" width="6.401" height="6.401"/>
									<rect x="422.691" y="249.732" style="fill:#42444F;" width="6.401" height="6.401"/>
								</g>
								<g>
									<rect x="197.971" y="306.153" style="fill:#42444F;" width="6.401" height="6.401"/>
									<rect x="311.158" y="306.153" style="fill:#42444F;" width="6.401" height="6.401"/>
									<rect x="422.691" y="306.153" style="fill:#42444F;" width="6.401" height="6.401"/>
								</g>
							</g>
						</g>
					</g>
				</g>
				<g>
					<g>
						<g>
							<path style="fill:#DBDFE6;" d="M196.307,120.353v14.13c0,2.5-2.02,4.53-4.53,4.53H46.787c-2.5,0-4.53-2.03-4.53-4.53v-14.13
								c0-2.5,2.03-4.53,4.53-4.53h144.99C194.287,115.823,196.307,117.853,196.307,120.353z"/>
							<path style="fill:#E6EAF0;" d="M196.307,122.203v12.28c0,1.08-0.37,2.07-1.01,2.85c-0.83,1.03-2.09,1.68-3.52,1.68H46.787
								c-2.5,0-4.53-2.03-4.53-4.53v-12.28c0-2.5,2.03-4.53,4.53-4.53h144.99C194.287,117.673,196.307,119.703,196.307,122.203z"/>
						</g>
						
							<text transform="matrix(1 0 0 1 49.9824 131.5893)" style="fill:#35363B; font-family:'Montserrat-Black'; font-size:13.2652px;">Yourwebsite.com</text>
					</g>
				</g>
				
					<text transform="matrix(1 0 0 1 335.8026 90.9904)" style="fill:#39A6D4; font-family:'Montserrat-Black'; font-size:29.4807px;">cms</text>
				
					<text transform="matrix(1 0 0 1 335.8026 88.9904)" style="fill:#E6EAF0; font-family:'Montserrat-Black'; font-size:29.4807px;">cms</text>
				<g>
					<g id="Artwork_3_2_">
						<g>
							<g>
								<path style="fill:#55C0ED;" d="M173.514,145.98v8.282c0,0.719,0.289,1.405,0.796,1.912c0.507,0.513,0.795,1.2,0.795,1.918
									v4.991h11.425v-4.67c0-0.719,0.289-1.411,0.795-1.918l0.834-0.834c0.135-0.128,0.25-0.276,0.353-0.436l6.511-10.001
									c-0.86-0.783-1.95-1.18-3.047-1.18c-0.09,0-0.18,0-0.269,0.013c-0.783,0.038-1.559,0.289-2.245,0.751l-0.866,0.577v-13.773
									c0-1.161-0.943-2.104-2.104-2.104c-0.577,0-1.103,0.237-1.488,0.616c-0.379,0.378-0.616,0.904-0.616,1.488v10.514h-7.018
									C175.24,142.125,173.514,143.85,173.514,145.98z"/>
							</g>
							
								<rect x="183.845" y="142.122" transform="matrix(-1 -1.224647e-16 1.224647e-16 -1 368.2347 287.6405)" style="fill:#3EA4CF;" width="0.545" height="3.396"/>
							
								<rect x="180.479" y="142.122" transform="matrix(-1 -1.224647e-16 1.224647e-16 -1 361.5037 287.6405)" style="fill:#3EA4CF;" width="0.545" height="3.396"/>
							
								<rect x="177.114" y="142.122" transform="matrix(-1 -1.224647e-16 1.224647e-16 -1 354.7728 287.6405)" style="fill:#3EA4CF;" width="0.545" height="3.396"/>
						</g>
					</g>
					<path style="fill:#3EA4CF;" d="M188.596,145.384v3.778c0.289-1.668,1.059-4.51,3.111-5.106
						c-0.783,0.038-1.559,0.289-2.245,0.751L188.596,145.384z"/>
				</g>
				<g>
					<path style="fill:#E6EAF0;" d="M214.641,386.595H85.068c-1.829,0-3.313-1.483-3.313-3.313v-49.32
						c0-1.829,1.483-3.312,3.313-3.312h129.573c1.829,0,3.312,1.483,3.312,3.312v49.32
						C217.954,385.112,216.471,386.595,214.641,386.595z"/>
					
						<text transform="matrix(1 0 0 1 130.8247 344.4314)" style="fill:#42444F; font-family:'Montserrat-Black'; font-size:8.3283px;">article</text>
					<g>
						<rect x="96.314" y="349.17" style="fill:#42444F;" width="107.08" height="3.302"/>
						<rect x="96.314" y="357.976" style="fill:#42444F;" width="107.08" height="3.302"/>
						<rect x="96.314" y="366.781" style="fill:#42444F;" width="107.08" height="3.302"/>
						<rect x="96.314" y="375.586" style="fill:#42444F;" width="107.08" height="3.302"/>
					</g>
				</g>
				<g>
					<path style="fill:#E6EAF0;" d="M438.511,406.711H308.938c-1.829,0-3.312-1.483-3.312-3.313v-49.32
						c0-1.829,1.483-3.313,3.312-3.313h129.573c1.829,0,3.313,1.483,3.313,3.313v49.32
						C441.823,405.228,440.34,406.711,438.511,406.711z"/>
					
						<text transform="matrix(1 0 0 1 386.1393 364.5481)" style="fill:#42444F; font-family:'Montserrat-Black'; font-size:8.3283px;">gallery</text>
				</g>
				<path style="fill:#C6CCD6;" d="M406.787,399.25h19.926c1.095,0,1.982-0.887,1.982-1.982v-24.939
					c0-1.095-0.888-1.983-1.982-1.983h-19.926c-1.095,0-1.982,0.888-1.982,1.983v24.939
					C404.805,398.362,405.692,399.25,406.787,399.25z"/>
				<path style="fill:#C6CCD6;" d="M377.527,399.25h19.926c1.095,0,1.982-0.887,1.982-1.982v-24.939
					c0-1.095-0.888-1.983-1.982-1.983h-19.926c-1.095,0-1.983,0.888-1.983,1.983v24.939
					C375.544,398.362,376.432,399.25,377.527,399.25z"/>
				<path style="fill:#C6CCD6;" d="M348.266,399.25h19.926c1.095,0,1.982-0.887,1.982-1.982v-24.939
					c0-1.095-0.888-1.983-1.982-1.983h-19.926c-1.095,0-1.982,0.888-1.982,1.983v24.939
					C346.283,398.362,347.171,399.25,348.266,399.25z"/>
				<path style="fill:#C6CCD6;" d="M319.005,399.25h19.926c1.095,0,1.982-0.887,1.982-1.982v-24.939
					c0-1.095-0.888-1.983-1.982-1.983h-19.926c-1.095,0-1.982,0.888-1.982,1.983v24.939
					C317.023,398.362,317.91,399.25,319.005,399.25z"/>
				<g>
					<g>
						<path style="fill:#FFFFFF;" d="M406.473,398.818h19.926c1.095,0,1.982-0.888,1.982-1.983v-24.939
							c0-1.095-0.888-1.982-1.982-1.982h-19.926c-1.095,0-1.983,0.888-1.983,1.982v24.939
							C404.49,397.931,405.378,398.818,406.473,398.818z"/>
						<path style="fill:#FFFFFF;" d="M377.212,398.818h19.926c1.095,0,1.982-0.888,1.982-1.983v-24.939
							c0-1.095-0.888-1.982-1.982-1.982h-19.926c-1.095,0-1.982,0.888-1.982,1.982v24.939
							C375.23,397.931,376.117,398.818,377.212,398.818z"/>
						<path style="fill:#FFFFFF;" d="M347.951,398.818h19.926c1.095,0,1.982-0.888,1.982-1.983v-24.939
							c0-1.095-0.888-1.982-1.982-1.982h-19.926c-1.095,0-1.982,0.888-1.982,1.982v24.939
							C345.969,397.931,346.857,398.818,347.951,398.818z"/>
						<path style="fill:#FFFFFF;" d="M318.691,398.818h19.926c1.095,0,1.982-0.888,1.982-1.983v-24.939
							c0-1.095-0.888-1.982-1.982-1.982h-19.926c-1.095,0-1.982,0.888-1.982,1.982v24.939
							C316.708,397.931,317.596,398.818,318.691,398.818z"/>
						<path style="fill:#DEE2E8;" d="M407.388,396.178h18.095c0.395,0,0.716-0.321,0.716-0.716V373.27
							c0-0.395-0.321-0.716-0.716-0.716h-18.095c-0.395,0-0.716,0.321-0.716,0.716v22.192
							C406.672,395.858,406.993,396.178,407.388,396.178z"/>
					</g>
					<g>
						<path style="fill:#FFFFFF;" d="M377.212,398.818h19.926c1.095,0,1.982-0.888,1.982-1.983v-24.939
							c0-1.095-0.888-1.982-1.982-1.982h-19.926c-1.095,0-1.982,0.888-1.982,1.982v24.939
							C375.23,397.931,376.117,398.818,377.212,398.818z"/>
						<path style="fill:#DEE2E8;" d="M378.128,396.178h18.095c0.396,0,0.716-0.321,0.716-0.716V373.27
							c0-0.395-0.321-0.716-0.716-0.716h-18.095c-0.396,0-0.716,0.321-0.716,0.716v22.192
							C377.412,395.858,377.732,396.178,378.128,396.178z"/>
					</g>
					<g>
						<path style="fill:#FFFFFF;" d="M347.951,398.818h19.926c1.095,0,1.982-0.888,1.982-1.983v-24.939
							c0-1.095-0.888-1.982-1.982-1.982h-19.926c-1.095,0-1.982,0.888-1.982,1.982v24.939
							C345.969,397.931,346.857,398.818,347.951,398.818z"/>
						<path style="fill:#DEE2E8;" d="M348.867,396.178h18.095c0.395,0,0.716-0.321,0.716-0.716V373.27
							c0-0.395-0.321-0.716-0.716-0.716h-18.095c-0.396,0-0.716,0.321-0.716,0.716v22.192
							C348.151,395.858,348.472,396.178,348.867,396.178z"/>
					</g>
					<g>
						<path style="fill:#FFFFFF;" d="M318.691,398.818h19.926c1.095,0,1.982-0.888,1.982-1.983v-24.939
							c0-1.095-0.888-1.982-1.982-1.982h-19.926c-1.095,0-1.982,0.888-1.982,1.982v24.939
							C316.708,397.931,317.596,398.818,318.691,398.818z"/>
						<path style="fill:#DEE2E8;" d="M319.606,396.178h18.095c0.396,0,0.716-0.321,0.716-0.716V373.27
							c0-0.395-0.321-0.716-0.716-0.716h-18.095c-0.396,0-0.716,0.321-0.716,0.716v22.192
							C318.89,395.858,319.211,396.178,319.606,396.178z"/>
					</g>
				</g>
				<g>
					<path style="fill:#BA0034;" d="M365.247,107.95c0,2.311-1.873,4.184-4.184,4.184c-2.311,0-4.184-1.873-4.184-4.184
						c0-2.311,1.873-4.184,4.184-4.184C363.374,103.766,365.247,105.639,365.247,107.95z"/>
					<path style="fill:#FFDA58;" d="M348.406,107.95c0,2.311-1.873,4.184-4.184,4.184c-2.311,0-4.184-1.873-4.184-4.184
						c0-2.311,1.873-4.184,4.184-4.184C346.532,103.766,348.406,105.639,348.406,107.95z"/>
					<path style="fill:#34909D;" d="M331.564,107.95c0,2.311-1.873,4.184-4.184,4.184c-2.311,0-4.184-1.873-4.184-4.184
						c0-2.311,1.873-4.184,4.184-4.184C329.691,103.766,331.564,105.639,331.564,107.95z"/>
				</g>
				<g>
					<g id="gear_8_">
						<path style="fill:#E6EAF0;" d="M154.192,292.12c0.081-0.429,0.126-0.87,0.126-1.323c0-0.452-0.044-0.894-0.126-1.323h-1.15
							c-0.233,0-0.316-0.309-0.114-0.426l0.996-0.576c-0.296-0.849-0.749-1.623-1.325-2.289l-1.048,0.606
							c-0.202,0.116-0.428-0.108-0.313-0.31l0.599-1.052c-0.67-0.571-1.447-1.019-2.298-1.309l-0.529,0.931
							c-0.116,0.204-0.426,0.121-0.426-0.113v-1.07c-0.429-0.081-0.87-0.126-1.323-0.126c-0.452,0-0.894,0.044-1.323,0.126v1.15
							c0,0.233-0.309,0.316-0.426,0.114l-0.576-0.996c-0.849,0.296-1.623,0.749-2.289,1.325l0.606,1.048
							c0.116,0.202-0.108,0.428-0.31,0.313l-1.052-0.599c-0.571,0.67-1.019,1.447-1.309,2.298l0.931,0.529
							c0.203,0.116,0.121,0.426-0.113,0.426h-1.07c-0.081,0.429-0.126,0.87-0.126,1.323c0,0.452,0.044,0.894,0.126,1.323h1.15
							c0.233,0,0.316,0.309,0.114,0.426l-0.996,0.576c0.296,0.849,0.749,1.623,1.325,2.289l1.048-0.606
							c0.202-0.116,0.428,0.108,0.312,0.31l-0.599,1.052c0.67,0.571,1.447,1.019,2.298,1.309l0.529-0.931
							c0.116-0.204,0.426-0.121,0.426,0.113v1.07c0.429,0.081,0.87,0.126,1.323,0.126c0.452,0,0.894-0.044,1.323-0.126v-1.15
							c0-0.233,0.309-0.316,0.426-0.114l0.576,0.996c0.849-0.296,1.623-0.749,2.289-1.325l-0.606-1.048
							c-0.117-0.202,0.108-0.428,0.31-0.313l1.053,0.599c0.571-0.67,1.019-1.447,1.309-2.298l-0.931-0.529
							c-0.204-0.116-0.121-0.426,0.113-0.426H154.192z M147.465,293.952c-1.907,0.12-3.48-1.452-3.359-3.359
							c0.099-1.573,1.376-2.849,2.949-2.949c1.907-0.12,3.48,1.452,3.359,3.359C150.314,292.576,149.038,293.852,147.465,293.952z"
							/>
					</g>
					<g id="Edit_pencil_2_">
						<g>
							<g>
								
									<rect x="161.323" y="289.687" transform="matrix(0.7071 -0.7071 0.7071 0.7071 -156.7817 203.7559)" style="fill:#55C0ED;" width="12.483" height="2.887"/>
								<path style="fill:#E1E9F5;" d="M174.117,286.619l-1.118,1.118l-2.041-2.041l1.118-1.118c0.564-0.564,1.478-0.564,2.041,0
									l0,0C174.68,285.142,174.68,286.056,174.117,286.619z"/>
								<polygon style="fill:#E1E9F5;" points="162.131,294.524 164.171,296.565 162.388,297.162 161.102,297.591 161.533,296.307 
																	"/>
								<polygon style="fill:#6F7082;" points="161.533,296.307 162.388,297.162 161.102,297.591 								"/>
							</g>
						</g>
					</g>
				</g>
				<g>
					
						<polyline style="fill:none;stroke:#E6EAF0;stroke-width:3.4142;stroke-linecap:round;stroke-linejoin:round;stroke-miterlimit:10;" points="
						126.895,242.566 117.79,233.46 126.895,224.355 					"/>
				</g>
				<g>
					<path style="fill:#CCD2DB;" d="M84.848,228.416H48.353c-3.331,0-6.031-2.7-6.031-6.031v-49.443c0-3.331,2.7-6.031,6.031-6.031
						h36.495c3.331,0,6.031,2.7,6.031,6.031v49.443C90.879,225.716,88.178,228.416,84.848,228.416z"/>
					<path style="fill:#E6EAF0;" d="M84.624,227.717H47.005c-3.02,0-5.469-2.448-5.469-5.469V171.68c0-3.02,2.448-5.468,5.469-5.468
						h37.619c3.02,0,5.469,2.448,5.469,5.468v50.568C90.093,225.268,87.645,227.717,84.624,227.717z"/>
				</g>
				
					<path style="fill:none;stroke:#6F7082;stroke-width:1.5075;stroke-linecap:round;stroke-miterlimit:10;stroke-dasharray:0,2.3983;" d="
					M91.721,197.14h24.892c2.478,0,4.487,2.009,4.487,4.487v18.738"/>
				<g>
					
						<polyline style="fill:none;stroke:#35363B;stroke-width:2.5169;stroke-linecap:round;stroke-linejoin:round;stroke-miterlimit:10;" points="
						57.843,190.751 51.131,184.038 57.843,177.326 					"/>
				</g>
				<polygon style="fill:#35363B;" points="72.791,184.038 79.504,190.751 79.504,177.326 				"/>
				<path style="fill:#35363B;" d="M81.491,206.131l-3.215,3.215v-2.606c0-0.768-0.928-1.152-1.471-0.609l-4.273,4.273
					c-0.336,0.337-0.336,0.882,0,1.218l4.273,4.273c0.543,0.543,1.471,0.158,1.471-0.609v-2.606l3.215,3.215
					c0.543,0.543,1.471,0.158,1.471-0.609v-8.547C82.962,205.973,82.034,205.588,81.491,206.131z"/>
				<path style="fill:#35363B;" d="M57.355,208.951v-2.387c0-1.071-1.295-1.608-2.053-0.85l-5.318,5.318l5.318,5.318
					c0.758,0.758,2.053,0.221,2.053-0.85v-2.387h4.788v-4.162H57.355z"/>
				<path style="fill:#55C0ED;" d="M51.536,176.61c0,0.77-0.624,1.393-1.394,1.393c-0.77,0-1.394-0.624-1.394-1.393
					c0-0.77,0.624-1.394,1.394-1.394C50.912,175.216,51.536,175.84,51.536,176.61z"/>
				<g>
					<rect x="241.979" y="133.998" style="fill:#494B52;" width="118.99" height="3.299"/>
					<rect x="241.979" y="141.696" style="fill:#494B52;" width="118.99" height="3.299"/>
					<rect x="241.979" y="149.394" style="fill:#494B52;" width="118.99" height="3.299"/>
					<rect x="241.979" y="157.092" style="fill:#494B52;" width="118.99" height="3.299"/>
				</g>
				<g id="mouse_cursor_3_">
					<path style="fill:#35363B;" d="M409.169,273.596c0.06-0.048-13.59-8.259-13.59-8.259s4.866,15.168,4.927,15.12
						c0.06-0.048,2.783-4.034,2.783-4.034l3.986,5.033l1.316-1.043l-3.986-5.033C404.605,275.381,409.108,273.644,409.169,273.596z"
						/>
				</g>
			</g>
			
				<path style="fill:none;stroke:#6F7082;stroke-width:1.5075;stroke-linecap:round;stroke-miterlimit:10;stroke-dasharray:0,2.3983;" d="
				M79.275,358.887H67.518c-4.811,0-8.711,3.9-8.711,8.711v62.042c0,4.811,3.9,8.711,8.711,8.711h22.994"/>
			<g id="cloud_4_">
				<path style="fill:#E6EAF0;" d="M419.61,440.794c-0.414,0-0.809,0.075-1.179,0.205c-0.381-1.898-1.698-3.456-3.448-4.176
					c0.068-0.531,0.107-1.071,0.107-1.621c0-7.005-5.678-12.683-12.683-12.683c-6.339,0-11.592,4.651-12.532,10.727
					c-0.519-0.115-1.058-0.178-1.612-0.178c-4.091,0-7.408,3.317-7.408,7.408s3.317,7.408,7.408,7.408h31.347
					c1.958,0,3.545-1.587,3.545-3.545C423.156,442.381,421.568,440.794,419.61,440.794z"/>
			</g>
			
				<path style="fill:none;stroke:#6F7082;stroke-width:1.5075;stroke-linecap:round;stroke-miterlimit:10;stroke-dasharray:0,2.3983;" d="
				M280.596,437.949h114.644c4.811,0,8.711-3.9,8.711-8.711v-22.191"/>
			
				<line style="fill:none;stroke:#6F7082;stroke-width:1.5075;stroke-linecap:round;stroke-miterlimit:10;stroke-dasharray:0,2.3983;" x1="131.239" y1="437.949" x2="242.257" y2="437.949"/>
			<g id="folder_file_1_">
				<g>
					
						<rect x="97.072" y="425.124" transform="matrix(0.9844 -0.1757 0.1757 0.9844 -73.9294 25.9858)" style="fill:#CCD7E6;" width="25.339" height="10.493"/>
					<rect x="97.292" y="425.978" style="fill:#E1E9F5;" width="25.339" height="10.493"/>
					
						<rect x="98.315" y="428.523" transform="matrix(0.9969 0.0786 -0.0786 0.9969 34.3638 -7.3167)" style="fill:#FFFFFF;" width="23.686" height="8.986"/>
					<path style="fill:#55C0ED;" d="M116.267,428.19l-2.442,2.442c-0.354,0.354-0.835,0.553-1.336,0.553H96.327
						c-1.043,0-1.889,0.846-1.889,1.889v14.022c0,1.043,0.846,1.889,1.889,1.889h27.972c1.043,0,1.889-0.846,1.889-1.889v-17.571
						c0-1.043-0.846-1.889-1.889-1.889h-6.696C117.102,427.636,116.621,427.835,116.267,428.19z"/>
				</g>
			</g>
			<g id="_x30__5_">
				<path style="fill:#E6EAF0;" d="M47.748,257.574l-1.619,0c-0.897,0-1.624-0.727-1.624-1.624v-1.619
					c0-0.79-0.529-1.518-1.304-1.672c-1.041-0.207-1.962,0.594-1.962,1.6v1.691c0,0.897-0.727,1.624-1.624,1.624l-1.619,0
					c-0.79,0-1.518,0.529-1.672,1.304c-0.207,1.041,0.594,1.962,1.6,1.962h1.691c0.897,0,1.624,0.727,1.624,1.624v1.619
					c0,0.79,0.529,1.518,1.304,1.672c1.041,0.207,1.962-0.595,1.962-1.6v-1.691c0-0.897,0.727-1.624,1.624-1.624h1.691
					c1.006,0,1.807-0.922,1.6-1.962C49.266,258.103,48.538,257.574,47.748,257.574z"/>
			</g>
			<g id="_x30__6_">
				<path style="fill:#E6EAF0;" d="M431.81,151.064h-1.898c-1.051,0-1.903-0.852-1.903-1.903v-1.898c0-0.926-0.62-1.779-1.528-1.96
					c-1.22-0.242-2.3,0.697-2.3,1.876v1.982c0,1.051-0.852,1.903-1.903,1.903h-1.898c-0.926,0-1.779,0.62-1.96,1.528
					c-0.242,1.22,0.697,2.3,1.876,2.3h1.982c1.051,0,1.903,0.852,1.903,1.903v1.898c0,0.926,0.62,1.779,1.528,1.96
					c1.22,0.242,2.3-0.697,2.3-1.876v-1.982c0-1.051,0.852-1.903,1.903-1.903h1.982c1.179,0,2.118-1.08,1.876-2.3
					C433.589,151.684,432.736,151.064,431.81,151.064z"/>
			</g>
			<g id="cloud_3_">
				<path style="fill:#E6EAF0;" d="M181.899,70.262c-0.704,0-1.378,0.127-2.006,0.349c-0.649-3.23-2.889-5.881-5.868-7.108
					c0.115-0.904,0.181-1.823,0.181-2.758c0-11.92-9.663-21.583-21.583-21.583c-10.788,0-19.727,7.916-21.327,18.256
					c-0.883-0.196-1.8-0.303-2.743-0.303c-6.963,0-12.607,5.644-12.607,12.607s5.644,12.607,12.607,12.607h53.346
					c3.332,0,6.033-2.701,6.033-6.033C187.933,72.963,185.231,70.262,181.899,70.262z"/>
			</g>
			<g id="gear_9_">
				<path style="fill:#6F7082;" d="M276.382,437.676L276.382,437.676c-1.346-0.424-1.538-2.25-0.31-2.945v0
					c1.531-0.866,0.77-3.208-0.978-3.009c-1.402,0.16-2.32-1.43-1.481-2.565c1.046-1.414-0.602-3.244-2.117-2.352l0,0
					c-1.216,0.716-2.701-0.363-2.396-1.741l0,0c0.381-1.717-1.869-2.719-2.891-1.287l0,0c-0.82,1.149-2.615,0.768-2.897-0.616l0,0
					c-0.351-1.724-2.814-1.724-3.164,0l0,0c-0.281,1.383-2.077,1.765-2.897,0.616l0,0c-1.021-1.432-3.272-0.43-2.891,1.287l0,0
					c0.305,1.378-1.18,2.457-2.396,1.741c-1.516-0.893-3.164,0.938-2.117,2.352l0,0c0.84,1.135-0.078,2.724-1.481,2.565l0,0
					c-1.748-0.199-2.509,2.143-0.978,3.009v0c1.228,0.695,1.037,2.521-0.31,2.945l0,0c-1.678,0.529-1.42,2.978,0.331,3.147l0,0
					c1.405,0.135,1.972,1.881,0.915,2.816c-1.317,1.165-0.086,3.299,1.582,2.741l0,0c1.339-0.448,2.567,0.916,1.982,2.201l0,0
					c-0.729,1.6,1.263,3.048,2.56,1.86l0,0c1.041-0.953,2.718-0.207,2.705,1.204l0,0c-0.015,1.759,2.394,2.271,3.095,0.658
					c0.563-1.294,2.398-1.294,2.961,0c0.701,1.613,3.111,1.101,3.095-0.658l0,0c-0.012-1.411,1.665-2.158,2.705-1.204l0,0
					c1.297,1.188,3.29-0.259,2.56-1.86l0,0c-0.585-1.284,0.643-2.649,1.982-2.201l0,0c1.668,0.558,2.9-1.575,1.582-2.741l0,0
					c-1.057-0.935-0.49-2.681,0.915-2.816l0,0C277.802,440.654,278.06,438.204,276.382,437.676z M261.731,446.78
					c-5.086,0-9.208-4.122-9.208-9.208c0-5.085,4.123-9.208,9.208-9.208c5.085,0,9.208,4.123,9.208,9.208
					C270.939,442.658,266.816,446.78,261.731,446.78z"/>
			</g>
			<g id="gear_10_">
				<path style="fill:#35363B;" d="M93.296,91.999L93.296,91.999c-1.241-0.391-1.418-2.074-0.285-2.715v0
					c1.411-0.798,0.71-2.957-0.901-2.774c-1.293,0.147-2.139-1.318-1.365-2.364c0.964-1.303-0.555-2.99-1.952-2.168l0,0
					c-1.121,0.66-2.49-0.334-2.208-1.604l0,0c0.351-1.583-1.723-2.506-2.665-1.187l0,0c-0.756,1.059-2.411,0.707-2.67-0.567l0,0
					c-0.323-1.589-2.594-1.589-2.917,0l0,0c-0.259,1.275-1.915,1.627-2.67,0.567l0,0c-0.941-1.32-3.015-0.396-2.665,1.187l0,0
					c0.282,1.27-1.087,2.265-2.208,1.604c-1.397-0.823-2.916,0.864-1.952,2.168l0,0c0.774,1.046-0.072,2.511-1.365,2.364l0,0
					c-1.611-0.183-2.312,1.976-0.901,2.774v0c1.132,0.641,0.955,2.323-0.285,2.715l0,0c-1.546,0.488-1.309,2.745,0.305,2.901l0,0
					c1.295,0.125,1.818,1.734,0.843,2.596c-1.214,1.074-0.079,3.041,1.458,2.526l0,0c1.234-0.413,2.366,0.845,1.826,2.029l0,0
					c-0.672,1.475,1.164,2.81,2.36,1.714l0,0c0.959-0.879,2.505-0.191,2.494,1.11l0,0c-0.014,1.621,2.207,2.093,2.853,0.607
					c0.519-1.193,2.211-1.193,2.73,0c0.646,1.487,2.867,1.015,2.853-0.607l0,0c-0.011-1.301,1.535-1.989,2.494-1.11l0,0
					c1.195,1.095,3.032-0.239,2.36-1.714l0,0c-0.539-1.184,0.593-2.441,1.827-2.029l0,0c1.537,0.515,2.673-1.452,1.458-2.526l0,0
					c-0.974-0.862-0.451-2.471,0.843-2.596l0,0C94.605,94.744,94.842,92.486,93.296,91.999z M79.791,100.391
					c-4.688,0-8.487-3.8-8.487-8.488c0-4.687,3.8-8.487,8.487-8.487c4.687,0,8.487,3.8,8.487,8.487
					C88.279,96.591,84.479,100.391,79.791,100.391z"/>
			</g>
			<g id="ele_1_">
				<g>
					<g>
						<path style="fill:#E6EAF0;" d="M217.118,65.033L217.118,65.033c0,2.365,1.917,4.281,4.281,4.281h15.444
							c0.893,0,1.617,0.724,1.617,1.617l0,0c0,0.893-0.724,1.617-1.617,1.617h-2.275c-1.542,0-2.792,1.25-2.792,2.792v0.148
							c0,1.542,1.25,2.792,2.792,2.792h30.072c1.542,0,2.792-1.25,2.792-2.792l0,0c0-1.542-1.25-2.792-2.792-2.792h-20.507
							c-0.893,0-1.617-0.724-1.617-1.617v-0.148c0-0.893,0.724-1.617,1.617-1.617h8.708c2.365,0,4.281-1.917,4.281-4.281l0,0
							c0-2.364-1.917-4.281-4.281-4.281h-31.441C219.035,60.751,217.118,62.668,217.118,65.033z"/>
					</g>
					<path style="fill:#FFFFFF;" d="M223.991,65.032c0,1.472-1.194,2.666-2.666,2.666c-1.472,0-2.666-1.194-2.666-2.666
						c0-1.472,1.194-2.666,2.666-2.666C222.798,62.366,223.991,63.559,223.991,65.032z"/>
				</g>
			</g>
			<g>
				<path style="fill:#E6EAF0;" d="M450.095,331.983h-23.978c-0.877,0-1.595-0.718-1.595-1.595l0,0c0-0.877,0.718-1.595,1.595-1.595
					h23.978c0.877,0,1.595,0.718,1.595,1.595l0,0C451.69,331.266,450.972,331.983,450.095,331.983z"/>
				<path style="fill:#E6EAF0;" d="M456.876,338.008h-49.076c-0.877,0-1.595-0.718-1.595-1.595l0,0c0-0.877,0.718-1.595,1.595-1.595
					h49.076c0.877,0,1.595,0.718,1.595,1.595l0,0C458.471,337.29,457.753,338.008,456.876,338.008z"/>
			</g>
		</g>
	</g>
</g>
</svg>
