<?xml version="1.0" encoding="utf-8"?>
<!-- Generator: Adobe Illustrator 27.5.0, SVG Export Plug-In . SVG Version: 6.00 Build 0)  -->
<svg version="1.1" xmlns="http://www.w3.org/2000/svg" xmlns:xlink="http://www.w3.org/1999/xlink" x="0px" y="0px"
	 viewBox="0 0 500 500" style="enable-background:new 0 0 500 500;" xml:space="preserve">
<g id="Background">
	<rect style="fill:#FFFFFF;" width="500" height="500"/>
</g>
<g id="Objects">
	<g>
		<g>
			<g>
				<g id="cloud_2_">
					<path style="fill:#E6EAF0;" d="M159.544,212.146c0,5.3-4.3,9.6-9.61,9.6h-84.93c-11.09,0-20.08-8.98-20.08-20.07
						c0-11.08,8.99-20.07,20.08-20.07c1.5,0,2.96,0.17,4.36,0.48c2.37-15.29,14.82-27.26,30.35-28.87c1.18-0.14,2.39-0.2,3.61-0.2
						c8.96,0,17.11,3.43,23.23,9.04c6.85,6.28,11.14,15.31,11.14,25.33c0,1.49-0.11,2.95-0.29,4.39c4.74,1.95,8.31,6.17,9.34,11.32
						c1-0.36,2.07-0.56,3.19-0.56C155.244,202.536,159.544,206.836,159.544,212.146z"/>
				</g>
				<path style="fill:#C8CCD1;" d="M126.554,162.056l-5.49,59.69h-27.65l6.3-68.53c1.18-0.14,2.39-0.2,3.61-0.2
					C112.284,153.016,120.434,156.446,126.554,162.056z"/>
			</g>
			<g>
				<path style="fill:none;stroke:#C8CCD1;stroke-width:0.75;stroke-miterlimit:10;stroke-dasharray:2.1869,1.0935;" d="
					M201.926,121.932V96.753c0-4.279,3.469-7.748,7.748-7.748h117.652c4.279,0,7.748,3.469,7.748,7.748v51.893"/>
				
					<line style="fill:none;stroke:#C8CCD1;stroke-width:0.75;stroke-miterlimit:10;stroke-dasharray:2.1869,1.0935;" x1="226.574" y1="120.49" x2="226.574" y2="89.005"/>
				
					<line style="fill:none;stroke:#C8CCD1;stroke-width:0.75;stroke-miterlimit:10;stroke-dasharray:2.1869,1.0935;" x1="250" y1="120.49" x2="250" y2="89.005"/>
				
					<line style="fill:none;stroke:#C8CCD1;stroke-width:0.75;stroke-miterlimit:10;stroke-dasharray:2.1869,1.0935;" x1="272.937" y1="120.49" x2="272.937" y2="89.005"/>
			</g>
			<g id="Website_1_">
				<g>
					<g>
						<g>
							<path style="fill:#6F7082;" d="M293.724,130.06v218.88c0,5.28-4.29,9.57-9.58,9.57h-171.88c-5.29,0-9.58-4.29-9.58-9.57
								V130.06c0-5.28,4.29-9.57,9.58-9.57h171.88C289.434,120.49,293.724,124.78,293.724,130.06z"/>
							<g>
								<path style="fill:#34909D;" d="M277.865,130.228c0,1.948,1.579,3.527,3.527,3.527c1.948,0,3.527-1.579,3.527-3.527
									c0-1.948-1.579-3.527-3.527-3.527C279.444,126.702,277.865,128.281,277.865,130.228z"/>
								<path style="fill:#FFDA58;" d="M268.035,130.228c0,1.948,1.579,3.527,3.527,3.527s3.527-1.579,3.527-3.527
									c0-1.948-1.579-3.527-3.527-3.527S268.035,128.281,268.035,130.228z"/>
								<path style="fill:#BA0034;" d="M258.205,130.228c0,1.948,1.579,3.527,3.527,3.527s3.527-1.579,3.527-3.527
									c0-1.948-1.579-3.527-3.527-3.527S258.205,128.281,258.205,130.228z"/>
							</g>
						</g>
						<rect x="102.688" y="246.472" style="fill:#42444F;" width="191.036" height="58.899"/>
						<g>
							<rect x="263.974" y="140.185" style="fill:#42444F;" width="19.613" height="4.213"/>
							<rect x="240.371" y="140.185" style="fill:#42444F;" width="19.613" height="4.213"/>
							<rect x="216.768" y="140.185" style="fill:#42444F;" width="19.613" height="4.213"/>
							<rect x="193.165" y="140.185" style="fill:#42444F;" width="19.613" height="4.213"/>
						</g>
						<circle style="fill:#E6EAF0;" cx="122.076" cy="141.838" r="9.543"/>
						<path style="fill:#FFFFFF;" d="M279.769,215.153H116.642c-2.006,0-3.633-1.626-3.633-3.633v-50.358
							c0-2.007,1.627-3.633,3.633-3.633h163.128c2.006,0,3.633,1.626,3.633,3.633v50.358
							C283.402,213.527,281.776,215.153,279.769,215.153z"/>
						<g>
							<polygon style="fill:#55C0ED;" points="268.858,179.704 268.858,196.018 277.016,187.861 							"/>
							<polygon style="fill:#55C0ED;" points="119.395,187.861 127.552,196.018 127.552,179.704 							"/>
						</g>
						<g>
							<rect x="157.606" y="219.86" style="fill:#FFFFFF;" width="125.796" height="3.005"/>
							<rect x="157.606" y="225.914" style="fill:#FFFFFF;" width="125.796" height="3.005"/>
							<rect x="157.606" y="231.969" style="fill:#FFFFFF;" width="85.274" height="3.005"/>
						</g>
						<g>
							<rect x="112.717" y="219.86" style="fill:#FFFFFF;" width="37.643" height="3.005"/>
							<rect x="112.717" y="226.028" style="fill:#FFFFFF;" width="37.643" height="3.005"/>
							<rect x="112.717" y="232.197" style="fill:#FFFFFF;" width="37.643" height="3.005"/>
							<rect x="112.717" y="238.365" style="fill:#FFFFFF;" width="23.66" height="3.005"/>
						</g>
						<g>
							<rect x="112.717" y="312.16" style="fill:#55C0ED;" width="82.887" height="3.005"/>
							<rect x="112.717" y="318.329" style="fill:#55C0ED;" width="82.887" height="3.005"/>
							<rect x="112.717" y="324.497" style="fill:#FFFFFF;" width="82.887" height="3.005"/>
							<rect x="112.717" y="330.665" style="fill:#FFFFFF;" width="52.097" height="3.005"/>
						</g>
						<g>
							<rect x="201.028" y="312.16" style="fill:#FFFFFF;" width="82.886" height="3.005"/>
							<rect x="201.028" y="318.329" style="fill:#FFFFFF;" width="81.778" height="3.005"/>
							<rect x="201.028" y="324.497" style="fill:#FFFFFF;" width="41.46" height="3.005"/>
						</g>
						<path style="fill:#FFFFFF;" d="M148.095,299.201h-33.077c-1.338,0-2.422-1.085-2.422-2.422v-42.87
							c0-1.338,1.084-2.422,2.422-2.422h33.077c1.338,0,2.422,1.084,2.422,2.422v42.87
							C150.517,298.116,149.433,299.201,148.095,299.201z"/>
						<path style="fill:#FFFFFF;" d="M192.447,299.201h-33.077c-1.338,0-2.422-1.085-2.422-2.422v-42.87
							c0-1.338,1.085-2.422,2.422-2.422h33.077c1.338,0,2.422,1.084,2.422,2.422v42.87
							C194.87,298.116,193.785,299.201,192.447,299.201z"/>
						<path style="fill:#FFFFFF;" d="M236.8,299.201h-33.077c-1.338,0-2.422-1.085-2.422-2.422v-42.87
							c0-1.338,1.084-2.422,2.422-2.422H236.8c1.338,0,2.422,1.084,2.422,2.422v42.87
							C239.222,298.116,238.137,299.201,236.8,299.201z"/>
						<path style="fill:#FFFFFF;" d="M281.152,299.201h-33.077c-1.338,0-2.422-1.085-2.422-2.422v-42.87
							c0-1.338,1.084-2.422,2.422-2.422h33.077c1.338,0,2.422,1.084,2.422,2.422v42.87
							C283.574,298.116,282.49,299.201,281.152,299.201z"/>
						<g>
							<rect x="123.591" y="287.318" style="fill:#42444F;" width="22.854" height="2.963"/>
							<rect x="123.591" y="292.397" style="fill:#42444F;" width="15.443" height="2.963"/>
						</g>
						<g>
							<rect x="167.5" y="287.318" style="fill:#42444F;" width="22.854" height="2.963"/>
							<rect x="167.5" y="292.397" style="fill:#42444F;" width="15.443" height="2.963"/>
						</g>
						<g>
							<rect x="211.409" y="287.318" style="fill:#42444F;" width="22.854" height="2.963"/>
							<rect x="211.409" y="292.397" style="fill:#42444F;" width="15.443" height="2.963"/>
						</g>
						<g>
							<rect x="255.318" y="287.318" style="fill:#42444F;" width="22.854" height="2.963"/>
							<rect x="255.318" y="292.397" style="fill:#42444F;" width="15.443" height="2.963"/>
						</g>
						<path style="fill:#E6EAF0;" d="M293.723,340.189v8.752c0,5.284-4.289,9.573-9.578,9.573h-171.88
							c-5.288,0-9.578-4.289-9.578-9.573v-8.752H293.723z"/>
						<g>
							<rect x="168.932" y="344.235" style="fill:#42444F;" width="59.101" height="3.22"/>
							<rect x="184.601" y="350.326" style="fill:#42444F;" width="27.762" height="3.219"/>
						</g>
					</g>
				</g>
			</g>
			<g id="Artwork_4_2_" style="opacity:0.31;">
				<g>
					<path style="fill:#35363B;" d="M237.994,221.95h55.73v114.23h-55.73c-3.71,0-6.72-3.01-6.72-6.72V228.67
						C231.274,224.96,234.284,221.95,237.994,221.95z"/>
				</g>
			</g>
			<g id="gear_6_">
				<path style="fill:#42444F;" d="M366.133,205.145L366.133,205.145c-1.472-0.464-1.682-2.46-0.339-3.22v0
					c1.674-0.947,0.842-3.508-1.069-3.291c-1.533,0.175-2.537-1.564-1.619-2.804c1.144-1.546-0.658-3.548-2.315-2.571l0,0
					c-1.33,0.783-2.954-0.397-2.62-1.903l0,0c0.416-1.878-2.044-2.973-3.161-1.407l0,0c-0.896,1.257-2.86,0.839-3.167-0.673l0,0
					c-0.383-1.885-3.077-1.885-3.46,0l0,0c-0.308,1.512-2.271,1.93-3.167,0.673l0,0c-1.117-1.566-3.577-0.47-3.161,1.407l0,0
					c0.334,1.507-1.29,2.687-2.62,1.903c-1.657-0.976-3.459,1.025-2.315,2.571l0,0c0.918,1.241-0.086,2.979-1.619,2.804l0,0
					c-1.911-0.218-2.743,2.344-1.069,3.291v0c1.343,0.76,1.134,2.756-0.339,3.22l0,0c-1.834,0.578-1.553,3.257,0.362,3.441l0,0
					c1.536,0.148,2.156,2.057,1.001,3.08c-1.44,1.274-0.094,3.607,1.73,2.997l0,0c1.464-0.49,2.807,1.002,2.167,2.406l0,0
					c-0.798,1.75,1.381,3.333,2.799,2.034l0,0c1.138-1.043,2.972-0.226,2.958,1.317l0,0c-0.017,1.923,2.618,2.483,3.385,0.719
					c0.615-1.415,2.623-1.415,3.238,0c0.767,1.764,3.401,1.204,3.384-0.719l0,0c-0.013-1.543,1.82-2.36,2.958-1.317l0,0
					c1.418,1.299,3.597-0.284,2.799-2.034l0,0c-0.64-1.405,0.703-2.896,2.167-2.406l0,0c1.824,0.61,3.171-1.722,1.73-2.997l0,0
					c-1.156-1.023-0.535-2.932,1.001-3.08l0,0C367.686,208.402,367.967,205.724,366.133,205.145z M350.113,215.101
					c-5.561,0-10.069-4.508-10.069-10.068c0-5.561,4.508-10.068,10.069-10.068c5.56,0,10.068,4.508,10.068,10.068
					C360.181,210.593,355.673,215.101,350.113,215.101z"/>
			</g>
			<g>
				<g id="gear_7_">
					<path style="fill:#E6EAF0;" d="M336.91,220.52c-1.18-0.37-1.35-1.97-0.27-2.59c0.5-0.28,0.73-0.75,0.73-1.21
						c0-0.77-0.63-1.54-1.59-1.43c-0.9,0.1-1.58-0.62-1.58-1.41c0-0.28,0.08-0.58,0.28-0.84c0.92-1.25-0.53-2.85-1.86-2.07
						c-0.23,0.14-0.48,0.2-0.72,0.2c-0.85,0-1.59-0.79-1.39-1.73c0.03-0.12,0.04-0.23,0.04-0.34c0-1.29-1.75-1.95-2.58-0.79
						c-0.29,0.41-0.72,0.59-1.14,0.59c-0.63,0-1.25-0.41-1.4-1.13c-0.15-0.76-0.77-1.14-1.39-1.14s-1.24,0.38-1.39,1.14
						c-0.15,0.72-0.77,1.13-1.4,1.13c-0.43,0-0.86-0.18-1.15-0.59c-0.3-0.42-0.72-0.6-1.13-0.6c-0.82,0-1.63,0.72-1.41,1.73
						c0.02,0.11,0.04,0.22,0.04,0.32c0,1.05-1.17,1.78-2.14,1.21c-1.33-0.78-2.78,0.82-1.86,2.07c0.2,0.26,0.28,0.55,0.28,0.83
						c0,0.79-0.67,1.52-1.58,1.42c-0.06-0.01-0.12-0.01-0.18-0.01c-0.25,0-0.47,0.06-0.66,0.17c-0.89,0.47-1.09,1.88-0.02,2.48
						c0.49,0.28,0.72,0.76,0.72,1.24c0,0.57-0.34,1.15-0.99,1.35c-0.68,0.21-1,0.78-1,1.35c0,0.67,0.45,1.34,1.29,1.42
						c0.79,0.08,1.28,0.74,1.28,1.42c0,0.38-0.15,0.76-0.48,1.05c-1.16,1.03-0.08,2.9,1.39,2.41c0.16-0.05,0.31-0.08,0.46-0.08
						c0.3,0,0.58,0.1,0.81,0.27c0.52,0.37,0.78,1.07,0.47,1.74c-0.09,0.21-0.14,0.41-0.14,0.61c0,1.12,1.42,1.92,2.39,1.03
						c0.28-0.26,0.62-0.38,0.95-0.38c0.74,0,1.44,0.58,1.43,1.44c0,0.01,0,0.01,0,0.02c0,1.52,2.1,1.96,2.72,0.56
						c0.49-1.14,2.11-1.14,2.6,0c0.62,1.41,2.73,0.96,2.72-0.58v-0.01c0-1.23,1.46-1.89,2.38-1.05c0.29,0.27,0.62,0.38,0.94,0.38
						c0.94,0,1.79-0.97,1.31-2.02c-0.09-0.2-0.13-0.4-0.13-0.59c0-0.91,0.9-1.66,1.87-1.34c0.16,0.06,0.32,0.08,0.48,0.08
						c0.77,0,1.36-0.65,1.39-1.37c0.03-0.39-0.11-0.8-0.48-1.12c-0.33-0.29-0.48-0.67-0.48-1.05c0-0.68,0.49-1.34,1.28-1.42
						c0.84-0.08,1.29-0.75,1.29-1.42C337.91,221.3,337.59,220.73,336.91,220.52z M324.04,228.52c-1.07,0-2.1-0.21-3.03-0.58
						c-2.97-1.2-5.06-4.11-5.06-7.51c0-2.09,0.8-4,2.09-5.43c1.48-1.63,3.62-2.66,6-2.66c1.98,0,3.79,0.7,5.19,1.89
						c1.77,1.47,2.9,3.7,2.9,6.2c0,3-1.63,5.62-4.06,7.02C326.89,228.13,325.51,228.52,324.04,228.52z"/>
				</g>
				<g>
					<path style="fill:#D2D6DB;" d="M321.01,227.94l-6.09,0.42c-0.23-0.17-0.51-0.27-0.81-0.27c-0.15,0-0.3,0.03-0.46,0.08
						c-1.47,0.49-2.55-1.38-1.39-2.41c0.33-0.29,0.48-0.67,0.48-1.05c0-0.68-0.49-1.34-1.28-1.42c-0.84-0.08-1.29-0.75-1.29-1.42
						c0-0.57,0.32-1.14,1-1.35c0.65-0.2,0.99-0.78,0.99-1.35c0-0.48-0.23-0.96-0.72-1.24c-1.07-0.6-0.87-2.01,0.02-2.48l6.58-0.45
						c-1.29,1.43-2.09,3.34-2.09,5.43C315.95,223.83,318.04,226.74,321.01,227.94z"/>
					<path style="fill:#D2D6DB;" d="M337.91,221.87c0,0.67-0.45,1.34-1.29,1.42c-0.79,0.08-1.28,0.74-1.28,1.42
						c0,0.38,0.15,0.76,0.48,1.05c0.37,0.32,0.51,0.73,0.48,1.12l-8.23,0.57c2.43-1.4,4.06-4.02,4.06-7.02c0-2.5-1.13-4.73-2.9-6.2
						l4.97-0.35c0,0.79,0.68,1.51,1.58,1.41c0.96-0.11,1.59,0.66,1.59,1.43c0,0.46-0.23,0.93-0.73,1.21
						c-1.08,0.62-0.91,2.22,0.27,2.59C337.59,220.73,337.91,221.3,337.91,221.87z"/>
				</g>
			</g>
			<g id="Artwork_4_1_">
				<g>
					<path style="fill:#E6EAF0;" d="M420.096,330.751H243.727c-3.71,0-6.718-3.008-6.718-6.718V223.235
						c0-3.71,3.008-6.718,6.718-6.718h176.369c3.71,0,6.718,3.008,6.718,6.718v100.798
						C426.814,327.743,423.806,330.751,420.096,330.751z"/>
					<g>
						<circle style="fill:#34909D;" cx="416.226" cy="225.028" r="3.408"/>
						<circle style="fill:#F8B85E;" cx="406.125" cy="225.028" r="3.408"/>
						<path style="fill:#BA0034;" d="M399.433,225.028c0,1.882-1.526,3.408-3.408,3.408c-1.882,0-3.408-1.526-3.408-3.408
							s1.526-3.408,3.408-3.408C397.907,221.62,399.433,223.146,399.433,225.028z"/>
					</g>
				</g>
			</g>
			<text transform="matrix(1 0 0 1 300.2772 273.4318)" style="fill:#42444F; font-family:'BebasNeueBold'; font-size:51.7613px;">cms</text>
			<g id="gear_5_">
				<path style="fill:#6F7082;" d="M354.451,176.635c0.439-0.39,0.713-0.632,1.152-1.022c0.126-0.915,0.19-1.85,0.19-2.799
					c0-0.951-0.064-1.886-0.19-2.803c-0.439-0.39-0.713-0.633-1.152-1.022h-3.896c-0.835-0.559-1.459-0.976-2.294-1.535
					l-0.013-0.031c0.197-0.986,0.344-1.723,0.54-2.708l2.75-2.749c0.047-0.566,0.077-0.932,0.123-1.498
					c-1.149-1.525-2.506-2.882-4.031-4.033c-0.567,0.046-0.932,0.076-1.499,0.122l-2.751,2.751c-0.987,0.196-1.724,0.343-2.711,0.54
					l-0.03-0.012c-0.559-0.836-0.976-1.46-1.534-2.295v-3.898c-0.39-0.439-0.633-0.713-1.022-1.152c-0.915-0.126-1.85-0.19-2.8-0.19
					c-0.951,0-1.886,0.064-2.803,0.19c-0.39,0.439-0.633,0.713-1.022,1.152v3.969c-0.534,0.799-0.933,1.397-1.467,2.196l-0.097,0.04
					c-0.987-0.196-1.724-0.343-2.71-0.539l-2.752-2.752c-0.567-0.046-0.932-0.076-1.499-0.122c-1.524,1.151-2.882,2.509-4.028,4.034
					c0.047,0.566,0.077,0.931,0.124,1.497l2.749,2.749c0.196,0.987,0.343,1.724,0.54,2.711l-0.04,0.096
					c-0.8,0.535-1.397,0.934-2.196,1.468h-3.965c-0.439,0.39-0.713,0.633-1.152,1.022c-0.126,0.917-0.19,1.852-0.19,2.803
					c0,0.95,0.064,1.885,0.19,2.799c0.439,0.39,0.713,0.632,1.152,1.022h3.965c0.8,0.534,1.397,0.934,2.196,1.468l0.04,0.097
					c-0.196,0.987-0.343,1.724-0.54,2.711l-2.749,2.749c-0.047,0.566-0.077,0.931-0.124,1.497c1.147,1.525,2.504,2.883,4.028,4.033
					c0.567-0.046,0.932-0.076,1.499-0.122l2.752-2.752c0.987-0.196,1.724-0.342,2.711-0.538l0.033,0.013
					c0.557,0.835,0.974,1.458,1.531,2.293v3.898c0.39,0.439,0.633,0.713,1.022,1.152c0.917,0.126,1.852,0.19,2.803,0.19
					c0.95,0,1.885-0.064,2.8-0.19c0.39-0.439,0.633-0.713,1.022-1.152v-3.969c0.534-0.799,0.933-1.396,1.467-2.196l0.097-0.04
					c0.987,0.196,1.724,0.343,2.711,0.539l2.752,2.752c0.566,0.047,0.932,0.077,1.498,0.123c1.525-1.149,2.882-2.507,4.031-4.031
					c-0.046-0.566-0.076-0.932-0.122-1.497l-2.751-2.753c-0.196-0.985-0.343-1.722-0.539-2.707l0.013-0.032
					c0.835-0.559,1.459-0.976,2.294-1.535H354.451z M335.283,176.95c-2.286,0-4.139-1.853-4.139-4.138
					c0-2.286,1.853-4.139,4.139-4.139c2.285,0,4.138,1.853,4.138,4.139C339.421,175.098,337.568,176.95,335.283,176.95z"/>
			</g>
			<g id="file_copy_1_">
				<g>
					<g>
						<rect x="279.449" y="388.38" style="fill:#CCD0D6;" width="27.693" height="36.138"/>
						<rect x="273.687" y="382.618" style="fill:#DBDFE6;" width="27.693" height="36.138"/>
						<rect x="267.535" y="376.466" style="fill:#E6EAF0;" width="27.693" height="36.138"/>
					</g>
					<polygon style="opacity:0.26;fill:#35363B;" points="307.143,405.23 267.536,405.23 267.536,405.658 307.143,407.145 					"/>
					<rect x="266.183" y="400.261" style="fill:#FFFFFF;" width="41.697" height="4.97"/>
				</g>
			</g>
			<g id="Artwork_3_1_">
				<g>
					<g>
						<path style="fill:#55C0ED;" d="M103.48,268.023c-4.915,4.915-12.882,4.915-17.797,0c-4.914-4.914-4.914-12.882,0-17.797
							c4.915-4.915,12.882-4.915,17.797,0C108.395,255.14,108.395,263.108,103.48,268.023z"/>
						<path style="fill:#E6EAF0;" d="M72.612,275.676l18.929-18.929c1.597-1.597,4.186-1.597,5.782,0l0,0
							c1.597,1.597,1.597,4.186,0,5.782l-14.45,14.45l9.648,9.648c2.926,2.926,2.926,7.671,0,10.597l-11.385,11.385
							c-0.988,0.988-2.328,1.543-3.725,1.543l0,0c-1.397,0-2.737,0.555-3.725,1.543l-1.998,1.998c-2.684,2.684-7.036,2.684-9.72,0
							l-5.991-5.991c-2.684-2.684-2.684-7.036,0-9.72l1.562-1.562c0.988-0.988,1.543-2.328,1.543-3.725v-2.287
							c0-0.366,0.038-0.731,0.114-1.089l4.796-22.7l0,0c4.039,0.192,7.43,3.109,8.223,7.075L72.612,275.676z"/>
					</g>
					
						<rect x="80.385" y="276.387" transform="matrix(0.7071 0.7072 -0.7072 0.7071 221.4852 24.712)" style="fill:#6F7082;" width="1.06" height="6.601"/>
					
						<rect x="85.011" y="281.013" transform="matrix(0.7071 0.7071 -0.7071 0.7071 226.094 22.7866)" style="fill:#6F7082;" width="1.06" height="6.601"/>
					
						<rect x="89.637" y="285.638" transform="matrix(0.7071 0.7071 -0.7071 0.7071 230.7199 20.8705)" style="fill:#6F7082;" width="1.06" height="6.601"/>
				</g>
			</g>
			<g>
				<g id="pencil_edit_1_">
					<g>
						<g>
							<path style="fill:#D9DFE6;" d="M226.558,372.27L226.558,372.27c3.154,3.154,3.154,8.267,0,11.421l-36.099,36.099l-4.95,0
								h-6.471l0-11.422l36.099-36.099C218.291,369.116,223.404,369.116,226.558,372.27z"/>
							<polygon style="fill:#42444F;" points="225.612,384.636 190.568,419.68 179.148,408.261 211.157,376.252 214.189,373.217 
															"/>
							<polygon style="fill:#42444F;" points="179.038,413.319 185.509,419.79 179.038,419.79 							"/>
						</g>
					</g>
				</g>
				<g id="paragraph_2_">
					<g>
						<g>
							<rect x="102.953" y="375.133" style="fill:#42444F;" width="20.982" height="2.98"/>
							<rect x="126.756" y="375.133" style="fill:#42444F;" width="22.347" height="2.98"/>
							<rect x="150.558" y="375.133" style="fill:#42444F;" width="18.551" height="2.98"/>
							<rect x="102.953" y="393.081" style="fill:#42444F;" width="17.894" height="2.98"/>
							<rect x="122.663" y="393.081" style="fill:#42444F;" width="15.978" height="2.98"/>
							<polygon style="fill:#42444F;" points="167.694,396.001 140.096,396.062 140.096,393.081 167.694,393.021 							"/>
							<rect x="102.953" y="381.116" style="fill:#42444F;" width="11.292" height="2.98"/>
							<rect x="117.066" y="381.116" style="fill:#42444F;" width="43.983" height="2.98"/>
							<rect x="163.87" y="381.116" style="fill:#42444F;" width="6.591" height="2.98"/>
							<rect x="102.953" y="387.099" style="fill:#42444F;" width="20.982" height="2.98"/>
							<rect x="125.751" y="387.099" style="fill:#42444F;" width="18.28" height="2.98"/>
							<rect x="146.851" y="387.099" style="fill:#42444F;" width="15.825" height="2.98"/>
						</g>
						<g>
							<rect x="102.953" y="398.92" style="fill:#42444F;" width="20.982" height="2.98"/>
							<rect x="126.756" y="398.92" style="fill:#42444F;" width="22.347" height="2.98"/>
							<rect x="150.558" y="398.92" style="fill:#42444F;" width="18.551" height="2.98"/>
							<rect x="102.953" y="416.868" style="fill:#42444F;" width="17.894" height="2.98"/>
							<rect x="122.663" y="416.868" style="fill:#42444F;" width="15.978" height="2.98"/>
							<polygon style="fill:#42444F;" points="177.496,419.788 140.096,419.849 140.096,416.868 177.496,416.808 							"/>
							<rect x="102.953" y="404.903" style="fill:#42444F;" width="11.292" height="2.98"/>
							<rect x="117.066" y="404.903" style="fill:#42444F;" width="43.983" height="2.98"/>
							<rect x="163.87" y="404.903" style="fill:#42444F;" width="6.591" height="2.98"/>
							<rect x="102.953" y="410.886" style="fill:#42444F;" width="20.982" height="2.98"/>
							<rect x="125.751" y="410.886" style="fill:#42444F;" width="18.28" height="2.98"/>
							<rect x="146.851" y="410.886" style="fill:#42444F;" width="15.825" height="2.98"/>
						</g>
					</g>
				</g>
			</g>
			<g>
				<path style="fill:none;stroke:#42444F;stroke-width:2.1869;stroke-miterlimit:10;stroke-dasharray:2.1869,1.0935;" d="
					M85.335,393.049v-60.305c0-5.912,4.793-10.705,10.705-10.705h6.596"/>
				<path style="fill:none;stroke:#42444F;stroke-width:0.9078;stroke-miterlimit:10;" d="M90.329,398.313
					c0,2.767-2.243,5.01-5.01,5.01c-2.767,0-5.01-2.243-5.01-5.01c0-2.767,2.243-5.01,5.01-5.01
					C88.086,393.303,90.329,395.546,90.329,398.313z"/>
				<path style="fill:#42444F;" d="M87.464,398.313c0,1.184-0.96,2.144-2.144,2.144c-1.184,0-2.144-0.96-2.144-2.144
					s0.96-2.144,2.144-2.144C86.504,396.169,87.464,397.129,87.464,398.313z"/>
			</g>
			<path style="fill:none;stroke:#42444F;stroke-width:2.1869;stroke-miterlimit:10;stroke-dasharray:2.1869,1.0935;" d="
				M326.953,356.656v28.099c0,8.76-7.102,15.862-15.862,15.862l0,0"/>
			
				<line style="fill:none;stroke:#42444F;stroke-width:2.1869;stroke-miterlimit:10;stroke-dasharray:2.1869,1.0935;" x1="266.345" y1="400.806" x2="212.995" y2="400.806"/>
			<path style="fill:#BDC1C9;" d="M154.09,115.817H61.352c-4.787,0-8.668-3.881-8.668-8.668V83.582c0-4.787,3.881-8.668,8.668-8.668
				h92.737c4.787,0,8.668,3.881,8.668,8.668v23.567C162.758,111.936,158.877,115.817,154.09,115.817z"/>
			<path style="fill:#E6EAF0;" d="M154.09,114.817H61.352c-4.787,0-8.668-3.881-8.668-8.668V82.582c0-4.787,3.881-8.668,8.668-8.668
				h92.737c4.787,0,8.668,3.881,8.668,8.668v23.567C162.758,110.936,158.877,114.817,154.09,114.817z"/>
			<text transform="matrix(1 0 0 1 73.9241 106.7213)" style="fill:#6F7082; font-family:'BebasNeueBold'; font-size:35.8169px;">www</text>
			<g>
				<g>
					<g>
						<path style="fill:#D7DBE0;" d="M366.4,282.94v5.97c0,1.4-1.13,2.53-2.52,2.53h-60.09c-0.12,0-0.24-0.01-0.36-0.03
							c-1.23-0.17-2.17-1.22-2.17-2.5v-5.97c0-1.4,1.13-2.53,2.53-2.53h60.09c1.26,0,2.31,0.94,2.49,2.16
							C366.39,282.69,366.4,282.81,366.4,282.94z"/>
						<path style="fill:#FFFFFF;" d="M366.4,282.94v5.97c0,1.4-1.13,2.53-2.52,2.53h-60.09c-0.12,0-0.24-0.01-0.36-0.03
							c-0.02-0.12-0.03-0.24-0.03-0.36v-5.98c0-1.39,1.13-2.53,2.52-2.53h60.09c0.12,0,0.24,0.01,0.36,0.03
							C366.39,282.69,366.4,282.81,366.4,282.94z"/>
					</g>
					<g>
						<path style="fill:#D7DBE0;" d="M366.4,298.376v5.97c0,1.4-1.13,2.53-2.52,2.53h-60.09c-0.12,0-0.24-0.01-0.36-0.03
							c-1.23-0.17-2.17-1.22-2.17-2.5v-5.97c0-1.4,1.13-2.53,2.53-2.53h60.09c1.26,0,2.31,0.94,2.49,2.16
							C366.39,298.126,366.4,298.246,366.4,298.376z"/>
						<path style="fill:#FFFFFF;" d="M366.4,298.376v5.97c0,1.4-1.13,2.53-2.52,2.53h-60.09c-0.12,0-0.24-0.01-0.36-0.03
							c-0.02-0.12-0.03-0.24-0.03-0.36v-5.98c0-1.39,1.13-2.53,2.52-2.53h60.09c0.12,0,0.24,0.01,0.36,0.03
							C366.39,298.126,366.4,298.246,366.4,298.376z"/>
					</g>
				</g>
				<g>
					<path style="fill:#6F7082;" d="M322.68,287.152c0,0.698-0.566,1.264-1.264,1.264c-0.698,0-1.264-0.566-1.264-1.264
						c0-0.698,0.566-1.264,1.264-1.264C322.114,285.889,322.68,286.454,322.68,287.152z"/>
					<path style="fill:#6F7082;" d="M329.511,287.152c0,0.698-0.566,1.264-1.264,1.264c-0.698,0-1.264-0.566-1.264-1.264
						c0-0.698,0.566-1.264,1.264-1.264C328.945,285.889,329.511,286.454,329.511,287.152z"/>
					<path style="fill:#6F7082;" d="M336.342,287.152c0,0.698-0.566,1.264-1.264,1.264c-0.698,0-1.264-0.566-1.264-1.264
						c0-0.698,0.566-1.264,1.264-1.264C335.776,285.889,336.342,286.454,336.342,287.152z"/>
					<path style="fill:#6F7082;" d="M343.173,287.152c0,0.698-0.566,1.264-1.264,1.264c-0.698,0-1.264-0.566-1.264-1.264
						c0-0.698,0.566-1.264,1.264-1.264C342.608,285.889,343.173,286.454,343.173,287.152z"/>
					<path style="fill:#6F7082;" d="M350.004,287.152c0,0.698-0.566,1.264-1.264,1.264c-0.698,0-1.264-0.566-1.264-1.264
						c0-0.698,0.566-1.264,1.264-1.264C349.439,285.889,350.004,286.454,350.004,287.152z"/>
				</g>
				<g>
					<path style="fill:#6F7082;" d="M322.68,301.908c0,0.698-0.566,1.264-1.264,1.264c-0.698,0-1.264-0.566-1.264-1.264
						s0.566-1.264,1.264-1.264C322.114,300.644,322.68,301.21,322.68,301.908z"/>
					<circle style="fill:#6F7082;" cx="328.247" cy="301.908" r="1.264"/>
					<path style="fill:#6F7082;" d="M336.342,301.908c0,0.698-0.566,1.264-1.264,1.264c-0.698,0-1.264-0.566-1.264-1.264
						s0.566-1.264,1.264-1.264C335.776,300.644,336.342,301.21,336.342,301.908z"/>
					<path style="fill:#6F7082;" d="M343.173,301.908c0,0.698-0.566,1.264-1.264,1.264c-0.698,0-1.264-0.566-1.264-1.264
						s0.566-1.264,1.264-1.264C342.608,300.644,343.173,301.21,343.173,301.908z"/>
					<path style="fill:#6F7082;" d="M350.004,301.908c0,0.698-0.566,1.264-1.264,1.264c-0.698,0-1.264-0.566-1.264-1.264
						s0.566-1.264,1.264-1.264C349.439,300.644,350.004,301.21,350.004,301.908z"/>
				</g>
			</g>
			<path style="fill:#C8CCD1;" d="M336.567,149.528c0,0.824-0.668,1.493-1.493,1.493s-1.493-0.668-1.493-1.493
				c0-0.825,0.668-1.493,1.493-1.493S336.567,148.703,336.567,149.528z"/>
			<g id="Mouse_cursor_move_1_">
				<g>
					<g id="mouse_cursor_4_">
						<path style="fill:#42444F;" d="M339.717,334.285l-27.807-16.9l10.081,30.939c0.708,2.174,3.6,2.594,4.898,0.713l2.727-3.952
							c0.385-0.558,1.201-0.584,1.62-0.051l3.073,3.903c0.689,0.875,1.958,1.024,2.831,0.333l0,0
							c0.87-0.689,1.018-1.951,0.332-2.823l-3.085-3.918c-0.418-0.531-0.205-1.315,0.424-1.561l4.479-1.752
							C341.418,338.383,341.671,335.472,339.717,334.285z"/>
					</g>
				</g>
			</g>
			<g id="Document_2_">
				<g id="Artwork_6_4_">
					<g>
						<g>
							<path style="fill:#35363B;" d="M427.193,158.545h-40.868v-69.54h30.384c4.094,4.094,6.389,6.39,10.484,10.484V158.545z"/>
							<g>
								<rect x="392.167" y="98.015" style="fill:#42444F;" width="29.23" height="2.001"/>
								<rect x="392.167" y="102.987" style="fill:#42444F;" width="29.23" height="2.001"/>
								<rect x="392.167" y="107.958" style="fill:#42444F;" width="29.23" height="2.001"/>
								<rect x="392.167" y="112.929" style="fill:#42444F;" width="29.23" height="2.001"/>
								<rect x="392.167" y="117.901" style="fill:#42444F;" width="29.23" height="2.001"/>
								<rect x="392.167" y="122.872" style="fill:#42444F;" width="17.205" height="2.001"/>
							</g>
							<g>
								<rect x="392.167" y="132.874" style="fill:#42444F;" width="29.23" height="2.001"/>
								<rect x="392.167" y="137.846" style="fill:#42444F;" width="29.23" height="2.001"/>
								<rect x="392.167" y="142.817" style="fill:#42444F;" width="29.23" height="2.001"/>
								<rect x="392.167" y="147.788" style="fill:#42444F;" width="17.205" height="2.001"/>
							</g>
							<path style="fill:#27282B;" d="M427.193,99.489H416.71V89.005l0,0C420.804,93.099,423.099,95.395,427.193,99.489
								L427.193,99.489z"/>
						</g>
						<g>
							<path style="fill:#E6EAF0;" d="M414.031,170.582h-40.868v-69.54h30.384c4.094,4.094,6.389,6.39,10.484,10.484V170.582z"/>
							<g>
								<rect x="379.004" y="110.052" style="fill:#42444F;" width="29.23" height="2"/>
								<rect x="379.004" y="115.024" style="fill:#42444F;" width="29.23" height="2"/>
								<rect x="379.004" y="119.995" style="fill:#42444F;" width="29.23" height="2"/>
								<rect x="379.004" y="124.966" style="fill:#42444F;" width="29.23" height="2"/>
								<rect x="379.004" y="129.938" style="fill:#42444F;" width="29.23" height="2"/>
								<rect x="379.004" y="134.909" style="fill:#42444F;" width="17.205" height="2"/>
							</g>
							<g>
								<rect x="379.004" y="144.911" style="fill:#42444F;" width="29.23" height="2"/>
								<rect x="379.004" y="149.883" style="fill:#42444F;" width="29.23" height="2"/>
								<rect x="379.004" y="154.854" style="fill:#42444F;" width="29.23" height="2"/>
								<rect x="379.004" y="159.825" style="fill:#42444F;" width="17.205" height="2"/>
							</g>
							<path style="fill:#E6EAF0;" d="M414.031,111.526h-10.484v-10.484l0,0C407.641,105.136,409.936,107.432,414.031,111.526
								L414.031,111.526z"/>
						</g>
					</g>
				</g>
			</g>
			<g id="photo_image_picture_1_">
				<g>
					<path style="fill:#E6EAF0;" d="M423.274,408.021h-66.528c-1.665,0-3.015-1.35-3.015-3.015v-41.597
						c0-1.665,1.35-3.015,3.015-3.015h66.528c1.665,0,3.015,1.35,3.015,3.015v41.597
						C426.289,406.671,424.939,408.021,423.274,408.021z"/>
					<path style="fill:#6F7082;" d="M424.673,363.75v34.579c0,0.67-0.549,1.219-1.219,1.219h-66.893
						c-0.67,0-1.206-0.549-1.206-1.219V363.75c0-0.67,0.536-1.219,1.206-1.219h66.893
						C424.124,362.531,424.673,363.081,424.673,363.75z"/>
					<path style="fill:#42444F;" d="M424.673,392.139v6.19c0,0.671-0.549,1.219-1.219,1.219h-29.314l-4.126-15.34l1.594-1.594
						l10.652-10.664c0.613-0.614,1.609-0.614,2.222-0.001L424.673,392.139z"/>
					<polygon style="fill:#35363B;" points="414.317,399.548 394.141,399.548 390.014,384.208 391.609,382.614 					"/>
					<path style="fill:#42444F;" d="M407.377,399.548h-50.816c-0.666,0-1.206-0.54-1.206-1.206v-14.429l17.017-16.251
						c1.127-1.076,2.909-1.044,3.997,0.072L407.377,399.548z"/>
					<rect x="410.141" y="402.248" style="fill:#6F7082;" width="14.468" height="1.78"/>
					<rect x="404.93" y="402.248" style="fill:#6F7082;" width="3.659" height="1.78"/>
					<rect x="394.912" y="402.248" style="fill:#6F7082;" width="8.925" height="1.78"/>
				</g>
			</g>
		</g>
		<circle style="fill:#6F7082;" cx="417.23" cy="190.489" r="2.68"/>
		<path style="fill:#E6EAF0;" d="M336.632,415.173c0,1.252-1.015,2.268-2.267,2.268c-1.252,0-2.267-1.015-2.267-2.268
			c0-1.252,1.015-2.267,2.267-2.267C335.617,412.906,336.632,413.921,336.632,415.173z"/>
		<circle style="fill:#6F7082;" cx="305.506" cy="361.579" r="1.855"/>
		<path style="fill:#6F7082;" d="M64.95,341.172c0,1.594-1.292,2.886-2.886,2.886s-2.886-1.292-2.886-2.886s1.292-2.886,2.886-2.886
			S64.95,339.578,64.95,341.172z"/>
		<path style="fill:#6F7082;" d="M48.459,241.61c0,1.48-1.2,2.68-2.68,2.68c-1.48,0-2.68-1.2-2.68-2.68s1.2-2.68,2.68-2.68
			C47.259,238.93,48.459,240.13,48.459,241.61z"/>
		<path style="fill:#E6EAF0;" d="M80.203,133.803c0,1.366-1.107,2.474-2.474,2.474c-1.366,0-2.473-1.107-2.473-2.474
			c0-1.366,1.107-2.473,2.473-2.473C79.096,131.329,80.203,132.436,80.203,133.803z"/>
		<path style="fill:#6F7082;" d="M184.094,99.172c0,0.911-0.738,1.649-1.649,1.649c-0.911,0-1.649-0.738-1.649-1.649
			c0-0.911,0.738-1.649,1.649-1.649C183.356,97.523,184.094,98.262,184.094,99.172z"/>
		<path style="fill:#E6EAF0;" d="M311.484,126.382c0,1.138-0.923,2.061-2.061,2.061c-1.138,0-2.061-0.923-2.061-2.061
			c0-1.138,0.923-2.061,2.061-2.061C310.561,124.321,311.484,125.243,311.484,126.382z"/>
		<path style="fill:#6F7082;" d="M360.131,81.033c0,1.822-1.477,3.298-3.298,3.298s-3.298-1.477-3.298-3.298
			c0-1.821,1.477-3.298,3.298-3.298S360.131,79.211,360.131,81.033z"/>
		<g id="_x30__29_">
			<path style="fill:#6F7082;" d="M241.311,427.902h-2.125c-1.177,0-2.131-0.954-2.131-2.131v-2.125
				c0-1.037-0.694-1.993-1.711-2.194c-1.366-0.271-2.576,0.78-2.576,2.101v2.219c0,1.177-0.954,2.131-2.131,2.131h-2.125
				c-1.037,0-1.993,0.694-2.194,1.711c-0.271,1.366,0.78,2.576,2.1,2.576h2.219c1.177,0,2.131,0.954,2.131,2.131v2.125
				c0,1.037,0.695,1.993,1.711,2.194c1.366,0.271,2.576-0.78,2.576-2.101v-2.219c0-1.177,0.954-2.131,2.131-2.131h2.219
				c1.32,0,2.372-1.21,2.101-2.576C243.303,428.597,242.348,427.902,241.311,427.902z"/>
		</g>
		<g id="_x30__30_">
			<path style="fill:none;stroke:#6F7082;stroke-miterlimit:10;" d="M311.939,67.608h-1.247c-0.691,0-1.251-0.56-1.251-1.251v-1.247
				c0-0.609-0.408-1.169-1.005-1.288c-0.802-0.159-1.512,0.458-1.512,1.233v1.302c0,0.691-0.56,1.251-1.251,1.251h-1.247
				c-0.609,0-1.17,0.408-1.288,1.005c-0.159,0.802,0.458,1.512,1.233,1.512h1.302c0.691,0,1.251,0.56,1.251,1.251v1.247
				c0,0.608,0.408,1.169,1.005,1.288c0.802,0.159,1.512-0.458,1.512-1.233v-1.302c0-0.691,0.56-1.251,1.251-1.251h1.302
				c0.775,0,1.392-0.71,1.233-1.512C313.109,68.015,312.548,67.608,311.939,67.608z"/>
		</g>
	</g>
</g>
</svg>
